<svg xmlns="http://www.w3.org/2000/svg" viewBox="0 0 381.62 514.44"><defs><style>.cls-1{fill:#9c7540;}.cls-2{fill:#d1ae80;}.cls-3{fill:#145476;}.cls-4{fill:#d33219;}.cls-5,.cls-6{fill:#1d1d1d;}.cls-20,.cls-22,.cls-5,.cls-6{stroke:#252a3d;}.cls-13,.cls-14,.cls-15,.cls-17,.cls-19,.cls-20,.cls-21,.cls-22,.cls-23,.cls-25,.cls-26,.cls-27,.cls-28,.cls-30,.cls-33,.cls-5,.cls-6,.cls-8{stroke-miterlimit:10;}.cls-22,.cls-5,.cls-6{stroke-width:0.25px;}.cls-5,.cls-8{opacity:0.85;}.cls-7{fill:#d9b885;}.cls-13,.cls-14,.cls-17,.cls-19,.cls-20,.cls-21,.cls-22,.cls-23,.cls-25,.cls-26,.cls-27,.cls-28,.cls-33,.cls-8{fill:none;}.cls-8{stroke:#1d1d1d;}.cls-13,.cls-14,.cls-17,.cls-21,.cls-27,.cls-33,.cls-8{stroke-width:2px;}.cls-9{fill:#eb7b4d;}.cls-10{fill:#472d23;}.cls-11{fill:#412523;}.cls-12,.cls-29{fill:#995e3c;}.cls-13,.cls-19,.cls-23{stroke:#a54a22;}.cls-14{stroke:#f6cea6;}.cls-15{fill:#ef795f;stroke-width:0.75px;}.cls-15,.cls-17,.cls-26{stroke:#d33219;}.cls-16{fill:#f5cda5;}.cls-17{opacity:0.66;}.cls-18{fill:#e3d8d3;}.cls-21,.cls-25,.cls-28{stroke:#995e3c;}.cls-23{stroke-width:3px;}.cls-24,.cls-30{fill:#a54a22;}.cls-25,.cls-29{opacity:0.23;}.cls-27,.cls-30{stroke:#a64a22;}.cls-31{fill:#da0f19;}.cls-32{fill:#fdc406;}.cls-33{stroke:#e39402;}</style></defs><g id="Ebene_2" data-name="Ebene 2"><path class="cls-1" d="M508.42,418.11s21.91.39,38.69,65.59C547.11,483.7,579,412.31,508.42,418.11Z" transform="translate(-176.63 -114.33)"/><path class="cls-2" d="M297.53,619.68S514.08,286.17,544.84,476c0,0-26.27-48.94-97.78,17.25L337.39,607.75Z" transform="translate(-176.63 -114.33)"/><path class="cls-3" d="M400.86,311.94s1.6,52.94,114.76,97.37c0,0,68.92,12.69,31.49,74.93,0,0,29.77-67-33.19-66.17,0,0-34-1.76-73.17,58.65l-103.36,131-47.05,21s-92.68-12.83-67.89-26.06c9.45-5-38.93-58.1-13.69-74.18V388.22Z" transform="translate(-176.63 -114.33)"/><path class="cls-4" d="M297.74,590.73l36.74-38.91s-32.62-138.07-61.1-133.75C273.38,418.07,210.33,546.06,297.74,590.73Z" transform="translate(-176.63 -114.33)"/><path class="cls-5" d="M279.55,420.63s-77.25,58.38,7,182.08l13.24-14.18S241.06,546.78,279.55,420.63Z" transform="translate(-176.63 -114.33)"/><path class="cls-6" d="M258.14,602.49l23.74,5.26s-51.2-45.11-59.43-91.6C222.45,516.15,211.28,561.53,258.14,602.49Z" transform="translate(-176.63 -114.33)"/><path class="cls-7" d="M273.38,418.07s-120,73.23,8.5,189.68l15.86-17S234.88,544.21,273.38,418.07Z" transform="translate(-176.63 -114.33)"/><line class="cls-8" x1="105.25" y1="493.42" x2="142.85" y2="452.22"/><path class="cls-6" d="M248.7,233.93s-30.76,12.12-30.11,43.51c0,0,16.1,203.86,109.59,143.5Z" transform="translate(-176.63 -114.33)"/><path id="cara" class="cls-9" d="M307.68,179.48s80.45-17.34,87.38,64c0,0,11.18,78.23-52.79,145.66,0,0-44.31,52.41-80.92-11.56,0,0-8.09-16.57-11.56-41.23,0,0-13.87-11.94-10-26.59l-.67-13.87s-3.76-15.41,0-53.18C239.1,242.67,236.1,188.34,307.68,179.48Z" transform="translate(-176.63 -114.33)"/><g id="barba"><path class="cls-10" d="M390.4,227.51l4.31,14.33-9.88,5.73s16.62,45.81-9.11,77.51c0,0,1.9,15.84-19.59,25.7l-9.81,10s-5.86,3.23,0,10.6c0,0-3,28.49-29.7,29.59,0,0-15.33,6.73-20.34,17.3,0,0-20.48.48-24.09-5.57,0,0,3.4-14.64-7.17-15.89,0,0-13.56-14.57-7.77-27.33,0,0,.35-21.89-18.12-22.37,0,0-1.82-42.5-9.39-42.17,0,0-6.55-3.21,0-15.3,0,0,5.27-9-2.91-11.29a11,11,0,0,0,2.41-11.7l-2.41-5.34,13.9-25.38S213.1,251.45,212.6,265c0,0-49.29,40.5-27.66,82.1,0,0-13.52,24.26,1.08,49.7,0,0-20,34.63-1.62,55.72,0,0-6,21.64,14.06,42.19,0,0,17.31,52.46,12.44,66,0,0,6-112.84,45.71-127.64,0,0,17.19,16.77,12.24,30.29,0,0-16.56,37.86,9,61.12,0,0,20,44.89,6.56,46.51,0,0,22.31,3.24-4.23-54.09,0,0-15.65-30.28,15.14-44.89l-.17,20s-12.44,29.74-4,40.56c0,0-2.52-14.06,5.13-18.39l10.86,15.14s-2.32,18.3-8.67,19.47l11.3-2.16s-.57,16.23-20.24,30.29c0,0,28.45,13,61.18-51.92l7.46-13s8.36,24.34-38.09,61.65l-4.62,6.49S395,552,380.56,489.83c0,0,15.79-14.06,9.33-41.64,0,0,22.75-17,14.63-42.83,0,0,8.12-18.15,8.66,15.58,0,0,8.65-15.48,0-39.28,0,0,14.06,10.95,26,6.56,0,0-24.34-2.83-21.1-16.86,0,0,9.74-6.07,18.93-19,0,0-2.16,23.33,19.47,23.88,0,0,18.93,8.16,21.64,15.17,0,0-10.28-23.35-25.42-22,0,0-18.93-6.66-1.62-24.54C451,344.92,470.3,300.24,390.4,227.51Z" transform="translate(-176.63 -114.33)"/><path class="cls-11" d="M239.13,238.82S214.3,248.58,212.6,265c0,0-40,31.3-27.66,82.1,0,0-11.85,38.48,6.17,49.7,0,0-14.31-64.7,35.61-114.71C226.72,282.08,224.07,263.5,239.13,238.82Z" transform="translate(-176.63 -114.33)"/><path class="cls-11" d="M375.72,325.08s7.28,12.82,0,19.84c0,0,22.15,38.92,13,76,0,0-6.57-59.52-18.08-71.84C370.61,349.1,377.75,334.36,375.72,325.08Z" transform="translate(-176.63 -114.33)"/><path class="cls-11" d="M239.13,347.09s-1.53,3.66-6.86,25.85c0,0-37.08,132.17-20,171.45C212.3,544.39,176.19,410.84,239.13,347.09Z" transform="translate(-176.63 -114.33)"/><path class="cls-11" d="M394.71,241.84s44.65,31.22,52.35,95.42c0,0-4.4,21.79-5.14,13.52-4.57-51.44-57.09-103.21-57.09-103.21Z" transform="translate(-176.63 -114.33)"/></g><path class="cls-12" d="M277.75,280.47s-2.29,4.8,3.48,13.11h0s-15.32,24.1-38.83-1.14c0,0-9.18-12.1,3.22-16.63,0,0,7.45-2.85,32.13,4.66" transform="translate(-176.63 -114.33)"/><path class="cls-6" d="M279.35,276.86s-2.3,3.41,3.48,9.31h0s-15.32,17.12-38.83-.81c0,0-9.18-8.59,3.22-11.81,0,0,7.44-2,32.13,3.31" transform="translate(-176.63 -114.33)"/><path class="cls-12" d="M278.8,389.85c-9.54,2.89,17.43,29.53,39.44,5.65C318.24,395.5,297.89,384.07,278.8,389.85Z" transform="translate(-176.63 -114.33)"/><path class="cls-4" d="M372.17,307.25c0,11.06-8.54,20.9-20,20-10.79-.83-17.67-10-20-20-2.5-10.76,10.14-8.74,21.19-8.74S372.17,296.2,372.17,307.25Z" transform="translate(-176.63 -114.33)"/><path class="cls-13" d="M327.16,297.91s11.81,43.42,40.07,24.65c0,0,2.9-.57,7-18.6" transform="translate(-176.63 -114.33)"/><path class="cls-12" d="M347.66,275.46s4.94,2.77,5.35,6.66c.13,1.29-6.07,2.18-5.35,3.84l-.87,1.82s-16.67,25.71-40.18.46c0,0-9.18-12.09,3.22-16.62,0,0,7.38-2.36,31.84,1.79" transform="translate(-176.63 -114.33)"/><path class="cls-14" d="M303.36,227.51s18.23-12,38.63-1.09" transform="translate(-176.63 -114.33)"/><path class="cls-14" d="M300.65,240.25s10.33-7.95,21.21-2.74c0,0,3,2,8,.49,0,0,11.78-7.35,20.87,4" transform="translate(-176.63 -114.33)"/><path class="cls-12" d="M267.06,336.2s.65,7.7-2.63,12.9c0,0-5.77,16.22,6.17,14.12,0,0-4.81,10.76-3.78,13,0,0-2.66,12.07,6.79,15.22,0,0,9.06-10.11,7.48-13.12l-.39-2.23a8.58,8.58,0,0,0,7.23-1.71,13.22,13.22,0,0,1,9.6-.52s9,1.7,13.6,0c0,0,3.67-.53,12.46-7,0,0-43.16-4.33-50-14.52,0,0,.79-3.38,26-10.24,0,0-27.4-13.81-32.53-5.94" transform="translate(-176.63 -114.33)"/><g id="boca"><path class="cls-6" d="M328,349.1s-28.55,11.59-52.93,4.35c0,0,.57,4.42,6.28,6,0,0,27.81,3.72,42.79-4.33C324.12,355.1,327.57,354.42,328,349.1Z" transform="translate(-176.63 -114.33)"/><path class="cls-15" d="M287.93,354.65s8.55-7.42,23.44-2.27c0,0,13.39.13,18.47-7.46,0,0-1.43,11.18-20.07,11.42,0,0-8.43-1.69-21.84,1.44,0,0-10.19.72-12.88-4.33l-2.69-5.05,4.51,4.78A26.06,26.06,0,0,1,287.93,354.65Z" transform="translate(-176.63 -114.33)"/><path class="cls-16" d="M311.17,359.43l4.87-.15a2.5,2.5,0,0,0,2.5-2.51v-3.43c0-1.39,0-2.87-2.5-2.51h-4.82a2.52,2.52,0,0,0-2.31,2.71l.24,3.15C309.15,358.07,308.64,359.1,311.17,359.43Z" transform="translate(-176.63 -114.33)"/><path class="cls-16" d="M285.07,362.19l-4.29-.15a2.5,2.5,0,0,1-2.5-2.51V356.1c0-1.39,0-2.87,2.5-2.51h3.44a2.5,2.5,0,0,1,2.5,2.51l.26,3.56C287,361,287.6,361.85,285.07,362.19Z" transform="translate(-176.63 -114.33)"/><path class="cls-16" d="M293.64,361.21s7.23.52,8.09-.52v-4.78s.42-2.48-3-1.83l-3.8-.11a2.59,2.59,0,0,0-1.3,2.7Z" transform="translate(-176.63 -114.33)"/><path class="cls-15" d="M332.14,352.38s-3.32,10-15.52,17.7c-4,2.55-4.63,4.12-19.05,1.55,0,0-5.26-2.86-12.18.51,0,0-19.05,4-12.81-14.32h3.5s.64,6.62,11.85,4.94C287.93,362.76,320.32,363.51,332.14,352.38Z" transform="translate(-176.63 -114.33)"/><path class="cls-17" d="M276.08,362.66s-.4,10.21,11.85,5.62" transform="translate(-176.63 -114.33)"/><path class="cls-17" d="M304.78,371s5.57,5.5,22.38-10.27" transform="translate(-176.63 -114.33)"/></g><path class="cls-18" d="M316.62,281.56s6.35-12.44,17.84-2.23a18.9,18.9,0,0,0,8.61,2.23S324,298.15,316.62,281.56Z" transform="translate(-176.63 -114.33)"/><path class="cls-18" d="M276.08,284.75s-12.44-11.8-22.32,0C253.76,284.75,265.88,302.93,276.08,284.75Z" transform="translate(-176.63 -114.33)"/><path class="cls-6" d="M272.58,286.79c0,3.34-3.13,6-7,6s-7.65-4.14-7.65-7.47,2.37-5.85,6.22-5.85S272.58,283.46,272.58,286.79Z" transform="translate(-176.63 -114.33)"/><path class="cls-6" d="M334.48,282.74c0,3.34-3.13,6-7,6s-7.65-4.14-7.65-7.47,2.37-5.85,6.22-5.85S334.48,279.41,334.48,282.74Z" transform="translate(-176.63 -114.33)"/><path class="cls-6" d="M358.17,275.3s-7.95,9.18-16.5.94c0,0-7.27,3.18-15.3-3.56,0,0-11.33,5.29-13.65,9.44-1.05,1.86-7.72,4.71-5-6.88,0,0,3.63-4.19,19.48-10.25,0,0,4.51,12.46,15.91,3.71C343.07,268.7,348.07,277.87,358.17,275.3Z" transform="translate(-176.63 -114.33)"/><path class="cls-11" d="M334.48,252.54c4.68-5.6-28.79,9.08-28.79,9.08s-5.95,3.86-3.57,7.72c0,0,3.27,4.17,8.62,0C310.74,269.34,329.84,258.08,334.48,252.54Z" transform="translate(-176.63 -114.33)"/><path class="cls-11" d="M264.92,274.42s16.82,1.94,5.11-9.43c0,0-2.62-4.18-16.27-4.23h-12.3L237.57,265l3.34,2.66,1.37,3.54S244.29,272.62,264.92,274.42Z" transform="translate(-176.63 -114.33)"/><path class="cls-13" d="M241.39,241.84s10.28-13.61,33.66-3.05a80.35,80.35,0,0,0,28.08-4s38.73-16.19,55,3.54c0,0,11.58,9,14.71-14.21" transform="translate(-176.63 -114.33)"/><path class="cls-19" d="M302.66,243.72a16.92,16.92,0,0,1,17.42-1.88" transform="translate(-176.63 -114.33)"/><path class="cls-20" d="M261.19,261.29" transform="translate(-176.63 -114.33)"/><path class="cls-13" d="M374.25,246s-9.08,27-25.13,4.76c-8.66-12-29.27-3.34-29.27-3.34-10.14-4.68-22.21,3.82-22.21,3.82-4.36-3.81-13.75-4.44-16.34-1.26-5.11,6.24-16.38,1.26-16.38,1.26a17.44,17.44,0,0,0-15.55,1.37" transform="translate(-176.63 -114.33)"/><path class="cls-12" d="M321.81,247.29s20.39-1.86,23.31,4c0,0,16.55,28.24,28.4-1.73,0,0-11.07,22.32-24.4,1.25C349.12,250.79,338.51,238.74,321.81,247.29Z" transform="translate(-176.63 -114.33)"/><path class="cls-21" d="M298.47,225.3s18.86-24.6,46.79-2.19" transform="translate(-176.63 -114.33)"/><path class="cls-21" d="M254.19,214.14s-8.31,16.15,5.79,18.67" transform="translate(-176.63 -114.33)"/><path class="cls-12" d="M261.19,211.24s-8.27,20.73,15.45,20.82c0,0,10.27.75,2.05-5.69,0,0-9.8-2.9-8.31-16.43C270.38,209.94,265.64,204.8,261.19,211.24Z" transform="translate(-176.63 -114.33)"/><path class="cls-12" d="M281.88,209.56s-5.62,6.45,6.33,15.74c0,0-4.1-16.07,7.1-17.3C295.31,208,285.81,201,281.88,209.56Z" transform="translate(-176.63 -114.33)"/><path class="cls-22" d="M242.76,255.83" transform="translate(-176.63 -114.33)"/><path class="cls-19" d="M242.76,255.83s-2.44-9.74,7.3-10.35c0,0,10.68-1.83,14.86,5.79" transform="translate(-176.63 -114.33)"/><path class="cls-13" d="M382.09,245.29c-6,30.79-23.92,30-23.92,30" transform="translate(-176.63 -114.33)"/><path class="cls-19" d="M360.66,278.29s18.37.42,19.9-1.43" transform="translate(-176.63 -114.33)"/><path class="cls-19" d="M347.66,280.91s14.53-1.29,16.94,5.26" transform="translate(-176.63 -114.33)"/><path class="cls-13" d="M362.85,282.12s14.65-1,12.68,6.66" transform="translate(-176.63 -114.33)"/><path class="cls-13" d="M316.62,314.55s7.76,2.44,13.22,14.19c0,0,8.9,13.71,17.82,13" transform="translate(-176.63 -114.33)"/><path class="cls-12" d="M278.28,289.76s-1,6.69,0,10.55c0,0-5.39,5.5-4.1,17.16,0,0-.14,9.94-5.22,16.38l-3.7,3.41s6.91-4.51,8.35-2.16C273.61,335.1,296.12,275.56,278.28,289.76Z" transform="translate(-176.63 -114.33)"/><path class="cls-13" d="M324.27,331.23a46.3,46.3,0,0,0,19.62,21.15" transform="translate(-176.63 -114.33)"/><path class="cls-23" d="M297.06,250.56s-6.44,22.12,8.62,25.68" transform="translate(-176.63 -114.33)"/><path class="cls-12" d="M302.73,281.56l4.32,34.2s21.9,8.61,4.62,17.61l-8.94,2.47s16.94,6,18-.74c0,0,13-19.1-11-23.49C309.77,311.61,308.8,280.14,302.73,281.56Z" transform="translate(-176.63 -114.33)"/><g id="nariz"><ellipse class="cls-6" cx="108.35" cy="220.77" rx="6.18" ry="3.87"/><path class="cls-6" d="M309.19,332.61s-.5-5.13-7-3.58c0,0-7,1.71-1.08,5.2,0,0,2.83,2.78,8.65,1" transform="translate(-176.63 -114.33)"/><path class="cls-19" d="M295.14,253.77s-9.29,6.49-4,20.65" transform="translate(-176.63 -114.33)"/><path class="cls-12" d="M279.72,281.44s2.32.13,3.84-2.77c0,0,2.74-8.37,10.81,0,0,0,14.13,9.45,9.88-1.82,0,0,4.68,1.22.06,6.83,0,0-4.06,1.38-14.78-4.49a2.52,2.52,0,0,0-2.83.32S281,283.75,279.72,281.44Z" transform="translate(-176.63 -114.33)"/><path class="cls-9" d="M286.72,340.42s-6.2,5.41-11.67-3c0,0-3.24-6.55,0-11.89l5.79,5.76S276.75,336.17,286.72,340.42Z" transform="translate(-176.63 -114.33)"/><path class="cls-24" d="M286.72,340.42A18.52,18.52,0,0,1,276.9,335c-2.17-2.24-3.75-6.67-1.48-9.91,0,0,6.94,3.33,6,4.83C280.17,331.86,277.53,337.26,286.72,340.42Z" transform="translate(-176.63 -114.33)"/><path class="cls-9" d="M276.08,255s7.29,2.66,4,19.43c0,0-3.26,5.92,2.73,11.75,0,0-6,12.63,0,16.72,0,0-2.66,1.36-3.38,8.16,0,0-11.87,15,3.38,21.23a24.82,24.82,0,0,1,2.18,1.57c1.13.93,2.3,2.09,2.44,3,0,0,2.14,4.63,10.19,3.27l9.41-2.45s-15.24-6.8-3.54-9c0,0,5.71-.27,6.26,6.53,0,0,9.28,4.36,10.08-4.08,0,0,2.71-14.42-10.35-16.87,0,0-2.18,3.82-4.9-30.48,0,0,4.9-4.51-.28-8.38,0,0-10.06.21-9.25-20.47l2.57-3.72S298.46,256.08,276.08,255Z" transform="translate(-176.63 -114.33)"/><path class="cls-16" d="M294.18,285.36s7.21-.11,8.09,25.69c0,0-2.73,1.75,2.51,6.34,0,0-2.4,14.42-7.21-4.92,0,0,0-2.41-5.9-2.84C291.67,309.63,288.28,299.9,294.18,285.36Z" transform="translate(-176.63 -114.33)"/><path class="cls-16" d="M302.49,275.46s1.2,1.92-1.75,1.26c0,0-6.89-1.21-7.71-16,0,0,1.2-1.29,2.11-.15C295.14,260.61,294.73,272.33,302.49,275.46Z" transform="translate(-176.63 -114.33)"/><path class="cls-25" d="M294.5,312.59s-13.4-6.6-18.42,4.88c0,0-4.6,9.6,5.15,14.07a16.94,16.94,0,0,0,9.47,2.11s4.76-.92,6.06,6.65" transform="translate(-176.63 -114.33)"/></g><path class="cls-13" d="M278.8,384.42s33.27-1.13,37.82.64c0,0,20.14-1.66,17.86-27.4" transform="translate(-176.63 -114.33)"/><path class="cls-26" d="M279.72,386.34" transform="translate(-176.63 -114.33)"/><path class="cls-14" d="M279.72,386.34S315.6,386.18,316,388c0,0,17.08-1.29,20.94-17.67" transform="translate(-176.63 -114.33)"/><path class="cls-4" d="M240.73,302.68s19.1-5.12,24.53,14.08c0,0-2.25,16.27-14.41,12,0,0-10.12.1-10.12-13C240.73,315.76,241.17,320.6,240.73,302.68Z" transform="translate(-176.63 -114.33)"/><path class="cls-16" d="M254.65,318.54c0,3.28-.7,5.61-4,5.61s-7.91-2.33-7.91-5.61,1.92-7.74,5.21-7.74S254.65,315.25,254.65,318.54Z" transform="translate(-176.63 -114.33)"/><path class="cls-11" d="M253.76,284.75s-4,4-2.11,11.09" transform="translate(-176.63 -114.33)"/><path class="cls-11" d="M255.87,288.2s-3.07,4.75-1.22,8.94" transform="translate(-176.63 -114.33)"/><path class="cls-11" d="M261.39,292s-2.76,5.1-.91,9.29" transform="translate(-176.63 -114.33)"/><path class="cls-11" d="M258.18,290.1s-2.78,4.51-.93,8.7" transform="translate(-176.63 -114.33)"/><path class="cls-11" d="M264.14,292.83s-1.45,7.18,0,11.13" transform="translate(-176.63 -114.33)"/><path class="cls-11" d="M267.29,292.68s-2,6.36,4,12.24" transform="translate(-176.63 -114.33)"/><path class="cls-11" d="M270.55,291.23s-1.21,6.13,5.53,8.89" transform="translate(-176.63 -114.33)"/><path class="cls-11" d="M273.61,288.78a6.59,6.59,0,0,0,4.23,5.75" transform="translate(-176.63 -114.33)"/><path class="cls-11" d="M253.76,283.49s-6.75-.23-9.8-8" transform="translate(-176.63 -114.33)"/><path class="cls-11" d="M257.25,281.56s-7.92-1.73-8.55-8.24" transform="translate(-176.63 -114.33)"/><path class="cls-11" d="M259.57,279.51s-2.91-1.19-4.61-6.34" transform="translate(-176.63 -114.33)"/><path class="cls-11" d="M263,278.78s-4.77-4.06-2.56-7.59" transform="translate(-176.63 -114.33)"/><path class="cls-11" d="M267,279.51s-3.92-5.32-.66-7.25" transform="translate(-176.63 -114.33)"/><path class="cls-11" d="M270.47,281.06s-3.64-5.45,0-7.89" transform="translate(-176.63 -114.33)"/><path class="cls-11" d="M273.28,282.61s-3-3.32.9-5.75" transform="translate(-176.63 -114.33)"/><path class="cls-11" d="M316.62,281.56s-6.45,4.74-6.85,7.22" transform="translate(-176.63 -114.33)"/><path class="cls-11" d="M317.73,285.17s-4.55,3.89-4.54,8.37" transform="translate(-176.63 -114.33)"/><path class="cls-11" d="M320.78,288.2a17.32,17.32,0,0,0-4.81,7.64" transform="translate(-176.63 -114.33)"/><path class="cls-11" d="M323.59,289.36s-4.5,8-2.81,15.56" transform="translate(-176.63 -114.33)"/><path class="cls-11" d="M327.5,288.78s-2.78,11.12-1.06,16.14" transform="translate(-176.63 -114.33)"/><path class="cls-11" d="M329.84,288.93s-.87,8.12,2,11.19" transform="translate(-176.63 -114.33)"/><path class="cls-11" d="M334.08,287.57s-.27,7.2,1.82,9.57" transform="translate(-176.63 -114.33)"/><path class="cls-11" d="M337,286.17s.5,6.48,2.71,7.45" transform="translate(-176.63 -114.33)"/><path class="cls-11" d="M340.69,283.84s-.4,4.18,2.38,6.05" transform="translate(-176.63 -114.33)"/><path class="cls-11" d="M343.07,283.36s.08,2.57,3.25,4.21" transform="translate(-176.63 -114.33)"/><path class="cls-11" d="M316.62,279.51a18.38,18.38,0,0,1-9.89-8.32" transform="translate(-176.63 -114.33)"/><path class="cls-11" d="M319.85,276.86s-5.68-3.45-6.12-8.36" transform="translate(-176.63 -114.33)"/><path class="cls-11" d="M319.21,264.1c.7,7.82,4.38,10.32,4.38,10.32" transform="translate(-176.63 -114.33)"/><path class="cls-11" d="M326.07,275.46s-1.66-2.13,1.09-10.47" transform="translate(-176.63 -114.33)"/><path class="cls-11" d="M331.82,276.86s-2.23-3.2.79-9.21" transform="translate(-176.63 -114.33)"/><path class="cls-11" d="M337,279.51a10,10,0,0,1,1.36-9.29" transform="translate(-176.63 -114.33)"/><path class="cls-11" d="M340.67,280.81s-3.38-3,1-7.4" transform="translate(-176.63 -114.33)"/><path class="cls-27" d="M344.69,266.63s-8.38-15.22-22.69-3.31" transform="translate(-176.63 -114.33)"/><path class="cls-28" d="M374.06,225.06c-3.13,23.19-14.71,14.21-14.71,14.21-16.32-19.73-55-3.53-55-3.53a80.47,80.47,0,0,1-28.08,4c-23.38-10.56-33.66,3.05-33.66,3.05" transform="translate(-176.63 -114.33)"/><path class="cls-29" d="M289.34,334.16c1-.08,3-.11,3.8.47,1.45,1,2.47,2.28,3.14,5.69,0,0-5.64,1.45-8.83-3.42,0,0,.13-1.34-3.05-3.53A19.79,19.79,0,0,0,289.34,334.16Z" transform="translate(-176.63 -114.33)"/><path class="cls-23" d="M280.56,253.77s10.78,1.75,17.08-2.5" transform="translate(-176.63 -114.33)"/><path class="cls-30" d="M240.73,310.05s-4.57,13,10.3,25.79c0,0,2.71,34.2,16,48.3,0,0-10.88-16.45-9.73-42.4a20.62,20.62,0,0,0,8-4.48s-6.12,2.89-9.39,1.72v-3.14S239.05,327.66,240.73,310.05Z" transform="translate(-176.63 -114.33)"/><path class="cls-31" d="M389.89,167.85s-14-25.4-28.5-26.3c0,0-23-15.42-26.91-12.7,0,0-7.69-9.07-12.62-8.77,0,0-23.26-16-30.62,5.44,0,0-3.93,19.65,0,23Z" transform="translate(-176.63 -114.33)"/><path class="cls-32" d="M408,245.29s-32.08-35.29-61.69-40c0,0-28.25-4.71-45.22,1.34,0,0-12.59,2.67-23.26,1.37,0,0-36-2.25-38.71,30.82,0,0-11.75-12.95,35.05-77.93,0,0,7.84-16.5,13.75-15.31,0,0,4.23-8.83,43.89,5.87,0,0,25.41,10.11,40.35,11.49,0,0,22.28.92,25,7.81,0,0,15.62,5.05,12.86,10.56,0,0,4.22,4.49-6.89,26.69C403.18,208,407.32,217.38,408,245.29Z" transform="translate(-176.63 -114.33)"/><path class="cls-33" d="M391.86,213.69s13,0,18-28.68" transform="translate(-176.63 -114.33)"/><path class="cls-33" d="M390.67,185s-2.18,3.2,0,9.11c0,0,1.78,4.52-2,12.24" transform="translate(-176.63 -114.33)"/><path class="cls-11" d="M335.9,564.66S371,537.3,358.8,492.49c0,0,5-59.2-32.92-88.66C325.88,403.83,429,481.72,335.9,564.66Z" transform="translate(-176.63 -114.33)"/><path class="cls-11" d="M229.74,304.92s-37.12,5.74-42,140.82C187.77,445.74,193.17,337.59,229.74,304.92Z" transform="translate(-176.63 -114.33)"/><path class="cls-11" d="M269.72,398.83s-44.29,47-27,89.18c0,0,18.69,38.3-24.18,41.21,0,0,40,17.45,40.53-34.91C259.11,494.31,235.25,454.63,269.72,398.83Z" transform="translate(-176.63 -114.33)"/><path class="cls-11" d="M300.91,574.7c-13.43,14.55,49.68-29.24,37.45-74,0,0,2.31-50.26-35.63-79.72C302.73,420.94,349,522.56,300.91,574.7Z" transform="translate(-176.63 -114.33)"/><path class="cls-11" d="M277.84,524.45s-.94,3.51-3-35.63c-1-19.05,3.74-49.49,18.86-66.77C311.4,401.77,237.43,462.48,277.84,524.45Z" transform="translate(-176.63 -114.33)"/><path class="cls-11" d="M390.92,289.36s38.24,12,39.64,80.1c0,0-.19,15.14,16.5,15.6,0,0-8.47,4.87-26.28-19C420.78,366.06,423.24,330.49,390.92,289.36Z" transform="translate(-176.63 -114.33)"/></g></svg>