<svg xmlns="http://www.w3.org/2000/svg" viewBox="0 0 301.45 465.82"><defs><style>.cls-1{fill:#1d1d1d;stroke:#252a3d;stroke-width:0.25px;}.cls-1,.cls-11,.cls-13,.cls-14,.cls-15,.cls-17,.cls-18,.cls-19,.cls-21,.cls-24,.cls-7,.cls-8,.cls-9{stroke-miterlimit:10;}.cls-2{fill:#eb7b4d;}.cls-3{fill:#472d23;}.cls-4{fill:#412523;}.cls-20,.cls-5{fill:#995e3c;}.cls-6{fill:#d33219;}.cls-11,.cls-13,.cls-14,.cls-15,.cls-17,.cls-18,.cls-19,.cls-24,.cls-7,.cls-8{fill:none;}.cls-13,.cls-15,.cls-7{stroke:#a54a22;}.cls-11,.cls-14,.cls-18,.cls-24,.cls-7,.cls-8{stroke-width:2px;}.cls-8{stroke:#f6cea6;}.cls-9{fill:#ef795f;stroke-width:0.75px;}.cls-11,.cls-9{stroke:#d33219;}.cls-10{fill:#f5cda5;}.cls-11{opacity:0.66;}.cls-12{fill:#e3d8d3;}.cls-14,.cls-17,.cls-19{stroke:#995e3c;}.cls-15{stroke-width:3px;}.cls-16,.cls-21{fill:#a54a22;}.cls-17,.cls-20{opacity:0.23;}.cls-18,.cls-21{stroke:#a64a22;}.cls-22{fill:#da0f19;}.cls-23{fill:#fdc406;}.cls-24{stroke:#e39402;}</style></defs><g id="Ebene_2" data-name="Ebene 2"><g id="Ebene_2-2" data-name="Ebene 2"><path class="cls-1" d="M72.07,119.6S41.31,131.71,42,163.11c0,0,16.1,203.86,109.59,143.5Z"/><path id="cara" class="cls-2" d="M131.05,65.15s80.45-17.34,87.39,64c0,0,11.17,78.23-52.8,145.66,0,0-44.31,52.41-80.92-11.56,0,0-8.09-16.57-11.56-41.23,0,0-13.87-11.94-10-26.59l-.67-13.87s-3.76-15.41,0-53.18C62.47,128.34,59.47,74,131.05,65.15Z"/><g id="barba"><path class="cls-3" d="M213.77,113.18l4.31,14.33-9.88,5.73s16.62,45.81-9.11,77.51c0,0,1.9,15.84-19.59,25.7l-9.81,10s-5.86,3.23,0,10.6c0,0-3,28.49-29.7,29.59,0,0-15.33,6.73-20.34,17.3,0,0-20.48.48-24.09-5.57,0,0,3.41-14.64-7.16-15.89,0,0-13.57-14.57-7.78-27.33,0,0,.35-21.89-18.11-22.37,0,0-1.83-42.5-9.39-42.17,0,0-6.56-3.21,0-15.3,0,0,5.26-9-2.92-11.29a11,11,0,0,0,2.41-11.7L50.2,147l13.9-25.38S36.47,137.12,36,150.66c0,0-49.29,40.5-27.66,82.1,0,0-13.52,24.26,1.08,49.7,0,0-20,34.63-1.62,55.72,0,0-5.95,21.64,14.06,42.19,0,0,17.31,52.46,12.44,66,0,0,6-112.84,45.72-127.64,0,0,17.18,16.77,12.23,30.29,0,0-16.55,37.86,9,61.12,0,0,20,44.89,6.56,46.51,0,0,22.31,3.24-4.23-54.09,0,0-15.65-30.28,15.14-44.89l-.17,20s-12.44,29.74-4,40.56c0,0-2.52-14.06,5.13-18.39L130.51,415s-2.32,18.3-8.67,19.47l11.3-2.16s-.57,16.23-20.24,30.29c0,0,28.45,13,61.18-51.92l7.46-13s8.36,24.33-38.08,61.65l-4.63,6.49s79.54-28.12,65.1-90.32c0,0,15.8-14.06,9.33-41.64,0,0,22.75-17,14.64-42.83,0,0,8.11-18.15,8.65,15.58,0,0,8.65-15.48,0-39.28,0,0,14.06,10.95,26,6.56,0,0-24.34-2.83-21.09-16.86,0,0,9.73-6.07,18.93-19,0,0-2.17,23.33,19.47,23.88,0,0,18.93,8.16,21.63,15.17,0,0-10.28-23.35-25.42-22,0,0-18.93-6.66-1.62-24.54C274.41,230.59,293.67,185.91,213.77,113.18Z"/><path class="cls-4" d="M62.51,124.49S37.67,134.25,36,150.66c0,0-40,31.3-27.66,82.1,0,0-11.85,38.48,6.17,49.7,0,0-14.31-64.7,35.61-114.71C50.09,167.75,47.45,149.17,62.51,124.49Z"/><path class="cls-4" d="M199.09,210.75s7.28,12.82,0,19.84c0,0,22.15,38.92,13,76,0,0-6.57-59.52-18.07-71.84C194,234.77,201.12,220,199.09,210.75Z"/><path class="cls-4" d="M62.51,232.76s-1.53,3.66-6.86,25.85c0,0-37.09,132.17-20,171.45C35.67,430.06-.44,296.51,62.51,232.76Z"/><path class="cls-4" d="M218.08,127.51s44.65,31.22,52.35,95.42c0,0-4.4,21.79-5.13,13.52-4.58-51.44-57.1-103.21-57.1-103.21Z"/></g><path class="cls-5" d="M101.13,166.14s-2.3,4.8,3.48,13.11h0s-15.32,24.1-38.83-1.14c0,0-9.18-12.1,3.22-16.63,0,0,7.44-2.85,32.13,4.66"/><path class="cls-1" d="M102.72,162.53s-2.3,3.41,3.48,9.31h0S90.88,189,67.37,171c0,0-9.18-8.59,3.22-11.81,0,0,7.44-2,32.13,3.31"/><path class="cls-5" d="M102.17,275.52c-9.54,2.89,17.43,29.53,39.45,5.65C141.62,281.17,121.26,269.73,102.17,275.52Z"/><path class="cls-6" d="M195.54,192.92c0,11.06-8.54,20.9-20,20-10.8-.83-17.68-10-20-20-2.5-10.76,10.14-8.74,21.19-8.74S195.54,181.87,195.54,192.92Z"/><path class="cls-7" d="M150.54,183.58s11.81,43.42,40.07,24.65c0,0,2.89-.57,7-18.6"/><path class="cls-5" d="M171,161.13s4.93,2.77,5.34,6.66c.13,1.29-6.07,2.18-5.34,3.84l-.88,1.82s-16.66,25.71-40.17.46c0,0-9.18-12.09,3.22-16.62,0,0,7.38-2.36,31.83,1.79"/><path class="cls-8" d="M126.74,113.18s18.22-12,38.63-1.09"/><path class="cls-8" d="M124,125.92s10.33-8,21.21-2.74c0,0,3,1.95,8,.49,0,0,11.77-7.35,20.86,4"/><path class="cls-5" d="M90.44,221.87s.64,7.7-2.63,12.9c0,0-5.78,16.22,6.16,14.12,0,0-4.81,10.76-3.78,13,0,0-2.66,12.07,6.79,15.22,0,0,9.06-10.11,7.48-13.12l-.39-2.23a8.6,8.6,0,0,0,7.24-1.71,13.21,13.21,0,0,1,9.6-.52s9,1.7,13.59,0c0,0,3.68-.53,12.47-6.95,0,0-43.17-4.33-50-14.52,0,0,.79-3.38,26-10.24,0,0-27.4-13.81-32.52-5.94"/><g id="boca"><path class="cls-1" d="M151.35,234.77s-28.54,11.59-52.93,4.35c0,0,.57,4.42,6.29,6,0,0,27.8,3.71,42.78-4.33C147.49,240.77,150.94,240.09,151.35,234.77Z"/><path class="cls-9" d="M111.31,240.32s8.54-7.42,23.43-2.27c0,0,13.39.13,18.48-7.46,0,0-1.44,11.18-20.08,11.42,0,0-8.42-1.69-21.83,1.44,0,0-10.19.72-12.89-4.33l-2.69-5.05,4.51,4.78A26.11,26.11,0,0,1,111.31,240.32Z"/><path class="cls-10" d="M134.54,245.1l4.87-.15a2.5,2.5,0,0,0,2.5-2.51V239c0-1.39,0-2.87-2.5-2.51h-4.82a2.53,2.53,0,0,0-2.31,2.71l.24,3.15C132.52,243.74,132,244.76,134.54,245.1Z"/><path class="cls-10" d="M108.45,247.86l-4.3-.15a2.5,2.5,0,0,1-2.5-2.51v-3.43c0-1.39,0-2.87,2.5-2.51h3.44a2.5,2.5,0,0,1,2.5,2.51l.26,3.55C110.35,246.71,111,247.52,108.45,247.86Z"/><path class="cls-10" d="M117,246.88s7.23.52,8.09-.52v-4.78s.42-2.48-3-1.84l-3.8-.1a2.59,2.59,0,0,0-1.3,2.7Z"/><path class="cls-9" d="M155.51,238.05s-3.32,10-15.52,17.7c-4,2.55-4.63,4.12-19.05,1.55,0,0-5.26-2.86-12.18.51,0,0-19.05,4-12.81-14.32h3.51s.64,6.62,11.85,4.94C111.31,248.43,143.69,249.18,155.51,238.05Z"/><path class="cls-11" d="M99.46,248.33s-.41,10.21,11.85,5.61"/><path class="cls-11" d="M128.15,256.7s5.57,5.5,22.39-10.27"/></g><path class="cls-12" d="M140,167.23s6.36-12.44,17.84-2.23a19,19,0,0,0,8.61,2.23S147.35,183.82,140,167.23Z"/><path class="cls-12" d="M99.46,170.42s-12.44-11.8-22.33,0C77.13,170.42,89.25,188.6,99.46,170.42Z"/><path class="cls-1" d="M96,172.46c0,3.34-3.12,6-7,6s-7.65-4.14-7.65-7.47,2.37-5.85,6.22-5.85S96,169.13,96,172.46Z"/><path class="cls-1" d="M157.85,168.41c0,3.34-3.12,6-7,6s-7.65-4.14-7.65-7.47,2.37-5.85,6.22-5.85S157.85,165.08,157.85,168.41Z"/><path class="cls-1" d="M181.54,161s-7.95,9.18-16.5.94c0,0-7.27,3.18-15.3-3.56,0,0-11.32,5.29-13.65,9.44-1,1.86-7.71,4.71-5-6.88,0,0,3.63-4.19,19.49-10.25,0,0,4.5,12.46,15.9,3.71C166.44,154.37,171.44,163.54,181.54,161Z"/><path class="cls-4" d="M157.85,138.21c4.68-5.6-28.79,9.08-28.79,9.08s-5.94,3.86-3.57,7.72c0,0,3.27,4.17,8.62,0C134.11,155,153.22,143.75,157.85,138.21Z"/><path class="cls-4" d="M88.29,160.09s16.82,1.94,5.12-9.43c0,0-2.62-4.18-16.28-4.23H64.83l-3.89,4.23,3.35,2.66,1.36,3.54S67.67,158.29,88.29,160.09Z"/><path class="cls-7" d="M64.77,127.51S75,113.9,98.42,124.46a80.33,80.33,0,0,0,28.08-4s38.73-16.19,55,3.54c0,0,11.58,9,14.71-14.21"/><path class="cls-13" d="M126,129.39a16.93,16.93,0,0,1,17.43-1.88"/><path class="cls-7" d="M197.62,131.7s-9.08,27-25.13,4.76c-8.65-12-29.27-3.34-29.27-3.34-10.14-4.68-22.21,3.81-22.21,3.81-4.36-3.8-13.75-4.43-16.34-1.25-5.1,6.24-16.38,1.25-16.38,1.25a17.44,17.44,0,0,0-15.54,1.38"/><path class="cls-5" d="M145.18,133s20.4-1.86,23.31,4c0,0,16.55,28.25,28.4-1.72,0,0-11.07,22.32-24.4,1.25C172.49,136.46,161.89,124.41,145.18,133Z"/><path class="cls-14" d="M121.84,111s18.86-24.6,46.79-2.19"/><path class="cls-14" d="M77.57,99.81S69.26,116,83.35,118.48"/><path class="cls-5" d="M84.57,96.91S76.29,117.64,100,117.73c0,0,10.27.75,2-5.69,0,0-9.8-2.9-8.31-16.43C93.75,95.61,89,90.47,84.57,96.91Z"/><path class="cls-5" d="M105.25,95.23s-5.61,6.45,6.34,15.74c0,0-4.11-16.07,7.09-17.3C118.68,93.67,109.18,86.64,105.25,95.23Z"/><path class="cls-13" d="M66.13,141.5s-2.44-9.74,7.31-10.35c0,0,10.67-1.83,14.85,5.78"/><path class="cls-7" d="M205.47,131c-6,30.79-23.93,30-23.93,30"/><path class="cls-13" d="M184,164s18.36.42,19.89-1.43"/><path class="cls-13" d="M171,166.58s14.53-1.29,16.93,5.26"/><path class="cls-7" d="M186.22,167.79s14.65-1,12.69,6.66"/><path class="cls-7" d="M140,200.22s7.77,2.44,13.23,14.19c0,0,8.89,13.71,17.82,13"/><path class="cls-5" d="M101.65,175.43s-1,6.69,0,10.55c0,0-5.39,5.49-4.1,17.16,0,0-.14,9.93-5.22,16.38l-3.69,3.41s6.9-4.51,8.34-2.16C97,220.77,119.49,161.23,101.65,175.43Z"/><path class="cls-7" d="M147.65,216.9s5.57,13.69,19.61,21.15"/><path class="cls-15" d="M120.43,136.23s-6.44,22.12,8.62,25.68"/><path class="cls-5" d="M126.1,167.23l4.33,34.2S152.32,210,135.05,219l-9,2.47s16.94,6,18.05-.74c0,0,13-19.1-11-23.49C133.14,197.28,132.17,165.81,126.1,167.23Z"/><g id="nariz"><ellipse class="cls-1" cx="108.35" cy="220.77" rx="6.18" ry="3.87"/><path class="cls-1" d="M132.56,218.28s-.49-5.14-7-3.58c0,0-7,1.71-1.09,5.2,0,0,2.84,2.78,8.65,1"/><path class="cls-13" d="M118.51,139.44s-9.29,6.49-4,20.65"/><path class="cls-5" d="M103.09,167.11s2.32.13,3.85-2.77c0,0,2.74-8.37,10.81,0,0,0,14.12,9.45,9.87-1.82,0,0,4.68,1.22.06,6.83,0,0-4.06,1.38-14.78-4.49a2.52,2.52,0,0,0-2.83.32S104.39,169.42,103.09,167.11Z"/><path class="cls-2" d="M110.09,226.09s-6.2,5.41-11.67-3c0,0-3.24-6.55,0-11.89l5.79,5.76S100.12,221.84,110.09,226.09Z"/><path class="cls-16" d="M110.09,226.09a18.52,18.52,0,0,1-9.82-5.43c-2.16-2.24-3.75-6.67-1.48-9.91,0,0,6.94,3.33,6,4.83C103.54,217.53,100.9,222.93,110.09,226.09Z"/><path class="cls-2" d="M99.46,140.66s7.28,2.66,4,19.43c0,0-3.27,5.92,2.72,11.75,0,0-6,12.63,0,16.72,0,0-2.66,1.36-3.37,8.16,0,0-11.87,15,3.37,21.23a24.82,24.82,0,0,1,2.18,1.57c1.13.93,2.31,2.09,2.44,3,0,0,2.14,4.63,10.19,3.27l9.42-2.45s-15.25-6.8-3.55-9c0,0,5.72-.27,6.26,6.53,0,0,9.28,4.36,10.08-4.08,0,0,2.71-14.42-10.35-16.87,0,0-2.18,3.82-4.9-30.48,0,0,4.9-4.51-.27-8.38,0,0-10.07.21-9.26-20.47l2.57-3.73S121.83,141.75,99.46,140.66Z"/><path class="cls-10" d="M117.55,171s7.22-.11,8.09,25.69c0,0-2.73,1.75,2.51,6.34,0,0-2.4,14.42-7.21-4.92,0,0,0-2.41-5.9-2.84C115,195.3,111.65,185.57,117.55,171Z"/><path class="cls-10" d="M125.86,161.13s1.2,1.92-1.75,1.26c0,0-6.88-1.21-7.71-16,0,0,1.21-1.29,2.11-.15C118.51,146.28,118.1,158,125.86,161.13Z"/><path class="cls-17" d="M117.88,198.26s-13.41-6.61-18.42,4.88c0,0-4.61,9.6,5.14,14.07a16.94,16.94,0,0,0,9.47,2.11s4.76-.92,6.06,6.65"/></g><path class="cls-7" d="M102.17,270.08s33.27-1.12,37.82.65c0,0,20.15-1.66,17.86-27.41"/><path class="cls-8" d="M103.09,272s35.88-.16,36.26,1.61c0,0,17.08-1.29,20.93-17.67"/><path class="cls-6" d="M64.1,188.35s19.1-5.12,24.54,14.08c0,0-2.26,16.27-14.42,12,0,0-10.12.1-10.12-13C64.1,201.43,64.54,206.27,64.1,188.35Z"/><path class="cls-10" d="M78,204.21c0,3.28-.7,5.6-4,5.6s-7.91-2.32-7.91-5.6,1.93-7.74,5.21-7.74S78,200.92,78,204.21Z"/><path class="cls-4" d="M77.13,170.42s-4,4-2.11,11.09"/><path class="cls-4" d="M79.24,173.87s-3.07,4.75-1.22,8.94"/><path class="cls-4" d="M84.76,177.69s-2.76,5.1-.91,9.29"/><path class="cls-4" d="M81.55,175.77s-2.78,4.51-.93,8.7"/><path class="cls-4" d="M87.52,178.5s-1.45,7.18,0,11.13"/><path class="cls-4" d="M90.66,178.35s-2,6.36,4,12.24"/><path class="cls-4" d="M93.92,176.9s-1.2,6.13,5.54,8.89"/><path class="cls-4" d="M97,174.45a6.59,6.59,0,0,0,4.23,5.75"/><path class="cls-4" d="M77.13,169.16s-6.75-.23-9.8-8"/><path class="cls-4" d="M80.62,167.23s-7.91-1.73-8.55-8.24"/><path class="cls-4" d="M83,165.18S80,164,78.34,158.84"/><path class="cls-4" d="M86.41,164.45s-4.77-4.06-2.56-7.59"/><path class="cls-4" d="M90.35,165.18s-3.92-5.32-.66-7.26"/><path class="cls-4" d="M93.84,166.73s-3.63-5.45,0-7.89"/><path class="cls-4" d="M96.65,168.28s-3-3.32.9-5.75"/><path class="cls-4" d="M140,167.23s-6.44,4.74-6.85,7.22"/><path class="cls-4" d="M141.1,170.84s-4.55,3.89-4.53,8.37"/><path class="cls-4" d="M144.15,173.87a17.25,17.25,0,0,0-4.8,7.64"/><path class="cls-4" d="M147,175s-4.51,8-2.82,15.56"/><path class="cls-4" d="M150.87,174.45s-2.78,11.12-1.06,16.14"/><path class="cls-4" d="M153.22,174.6s-.88,8.12,2,11.19"/><path class="cls-4" d="M157.45,173.24s-.27,7.2,1.82,9.57"/><path class="cls-4" d="M160.38,171.84s.49,6.48,2.7,7.45"/><path class="cls-4" d="M164.06,169.51s-.4,4.18,2.38,6.05"/><path class="cls-4" d="M166.44,169s.08,2.57,3.25,4.21"/><path class="cls-4" d="M140,165.18a18.42,18.42,0,0,1-9.89-8.32"/><path class="cls-4" d="M143.22,162.53s-5.68-3.45-6.12-8.36"/><path class="cls-4" d="M142.59,149.77c.69,7.82,4.38,10.32,4.38,10.32"/><path class="cls-4" d="M149.44,161.13s-1.66-2.13,1.1-10.47"/><path class="cls-4" d="M155.19,162.53s-2.23-3.2.79-9.21"/><path class="cls-4" d="M160.38,165.18a9.93,9.93,0,0,1,1.35-9.29"/><path class="cls-4" d="M164,166.48s-3.38-3,1-7.4"/><path class="cls-18" d="M168.07,152.3s-8.39-15.22-22.7-3.31"/><path class="cls-19" d="M197.43,110.73c-3.13,23.19-14.71,14.21-14.71,14.21-16.31-19.73-55-3.53-55-3.53a80.47,80.47,0,0,1-28.08,4c-23.38-10.56-33.66,3-33.66,3"/><path class="cls-20" d="M112.71,219.83c1-.08,3-.12,3.8.47,1.45,1,2.47,2.28,3.14,5.69,0,0-5.64,1.45-8.83-3.42,0,0,.14-1.34-3-3.53A19.88,19.88,0,0,0,112.71,219.83Z"/><path class="cls-15" d="M103.93,139.44s10.78,1.75,17.08-2.51"/><path class="cls-21" d="M64.1,195.72s-4.57,13,10.3,25.79c0,0,2.72,34.2,15.95,48.3,0,0-10.88-16.45-9.73-42.4a20.62,20.62,0,0,0,8-4.48s-6.13,2.89-9.4,1.72v-3.14S62.42,213.33,64.1,195.72Z"/><path class="cls-22" d="M213.26,53.52s-14-25.4-28.5-26.3c0,0-23-15.43-26.91-12.7,0,0-7.69-9.07-12.62-8.77,0,0-23.25-16-30.62,5.44,0,0-3.93,19.65,0,23Z"/><path class="cls-23" d="M231.38,131s-32.07-35.29-61.69-40c0,0-28.25-4.71-45.22,1.34,0,0-12.59,2.67-23.26,1.37,0,0-36-2.25-38.7,30.82,0,0-11.76-12.95,35-77.93,0,0,7.84-16.5,13.76-15.31,0,0,4.22-8.83,43.88,5.87,0,0,25.41,10.11,40.35,11.49,0,0,22.29.92,25,7.81,0,0,15.62,5,12.87,10.56,0,0,4.21,4.49-6.9,26.69C226.55,93.67,230.69,103.05,231.38,131Z"/><path class="cls-24" d="M215.23,99.36s13,0,18-28.68"/><path class="cls-24" d="M214,70.68s-2.17,3.2,0,9.11c0,0,1.78,4.52-2,12.24"/><path class="cls-4" d="M159.27,450.33s35.14-27.36,22.9-72.17c0,0,5-59.2-32.92-88.66C149.25,289.5,252.4,367.39,159.27,450.33Z"/><path class="cls-4" d="M53.12,190.59s-37.12,5.74-42,140.82C11.15,331.41,16.54,223.26,53.12,190.59Z"/><path class="cls-4" d="M93.1,284.5s-44.29,47-27,89.18c0,0,18.69,38.3-24.18,41.21,0,0,40,17.45,40.53-34.91C82.48,380,58.62,340.3,93.1,284.5Z"/><path class="cls-4" d="M124.28,460.37c-13.42,14.55,49.68-29.24,37.45-74,0,0,2.31-50.26-35.63-79.72C126.1,306.61,172.37,408.23,124.28,460.37Z"/><path class="cls-4" d="M101.21,410.12s-.93,3.51-3-35.63c-1-19.05,3.75-49.49,18.86-66.77C134.78,287.44,60.8,348.15,101.21,410.12Z"/><path class="cls-4" d="M214.29,175s38.24,12,39.64,80.1c0,0-.19,15.14,16.5,15.6,0,0-8.46,4.87-26.28-19C244.15,251.73,246.62,216.16,214.29,175Z"/></g></g></svg>