<svg xmlns="http://www.w3.org/2000/svg" xmlns:xlink="http://www.w3.org/1999/xlink" viewBox="0 0 135.95 246.49"><defs><style>.cls-1{fill:#9d9d9c;opacity:0.2;}.cls-12,.cls-2{fill:#f2deba;stroke:#f0d9b1;stroke-width:4px;}.cls-12,.cls-17,.cls-18,.cls-2,.cls-21,.cls-22,.cls-23,.cls-24,.cls-25,.cls-26,.cls-4{stroke-miterlimit:10;}.cls-3{fill:url(#Unbenannter_Verlauf_40);}.cls-22,.cls-4{fill:none;}.cls-4{stroke-width:3px;opacity:0.6;stroke:url(#Unbenannter_Verlauf_74);}.cls-5{opacity:0.33;fill:url(#Unbenannter_Verlauf_78);}.cls-6{fill:url(#Unbenannter_Verlauf_80);}.cls-7{opacity:0.3;}.cls-8{fill:url(#Unbenannter_Verlauf_120);}.cls-9{fill:#a51a2d;}.cls-10{opacity:0.23;}.cls-11,.cls-17{fill:#ededed;}.cls-12{opacity:0.22;}.cls-13{opacity:0.86;}.cls-14{fill:#ece0cc;}.cls-15{opacity:0.26;}.cls-16{fill:#d3d3d3;opacity:0.39;}.cls-17{stroke:#dadada;opacity:0.91;}.cls-17,.cls-18,.cls-23,.cls-25,.cls-26{stroke-width:0.25px;}.cls-18,.cls-19{fill:#dadada;}.cls-18{stroke:#cccac8;}.cls-20{fill:#936037;}.cls-21{fill:#3aaa35;}.cls-21,.cls-22{stroke:#008d36;}.cls-21,.cls-22,.cls-24{stroke-width:0.1px;}.cls-23,.cls-25,.cls-26{stroke:#a51a2d;}.cls-23{fill:url(#Unbenannter_Verlauf_120-2);}.cls-24{fill:#7d4e24;stroke:#683c11;}.cls-25{fill:url(#Unbenannter_Verlauf_120-3);}.cls-26{fill:url(#Unbenannter_Verlauf_120-4);}.cls-27{opacity:0.57;}.cls-28{fill:url(#Unbenannter_Verlauf_120-5);}</style><linearGradient id="Unbenannter_Verlauf_40" x1="33.91" y1="149.77" x2="99.18" y2="149.77" gradientUnits="userSpaceOnUse"><stop offset="0" stop-color="#c96364"/><stop offset="0.15" stop-color="#c54963"/><stop offset="0.25" stop-color="#c03c53"/><stop offset="0.4" stop-color="#ba2e41"/><stop offset="0.51" stop-color="#b8293b"/><stop offset="0.61" stop-color="#ba2e42"/><stop offset="0.74" stop-color="#c03e55"/><stop offset="0.82" stop-color="#c54963"/><stop offset="1" stop-color="#c96364"/></linearGradient><linearGradient id="Unbenannter_Verlauf_74" x1="33.05" y1="160.29" x2="98.02" y2="160.29" gradientUnits="userSpaceOnUse"><stop offset="0" stop-color="#eed5a8"/><stop offset="0.11" stop-color="#eed7af"/><stop offset="0.26" stop-color="#eedec1"/><stop offset="0.44" stop-color="#ede8e0"/><stop offset="0.51" stop-color="#ededed"/><stop offset="0.62" stop-color="#edebe6"/><stop offset="0.77" stop-color="#ede4d3"/><stop offset="0.94" stop-color="#eed9b4"/><stop offset="1" stop-color="#eed5a8"/></linearGradient><linearGradient id="Unbenannter_Verlauf_78" x1="66.38" y1="180.55" x2="66.82" y2="198.69" gradientUnits="userSpaceOnUse"><stop offset="0" stop-color="#ededed"/><stop offset="0.58" stop-color="#eee0c7"/><stop offset="1" stop-color="#eed5a8"/></linearGradient><radialGradient id="Unbenannter_Verlauf_80" cx="62.35" cy="141.42" r="43.54" xlink:href="#Unbenannter_Verlauf_40"/><linearGradient id="Unbenannter_Verlauf_120" x1="73.11" y1="157.48" x2="79.01" y2="105.29" gradientUnits="userSpaceOnUse"><stop offset="0" stop-color="#921823"/><stop offset="0.39" stop-color="#951b28"/><stop offset="0.84" stop-color="#9f2436"/><stop offset="0.99" stop-color="#a4283c"/></linearGradient><linearGradient id="Unbenannter_Verlauf_120-2" x1="56.62" y1="100.57" x2="61.87" y2="100.57" gradientTransform="translate(64.48 -9.47)" xlink:href="#Unbenannter_Verlauf_120"/><linearGradient id="Unbenannter_Verlauf_120-3" x1="300.67" y1="24.88" x2="305.92" y2="24.88" gradientTransform="translate(141.67 -211.26) rotate(90)" xlink:href="#Unbenannter_Verlauf_120"/><linearGradient id="Unbenannter_Verlauf_120-4" x1="581.34" y1="-487.72" x2="586.59" y2="-487.72" gradientTransform="translate(-372.44 -496.59) rotate(90)" xlink:href="#Unbenannter_Verlauf_120"/><linearGradient id="Unbenannter_Verlauf_120-5" x1="35.11" y1="413.55" x2="41.02" y2="361.35" gradientTransform="matrix(0.99, 0.04, 0.04, 0.71, 20.85, -137.59)" xlink:href="#Unbenannter_Verlauf_120"/></defs><g id="Ebene_2" data-name="Ebene 2"><g id="Ebene_2-2" data-name="Ebene 2"><g id="Holdrio_1_5" data-name="Holdrio 1/5"><path class="cls-1" d="M0,236.87c0,6.36,16.13,9.62,57.43,9.62s74.76-5.16,74.76-11.52-26.28-6.47-67.57-6.47S0,230.51,0,236.87Z"/><path class="cls-2" d="M108.64,45.58s.79,77.93-12.12,110.92c0,0-2.39,5.76-5.37,6,0,0-26.82,18.87-9.33,53.44,0,0,5.36,5.37,12.51,6.56,0,0,15.9,2.19,15.5,7,0,0,5.56,6.75-37.95,10.13,0,0-39.94,1.39-48.68-7.15,0,0-4.57-5.37,8.55-8.15,0,0,14.3-3.38,19.67-8.15,0,0,18.67-27.61-10.93-53,0,0-3.58-.79-5.37-6.36,0,0-15.13-41.59-13.16-110.16"/><path class="cls-2" d="M21.47,47.64c.05,2.31,71.14,5,85.27.09C117.32,44,79.27,43.56,65.3,43.51,49.46,43.46,21.4,44.55,21.47,47.64Z"/><path class="cls-3" d="M33.91,140.79s33.64,3,65.27-.8a92.68,92.68,0,0,1-2.66,18s-21.48,3-56.29.59C40.23,158.61,38.22,156.73,33.91,140.79Z"/><path class="cls-4" d="M35.12,156.69s18.27,9.48,61.4-.19c0,0,0,2.84-4,5.48,0,0-27,7.23-54.52-.14C38,161.84,36,161.29,35.12,156.69Z"/><path class="cls-5" d="M69.39,211.87l-4.58.3a7.2,7.2,0,0,1-7-7.49L58.09,186c0-4.07-.21-7.76,5-7.28l6.27-.15c6.12-.79,6.5,3.48,6.3,7.57l-1.35,18.43C74.42,209,73.46,211.87,69.39,211.87Z"/><path class="cls-6" d="M97.93,140.14c0,.94-10.39,5.88-33.28,5.88s-30.74-4.28-30.74-5.23,6.55-2.2,29.45-2.2S97.93,139.2,97.93,140.14Z"/><g class="cls-7"><path class="cls-8" d="M83.2,156.58c-6.48,2.43-18.48.27-22.47-2.94-.1-.08-.26,0-.39,0-7.49,0-9-6-8.66-8l7-31.54c3.71-5.31,11.91-9.85,14-9.55L92.39,107c2,.31,7.9,12.09,7.59,14.13l-4.66,31.1C95.39,155.8,87.39,155,83.2,156.58Z"/><path class="cls-9" d="M83.79,157.67c-.22.05-.07.22-.09.27C84,157.79,83.76,157.62,83.79,157.67Z"/><polygon class="cls-9" points="87.49 156.4 87.43 156.5 87.99 156.21 87.49 156.4"/><path class="cls-9" d="M91.3,155.83c-.43-.27-1.38.3-2.08.27l-.13-.07-.26.33A22.33,22.33,0,0,1,91.3,155.83Z"/><path class="cls-9" d="M93.65,156c-.19-.09.45-.28-.55.13h.11Z"/><path class="cls-9" d="M93.21,156.17c-.45.15.33,0,0,0Z"/><path class="cls-9" d="M95.31,155.08c-.18.17-.37.36-.56.52.17,0,.77-.39.58-.19.32-.25.42-.41.4-.45S95.53,155,95.31,155.08Z"/><path class="cls-9" d="M95.69,154.37l-.25.34C95.51,154.69,95.61,154.61,95.69,154.37Z"/><path class="cls-9" d="M94.84,155.28a6.43,6.43,0,0,0,.6-.57c-.12,0-.2-.05-.27.26C95.16,154.85,95.09,155,94.84,155.28Z"/><path class="cls-9" d="M94.44,155.44c-.37.08-.8.23-.27-.15-.55.29-.75.39-.69.45S93.88,155.74,94.44,155.44Z"/><path class="cls-9" d="M91.43,155.43l-.42,0-.32.17C90.85,155.5,91.47,155.54,91.43,155.43Z"/><path class="cls-9" d="M97.12,151.18c-.07,0-.23.15-.33.17l0,.4C96.9,151.56,97,151.19,97.12,151.18Z"/><path class="cls-9" d="M96.79,151.35l0-.6C96.66,151.27,96.7,151.37,96.79,151.35Z"/><path class="cls-9" d="M95.48,154a5.5,5.5,0,0,1-.36.57l-.44.46a6.72,6.72,0,0,0,.53-.54,7.58,7.58,0,0,0,.43-.68C95.59,153.89,95.53,154,95.48,154Z"/><polygon class="cls-9" points="97.46 148.97 97.59 149.32 97.41 148.7 97.46 148.97"/><path class="cls-9" d="M97.65,147.49c.11.27.29-.3.34,0a3.37,3.37,0,0,0-.1-1.08A2.48,2.48,0,0,1,97.65,147.49Z"/><path class="cls-9" d="M97.81,145.84a3.71,3.71,0,0,0,.08.54A2.52,2.52,0,0,0,97.81,145.84Z"/><path class="cls-9" d="M96.93,149.77a.66.66,0,0,0,.29-.42l-.25.19Z"/><path class="cls-9" d="M97,149.55h0l.09-.49Z"/><path class="cls-9" d="M96.92,149.83v-.06S96.9,149.8,96.92,149.83Z"/><path class="cls-9" d="M96.31,152.24c-.07-.36-.09-1.08-.38-.42C96,152.08,96.2,151.7,96.31,152.24Z"/><path class="cls-9" d="M96.62,150.07l-.14.61c.06,0,.15-.1.19.08Z"/><polygon class="cls-9" points="96.6 149.76 96.62 150.07 96.67 149.84 96.6 149.76"/><path class="cls-9" d="M97.45,146.87a3.12,3.12,0,0,1,0-.91,8,8,0,0,0-.22,1.06C97.31,147.07,97.4,147.24,97.45,146.87Z"/><path class="cls-9" d="M97.2,148.17v-.06S97.16,148.17,97.2,148.17Z"/><polygon class="cls-9" points="97.95 142.72 97.91 142.77 97.94 142.79 97.95 142.72"/><path class="cls-9" d="M97.2,147.07a1,1,0,0,0,0,.58,4.77,4.77,0,0,1,.06-.63S97.2,147,97.2,147.07Z"/><path class="cls-9" d="M97.84,144.92c-.06.13-.12.28-.18.44C97.75,145.24,97.89,145,97.84,144.92Z"/><path class="cls-9" d="M97.26,148v0C97.33,148,97.3,148,97.26,148Z"/><path class="cls-9" d="M97.26,148a2,2,0,0,0-.07-.37,3.52,3.52,0,0,0,0,.46A.71.71,0,0,1,97.26,148Z"/><path class="cls-9" d="M96.75,141.54c.18.07.26.8,0,1.37.06.61.76.32,1.2-.14-.08,0-.16,0-.19-.67-.14.2-.45,1.31-.55.77,0-.82.17-.65.33-1-.29.29-.2-1.08-.59-1l0,.72C96.88,141.62,96.83,141.35,96.75,141.54Z"/><path class="cls-9" d="M97.72,143.93l0,.25a3.41,3.41,0,0,1,.4-.83c0-.43-.1-.53-.16-.56L97.73,144Z"/><path class="cls-9" d="M97.53,145.31c-.18-.23-.18-.85-.47-.51-.09.73.11.54.13,1,.13-1.19.07.36.32-.48a6.3,6.3,0,0,1,0,.65c.06-.21.12-.41.19-.6l0,0h0c0,.05-.06.06,0,0v0s0,0-.07-.06c.09-.34.06-.05.07.06l0,0h0l.06-1.21A7.26,7.26,0,0,0,97.53,145.31Z"/><path class="cls-9" d="M95.57,151.11s0,0,.06,0S95.6,151,95.57,151.11Z"/><path class="cls-9" d="M95.77,150.64a.72.72,0,0,1,0,.46c-.1.23-.1,0-.17,0,0,.18.06.62.24.1v-.09c.14-.46.5-1,.52-1A1.64,1.64,0,0,0,95.77,150.64Z"/><path class="cls-9" d="M96.6,147.93l.05-1-.26.47h.11C96.38,148,96.53,147.85,96.6,147.93Z"/><polygon class="cls-9" points="98.08 142.63 98.28 142.79 98.05 142.17 98.08 142.63"/><polygon class="cls-9" points="98.24 141.34 98.43 141.41 98.37 141.05 98.24 141.34"/><path class="cls-9" d="M59.84,114.49a.79.79,0,0,0,0,.13A.79.79,0,0,0,59.84,114.49Z"/><path class="cls-9" d="M61.09,113l0-.1C61,113,61,113.05,61.09,113Z"/><path class="cls-9" d="M96.43,109.79c-.07-.47-.11-1.05-.27-.88l-.11.23A2,2,0,0,1,96.43,109.79Z"/><path class="cls-9" d="M75.23,104.94l.12.09.32-.17Z"/><path class="cls-9" d="M74.81,105.8l-.54-.21A3.83,3.83,0,0,0,74.81,105.8Z"/><path class="cls-9" d="M57.6,125.4l.14.38C57.86,125.26,57.7,125.47,57.6,125.4Z"/><path class="cls-9" d="M100.14,128.14a4.78,4.78,0,0,0,.27-.89C100.22,127.67,100,128,100.14,128.14Z"/><path class="cls-9" d="M58.5,112.45c-.09.18-.1.27-.06.29C58.53,112.56,58.57,112.45,58.5,112.45Z"/><path class="cls-9" d="M100.56,126.19l-.08.19a4.55,4.55,0,0,1-.07.87A1.58,1.58,0,0,0,100.56,126.19Z"/><path class="cls-9" d="M67.83,155.33l.09,0S67.89,155.34,67.83,155.33Z"/><path class="cls-9" d="M79.85,158.34l-.52.09A2.11,2.11,0,0,0,79.85,158.34Z"/><path class="cls-9" d="M99.11,136.17c0,.28,0,.05,0,0Z"/><path class="cls-9" d="M98.07,137.37c0-.06,0-.11-.09-.12A.22.22,0,0,1,98.07,137.37Z"/><path class="cls-9" d="M99.63,123.28v0C99.58,123.33,99.59,123.32,99.63,123.28Z"/><path class="cls-9" d="M99,136.57a1.7,1.7,0,0,0,.12-.34C99.05,136.28,99,136.38,99,136.57Z"/><path class="cls-9" d="M99.06,136.53l0,.23S99.07,136.78,99.06,136.53Z"/><path class="cls-9" d="M99.16,135.79a2.85,2.85,0,0,1-.09.44s0-.07,0-.06Z"/><path class="cls-9" d="M52.64,144.36l0,0C52.64,144.7,52.65,144.58,52.64,144.36Z"/><path class="cls-9" d="M89.7,107.72h0Z"/><path class="cls-9" d="M88.7,107.76a1.12,1.12,0,0,1,1-.06l-.25-.66Z"/><path class="cls-9" d="M58.84,119l.34-.64c.14.89-.1,1.45.31.88-.65-.24.51-2.66-.13-2.9l.24-.41c0,.12,0,.15,0,.28a.69.69,0,0,0,.07-.81,1.45,1.45,0,0,1-.14-.4,1.31,1.31,0,0,1,0-.28.42.42,0,0,1,0-.18c.13-.13.35-.23.31-.05.08-.2.23-.49.35-.74s.22-.06.05.12l.81-1v0a4.81,4.81,0,0,1,.32-.82c.3-.17-.07.17,0,.16.14-.21.26-.42.41-.63.34-.07,0,.46-.35.8.94,0,.3-.55,1.65-1.24-.16.17-.3.35-.45.52.57,0,.89-.45,1.62-.76-.21,0-1.56.53-1.07-.11a1.81,1.81,0,0,0,.68-.65c.16.19.45-.11.85-.44l.16.28c.39-.41.27-.51.45-.82a.88.88,0,0,1,1-.11c.86-.51-.8.05.16-.66a8.44,8.44,0,0,0,2-1.41c.57-.19,0,.22.23.2l.34-.47c.12,0,.12,0,.11.09.35-.29-.11-.31.47-.69,0-.4,1.48-.12,2.09-.66.19,0,0,.2,0,.32a3.74,3.74,0,0,1,.47-.23l.21-.1a9,9,0,0,0,1-.19l.81.32c-.58-.32.24-.5,1-.65-.2-.14-.37-.26-.49-.33l1.12,0c.13.07,0,.17-.19.28l.21-.06c.37.17.15.33-.16.47l-.37-.24c-.3.15-.58.34-.55.53a1.22,1.22,0,0,1,.37,0c-.08,0-.13.08-.1.12s.16,0,.35-.08l.2.39.08-.14,1.41.4a13.09,13.09,0,0,1,3.7-.58c-.44.21-.14.42-.21.72-.4-.38-1.28,0-2.12-.19.44.09.32.22.2.26l1.55-.11c-.06.25.3.23.68.38-.23-.53,1.17-.19,1.81-.26,0,.17-.16.32-.9.19.78.48,1.14-.45,1.92,0-.19,0-.28-.06-.37,0,.45-.1,1.48.15,1.22.27l-.19,0c1.21.21,3.71.46,3.94.06a1.8,1.8,0,0,1-.31.57l2.35-1.15c-.23.34.39,1.29-.64,1.37a2.93,2.93,0,0,0,1.26.14c-.19-.07-.43-.58-.16-.58a2.84,2.84,0,0,0,.62.38l.26.12a1,1,0,0,1,.36.22c-.06,0,0-.21.06-.35a.36.36,0,0,1,.48-.12c-.09,0-.26.51-.37.52a.86.86,0,0,1,.43,0,5.27,5.27,0,0,1,.57.18c-.26-.13-.38.28-.35.56,0-.16.57.73.78,1l-.17-.46c.66,1.07,1.38.6,2,1.73-.19-.08-.81,0-.54.63A5.09,5.09,0,0,1,97.64,113l0,.28.57.72a29.66,29.66,0,0,1-2.88-1.81c.12.48-.1.21.26.84,0,.29-.39-.24-.51-.42.25.51.48,1,.71,1.53.27-.23.89,1,1.11.82-.38-.5-.76-1-1.15-1.48.26-.23,1.35.49,1.83,1.62,0,.34-.64.06-.73.13a2.79,2.79,0,0,1,.66,1.07l-.38-.38c.17.65.86.81.88,1.67.09.27-.09.92.11.89.19-.55,1.26-1.09,1.64-.9a8.52,8.52,0,0,1,.09,1.91c-.15.52-.89-.44-1,0,.1,0,.28.19.34.28,0,.29-.29,0-.11.53.4,0,.15,1.07.34.2a.73.73,0,0,1,0,.61,3.65,3.65,0,0,0-.13.59c.26-.2.65.77.65,1.41-.08,0-.21.08-.28.14-.22,1.27-.47,1.94-.66,3.13-.09.1-.28.66-.39.39a1.6,1.6,0,0,1,.08.73c-.4.66.08-.83-.35-.34.19.07.12,1,.17,1.53.33-.11.24-1.2.19-1.74.42.06.72,1,.73,2.31-.05,1-.34.39-.3.57-.35,1.86.49,1.7,0,3.2-.36.58-.54-.05-.75.06a9.55,9.55,0,0,1,.43-1.77l-.23.66a2.43,2.43,0,0,1,.08-1.1c-.31.48-.51,3.14-1,4.54,0,.27.08.72.22.53l0-.46c.28-.39.17.9.35.34a5.27,5.27,0,0,1,0,2.19l-.33.12c.09,0,.26-.54.21-.79.08.38-.61,1.25-.27,1.71l.3-.58a5.91,5.91,0,0,1,.06,2.19c.35-.3,0-.18.42-.67-.5.41.31-1.94-.26-1.26.49-.49.32-.93.77-1.6-.1,0-.23.22-.08-.41a.52.52,0,0,1-.07-.15v0s0,0,0,0a1,1,0,0,1-.2.31,9.13,9.13,0,0,1-.09-1.73c.1-.37.09.17.23,0l-.1-.54c.23,0,.52-.95.51,0l.13-.8a3.52,3.52,0,0,0,.31-1.51c.11-.37-.1-1,0-.64l0-1.28h0c.22-1.24,0-2.62.63-4a6.69,6.69,0,0,1,.17-1.56l.22-.11c0-.55.43-1.58.27-1.84a2.46,2.46,0,0,0,.48-1.44,3.78,3.78,0,0,0,0-1q-.09-.41-.18-.72c-.13-.43-.26-.78-.32-1.06l-.26,0a9.76,9.76,0,0,0-.93-2l-.19.13c-.45-.59-.59-1.76-1.12-2.77.11,0,.22.3.26.51-.13-1.46-1.61-2.39-1.91-3.63a1.38,1.38,0,0,1-.37-.64.12.12,0,0,0,.05,0l-.07-.11c0-.13-.07-.28-.12-.43a1.93,1.93,0,0,0,.09.38,6.13,6.13,0,0,0-.59-.77l.12-.26,0-.06c-.12-.35-.25-.18-.3.08a2,2,0,0,0-.38-.31c.16-.47-.65-.69-.58-1.26a7.2,7.2,0,0,1-.9-.69c-.44-.35-1.07-.56-1.23-.35,0-.06-.12-.12.11,0a2.21,2.21,0,0,0-.69-.18,1.4,1.4,0,0,0-.54,0l-.13-.32-.88.3c-.48-.25-.68-.38-.15-.55-1.26.21-1,0-2.08.24l.08-.19c-.37,0-1,.15-1.19,0-.78-.48-4.08-.56-6.15-1.17.34.63-.95-.38-1.09,0-.11-.15-.39-.26,0-.34-1.1,0-1.59-.42-2.39-.13-.11-.16.26-.18.16-.27s-.36.08-.46,0,.17-.09.35-.13c-1.11-.12-1.27.29-1.41.67a1.23,1.23,0,0,0-1.25,0c-.18-.16-.49-.33.21-.29-.39-.07-2.33-.49-2.43-.17a1.25,1.25,0,0,0-.82,0,6.49,6.49,0,0,0-1.87.55l.25,0c-.19.48-.65.36-1.28.7v0c-1.57.49-.56.43-2.11.93l.2.16c.14.52-1.36.47-2,1.16l.35-.07c-.32.41-1.55.23-2,.49-.11,0,.1-.17.21-.29-1.26.58.05.36-.7,1-.25,0-.08-.49-.63-.1-.36.12-1.15,1.69-2,2.11.24-.05.47-.1.21.3-.47.52-1.71,1.08-1.8,1.86-.08,0-.13.06-.16,0-.06.13-.15.29-.25.47l-.22.34-.11.19,0,.22,0,.41v.27a1.05,1.05,0,0,0,.06.4c-.92.3-.32,3.3-1.06,3.12l-.31,1.6-.07-.06a3,3,0,0,0-.07,1.8c-.1.22-.13,0-.17,0a5.27,5.27,0,0,0-.38,2.92l-.27.08c.07.37-.85,2.07-.89,3.58,0,0-.07-.06-.08-.18-.07,1.69-1.53,3.78-.78,4.56l0,1.12c.38-1.38.34.29.61-.26-.07.56-.58,1.37-.48.68l.07-.09c-.4-.34-.54,1.7-.85,1.6-.58,2.75-1.43,5.38-2,8l.43-.23-.22.89c-.14.22-.35.26-.2-.37-.27.3-.06,1.1,0,1.14-.42,1.22-.31-.57-.4-.19l-.09.53.07-.11a7.8,7.8,0,0,1,.18,1.51c0,.57-.19.32-.18.54,0,0,0,.09,0,.35a10.86,10.86,0,0,0,.31,1.28c0-.2.08-.39.12-.58.28.5.41,1.12.49.47a3.94,3.94,0,0,0,1.09,2.5,13,13,0,0,0,1.85,1.72c.79.24,1.46.59,2.36.87-.21-.12-.23-.46.5-.21-.45.6,1.36.62,2,1.08-.31-.18.36-.16.77-.18s.53.13.39-.29c.13.11.15.18.13.22a.18.18,0,0,1,0,.09l0,0a.26.26,0,0,0,0,.21,26.86,26.86,0,0,0,4.93,2.32c.06-.08-.21-.3.22-.31.28.25.56.48.85.7.38.06.46-.4,1.06.07-.08-.09-.19-.24.06-.21a20,20,0,0,0,5.58,1c1.91.11,3.8.15,5.77.36-.54-.14-.19-.16.2-.22-.26,0,0-.22-.08-.33.54,0,1.09.09,1.64.09.23-.37,1.71-.39,1.78-.79l-.48.21c.28-.28,0-.4-.35-.54s-.75-.3-.76-.54c-.29.28-.79.23-1.33.15a2.55,2.55,0,0,0-1.67.23c-.26-.08.21-.17.06-.27a1.58,1.58,0,0,1-1.3.21l.08,0a18.57,18.57,0,0,1-4.72-.53l.13.25a2.34,2.34,0,0,1-.73-.25c-.56.29,1.25.17.74.51-.54-.53-3.17-.47-3.45-1.13-.67-.15.14.31-.53.16l-.15-.18-.21.14c-.43-.14-.6-.38-.59-.5a2.83,2.83,0,0,0,.42.06,16,16,0,0,0-1.76-.5l.6.29c-.43-.1-.88-.23-1.33-.37s-.9-.32-1.34-.5-.88-.37-1.27-.58l-.6-.29-.66-.37a1.93,1.93,0,0,0-.41-.2l.14.2c-.43-.27-.82,0-1.06-.1a2.76,2.76,0,0,1-.47-.07,11.9,11.9,0,0,0-1.3-.2l.06,0a2,2,0,0,1-1.08-.09c.38,0-.58-.43-.08-.44a4.78,4.78,0,0,0-1-.15,1.53,1.53,0,0,1-.73,0l-.09-.26c-.37,0-.43,0-1-.4.56.26-.16-.5.47-.25a6.3,6.3,0,0,0-1.13-1.25,3,3,0,0,1-.38-.47.85.85,0,0,1,0-.57c-.38-.18-.31.12-.16.46s.42.64.26.51c0,.38-.66-.28-.82-.77s.23-1,.05-2.11c0,.11,0,.11.07.22a1.67,1.67,0,0,0-.09-.62.7.7,0,0,1,.06-.59c-.25-.37.18-.76-.19-.92a6.09,6.09,0,0,0-.11,1.11,5.7,5.7,0,0,1-.12-1,3.08,3.08,0,0,1,.25-1.37,2.3,2.3,0,0,1,.1.69c.19-.31.06-.64.26-1,.36.17-.24,1.45-.1,2.22.24-.31,0-1.41.36-1-.42-.62.35-1.25.13-2.2l.22.1a2.85,2.85,0,0,1,0-.71l.2.52c-.1-.76.53-1.32.54-2-.31,1.42-.35.26-.66.83.08-1.81.84-.89,1.16-2.87,0,.27-.36,1-.38.53a4.2,4.2,0,0,1,.5-1c.24-1.31-.28.15-.3-.43.38-.39,0-.66.06-1.25l.23,0c.48-1.45-.4-.49.07-1.79l.21.63.07-.71.23.19a3.8,3.8,0,0,1,.31-1.74c-.2.14-.41-.18-.27-.84.24-.42.17.29.34-.64a.69.69,0,0,1-.07.86c.07.06.11.24.17.3a5,5,0,0,0,.38-1.54,1.49,1.49,0,0,1-.14.35l0-1.41c.14-.19.17,0,.2.17,0-.28,0-.49,0-.89.17.14.37.15.34.74l.07-1.33c.1-.06.37-.61.41-.43.27-.68,0-1.82.37-2.73a.82.82,0,0,1,0-.37,8.24,8.24,0,0,0,.62-2.72l.47-.52c.11-.84-.61.72-.44-.68.11-1,.38-.3.55-.62a3.4,3.4,0,0,1,.24-2.26A5.06,5.06,0,0,1,58.84,119Zm4.38-8.18c-.12.17-.31.53-.51.52C62.69,111,62.91,111,63.22,110.82Zm13.47-5.23a.84.84,0,0,1-.63-.13A2,2,0,0,1,76.69,105.59Zm22.68,27.56v0C99.52,132.7,99.46,132.85,99.37,133.15Zm-.24.91c0,.1.05.1.09.06a.84.84,0,0,1,0-.51C99.17,133.66,99.11,133.78,99.13,134.06ZM50.77,147.3l0-.22C50.94,147.53,50.87,147.41,50.77,147.3Z"/><path class="cls-9" d="M74.87,105.7a.26.26,0,0,1-.07-.14C74.72,105.59,74.71,105.63,74.87,105.7Z"/><path class="cls-9" d="M57.58,125.33v0l0,0Z"/><path class="cls-9" d="M98.78,119.89a1,1,0,0,1,0-.37C98.73,119.53,98.71,119.63,98.78,119.89Z"/><path class="cls-9" d="M98.8,139l0-.6a1.35,1.35,0,0,1-.15.52S98.82,138.83,98.8,139Z"/><path class="cls-9" d="M96.55,143.92c0,.1,0,.19,0,.28h.11C96.71,143.82,96.66,143.55,96.55,143.92Z"/><path class="cls-9" d="M97.92,139.44c-.2,0-.19.4-.22.82v-.07C98,140.35,98,139.89,97.92,139.44Z"/><path class="cls-9" d="M97.7,140.36a2.5,2.5,0,0,1-.06.38C97.75,140.8,97.69,140.59,97.7,140.36Z"/><path class="cls-9" d="M99.08,135.25c-.08.19.24.16.14.26C99.45,135.77,99.11,134.15,99.08,135.25Z"/><polygon class="cls-9" points="97.21 139.68 97.48 139.57 97.32 139.3 97.21 139.68"/><path class="cls-9" d="M97.88,136.43l-.16.66s0,.08,0,.19C97.84,136.87,98,136.43,97.88,136.43Z"/><path class="cls-9" d="M97.77,137.28a1.69,1.69,0,0,0,0,.53A4,4,0,0,0,97.77,137.28Z"/><polygon class="cls-9" points="97.27 138.76 97.35 138.57 97.44 138.11 97.27 138.76"/><path class="cls-9" d="M99,129.32l0-.73c-.07-.08-.15.1-.16.38S98.9,129.42,99,129.32Z"/><path class="cls-9" d="M98,131.41c.08-.19.14-.19.24-.29l-.31-.07Z"/><path class="cls-9" d="M98.24,129.29c-.08-.08-.09-1.08-.21-.17C98.1,129.21,98.07,129.94,98.24,129.29Z"/><polygon class="cls-9" points="99.24 118.59 99.31 118.76 99.78 118.56 99.24 118.59"/><path class="cls-9" d="M93.88,110.62c.34.77.38,0,.64.72.21.11-.21-.59,0-.47C94.12,110.5,94,110.25,93.88,110.62Z"/><path class="cls-9" d="M94.5,110.87l.2.18A.83.83,0,0,0,94.5,110.87Z"/><path class="cls-9" d="M82,158.22c.2,0,.4,0,.61-.06l-.42,0Z"/><path class="cls-9" d="M83,157.53l.24.26.24-.38C83.38,157.46,83.14,157.57,83,157.53Z"/><path class="cls-9" d="M64.78,110.4l0-.09c-.11,0-.22.06-.42.2Z"/><path class="cls-9" d="M60,114.82l0,0a.55.55,0,0,0-.31,0A.7.7,0,0,1,60,114.82Z"/><path class="cls-9" d="M59,121c.07-.25.07-.56.14-.81C59.11,120.77,58.67,121,59,121Z"/></g><g class="cls-10"><path class="cls-11" d="M113,75.56c0,.16.1.1.12.12C113.09,75.43,113,75.57,113,75.56Z"/><polygon class="cls-11" points="112.64 73.05 112.69 73.1 112.57 72.73 112.64 73.05"/><path class="cls-11" d="M112.53,70.69c-.17.24.07.86,0,1.28l0,.07.15.19A13.92,13.92,0,0,1,112.53,70.69Z"/><path class="cls-11" d="M112.86,69.42c-.07.08-.08-.27,0,.29v-.29Z"/><path class="cls-11" d="M112.86,69.66c0,.25,0-.17,0,0Z"/><path class="cls-11" d="M112.77,68.51l.08.33c0-.07,0-.37.06-.26C112.86,68.25,112.83,68.32,112.77,68.51Z"/><path class="cls-11" d="M112.62,68.21l0,.17A.18.18,0,0,0,112.62,68.21Z"/><path class="cls-11" d="M112.73,68.73l-.07-.35c0,.05-.09.05,0,.16C112.63,68.51,112.69,68.58,112.73,68.73Z"/><path class="cls-11" d="M112.71,68.94c0,.18,0,.42-.12.1C112.65,69.66,112.77,69.56,112.71,68.94Z"/><path class="cls-11" d="M112.34,70.58l0,.25.07.21C112.34,70.94,112.4,70.56,112.34,70.58Z"/><path class="cls-11" d="M112.76,66.47s-.1.11-.14.14l0,.24C112.69,66.73,112.71,66.49,112.76,66.47Z"/><path class="cls-11" d="M112.62,66.61l-.09-.36C112.54,66.58,112.58,66.63,112.62,66.61Z"/><polygon class="cls-11" points="112.42 68.16 112.59 68.75 112.41 68.05 112.42 68.16"/><polygon class="cls-11" points="112.7 65.09 112.8 65.29 112.64 64.93 112.7 65.09"/><path class="cls-11" d="M112.64,64.17c.08.15.11-.21.16,0a2.38,2.38,0,0,0-.16-.65A2,2,0,0,1,112.64,64.17Z"/><path class="cls-11" d="M112.54,63.15a2.33,2.33,0,0,0,.1.32A1.31,1.31,0,0,0,112.54,63.15Z"/><path class="cls-11" d="M112.52,65.64s.08-.09.1-.29l-.1.14Z"/><path class="cls-11" d="M112.51,65.5h0v0Z"/><path class="cls-11" d="M112.52,65.67v0A0,0,0,0,0,112.52,65.67Z"/><path class="cls-11" d="M112.47,67.21c-.07-.21-.15-.65-.22-.22C112.33,67.14,112.37,66.89,112.47,67.21Z"/><path class="cls-11" d="M112.4,65.85v.39s.07-.08.1,0Z"/><polygon class="cls-11" points="112.36 65.67 112.4 65.86 112.4 65.71 112.36 65.67"/><path class="cls-11" d="M112.47,63.82a3,3,0,0,1-.08-.55c0,.22,0,.45,0,.66C112.43,64,112.49,64.05,112.47,63.82Z"/><path class="cls-11" d="M112.48,64.63v0S112.47,64.64,112.48,64.63Z"/><polygon class="cls-11" points="112.29 61.25 112.27 61.28 112.29 61.29 112.29 61.25"/><path class="cls-11" d="M112.37,64a.69.69,0,0,0,.06.35c0-.12,0-.25,0-.39S112.36,63.92,112.37,64Z"/><path class="cls-11" d="M112.47,62.59a2.5,2.5,0,0,0,0,.29A.7.7,0,0,0,112.47,62.59Z"/><path class="cls-11" d="M112.5,64.54v0S112.52,64.52,112.5,64.54Z"/><path class="cls-11" d="M112.5,64.54c0-.08,0-.15-.07-.22a2,2,0,0,0,0,.28A.14.14,0,0,1,112.5,64.54Z"/><path class="cls-11" d="M111.58,60.67c.1,0,.21.45.12.83.09.37.41.11.57-.22,0,0-.08,0-.16-.38,0,.13-.08.85-.19.53-.07-.5,0-.41.06-.66-.11.21-.21-.63-.39-.51l.09.43S111.6,60.55,111.58,60.67Z"/><path class="cls-11" d="M112.3,62l0,.15a2.22,2.22,0,0,1,.11-.55c-.06-.25-.1-.31-.14-.32l0,.77Z"/><path class="cls-11" d="M112.35,62.86c-.11-.11-.17-.49-.28-.25,0,.46.11.31.17.59-.07-.74.07.21.1-.33a2.91,2.91,0,0,1,0,.4q0-.21,0-.39v0h0s0,.05,0,0v0s0,0-.05,0c0-.21,0,0,.05,0h0l-.09-.74A4.93,4.93,0,0,0,112.35,62.86Z"/><path class="cls-11" d="M112,66.61s0,0,0,0S112,66.52,112,66.61Z"/><path class="cls-11" d="M112.05,66.3a.6.6,0,0,1,.06.27c0,.15-.06,0-.09,0s.09.37.13,0l0,0a1.66,1.66,0,0,1,.16-.64A1.08,1.08,0,0,0,112.05,66.3Z"/><path class="cls-11" d="M112.17,64.56l-.08-.61-.08.31h.06C112.06,64.6,112.13,64.52,112.17,64.56Z"/><polygon class="cls-11" points="112.34 61.17 112.46 61.25 112.28 60.9 112.34 61.17"/><polygon class="cls-11" points="112.29 60.37 112.39 60.4 112.32 60.19 112.29 60.37"/><path class="cls-11" d="M101.74,70.54v.19A1.49,1.49,0,0,0,101.74,70.54Z"/><path class="cls-11" d="M102,69.25l0,0C102,69.28,102,69.3,102,69.25Z"/><path class="cls-11" d="M105.29,45c-.31.07-.68.19-.58.25l.14,0A1.32,1.32,0,0,1,105.29,45Z"/><path class="cls-11" d="M103.3,58.52l0-.07-.08-.19Z"/><path class="cls-11" d="M103.72,58.77l-.12.34A1.83,1.83,0,0,0,103.72,58.77Z"/><path class="cls-11" d="M100,77.56a2,2,0,0,1,0,.24C100.18,77.48,100.08,77.6,100,77.56Z"/><path class="cls-11" d="M111.85,52.16a4.31,4.31,0,0,0,0-.57C111.84,51.87,111.76,52.09,111.85,52.16Z"/><path class="cls-11" d="M100.72,69.78c0,.12,0,.17,0,.17S100.75,69.77,100.72,69.78Z"/><path class="cls-11" d="M111.85,50.93l0,.12a4.24,4.24,0,0,1,.06.54A1.25,1.25,0,0,0,111.85,50.93Z"/><path class="cls-11" d="M88.4,101l0,0S88.38,101,88.4,101Z"/><path class="cls-11" d="M82.26,105.5l.23-.2Z"/><path class="cls-11" d="M112.18,57.14c0,.17,0,0,0,0Z"/><path class="cls-11" d="M111.79,58s0-.06-.05-.06A.1.1,0,0,1,111.79,58Z"/><path class="cls-11" d="M111.1,49.27h0C111.08,49.31,111.08,49.3,111.1,49.27Z"/><path class="cls-11" d="M112.14,57.4a1.38,1.38,0,0,0,0-.22S112.15,57.29,112.14,57.4Z"/><path class="cls-11" d="M112.19,57.37v.15S112.22,57.52,112.19,57.37Z"/><path class="cls-11" d="M112.16,56.91a1.22,1.22,0,0,1,0,.27l0,0Z"/><path class="cls-11" d="M95.44,88.81l0,0C95.38,89,95.41,88.94,95.44,88.81Z"/><polygon class="cls-11" points="104.78 49.55 104.78 49.53 104.77 49.55 104.78 49.55"/><path class="cls-11" d="M104.81,50.17a.91.91,0,0,1,0-.62l-.33.18Z"/><path class="cls-11" d="M101,73.62l.21-.4c0,.55-.13.9.11.54-.32-.14.39-1.63.08-1.77l.14-.26c0,.08,0,.09,0,.17.29-.5-.11-.45.08-1.13.07-.24.15-.4.16-.23l0-.56c0-.15.08-.1,0,0l.14-.83h0a4.86,4.86,0,0,1-.07-.55c.09-.2,0,.11.07.07v-.48c.13-.17.13.23.06.54.42-.35,0-.39.37-1.28l0,.44c.24-.24.24-.59.46-1-.09.1-.5.92-.48.4a1.48,1.48,0,0,0,.09-.6c.12,0,.14-.24.2-.57l.16.05c0-.36-.06-.35-.09-.57a.67.67,0,0,1,.35-.53c.16-.63-.28.4-.16-.35a4.19,4.19,0,0,0,.18-1.55c.11-.36.09.08.15,0l-.08-.35c0-.08,0,0,.07,0,0-.29-.15,0-.13-.49-.16-.15.38-.86.26-1.43.07-.12.09.08.16,0a6.93,6.93,0,0,0-.09-1.28l.18-.5c-.17.36-.24-.15-.3-.59l-.18.31,0-.69c0-.08.08,0,.13.12l0-.13c.09-.23.17-.1.23.09l-.13.23c.07.18.15.35.25.33a.78.78,0,0,1,0-.23c0,.05,0,.08.06.06s0-.09,0-.21l.2-.13-.07-.05.24-.87a11.12,11.12,0,0,1-.21-2.26c.1.26.2.08.36.11-.18.26,0,.79-.14,1.31.06-.27.12-.2.14-.13,0-.32,0-.63,0-1,.12,0,.11-.19.19-.43-.27.16-.1-.72-.14-1.11.08,0,.16.09.09.55.24-.49-.22-.69,0-1.18,0,.12,0,.18,0,.22,0-.27.07-.91.13-.75v.11a6.49,6.49,0,0,0,0-2.43.88.88,0,0,1,.28.18l-.58-1.41c.17.13.65-.29.69.35a2.33,2.33,0,0,0,.06-.78c0,.12-.29.28-.29.11a4.71,4.71,0,0,0,.37-.86c-.06.18-.33,0-.29-.34,0,.05.28,0,.3.11l-.21-.74c0,.18.24,0,.33-.11,0,0,0,0,0-.07l0-.12c0-.09.1-.13.15-.21a1.94,1.94,0,0,0-.17.1,1.82,1.82,0,0,0,.21-.29c.06-.1.09-.2.14-.3a1,1,0,0,1,.55-.57c-.07.1,0,.41.3.3a1.78,1.78,0,0,1,1.37-1l.14.1a6,6,0,0,1,.6,0,8,8,0,0,0-.92.34,5.21,5.21,0,0,0-.84.52c.27,0,.09.08.47,0,.14.06-.19.15-.29.17a3.53,3.53,0,0,1,.86,0c0-.18.7-.08.7-.2a2.26,2.26,0,0,0-.52,0,2.73,2.73,0,0,0-.5.06c-.07-.16.62-.53,1.34-.26.15.11-.22.26-.22.32a1.32,1.32,0,0,1,.7.17l-.3,0c.33.19.67,0,1,.42.14.08.29.46.37.38-.11-.31.15-.85.39-.86l.42.42c0,.06.12.1.14.16l0,.23a2,2,0,0,1-.06.29c-.07.15-.17,0-.26,0s-.17-.11-.23,0,.1.08.12.13-.14-.07-.1.33c.17.05,0,.81.15.18a6,6,0,0,1,0,.87c.1-.15.39.39.46.78,0,0-.1.07-.12.11,0,.8,0,1.23,0,2,0,.07-.07.43-.15.28a1.23,1.23,0,0,1,.11.43c-.12.45,0-.51-.21-.17.1,0,.17.59.25.92.14-.11,0-.76-.09-1.09.21,0,.46.55.6,1.32s-.13.28-.09.38c0,1.17.41,1,.31,2-.12.39-.27,0-.36.12a6.45,6.45,0,0,1,0-1.12l0,.42a1.9,1.9,0,0,1-.07-.68c-.11.33.07,2,0,2.87.06.15.12.43.16.29l0-.28c.1-.26.18.53.21.17a3.69,3.69,0,0,1,.2,1.33l-.15.11s.08-.36,0-.5c.08.22-.16.83,0,1.06l.09-.38a4.42,4.42,0,0,1,.25,1.32c.14-.22,0-.11.14-.45-.21.3,0-1.22-.26-.74.19-.35.06-.6.21-1.06,0,0-.09.16-.08-.23a.26.26,0,0,1,0-.09v0h0a.5.5,0,0,1-.07.21,6,6,0,0,1-.22-1c0-.23.06.1.11,0l-.11-.32c.11,0,.16-.63.25-.08l0-.5a2.73,2.73,0,0,0,0-1c0-.24-.15-.59,0-.39l-.11-.79h0a11.84,11.84,0,0,1-.11-2.49,4.83,4.83,0,0,1-.07-1l.09-.09c0-.33.05-1-.06-1.15a2,2,0,0,0,.08-1l-.06-.65,0-.34,0-.46h-.12c0-.08,0-.17,0-.25l-.22-.15L111,45.7a6.75,6.75,0,0,0-.66-.35l0,.12a10.86,10.86,0,0,0-1.77-.81.82.82,0,0,1,.37.1,2.18,2.18,0,0,0-1.4-.26c-.49,0-.94.18-1.38.24a2.15,2.15,0,0,1-.48.19l0,0-.08,0-.3.09.25-.07a2.54,2.54,0,0,0-.53.38l-.16,0,0,0c-.22.12-.11.17,0,.15a1.7,1.7,0,0,0-.19.27c-.14,0-.23.1-.37.3a2.53,2.53,0,0,0-.18.27.77.77,0,0,1-.12.28c.08.25,0,1.09.18,1.25,0,0,0,.06,0,0a2,2,0,0,0-.06.68l-.16.09.16.53c-.12.31-.19.43-.28.11.11.77,0,.61.13,1.27l-.09,0c0,.23.08.6,0,.73-.23.49-.26,2.52-.56,3.81.31-.22-.18.59,0,.67-.08.07-.15.24-.18,0,0,.67-.25,1-.13,1.46-.08.07-.08-.15-.13-.09s0,.22,0,.28,0-.11-.06-.21c-.09.67.11.77.3.85a.92.92,0,0,0-.06.77c-.08.11-.18.3-.14-.13,0,.24-.3,1.44-.15,1.48a.92.92,0,0,0,0,.4c-.09.53-.11.57-.17,1.1l.05-.14c.16.23,0,.44-.06.86h0c-.28.94,0,.42-.29,1.35l.12,0c.25.13-.31.81-.33,1.37l.11-.18c0,.31-.51.77-.61,1.06,0,.06,0-.11,0-.2-.31.75.13.13,0,.72-.1.09-.18-.18-.28.21-.1.18,0,1.19-.23,1.7.09-.11.18-.21.17.07s-.47,1.07-.34,1.49c0,.05,0,.07-.07.07a12.25,12.25,0,0,0-.07,1.27c-.48.19-.32,2-.69,1.9l-.23,1,0,0a2.28,2.28,0,0,0-.12,1.1c-.06.13-.07,0-.09,0a4.11,4.11,0,0,0-.34,1.79L99,77c0,.23-.6,1.23-.74,2.14a.15.15,0,0,1,0-.12c-.19,1-1.1,2.23-.8,2.73l-.11.68c.31-.82.15.19.33-.12-.08.33-.41.8-.3.39l0-.06c-.09-.11-.2.14-.3.41s-.24.55-.31.51c-.65,1.6-1.37,3.12-2,4.59l.25-.09-.26.5c-.1.12-.21.12,0-.23a.89.89,0,0,0-.19.66c-.41.68,0-.36-.16-.15l-.14.3.06-.05a1.64,1.64,0,0,1-.21.75c-.17.26-.17.09-.23.2s0,0-.09.16l-.32.63.25-.19c-.07.32-.3.6,0,.38a5.46,5.46,0,0,0-.82,1.31,13.15,13.15,0,0,1-.72,1.2,5.54,5.54,0,0,1-.63,1.27c.09-.1.27-.09,0,.31-.21-.33-.53.67-1,.84.33-.19-.7,1.11-.22.8-.24.31-.12,0-.35.15a17.45,17.45,0,0,1-1.87,2.54s.19-.06.09.17l-.54.33c-.13.19.06.32-.31.55.07,0,.16-.06.08.07-.76.82-1.55,1.63-2.29,2.5a11.41,11.41,0,0,1-2.66,2.1c.28-.12.13,0-.05.16.13-.08.07.09.13.12-.28.16-.57.28-.86.42,0,.25-.82.56-.82.74l.24-.18c-.25.37.69.06.77.28.25-.43,1.19-.44,1.57-1.17.16-.07-.06.15,0,.14.08-.2.24-.36.6-.6l0,0c.44-.41.76-.69,1.11-1a13,13,0,0,0,1.19-1h-.16a2.24,2.24,0,0,1,.39-.3c.09-.36-.56.59-.49.23.42-.12,1.39-1.47,1.74-1.51.28-.35-.19,0,.09-.33l.13,0V101c.19-.22.35-.28.41-.25s-.11.17-.16.23a7.1,7.1,0,0,0,.74-.93l-.3.3A22,22,0,0,0,91,97.13l-.09,0c.4-.8.47-.54.93-1.4v0a2.52,2.52,0,0,1,.29-.67c-.06.25.34-.34.24,0,.39-.89.17-.46.31-1.11l.15-.08a1.59,1.59,0,0,1,.23-.7c-.13.39.28-.2.15.24.7-.78.56-1.42,1-1.71,0-.53-.51.73-.45.47-.17.16,0-.44.16-.71s.54-.35.9-1.09a1,1,0,0,0-.06.16c.19-.25.18-.58.44-.87,0-.26.23-.44.07-.58l-.29.7a4.27,4.27,0,0,1,.52-1.45,1.58,1.58,0,0,1-.07.42c.14-.16.14-.37.29-.54.15.14-.36.84-.43,1.32.17-.17.25-.84.35-.54-.11-.42.4-.71.4-1.32l.1.08a1.74,1.74,0,0,1,.09-.43l0,.34c0-.47.44-.76.53-1.19-.33.84-.2.13-.43.45.28-1.09.53-.47.95-1.65,0,.16-.31.56-.26.29a2.62,2.62,0,0,1,.39-.59c.29-.78-.16.07-.1-.28.24-.21.1-.4.19-.75l.12,0c.41-.85-.13-.32.24-1.08l0,.4.1-.44.1.14A2.85,2.85,0,0,1,98.46,82c-.12.07-.19-.13-.06-.53.16-.25.06.19.23-.38a.52.52,0,0,1-.12.53s0,.15.06.19a3.88,3.88,0,0,0,.33-.93,1,1,0,0,1-.1.21l.11-.86c.09-.12.09,0,.09.11,0-.17,0-.3.09-.55.08.09.18.11.11.47l.15-.81c.06,0,.25-.36.25-.25.19-.42.17-1.11.42-1.66a.63.63,0,0,1,0-.23,6.53,6.53,0,0,0,.45-1.68l.27-.32c.09-.51-.35.44-.19-.42.1-.61.2-.18.31-.38a2.6,2.6,0,0,1,.23-1.39A2.61,2.61,0,0,1,101,73.62Zm1.36-6.31c0,.13,0,.39-.06.47C102.18,67.61,102.26,67.51,102.35,67.31Zm1.32-9.69a.62.62,0,0,1-.08.39A1.18,1.18,0,0,1,103.67,57.62ZM112,55.29v0C112,55,112,55.09,112,55.29Zm0,.57c0,.06,0,.06,0,0a.76.76,0,0,1,0-.32S111.93,55.69,112,55.86ZM93.91,90.09,94,90C93.91,90.25,93.91,90.17,93.91,90.09Z"/><path class="cls-11" d="M103.67,58.74a.09.09,0,0,1-.07,0S103.64,58.84,103.67,58.74Z"/><path class="cls-11" d="M100,77.52v0l0,0Z"/><path class="cls-11" d="M110.51,47a.23.23,0,0,1,.06-.13S110.51,46.91,110.51,47Z"/><path class="cls-11" d="M112.32,58.9l0-.36a1,1,0,0,1,0,.33S112.31,58.79,112.32,58.9Z"/><path class="cls-11" d="M111.73,62.14s0,.11,0,.16h0C111.8,62.06,111.74,61.9,111.73,62.14Z"/><path class="cls-11" d="M111.94,59.26c-.1,0-.06.27,0,.52v0C112.06,59.81,112,59.53,111.94,59.26Z"/><path class="cls-11" d="M111.92,59.84a1.93,1.93,0,0,1,0,.24C112,60.11,111.94,60,111.92,59.84Z"/><path class="cls-11" d="M112.07,56.59c0,.12.13.07.09.14C112.3,56.86,112,55.92,112.07,56.59Z"/><polygon class="cls-11" points="111.61 59.49 111.73 59.39 111.63 59.25 111.61 59.49"/><path class="cls-11" d="M111.6,57.45v.41s0,0,0,.11C111.63,57.71,111.64,57.43,111.6,57.45Z"/><path class="cls-11" d="M111.64,58a1,1,0,0,0,0,.33C111.67,58.23,111.66,58.07,111.64,58Z"/><polygon class="cls-11" points="111.55 58.93 111.57 58.8 111.56 58.51 111.55 58.93"/><path class="cls-11" d="M111.41,53l-.06-.45s-.06.08,0,.25S111.37,53.08,111.41,53Z"/><path class="cls-11" d="M111.14,54.39a.46.46,0,0,1,.08-.21h-.15Z"/><path class="cls-11" d="M111,53.08c-.05,0-.16-.65-.12-.08C111,53,111,53.49,111,53.08Z"/><path class="cls-11" d="M110.75,46.42l.09.06.2-.17Z"/><path class="cls-11" d="M105.68,46.33c.38-.2,0-.19.38-.34.06-.1-.32.12-.25,0C105.6,46.21,105.48,46.27,105.68,46.33Z"/><path class="cls-11" d="M105.81,46l.1-.11Z"/><polygon class="cls-11" points="81.18 106.08 80.88 106.2 81.1 106.17 81.18 106.08"/><path class="cls-11" d="M80.74,106.57l-.14-.11-.1.21A.46.46,0,0,1,80.74,106.57Z"/><path class="cls-11" d="M102.86,66.44l0,0a.63.63,0,0,0-.11.28Z"/><polygon class="cls-11" points="101.81 71.01 101.83 70.93 101.65 71.04 101.81 71.01"/><path class="cls-11" d="M101,74.86c.05-.15.06-.34.11-.5C101,74.71,100.8,74.86,101,74.86Z"/></g><path class="cls-12" d="M30.76,52.19s.91,1.06,8.2.46c0,0-10.63,60,9.41,106.44,0,0-1.77.1-8.14-1.43C40.23,157.66,25.29,105,30.76,52.19Z"/><g id="corto" class="cls-13"><path class="cls-11" d="M116.34,72.1c0,.05.1,0,.12,0S116.31,72.11,116.34,72.1Z"/><polygon class="cls-11" points="115.95 71.32 116 71.33 115.87 71.22 115.95 71.32"/><path class="cls-11" d="M115.82,70.55c-.16.11.08.27,0,.42l0,0,.16,0C115.92,70.88,115.79,70.68,115.82,70.55Z"/><path class="cls-11" d="M116.12,70.07c-.06,0-.07-.07,0,.1v0A.32.32,0,0,0,116.12,70.07Z"/><path class="cls-11" d="M116.13,70.15c0,.08.05-.06,0,0Z"/><path class="cls-11" d="M116,69.79l.08.09s0-.12.06-.09S116.08,69.71,116,69.79Z"/><path class="cls-11" d="M115.88,69.71l0,.05S115.94,69.73,115.88,69.71Z"/><path class="cls-11" d="M116,69.87l-.07-.11s-.08,0,0,0C115.89,69.81,116,69.82,116,69.87Z"/><path class="cls-11" d="M116,69.94c0,.06,0,.14-.12,0C115.92,70.19,116,70.14,116,69.94Z"/><path class="cls-11" d="M115.63,70.54l0,.09.07.06S115.68,70.53,115.63,70.54Z"/><path class="cls-11" d="M116,69.11s-.09,0-.14.07l.06.07S116,69.12,116,69.11Z"/><path class="cls-11" d="M115.86,69.18l-.08-.11C115.79,69.18,115.82,69.19,115.86,69.18Z"/><polygon class="cls-11" points="115.68 69.72 115.85 69.89 115.67 69.69 115.68 69.72"/><polygon class="cls-11" points="115.92 68.66 116.02 68.71 115.87 68.61 115.92 68.66"/><path class="cls-11" d="M115.86,68.36c.08,0,.1-.09.16,0a.48.48,0,0,0-.17-.18A.23.23,0,0,1,115.86,68.36Z"/><path class="cls-11" d="M115.75,68a1,1,0,0,0,.1.09A.18.18,0,0,0,115.75,68Z"/><path class="cls-11" d="M115.76,68.87s.08-.05.09-.12l-.1.07Z"/><path class="cls-11" d="M115.75,68.82h0v0Z"/><path class="cls-11" d="M115.76,68.88h0S115.75,68.88,115.76,68.88Z"/><path class="cls-11" d="M115.72,69.4c-.07-.06-.16-.19-.22,0S115.62,69.31,115.72,69.4Z"/><path class="cls-11" d="M115.64,69v.13s.06,0,.1,0Z"/><polygon class="cls-11" points="115.59 68.9 115.64 68.96 115.64 68.91 115.59 68.9"/><path class="cls-11" d="M115.69,68.27a.4.4,0,0,1-.09-.17.81.81,0,0,0,0,.22S115.71,68.34,115.69,68.27Z"/><path class="cls-11" d="M115.71,68.54h0S115.69,68.54,115.71,68.54Z"/><polygon class="cls-11" points="115.48 67.44 115.47 67.45 115.49 67.45 115.48 67.44"/><path class="cls-11" d="M115.59,68.33a.09.09,0,0,0,.06.11.42.42,0,0,1,0-.12S115.58,68.32,115.59,68.33Z"/><path class="cls-11" d="M115.67,67.86a.42.42,0,0,0,0,.1S115.7,67.87,115.67,67.86Z"/><path class="cls-11" d="M115.73,68.5h0S115.74,68.49,115.73,68.5Z"/><path class="cls-11" d="M115.73,68.5l-.08-.06a.26.26,0,0,0,0,.09Z"/><path class="cls-11" d="M114.77,67.36a.17.17,0,0,1,.14.26c.09.11.4,0,.56-.17,0,0-.08,0-.16-.1,0,.05-.08.3-.19.21s0-.14,0-.23c-.11.09-.21-.18-.39-.11l.09.13S114.79,67.32,114.77,67.36Z"/><path class="cls-11" d="M115.5,67.69l0,0a.52.52,0,0,1,.1-.2c-.06-.08-.1-.09-.13-.09l0,.26Z"/><path class="cls-11" d="M115.56,68c-.11,0-.18-.14-.28,0s.11.09.17.17c-.07-.24.07.06.1-.13a.43.43,0,0,1,0,.13l0-.14h-.07c0-.08,0,0,0,0h0l-.1-.23A.91.91,0,0,0,115.56,68Z"/><path class="cls-11" d="M115.25,69.27h0S115.25,69.24,115.25,69.27Z"/><path class="cls-11" d="M115.29,69.16s.07,0,.07.08,0,0-.09,0,.1.11.13,0h0c0-.11.13-.25.15-.24A1.11,1.11,0,0,0,115.29,69.16Z"/><path class="cls-11" d="M115.4,68.56l-.09-.19-.07.12h.05C115.29,68.59,115.36,68.56,115.4,68.56Z"/><polygon class="cls-11" points="115.53 67.41 115.65 67.42 115.47 67.33 115.53 67.41"/><polygon class="cls-11" points="115.47 67.15 115.57 67.14 115.5 67.08 115.47 67.15"/><path class="cls-11" d="M111.62,52.64l0-.06Z"/><path class="cls-11" d="M111.69,53.06h0S111.69,53.05,111.69,53.06Z"/><path class="cls-11" d="M114.31,60.74c.08-.1.2-.22.09-.19l-.1,0A.16.16,0,0,1,114.31,60.74Z"/><path class="cls-11" d="M112.89,56.46l0,0,.11,0Z"/><path class="cls-11" d="M112.43,56.48l0-.12A.73.73,0,0,0,112.43,56.48Z"/><path class="cls-11" d="M111.09,50.32l-.12,0C111,50.38,111,50.32,111.09,50.32Z"/><path class="cls-11" d="M115,64.48a.54.54,0,0,0,0-.19C114.94,64.39,114.86,64.48,115,64.48Z"/><path class="cls-11" d="M112.79,52.6a.1.1,0,0,0-.08,0S112.76,52.61,112.79,52.6Z"/><path class="cls-11" d="M115,64.07l0,.05a.43.43,0,0,1,.06.17A.17.17,0,0,0,115,64.07Z"/><path class="cls-11" d="M107.59,45.09h0S107.58,45.09,107.59,45.09Z"/><path class="cls-11" d="M105,45.41l.07-.08A.31.31,0,0,0,105,45.41Z"/><path class="cls-11" d="M115.33,66.09s0,0,0,0Z"/><path class="cls-11" d="M115,66.44a.11.11,0,0,0-.06,0A.08.08,0,0,1,115,66.44Z"/><path class="cls-11" d="M114.18,63.64h0S114.17,63.65,114.18,63.64Z"/><path class="cls-11" d="M115.3,66.18s0-.05,0-.07A.1.1,0,0,0,115.3,66.18Z"/><path class="cls-11" d="M115.35,66.16v0S115.37,66.21,115.35,66.16Z"/><path class="cls-11" d="M115.31,66a.38.38,0,0,1,0,.1s0,0,0,0Z"/><path class="cls-11" d="M110.76,46.33v0C110.71,46.26,110.73,46.29,110.76,46.33Z"/><polygon class="cls-11" points="112.94 59.5 112.95 59.5 112.95 59.49 112.94 59.5"/><path class="cls-11" d="M112.83,59.31c.15.06.14.12.12.18l.3-.12Z"/><path class="cls-11" d="M111.41,51.62l-.07.15c-.19-.14-.16-.27-.27-.11.34,0,.13.53.47.49l-.05.11s0,0,0-.06c-.13.21.27.09.26.33,0,.09,0,.15-.1.11l.12.16c0,.05-.06.05-.06,0l.07.27h0a1,1,0,0,1,.2.14c0,.07,0,0-.08,0l.11.14c-.08.08-.18,0-.19-.14-.31.2.11.11,0,.45l-.07-.14c-.17.13-.09.23-.17.41,0-.05.24-.37.35-.22s0,.11.06.19c-.12,0-.07.1,0,.21l-.16,0c.06.11.14.08.22.14s-.1.18-.2.23c0,.21.17-.18.24.06s.06.3.19.49c0,.13-.1,0-.14.05l.15.08s0,0-.06,0,.16,0,.23.11-.2.34,0,.48c0,.05-.1,0-.15,0a1.3,1.3,0,0,0,.34.36l-.08.19c.1-.15.27,0,.41.1l.11-.13.12.21s-.08,0-.15,0l0,0c0,.09-.15.06-.24,0l.08-.1a.58.58,0,0,0-.31,0,.13.13,0,0,1,0,.07s0,0-.06,0,0,0,.07.06l-.17.08h.07l-.06.31c.22.18.51.31.64.63-.14-.06-.21,0-.36,0,.14-.12-.12-.24-.12-.42,0,.09-.07.09-.1.07l.2.28c-.13,0-.08.08-.12.17.24-.1.21.2.3.31-.08,0-.17,0-.18-.15-.15.2.33.17.2.36,0,0,0-.06,0-.07s.07.3,0,.26v0c0,.26.13.75.35.75a1.55,1.55,0,0,1-.31,0l.79.31c-.19,0-.59.22-.73,0a.28.28,0,0,0,.06.26s.24-.15.26-.1c-.17.19-.08.13-.22.34,0-.07.32,0,.33,0s-.28.05-.32,0l.32.19c-.06,0-.23,0-.3.1s0,.2.07.26l0-.11c0,.27.44.19.47.46-.06,0-.36,0-.37.12.15,0,.73.15.88.37l-.07.06.12.16a4.77,4.77,0,0,1-.94-.45c0,.11-.09.05-.06.2s-.13-.06-.14-.11v.36c.16,0,.21.23.35.2l-.24-.35a.48.48,0,0,1,.52.38c0,.08-.3,0-.35,0s.15.21.11.24l-.11-.09c0,.15.26.18.14.38s-.19.2-.09.2a2,2,0,0,1,.91-.22,2,2,0,0,1-.21.42c-.13.12-.38-.08-.49,0a.26.26,0,0,1,.13.06c0,.06-.14,0-.1.12s0,.27.15,0c.07.12,0,.14,0,.29.1-.07.39.06.46.18a.27.27,0,0,0-.12.06c0,.26,0,.42,0,.66,0,0-.07.15-.15.12s.1,0,.12.12-.06-.16-.21,0c.1,0,.17.17.25.26.14-.06,0-.25-.1-.34a.64.64,0,0,1,.6.34c.09.19-.12.11-.08.14,0,.39.42.26.33.6-.11.15-.27,0-.36.1-.08-.16,0-.27,0-.38l0,.15s-.11-.15-.08-.21c-.1.12.09.64,0,.95.06,0,.12.12.17.07l0-.09c.09-.1.18.15.21,0,.1.12.24.23.21.42l-.15.06s.07-.13,0-.17-.16.3.05.34l.09-.14c.1.11.28.24.26.4.14-.09,0,0,.13-.17-.2.13-.06-.4-.26-.2.18-.15,0-.21.2-.39-.05,0-.09.07-.09-.07l0,0h0a.13.13,0,0,1-.06.08c-.13,0-.16-.25-.23-.31s.06,0,.11,0l-.11-.08c.11,0,.15-.24.24-.07l0-.17a.33.33,0,0,0,0-.31c0-.08-.15-.17-.06-.12l-.11-.25h0c0-.26-.28-.49-.13-.81a.63.63,0,0,1-.09-.31l.09-.05c-.05-.1,0-.34-.07-.37.24-.17,0-.54,0-.74h-.12a1.28,1.28,0,0,0-.16-.4l-.11,0c-.11-.13,0-.38,0-.6,0,0,0,.06,0,.11.2-.31-.28-.53-.14-.81a.11.11,0,0,1,0-.14h0v0l0-.09a.2.2,0,0,0,0,.08.83.83,0,0,0-.08-.18l.11,0h0c0-.08-.07,0-.15,0l-.09-.07c.18-.09-.1-.17.09-.29-.1,0-.13-.33-.35-.33,0,0,0,0,0,0s0-.17,0-.22l.15-.06-.23-.14c.07-.11.11-.17.25-.09-.22-.21-.1-.18-.32-.36h.1c0-.07-.17-.17-.1-.23s-.12-.83,0-1.28c-.27.13.09-.23-.14-.2.07,0,.1-.11.17-.05-.11-.21,0-.35-.17-.46.06,0,.11,0,.15,0s-.08-.06,0-.09.06,0,.1,0c0-.22-.27-.21-.47-.19.08-.13,0-.18-.09-.24.06,0,.11-.13.16,0,0-.08,0-.49-.15-.47,0,0,0-.11,0-.13a2.23,2.23,0,0,0,0-.36l0,.05c-.2,0-.07-.13-.12-.27h0c.08-.34-.09-.12,0-.47l-.11,0c-.26,0,.1-.3,0-.47l-.06.08c-.1-.08.3-.34.31-.44s0,0,.06,0c.11-.29-.16,0-.23-.19s.22,0,.22-.13-.34-.33-.22-.54c0,.05-.11.1-.17,0s.17-.42,0-.5c0,0,0,0,0,0s-.15-.33-.27-.37c.39-.17-.31-.62.06-.69l-.08-.32h0a.34.34,0,0,0-.22-.33c0-.05.06,0,.08,0,0-.32,0-.35-.23-.57l.12,0c-.09-.05.11-.47-.09-.74a.07.07,0,0,1,.06,0c-.2-.31.2-.87-.27-.91l-.15-.2c0,.29-.2,0-.25.12-.05-.11.08-.31.13-.18l0,0c.24,0,0-.37.18-.4-.11-.56-.09-1.13-.17-1.66l-.17.09,0-.18c0-.06.13-.09.14,0,.09-.09-.12-.21-.16-.2,0-.27.23.06.22,0l0-.11v0c-.09-.08-.17,0-.2-.27s.09-.11.09-.18,0,0,0-.09-.14-.19-.21-.29a1,1,0,0,1,0,.18c-.17,0-.22-.2-.24,0,0-.16-.17-.35-.33-.5s-.4-.23-.42-.3a1.09,1.09,0,0,1-.5-.16.1.1,0,0,1-.15.13c.18-.28-.22-.27-.3-.52.09.18-.5-.06-.35.2-.13-.06,0-.13-.08-.23-.36.08-.78-.13-1.21,0,0,0,.08.1,0,.18a1.53,1.53,0,0,0-.27-.17c-.07.05,0,.27-.19.16,0,0,.08.08,0,.11-.89,0-1.38.83-2.22,1,.14,0,.09.05,0,.1s.08.09.12.12l-.35.11c.07.16-.25.27-.15.4l0-.09c0,.22.43.14.58.33,0-.26.48,0,.46-.41.07,0,0,.09.07.11s0-.17.15-.22v0a2,2,0,0,1,.84-.38l-.09-.09c.09,0,.12,0,.17,0,0-.2-.22.11-.23-.11.2.15.56-.26.72,0,.12,0-.08-.11,0-.15l0,.06v-.1a.19.19,0,0,1,.17.13s0,0-.07.05.28-.11.32-.08l-.12,0a7.21,7.21,0,0,1,1-.13v-.06c.27,0,.19.07.46.14h0a.24.24,0,0,1,.22,0c-.09,0,.07.17,0,.2.3,0,.16,0,.43-.11v.1c.09,0,.12-.07.26,0-.14,0,0,.17-.17.19.14.3.48.12.4.43.27-.11-.1-.28,0-.27s.22-.07.27,0-.1.3-.09.41,0,0,0,0,.1,0,0,.19c.16,0,0,.16.22.15l-.09-.24c.07.13.32.22.25.47a.45.45,0,0,1-.14-.11c-.05.07.06.12,0,.2s-.09-.29-.27-.41c-.07.08.2.25,0,.21.29.06,0,.27.25.41h-.12s.09.08.1.13l-.17-.07c.15.13-.06.3,0,.43,0-.29.13-.09.19-.23.23.33-.26.26-.14.66,0-.06,0-.22.11-.15a.5.5,0,0,1-.09.25c.07.27.11-.06.2,0-.12.12.08.12.15.23l-.12,0c0,.32.26,0,.22.33l-.18-.09.06.14h-.14c.13.14.11.19.1.35a.17.17,0,0,1,.25.12c0,.1-.12,0-.07.15-.08,0-.18-.06-.09-.16s-.08,0-.12,0,0,.25,0,.32a.19.19,0,0,1,0-.08l.22.25s-.08,0-.12,0,.08.09.11.17-.2,0-.27-.09l.15.24s-.09.16-.13.13c0,.16.25.33.21.53a.15.15,0,0,1,.07.07c0,.18-.08.37.09.56l-.15.15c.07.16.19-.2.3.07s-.13.1-.17.18c.11.08.32.22.21.43C111.41,51.72,111.43,51.67,111.41,51.62Zm.45,2.07s-.12-.1-.06-.14S111.89,53.61,111.86,53.69Zm.85,3.12s0-.07,0-.13A.15.15,0,0,1,112.71,56.81Zm2.42,8.69h0C115.15,65.4,115.14,65.43,115.13,65.5Zm0,.2h0s0,0,0-.1S115.07,65.65,115.11,65.7Zm-3.68-20.22,0,.07C111.36,45.44,111.39,45.46,111.43,45.48Z"/><path class="cls-11" d="M112.49,56.48l.06,0A0,0,0,0,0,112.49,56.48Z"/><polygon class="cls-11" points="111.11 50.33 111.11 50.32 111.09 50.32 111.11 50.33"/><path class="cls-11" d="M113.58,63a.19.19,0,0,1,0-.09S113.58,62.92,113.58,63Z"/><path class="cls-11" d="M115.49,66.65l0-.11a.17.17,0,0,1,0,.11S115.48,66.62,115.49,66.65Z"/><path class="cls-11" d="M114.94,67.83s0,0,0,0l0,0C115,67.79,115,67.75,114.94,67.83Z"/><path class="cls-11" d="M115.11,66.84c-.09,0,0,.09,0,.17h0C115.24,67,115.18,66.92,115.11,66.84Z"/><path class="cls-11" d="M115.1,67a.24.24,0,0,1,0,.08C115.18,67.11,115.13,67.08,115.1,67Z"/><path class="cls-11" d="M115.22,65.92s.13,0,.09,0C115.45,66,115.11,65.72,115.22,65.92Z"/><polygon class="cls-11" points="114.8 66.96 114.91 66.91 114.81 66.88 114.8 66.96"/><path class="cls-11" d="M114.77,66.28v.14s0,0,0,0S114.8,66.27,114.77,66.28Z"/><path class="cls-11" d="M114.81,66.45a.12.12,0,0,0,0,.11A.49.49,0,0,0,114.81,66.45Z"/><polygon class="cls-11" points="114.73 66.79 114.75 66.74 114.74 66.64 114.73 66.79"/><path class="cls-11" d="M114.53,64.84l-.06-.14s-.06,0,0,.08S114.5,64.87,114.53,64.84Z"/><path class="cls-11" d="M114.27,65.34s0,0,.09-.08l-.16,0Z"/><path class="cls-11" d="M114.16,64.92s-.16-.19-.11,0C114.09,64.92,114.15,65.06,114.16,64.92Z"/><polygon class="cls-11" points="113.96 62.67 113.97 62.71 114.22 62.66 113.96 62.67"/><path class="cls-11" d="M113,60.84c0,.18.16,0,.12.18s0-.14.09-.11S113.17,60.76,113,60.84Z"/><path class="cls-11" d="M113.22,60.91l0,.05A.12.12,0,0,0,113.22,60.91Z"/><polygon class="cls-11" points="104.55 45.63 104.43 45.69 104.55 45.69 104.55 45.63"/><path class="cls-11" d="M104.53,45.94l-.14-.09.06.16S104.49,45.93,104.53,45.94Z"/><path class="cls-11" d="M111.59,54.06h0s0-.05,0-.1Z"/><polygon class="cls-11" points="111.44 52.52 111.44 52.55 111.58 52.48 111.44 52.52"/><path class="cls-11" d="M111,51.28c0,.06,0,.11,0,.17C111,51.34,111.21,51.24,111,51.28Z"/></g><path class="cls-14" d="M53,215.49s1.41-1.9,1.41-2.61c0,0,10.62,10.53,24.92.67,0,0,.84,1.58.94,1.94,0,.14.15.32.1.45-.61,1.82-2.63,3.82-14.56,3.33C52.64,218.72,53.1,217.14,53,215.49Z"/><path class="cls-14" d="M54.8,212.46a10.76,10.76,0,0,0,.75-2.1s7.38,7.8,22.38.6l.37,1S68.68,220.86,54.8,212.46Z"/><path class="cls-14" d="M85.24,234.14c0,1.13-7.29,2.64-15.77,2.64s-18.15-1.51-18.15-2.64,9-.18,17.49-.18S85.24,233,85.24,234.14Z"/><path class="cls-14" d="M50,218.88s1.49-.52,1.49-1.12c0,0,13.34,8.17,30.57-.19a5.38,5.38,0,0,1,1,1.05c0,.12.82.54.71.6-1.87,1.05-3.92,3.46-18,3.19C50,222.12,50.36,219,50,218.88Z"/><g class="cls-15"><path class="cls-16" d="M54.37,58.35s-7.61-9-1.06-17.5,5.2-6.05,6.54-8.49c2.6-4.74-4.2-14.27-9.55-18-4.18-2.94,8.76,0,14.9,14a4.72,4.72,0,0,1-1.1,5.27C59.08,38,53.31,40.32,54.37,58.35Z"/><path class="cls-16" d="M77.45,57.36s-7.6-9-1.06-17.51,5.2-6.05,6.54-8.48c2.61-4.74-4.19-14.27-9.54-18-4.18-2.94,8.76.05,14.9,14a4.71,4.71,0,0,1-1.11,5.27C82.17,37,76.39,39.32,77.45,57.36Z"/><path class="cls-16" d="M64,56.29c-1.78,6.18-2.32-14.17,5.81-25.09,0,0,4.64-6-2.56-12.31,0,0-7-4.18-5.11-8.13,0,0,3.09-6.71.47-10.22-1-1.33,3.71-.46,4,5.35,0,0-1.33,5.48.23,7.2,3.36,3.7,11.45,10.49,7.43,18.58C71.29,37.64,68.91,39.33,64,56.29Z"/></g><path class="cls-17" d="M103.34,95.47l12.17,11.23a.86.86,0,0,0,1.34-.23l11.7-22a.87.87,0,0,0-.22-1.08l-11.33-9a.86.86,0,0,0-1.26.21L103.2,94.37A.88.88,0,0,0,103.34,95.47Z"/><path class="cls-18" d="M121.33,105.49l-18.08-9.56a1.18,1.18,0,0,1-.56-1.56l12.78-24.16a1.14,1.14,0,0,1,1.6-.42C130,78,135.15,79.34,135.15,79.34a1.18,1.18,0,0,1,.55,1.56s-7.71,8.54-12.77,24.17A1.12,1.12,0,0,1,121.33,105.49Z"/><path class="cls-19" d="M125.13,76.68a11.59,11.59,0,0,0-4.91,6.95l-5.66,1.63"/><path class="cls-20" d="M114.64,85.49s0,0,0,.05S114.64,85.48,114.64,85.49Z"/><polygon class="cls-20" points="114.96 85.3 114.95 85.32 114.99 85.26 114.96 85.3"/><path class="cls-20" d="M115.28,85.21c0-.06-.12,0-.18,0h0v.06C115.14,85.26,115.22,85.2,115.28,85.21Z"/><path class="cls-20" d="M115.49,85.31s0,0,0,0h0Z"/><path class="cls-20" d="M115.46,85.31s0,0,0,0Z"/><path class="cls-20" d="M115.61,85.25l0,0s.05,0,0,0S115.64,85.27,115.61,85.25Z"/><path class="cls-20" d="M115.63,85.19l0,0S115.63,85.21,115.63,85.19Z"/><path class="cls-20" d="M115.57,85.24l0,0s0,0,0,0S115.59,85.22,115.57,85.24Z"/><path class="cls-20" d="M115.54,85.24s-.06,0,0,0S115.46,85.28,115.54,85.24Z"/><path class="cls-20" d="M115.27,85.13h0l0,0S115.28,85.15,115.27,85.13Z"/><path class="cls-20" d="M115.89,85.21s0,0,0,0l0,0S115.88,85.19,115.89,85.21Z"/><path class="cls-20" d="M115.86,85.16l0,0S115.85,85.14,115.86,85.16Z"/><polygon class="cls-20" points="115.62 85.11 115.56 85.19 115.64 85.11 115.62 85.11"/><polygon class="cls-20" points="116.08 85.16 116.06 85.2 116.1 85.13 116.08 85.16"/><path class="cls-20" d="M116.2,85.12s0,0,0,.06a.27.27,0,0,0,.07-.08A.1.1,0,0,1,116.2,85.12Z"/><path class="cls-20" d="M116.34,85.06s0,0,0,0Z"/><path class="cls-20" d="M116,85.1s0,0,.05,0l0,0Z"/><path class="cls-20" d="M116,85.1Z"/><path class="cls-20" d="M116,85.1h0Z"/><path class="cls-20" d="M115.76,85.11s.07-.07,0-.09S115.79,85.07,115.76,85.11Z"/><path class="cls-20" d="M115.94,85.06h0s0,0,0,0Z"/><polygon class="cls-20" points="115.96 85.04 115.94 85.06 115.96 85.06 115.96 85.04"/><path class="cls-20" d="M116.24,85.05s0,0,.06,0l-.09,0S116.2,85.06,116.24,85.05Z"/><path class="cls-20" d="M116.12,85.07h0Z"/><polygon class="cls-20" points="116.58 84.92 116.57 84.92 116.57 84.92 116.58 84.92"/><path class="cls-20" d="M116.2,85s0,0,0,0l0,0Z"/><path class="cls-20" d="M116.41,85h0S116.41,85,116.41,85Z"/><path class="cls-20" d="M116.14,85.07h0S116.14,85.08,116.14,85.07Z"/><path class="cls-20" d="M116.14,85.07l0,0,0,0Z"/><path class="cls-20" d="M116.58,84.64a.07.07,0,0,1-.1.06s0,.16.09.22,0,0,0-.07-.13,0-.1-.07.06,0,.1,0,.07-.09,0-.16l0,0S116.6,84.64,116.58,84.64Z"/><path class="cls-20" d="M116.47,84.94h0a.19.19,0,0,1,.09,0s0,0,0-.06l-.1,0Z"/><path class="cls-20" d="M116.36,85s0-.08,0-.11,0,0-.06.07,0,0,.06,0l-.06,0h.06v0s0,0,0,0h0l.09,0Z"/><path class="cls-20" d="M115.79,84.92h0S115.81,84.91,115.79,84.92Z"/><path class="cls-20" d="M115.84,84.93s0,0,0,0,0,0,0,0,0,0,0,0h0s.12,0,.11,0A.23.23,0,0,0,115.84,84.93Z"/><path class="cls-20" d="M116.1,84.94l.08,0-.06,0v0S116.1,84.93,116.1,84.94Z"/><polygon class="cls-20" points="116.59 84.94 116.59 84.99 116.63 84.91 116.59 84.94"/><polygon class="cls-20" points="116.7 84.9 116.71 84.94 116.73 84.91 116.7 84.9"/><path class="cls-20" d="M121,81.06v0Z"/><path class="cls-20" d="M120.89,81.23h0S120.89,81.22,120.89,81.23Z"/><path class="cls-20" d="M119.37,84.13s.1.07.08,0l0,0S119.38,84.14,119.37,84.13Z"/><polygon class="cls-20" points="120.5 82.72 120.48 82.73 120.51 82.77 120.5 82.72"/><path class="cls-20" d="M120.34,82.64l0,0S120.35,82.62,120.34,82.64Z"/><path class="cls-20" d="M121.43,80.14l0,0S121.41,80.12,121.43,80.14Z"/><path class="cls-20" d="M117.81,84.57a.11.11,0,0,0,.08,0S117.81,84.53,117.81,84.57Z"/><path class="cls-20" d="M121.35,81.33s0,0,0,0S121.34,81.33,121.35,81.33Z"/><path class="cls-20" d="M118,84.55h0a.15.15,0,0,1-.07,0A.08.08,0,0,0,118,84.55Z"/><path class="cls-20" d="M123.86,77.3h0Z"/><path class="cls-20" d="M125,77l0,0S125,77,125,77Z"/><path class="cls-20" d="M117.14,84.8Z"/><path class="cls-20" d="M117,84.66s0,0,0,0S117,84.66,117,84.66Z"/><path class="cls-20" d="M118.14,84.22Z"/><path class="cls-20" d="M117.1,84.79h0Z"/><path class="cls-20" d="M117.11,84.81h0Z"/><path class="cls-20" d="M117.17,84.79h0Z"/><path class="cls-20" d="M122.55,78.81h0S122.56,78.79,122.55,78.81Z"/><polygon class="cls-20" points="119.84 83.53 119.84 83.53 119.84 83.53 119.84 83.53"/><path class="cls-20" d="M119.91,83.47c0,.06,0,.06-.07.06l.06.11Z"/><path class="cls-20" d="M121.17,80.66l-.06,0c0-.09,0-.13,0-.11.11.08-.11.22,0,.29l0,0s0,0,0,0,.06.1,0,.18-.06,0-.06,0v.09s0,0,0,0l0,.11h0a.54.54,0,0,1,0,.1s0,0,0,0v.07s0,0,0-.09c-.15,0,0,.06-.12.15v-.06c-.09,0-.08.06-.16.1s.17-.08.17,0a.11.11,0,0,0,0,.09c-.05,0-.05,0-.07.06l-.06,0s0,.06,0,.1-.08,0-.12,0,.09,0,.07.08-.05.12-.05.22,0,0-.06,0l0,.06s0,0,0,0,.06,0,0,.09-.14.08-.1.18,0,0-.06,0a.71.71,0,0,0,0,.21l-.07,0c.07,0,.09.05.12.13l.06,0v.1s0,0-.06,0v0s-.06,0-.09,0l0,0s-.06-.07-.1-.08,0,0,0,0l0,0s0,0,0,0h-.07l0,0-.08.11a.8.8,0,0,1,.1.36s-.08,0-.14,0,0-.12.05-.19a0,0,0,0,1-.06,0l0,.14s0,0-.08.05c.11,0,0,.11,0,.17s-.06,0,0-.09.08.13,0,.17,0,0,0,0,0,.09,0,.06h0c0,.08-.12.1-.11.19l0-.12a2,2,0,0,1-.09.33c0-.08-.12-.23,0-.29s-.06,0-.11,0,.07.09,0,.1,0,0-.15-.07,0,.13,0,.13,0-.1,0-.12l-.07.14s0-.1,0-.12-.08,0-.11,0h0c-.11,0-.06.19-.17.21s0-.14-.07-.14,0,.3-.12.37l0,0-.06.06a1.93,1.93,0,0,1,.15-.4c-.05,0,0,0-.08,0s0-.06,0-.06l-.15,0c0,.06-.09.1-.07.15l.14-.11a.19.19,0,0,1-.14.22s0-.12,0-.14-.09.07-.1.06l0-.05c-.06,0-.07.11-.15.07s-.1-.06-.09,0a.7.7,0,0,1,.12.35.62.62,0,0,1-.18-.06c-.06,0,0-.16,0-.2s0,.05,0,.06,0-.06,0,0-.12,0,0,.07c0,0-.06,0-.12,0s0,.16-.07.19,0,0,0,0a2.36,2.36,0,0,0-.28,0s-.07,0-.06-.05,0,0,0,.05.07,0,0-.08-.07.07-.11.11.11,0,.15-.06a.26.26,0,0,1-.13.26c-.08,0,0,0-.06,0s-.09.18-.24.16,0-.1-.05-.13.11,0,.16,0h-.07a.12.12,0,0,1,.09,0c-.06,0-.27.07-.4.06s0,.06,0,.07l0,0s-.06.08,0,.09-.09.1-.17.1l0,0s.06,0,.07,0-.13,0-.14,0l.06,0s-.09.13-.16.13,0,0,.08,0,.16,0,.08-.12.09,0,.17.06,0,0,0,0v0h0l0,0c0-.05.1-.07.12-.1s0,0,0,0l0,0s.11,0,0,.1l.07,0a.18.18,0,0,0,.13,0s.07-.07,0,0l.1-.06h0c.11,0,.2-.13.34-.09a.32.32,0,0,1,.13-.05l0,0s.15,0,.16,0,.22,0,.31,0v-.05a.48.48,0,0,0,.16-.08v0c0-.05.16,0,.25-.05s0,0,0,0c.14.07.22-.14.34-.1a0,0,0,0,1,.06,0h0l.07,0,0,0h0s0,0,0-.06l0,0c0,.07.06,0,.12,0s.13-.07.13-.15,0,0,0,0a.12.12,0,0,0,.1,0l0,.06,0-.1c.06,0,.08,0,0,.09.09-.1.07,0,.15-.14v0c.05,0,.09-.08.13-.06h.14c0-.05,0-.12.07-.19a.9.9,0,0,1,.14-.31c-.12,0,.08-.07,0-.1s0,0,.07,0,.08-.12,0-.2,0,0,0,0,0,0,0,0,0,0,0,0,0-.13-.13-.17.06,0,0-.11.07,0,0,0,.12-.18.06-.2a0,0,0,0,0,0,0,1,1,0,0,0,.07-.15l0,0c-.06-.06,0-.07,0-.13h0c.1-.11,0-.07.1-.17h0c-.09,0,.1-.09.1-.17h0s.18,0,.21-.08,0,0,0,0,0,0,0-.12.07,0,.1,0,0-.2.06-.24-.06,0-.06,0,.15-.1.1-.19h0a.41.41,0,0,0,0-.19c.17,0,.07-.29.2-.21l.06-.13h0a.14.14,0,0,0,0-.16,0,0,0,0,1,0,0,.22.22,0,0,0,.08-.24h.05s.17-.12.19-.25a0,0,0,0,1,0,0c0-.15.29-.21.18-.36l0-.1c-.09.09-.06-.06-.11,0s.12-.07.09,0h0c.06.07.11-.1.16-.06a6.11,6.11,0,0,1,.47-.53l-.08,0,.06-.05s.06,0,0,.05,0-.09,0-.1,0,.08.06.06l0,0h0s0-.07,0-.12,0,0,.06,0,0,0,0,0l.07-.07H123c0-.06.06-.07,0-.08.12,0,.28-.25.33-.26a.25.25,0,0,1,.11-.17s-.08,0,0-.07.12,0,.23,0c-.08,0,.11-.15,0-.16,0,0,0,0,.09,0s.23-.17.33-.29,0,0,0-.06h.12s0-.09,0-.08,0,0,0,0c.29-.13.45-.46.8-.5,0,0,0,0,0,0s0,0,0-.06H125c0-.07.12-.08.1-.14l0,0c0-.09-.15-.1-.2-.18,0,.1-.21,0-.23.14,0,0,0,0,0,0s0,.07-.08.09h0a2.24,2.24,0,0,1-.38.21l0,0s0,0-.07,0,.09-.07.11,0-.23.18-.33.12,0,0,0,.07h0l0,0a.07.07,0,0,1-.1,0s0,0,0,0-.11.11-.13.11l.06,0c-.11.13-.3.24-.37.4h0c-.06.12-.09,0-.17.17h0a.12.12,0,0,1,0,.09s-.08,0-.07,0c-.07.13,0,.07,0,.2h0a.1.1,0,0,1,0,.11c0-.06-.07,0-.06-.08-.16.06-.08.22-.22.19,0,.11.13-.06.12,0s0,.1,0,.12-.15,0-.22.06,0,0,0,0,0,.09-.1.1,0,.06,0,.11l.06-.09c0,.06,0,.16-.09.21v-.08s0,.06-.06.07.07-.12.06-.2,0,.13-.08,0c.06.1-.08.08-.06.19l0,0s0,0,0,.06l0-.07c0,.09-.11.07-.13.14.08-.1.07,0,.13,0,0,.16-.16,0-.24.15,0,0,.07,0,.07,0a.24.24,0,0,1-.1,0c-.06.1,0,0,0,.07s0,.06,0,.11l0,0c-.1.09.06.08,0,.16l0-.08,0,.06,0,0a.15.15,0,0,1-.08.13.07.07,0,0,1,0,.11s0,0-.06,0,0-.07,0-.08l0,0c-.05,0-.06.09-.08.11l0,0v.14s0,0,0,0,0,0,0,.08-.06,0-.05-.1l0,.12s-.07,0-.07,0,0,.18-.09.23v0c-.06.06-.13.1-.13.21l-.09,0c0,.07.11,0,.08.1s-.07,0-.1,0,0,.16-.06.2S121.16,80.68,121.17,80.66Zm-.39.83s0-.06,0-.06S120.81,81.47,120.78,81.49Zm-.41,1.33s0,0,0,0A.05.05,0,0,1,120.37,82.82Zm-3,1.87h0C117.43,84.69,117.41,84.69,117.38,84.69Zm-.08,0s0,0,0,0,0,0,0,0S117.32,84.67,117.3,84.69ZM123,78.82h0S123,78.81,123,78.82Z"/><path class="cls-20" d="M120.36,82.65h0S120.37,82.64,120.36,82.65Z"/><polygon class="cls-20" points="121.43 80.15 121.44 80.14 121.43 80.14 121.43 80.15"/><path class="cls-20" d="M118.39,84h0S118.42,83.94,118.39,84Z"/><path class="cls-20" d="M116.91,84.89l0,0a.08.08,0,0,1,0,0S116.93,84.88,116.91,84.89Z"/><path class="cls-20" d="M116.39,84.72s0,0,0,0v0S116.43,84.72,116.39,84.72Z"/><path class="cls-20" d="M116.82,84.75s0,0-.08,0h0S116.79,84.77,116.82,84.75Z"/><path class="cls-20" d="M116.74,84.75h0S116.72,84.76,116.74,84.75Z"/><path class="cls-20" d="M117.21,84.74s0,.06,0,0S117.29,84.69,117.21,84.74Z"/><polygon class="cls-20" points="116.75 84.63 116.78 84.67 116.79 84.63 116.75 84.63"/><path class="cls-20" d="M117,84.58H117s0,0,0,0S117.05,84.59,117,84.58Z"/><path class="cls-20" d="M117,84.6s0,0,0,0Z"/><polygon class="cls-20" points="116.83 84.59 116.85 84.59 116.89 84.59 116.83 84.59"/><path class="cls-20" d="M117.64,84.42l.06,0s0,0,0,0S117.63,84.4,117.64,84.42Z"/><path class="cls-20" d="M117.42,84.34s0,0,0,0l0-.06Z"/><path class="cls-20" d="M117.59,84.27s.08-.07,0,0S117.53,84.28,117.59,84.27Z"/><polygon class="cls-20" points="118.53 84.08 118.52 84.09 118.55 84.19 118.53 84.08"/><path class="cls-20" d="M119.28,83.62c-.08,0,0,.06-.08,0s.06,0,0,0S119.32,83.67,119.28,83.62Z"/><path class="cls-20" d="M119.25,83.7l0,0S119.25,83.71,119.25,83.7Z"/><polygon class="cls-20" points="125.14 76.96 125.19 76.95 125.15 76.94 125.14 76.96"/><path class="cls-20" d="M125.18,76.85l0,.05v-.06S125.19,76.86,125.18,76.85Z"/><path class="cls-20" d="M120.61,81.56h0s0,0,0,0Z"/><polygon class="cls-20" points="120.94 80.97 120.93 80.98 120.99 80.99 120.94 80.97"/><path class="cls-20" d="M121.15,80.44s0,0,0,.07S121.21,80.48,121.15,80.44Z"/><polyline class="cls-19" points="116.41 92.13 120.22 83.63 124 89.99"/><path class="cls-20" d="M124.2,89.85s0,0,0,0S124.19,89.86,124.2,89.85Z"/><polygon class="cls-20" points="123.91 89.55 123.93 89.55 123.86 89.52 123.91 89.55"/><path class="cls-20" d="M123.72,89.22c0,.07.08.11.09.18v0h.07C123.82,89.35,123.73,89.28,123.72,89.22Z"/><path class="cls-20" d="M123.75,89s0,0,0,0h0Z"/><path class="cls-20" d="M123.76,89s0,0,0,0Z"/><path class="cls-20" d="M123.66,88.85l0,0s0-.06,0,0S123.66,88.81,123.66,88.85Z"/><path class="cls-20" d="M123.59,88.83l0,0Z"/><path class="cls-20" d="M123.66,88.89l0,0s0,0,0,0S123.63,88.88,123.66,88.89Z"/><path class="cls-20" d="M123.67,88.92s0,.08,0,0S123.73,89,123.67,88.92Z"/><path class="cls-20" d="M123.64,89.24v.05h0S123.66,89.23,123.64,89.24Z"/><path class="cls-20" d="M123.52,88.55s0,0,0,0l0,0S123.5,88.56,123.52,88.55Z"/><path class="cls-20" d="M123.48,88.6l0,0S123.47,88.61,123.48,88.6Z"/><polygon class="cls-20" points="123.51 88.87 123.61 88.92 123.5 88.85 123.51 88.87"/><polygon class="cls-20" points="123.41 88.36 123.45 88.37 123.38 88.34 123.41 88.36"/><path class="cls-20" d="M123.33,88.23s0,0,0,0a.21.21,0,0,0-.1-.06S123.32,88.18,123.33,88.23Z"/><path class="cls-20" d="M123.23,88.1l0,0S123.25,88.11,123.23,88.1Z"/><path class="cls-20" d="M123.38,88.47a.08.08,0,0,0,0-.06l0,0Z"/><path class="cls-20" d="M123.37,88.45h0l0,0Z"/><path class="cls-20" d="M123.39,88.48h0A0,0,0,0,0,123.39,88.48Z"/><path class="cls-20" d="M123.47,88.71s-.1-.06-.09,0S123.41,88.69,123.47,88.71Z"/><path class="cls-20" d="M123.35,88.53l0,.06s0,0,0,0Z"/><polygon class="cls-20" points="123.33 88.51 123.35 88.53 123.34 88.51 123.33 88.51"/><path class="cls-20" d="M123.25,88.21s0,0-.07-.06l0,.09S123.27,88.24,123.25,88.21Z"/><path class="cls-20" d="M123.3,88.33Z"/><polygon class="cls-20" points="123.01 87.86 123.01 87.87 123.02 87.87 123.01 87.86"/><path class="cls-20" d="M123.22,88.25a.07.07,0,0,0,0,0l0-.06S123.21,88.25,123.22,88.25Z"/><path class="cls-20" d="M123.16,88v0S123.17,88,123.16,88Z"/><path class="cls-20" d="M123.3,88.31h0S123.31,88.31,123.3,88.31Z"/><path class="cls-20" d="M123.3,88.31h0l0,0Z"/><path class="cls-20" d="M122.73,87.92s.1,0,.1.1.14-.06.18-.15,0,0-.08,0,0,.14,0,.11,0-.06,0-.1-.11-.06-.16,0l.05,0S122.73,87.9,122.73,87.92Z"/><path class="cls-20" d="M123.07,88v0a.4.4,0,0,1,0-.11l-.06,0,.06.11Z"/><path class="cls-20" d="M123.14,88.09s-.09,0-.11,0,0,0,.09.06,0,0,0-.07a.1.1,0,0,1,0,.05v-.07h0s0,0,0,0h0l-.08-.09Z"/><path class="cls-20" d="M123.26,88.72a0,0,0,0,1,0,0S123.26,88.71,123.26,88.72Z"/><path class="cls-20" d="M123.26,88.66s0,0,0,0,0,0,0,0,.06,0,0,0h0a.23.23,0,0,1,0-.13A.33.33,0,0,0,123.26,88.66Z"/><path class="cls-20" d="M123.19,88.38l-.07-.07v.06l0,0C123.15,88.41,123.17,88.38,123.19,88.38Z"/><polygon class="cls-20" points="123.03 87.84 123.07 87.83 122.99 87.82 123.03 87.84"/><polygon class="cls-20" points="122.96 87.74 122.99 87.72 122.95 87.7 122.96 87.74"/><path class="cls-20" d="M119.46,85.9v0Z"/><path class="cls-20" d="M119.55,85.7h0Z"/><path class="cls-20" d="M121.32,85s0-.12,0-.1l0,0A.06.06,0,0,1,121.32,85Z"/><path class="cls-20" d="M120.05,84h0v0Z"/><path class="cls-20" d="M120.14,84.25h0Z"/><path class="cls-20" d="M119,87l0,0S119.05,87,119,87Z"/><path class="cls-20" d="M122.26,86.6a.2.2,0,0,0,0-.09S122.23,86.61,122.26,86.6Z"/><path class="cls-20" d="M119.07,85.63s0,0,0,0S119.09,85.63,119.07,85.63Z"/><path class="cls-20" d="M122.18,86.42v0l0,.07A.08.08,0,0,0,122.18,86.42Z"/><path class="cls-20" d="M117.28,90.79h0Z"/><path class="cls-20" d="M116.38,91.73l0,0A.06.06,0,0,0,116.38,91.73Z"/><path class="cls-20" d="M122.71,87.28Z"/><path class="cls-20" d="M122.63,87.48h0Z"/><path class="cls-20" d="M121.81,86.32Z"/><path class="cls-20" d="M122.71,87.32v0Z"/><path class="cls-20" d="M122.72,87.31v0S122.74,87.33,122.72,87.31Z"/><path class="cls-20" d="M122.68,87.25a.05.05,0,0,1,0,0,0,0,0,0,1,0,0Z"/><path class="cls-20" d="M118.09,88.69Z"/><polygon class="cls-20" points="120.57 84.62 120.58 84.62 120.58 84.62 120.57 84.62"/><path class="cls-20" d="M120.49,84.55c.07,0,.08,0,.08.07l.1-.1Z"/><path class="cls-20" d="M119.26,86.36l.07,0c0,.1,0,.15,0,.11-.12-.07.1-.25,0-.32l0,0s0,0,0,0-.06-.1,0-.2.06,0,.06,0v-.1s0,0,0,0l0-.13h0a.44.44,0,0,1,0-.1s0,0,0,0v-.09s0,.06,0,.11c.15,0,0-.07.12-.18v.07c.09,0,.09-.07.16-.12s-.17.09-.17,0a.08.08,0,0,0,0-.09s0,0,.07-.07l.06,0c0-.07,0-.07,0-.12a.11.11,0,0,1,.13,0c0-.09-.1,0-.07-.09a.36.36,0,0,0,.07-.24s0,0,.06,0l0-.07s0,0,0,0-.06,0,0-.1.16-.1.12-.21,0,0,.06,0,0-.07,0-.19h0s-.07-.1-.06-.22H120l0-.15s0,0,0,.09v0s0,.06,0,.13l0,0a.49.49,0,0,0,0,.17v0l0,0a.18.18,0,0,0,0,0l0,.07,0,0h0a3.71,3.71,0,0,1,0-.44,0,0,0,0,1,.06,0,2.1,2.1,0,0,0,0,.27c0-.09,0-.08,0-.06l0,.08s0,.06,0,.08V84l0,0a.37.37,0,0,0,0,.14c0-.2,0-.06.07-.07s0,.09,0,0c0,.14.06-.12.07,0,0,0,0,0,0,0s.06.08,0,.09h0a.34.34,0,0,0,.07.11c.05.06.1.11.14.09l-.11,0,.36,0c-.08,0-.19.18-.27.11a.14.14,0,0,0,.06.11s.07-.1.09-.08a1.13,1.13,0,0,0,0,.18s.12-.06.14,0-.1.06-.12,0l.16,0s-.08,0-.1.08,0,.09.08.11V85c.06.12.21,0,.27.15s-.14,0-.12.1.31,0,.4,0v0l.07.06a3.39,3.39,0,0,1-.44-.08s0,0,0,.09-.06,0-.07,0l.07.16c.06,0,.13.08.17,0l-.15-.12a.22.22,0,0,1,.27.11s-.12,0-.14,0,.1.08.09.09l0,0c0,.07.13,0,.12.15s0,.12,0,.1a.58.58,0,0,1,.31-.21.79.79,0,0,1,0,.21c0,.07-.15,0-.18.08s.05,0,.06,0,0,0,0,.07.06.12.06,0c.05,0,0,.07.07.13s.16,0,.21,0l0,0c.06.12.07.19.13.3s0,.07,0,.07,0,0,.07,0,0-.07-.09,0,.1,0,.15.08-.05-.11-.1-.14a.27.27,0,0,1,.29.08c.07.07,0,.06,0,.07.09.17.21.06.24.23s-.09.06-.12.09,0-.13-.06-.17v.07s-.07-.06-.07-.09.16.28.19.43.07,0,.08,0l0,0c0-.06.09,0,.08,0a.29.29,0,0,1,.16.15l0,0s0-.07,0-.08,0,.16.08.15v-.07c.06,0,.15.07.17.14s0,0,0-.09c0,.08-.1-.17-.14-.06,0-.09,0-.1,0-.2s0,0,0,0h0s0,0,0,0-.11-.09-.15-.11,0,0,0,0l-.06,0s0-.13.08-.06l0-.07a.16.16,0,0,0-.06-.14s-.09-.06-.05,0l-.08-.09h0c0-.11-.19-.18-.19-.35a.22.22,0,0,1-.09-.13l0,0s-.05-.16-.09-.16-.12-.23-.15-.33l0,0a.64.64,0,0,0-.13-.17l0,0c-.07,0-.06-.17-.12-.26s0,0,0,0c0-.16-.21-.2-.21-.34a.06.06,0,0,1,0-.06h0v0a.33.33,0,0,0-.06-.08l0,0h0s0,0-.06,0l0,0c.06-.06-.06-.06,0-.14s-.12-.13-.2-.1,0,0,0,0a.13.13,0,0,0-.06-.09l0,0-.11,0c0-.07,0-.1.08-.08-.12-.06-.07-.07-.19-.12l0,0s-.1,0-.08-.09-.27-.47-.41-.85c0,.28-.08-.23-.08-.06,0-.07,0-.15,0-.15v0c-.06.16-.11.14-.13.37,0,0,0-.11,0-.12s0,.09,0,.08,0-.06,0-.1a.54.54,0,0,0,0,.43s-.07.07-.06.17-.06,0,0-.09-.17.29-.11.32,0,.07,0,.08a1.19,1.19,0,0,0-.08.16l0,0c.06.07,0,.08,0,.14h0c-.12.12,0,.07-.13.19h0c.09,0-.11.1-.11.2l0,0c0,.06-.19.07-.22.11s0,0,0,0,.06,0,0,.13-.07,0-.1,0,0,.21-.07.27.06,0,.06,0-.17.13-.12.22,0,0,0,0,0,.18,0,.22c-.17,0-.06.33-.2.27l-.06.15h0a.19.19,0,0,0,0,.19s0,0,0,0a.28.28,0,0,0-.07.29h0s-.16.17-.17.32a0,0,0,0,1,0,0c0,.18-.29.31-.15.44v.12c.07-.13.07,0,.12,0s-.11.11-.09,0h0c-.07-.06-.1.15-.16.12-.11.26-.27.49-.38.73h.08l0,.08s-.07,0,0,0,0,.11,0,.12,0-.08-.07-.05l0,.06h0s0,.07,0,.14,0,0-.07,0,0,0,0,0l-.05.11.07,0c0,.06,0,.1,0,.07-.12,0-.21.38-.25.41a.38.38,0,0,1-.06.23s.08,0,0,.06-.11.11-.22.12c.08,0-.07.2,0,.16s0,0-.09,0-.17.28-.23.46c0,0,0,0,.06,0l-.12.05s.08.08,0,.11,0,0,0,0c-.23.3-.24.71-.54,1,0,0,0,0,0,0s0,0,.06,0l-.12.11c0,.05-.07.15,0,.19V92c0,.09.19,0,.28,0s.19-.13.13-.29c0,0,0,0,0,0a.1.1,0,0,1,0-.13h0a1.92,1.92,0,0,1,.26-.42h0a.09.09,0,0,1,.06,0c0-.08-.06.11-.11,0,.11,0,.13-.3.25-.29s-.06,0,0-.07h0l0,0a.07.07,0,0,1,.09,0,.06.06,0,0,0,0,0c.06,0,.06-.16.08-.17l0,0a3.1,3.1,0,0,0,.21-.58h0c0-.14.07-.09.12-.24h0a.17.17,0,0,1,0-.12c0,.05.08,0,.08,0,0-.16,0-.08,0-.21h0s0,0,0-.13c0,.08.07,0,.08.06.14-.11,0-.25.17-.27-.07-.11-.11.1-.12.06s0-.09,0-.13.16,0,.21-.15,0,0,0,0,0-.11.07-.14,0-.07,0-.12l0,.12c0-.07-.05-.17,0-.25a.17.17,0,0,1,0,.08s0-.06,0-.09,0,.14,0,.24,0-.15.07-.09c-.08-.09.06-.11,0-.22l0,0a.08.08,0,0,1,0-.07l0,.06c0-.08.09-.1.1-.18-.06.13-.07,0-.13,0,0-.19.16,0,.22-.24,0,0-.07.09-.07,0a.23.23,0,0,1,.09-.08c0-.13-.05,0-.05-.07s0-.07,0-.13l0,0c.09-.12-.07-.07,0-.18l0,.08v-.08l0,0a.25.25,0,0,1,.06-.17s-.07,0-.05-.1,0,0,.07-.05,0,.07,0,.09l0,0c.05,0,.06-.11.07-.14l0,0v-.16s0,0,0,0,0-.06,0-.1.07,0,.06.1l0-.14s.07,0,.07,0,0-.19.07-.26a.08.08,0,0,1,0,0c0-.07.12-.13.11-.25l.09,0c0-.09-.11,0-.08-.1s.07,0,.1,0,0-.16.05-.22A.15.15,0,0,1,119.26,86.36Zm.4-1s0,.07,0,.07S119.63,85.43,119.66,85.41Zm.49-1.38s0,0,0,0S120.13,84,120.15,84Zm2.37,3h0C122.51,87,122.51,87,122.52,87Zm0,.09h0s0,0,0,0S122.52,87.11,122.55,87.13Zm-4.87,1.69h0S117.68,88.84,117.68,88.82Z"/><path class="cls-20" d="M120.13,84.23l0,0Z"/><polygon class="cls-20" points="119.02 86.96 119.02 86.97 119.03 86.97 119.02 86.96"/><path class="cls-20" d="M121.46,86.1v0S121.45,86.07,121.46,86.1Z"/><path class="cls-20" d="M122.87,87.51l0,0s0,0,0,0S122.86,87.5,122.87,87.51Z"/><path class="cls-20" d="M122.88,88.11s0,0,0,0v0S122.87,88.07,122.88,88.11Z"/><path class="cls-20" d="M122.76,87.64s0,0,0,.08h0C122.84,87.7,122.8,87.67,122.76,87.64Z"/><path class="cls-20" d="M122.79,87.73s0,0,0,0S122.81,87.75,122.79,87.73Z"/><path class="cls-20" d="M122.63,87.22s.05,0,0,0S122.55,87.14,122.63,87.22Z"/><polygon class="cls-20" points="122.66 87.74 122.7 87.7 122.65 87.7 122.66 87.74"/><path class="cls-20" d="M122.53,87.44l0,.06h0S122.54,87.43,122.53,87.44Z"/><path class="cls-20" d="M122.57,87.51a.08.08,0,0,0,0,0S122.59,87.52,122.57,87.51Z"/><polygon class="cls-20" points="122.6 87.67 122.6 87.64 122.58 87.6 122.6 87.67"/><path class="cls-20" d="M122.17,86.82l0-.06s0,0,0,0S122.16,86.83,122.17,86.82Z"/><path class="cls-20" d="M122.16,87.07s0,0,0,0l-.06,0Z"/><path class="cls-20" d="M122,86.9s-.1-.07,0,0S122.06,87,122,86.9Z"/><polygon class="cls-20" points="121.55 85.92 121.56 85.93 121.64 85.88 121.55 85.92"/><path class="cls-20" d="M120.84,85.21c0,.09.07,0,.08.07s0-.07,0-.06S120.89,85.16,120.84,85.21Z"/><path class="cls-20" d="M120.94,85.22h0Z"/><polygon class="cls-20" points="116.25 91.89 116.2 91.93 116.25 91.92 116.25 91.89"/><path class="cls-20" d="M116.27,92h-.06l0,0S116.25,92,116.27,92Z"/><path class="cls-20" d="M119.84,85.32h0s0,0,0,0Z"/><polygon class="cls-20" points="119.49 85.98 119.5 85.97 119.43 85.97 119.49 85.98"/><path class="cls-20" d="M119.3,86.59a.41.41,0,0,1,0-.08C119.31,86.57,119.23,86.57,119.3,86.59Z"/><line class="cls-19" x1="120.81" y1="89.31" x2="120.22" y2="83.63"/><path class="cls-20" d="M120,83.66h0S120,83.66,120,83.66Z"/><polygon class="cls-20" points="120.08 83.79 120.07 83.79 120.11 83.8 120.08 83.79"/><path class="cls-20" d="M120.1,83.92c.07,0,0,0,0-.08h0S120.11,83.89,120.1,83.92Z"/><path class="cls-20" d="M120,84s0,0,0,0h0Z"/><path class="cls-20" d="M120,84s0,0,0,0Z"/><path class="cls-20" d="M120,84.05l0,0s0,0,0,0S120,84.06,120,84.05Z"/><path class="cls-20" d="M120,84.06h0S120,84.06,120,84.06Z"/><path class="cls-20" d="M120,84h0s0,0,0,0Z"/><path class="cls-20" d="M120,84a0,0,0,0,1,0,0S120,84,120,84Z"/><path class="cls-20" d="M120.17,83.92l0,0h0S120.15,83.92,120.17,83.92Z"/><path class="cls-20" d="M120,84.16h0Z"/><path class="cls-20" d="M120,84.15l0,0S120,84.15,120,84.15Z"/><polygon class="cls-20" points="120.11 84.06 120.05 84.03 120.11 84.06 120.11 84.06"/><polygon class="cls-20" points="119.95 84.24 119.92 84.23 119.97 84.25 119.95 84.24"/><path class="cls-20" d="M120,84.29s0,0-.06,0,0,0,0,0S119.94,84.31,120,84.29Z"/><path class="cls-20" d="M120,84.34h0Z"/><path class="cls-20" d="M120,84.2l0,0h0Z"/><path class="cls-20" d="M120,84.21h0v0Z"/><path class="cls-20" d="M120,84.2Z"/><path class="cls-20" d="M120.07,84.11s.06,0,.09,0S120.11,84.13,120.07,84.11Z"/><path class="cls-20" d="M120.08,84.19v0h0Z"/><polygon class="cls-20" points="120.1 84.19 120.08 84.19 120.08 84.19 120.1 84.19"/><path class="cls-20" d="M120,84.3s0,0,0,0,0,0,0,0Z"/><path class="cls-20" d="M120,84.26Z"/><polygon class="cls-20" points="120.06 84.44 120.07 84.44 120.06 84.44 120.06 84.44"/><path class="cls-20" d="M120.07,84.29s0,0,0,0a0,0,0,0,1,0,0Z"/><path class="cls-20" d="M120,84.37h0Z"/><path class="cls-20" d="M120,84.26h0S120,84.27,120,84.26Z"/><path class="cls-20" d="M120,84.26h0Z"/><path class="cls-20" d="M120.34,84.45s-.08,0,0,0a.52.52,0,0,0-.23,0l.06,0s0-.06.08,0,0,0,0,0,.08,0,.15,0l0,0Z"/><path class="cls-20" d="M120.07,84.4h0s0,0,0,0h0v0Z"/><path class="cls-20" d="M120.06,84.35s.06,0,.11,0,0,0-.06,0,0,0,0,0a0,0,0,0,1,0,0s0,0,0,0h0s0,0,0,0h0l0,0S120.07,84.37,120.06,84.35Z"/><path class="cls-20" d="M120.25,84.13h0Z"/><path class="cls-20" d="M120.23,84.15s0,0,0,0h0s0,0,0,0h0l-.07,0Z"/><path class="cls-20" d="M120.16,84.25l0,0,0,0h0S120.17,84.25,120.16,84.25Z"/><polygon class="cls-20" points="120.04 84.45 120 84.45 120.06 84.46 120.04 84.45"/><polygon class="cls-20" points="120.05 84.49 120.01 84.5 120.04 84.5 120.05 84.49"/><path class="cls-20" d="M120.8,86.93h0Z"/><path class="cls-20" d="M120.79,86.85h0S120.79,86.86,120.79,86.85Z"/><path class="cls-20" d="M120.17,85.57s-.09,0,0,0h0A0,0,0,0,1,120.17,85.57Z"/><path class="cls-20" d="M120.5,86.29h0Z"/><path class="cls-20" d="M120.68,86.28l0,0S120.67,86.29,120.68,86.28Z"/><path class="cls-20" d="M120.88,87.32h.05S120.91,87.31,120.88,87.32Z"/><path class="cls-20" d="M120.11,84.94s0,0,0,0S120.15,84.94,120.11,84.94Z"/><path class="cls-20" d="M120.34,87h0A0,0,0,0,0,120.34,87Z"/><path class="cls-20" d="M120.1,85h0v0S120.06,85,120.1,85Z"/><path class="cls-20" d="M121,88.75h0Z"/><path class="cls-20" d="M120.6,89.21v0Z"/><path class="cls-20" d="M120.05,84.67Z"/><path class="cls-20" d="M120.22,84.61h0Z"/><path class="cls-20" d="M120.37,85.08h0S120.38,85.08,120.37,85.08Z"/><path class="cls-20" d="M120.07,84.66h0Z"/><path class="cls-20" d="M120.05,84.66h0S120,84.65,120.05,84.66Z"/><path class="cls-20" d="M120.05,84.68a0,0,0,0,1,0,0h0Z"/><path class="cls-20" d="M120.8,88h0S120.81,88,120.8,88Z"/><polygon class="cls-20" points="120.64 85.77 120.64 85.77 120.64 85.77 120.64 85.77"/><path class="cls-20" d="M120.68,85.8c-.06,0-.05,0,0,0l-.13,0Z"/><path class="cls-20" d="M120.83,87.1l0,0c.07,0,0,0,.1,0-.13,0,0-.09-.15-.08l0,0a0,0,0,0,1,0,0c.06,0-.1,0-.09,0a0,0,0,0,1,0,0l0,0s0,0,0,0l0-.05h0l-.07,0s0,0,0,0l0,0s.07,0,.07,0,0,0,0-.08l0,0c.08,0,.05,0,.09-.07s-.11.06-.15,0,0,0,0,0,0,0,0,0h.06l-.08,0s0,0,.09,0-.08,0-.09,0,0,0-.05-.08,0,0,.06,0h0s-.07,0-.09,0,.1-.06,0-.08h.06l-.11-.06,0,0a.18.18,0,0,1-.16,0l0,0,0,0a.06.06,0,0,1,.06,0h.08l0,0h.12s0,0,0,0l.07,0h0l0,0c-.08,0-.18,0-.22-.1a.76.76,0,0,0,.15,0c-.07,0,0,0,0,.07s0,0,0,0l-.07,0c.05,0,0,0,.06,0s-.07,0-.11,0,.07,0,.07,0-.12,0-.06-.06,0,0,0,0,0,0,0,0h0a.1.1,0,0,0-.1-.13h.12l-.29,0c.07,0,.24,0,.29,0s0,0,0,0l-.11,0,.11-.06s-.13,0-.13,0h.13l-.12,0a.3.3,0,0,0,.12,0s0,0,0,0l0,0s-.16,0-.16-.07.14,0,.15,0a1.2,1.2,0,0,1-.33,0h0l0,0,.35.07s0,0,0,0,0,0,0,0V85.4c-.07,0-.07,0-.13,0l.08.06c-.07,0-.19,0-.19-.06a.34.34,0,0,1,.14,0s0,0,0,0h0s-.09,0,0-.06.08,0,0,0a1.22,1.22,0,0,1-.37,0s.07-.06.11-.07.14,0,.19,0h0s.06,0,0,0,0,0-.06,0,0,0,0,0a.27.27,0,0,1-.18,0h.05s0-.07,0-.11,0,0,.06,0a0,0,0,0,1,0,0c.06,0,0,0,.09,0s-.06,0-.09,0,0,0,0,.06a.3.3,0,0,1-.22,0s0,0,0,0-.15,0-.1-.09a.49.49,0,0,1,.15,0s0,.05,0,.07l0,0s0,0,0,0,0-.11,0-.16a.07.07,0,0,0-.06,0h0s-.06,0-.08,0-.08,0-.06-.07h.06s0,0,0,0,.07,0,0-.06l0,0s-.1,0-.08-.06,0,0-.06,0,0,.07.09,0c-.08,0,0,0-.1.07s0,0,0,0h0c.05,0,.05,0,.08,0h0s-.07,0-.1,0v0s0,0,0,.06,0,0,0,0l0,0h0s.08.08,0,.13,0,0,0,.06h0s0,.05,0,.06,0,.09,0,.12h0s0,0,0,.07h0s0,.07,0,.1,0,0,0,0,.08.09,0,.14,0,0,0,0h0l0,0h0s0,0,.06,0h0c-.08,0,0,0-.06,0s0,.06.13,0,0,0,0,0,0,0,0,0h-.06l.08,0a.12.12,0,0,1-.1,0c.07,0,0,0,.1.06h0s.06,0,0,0,0,.14-.06.22c.11,0,0,0,0,0a.07.07,0,0,1-.06,0s0,.06,0,.08h-.06s0,0,0,0,0,0,0,0,.1,0,.18,0,0,0,0,0-.05,0-.06,0,0,.09,0,.08,0,0,0,0a.09.09,0,0,0,0,.07h0c.08,0,0,0,0,0h0c0,.06,0,0,0,.08h.05c.1,0-.06.06,0,.08h0s-.13.06-.14.08h0s.07,0,.09,0-.09,0-.09,0,.11,0,0,.08.05,0,.07,0-.09.07,0,.09h0s0,.06.09.06c-.16,0,.09.1-.06.12v.05h0s0,0,.07.06,0,0,0,0,0,.06.06.1h0s-.07.08,0,.12h0c.06,0-.12.15.06.15l0,0c0-.05.07,0,.1,0s-.05.06-.06,0h0c-.09,0,0,.06-.09.07s0,.19,0,.28l.07,0v0s-.06,0-.06,0,0,0,.06,0-.09,0-.09,0h0s.06,0,.06,0l0,0s0,0,0,0v0l0,0s0,0,.07,0c-.1,0,0,.15,0,.17a.06.06,0,0,1,0,.07s.08,0,.07,0-.05,0-.14.08,0,.07.11,0-.05,0-.08,0,0,.11,0,.18,0,0,.07,0l-.08,0s.1,0,0,0h0c-.07.13.1.25,0,.39,0,0,0,0,0,0h.07l-.06.06c.06,0,0,.06.07.06v0c.07,0,.16,0,.25,0-.08,0,.12-.08,0-.11s0,0,0,0,0,0,0,0h0c0-.07,0-.1,0-.17h0a0,0,0,0,1,0,0c-.07,0,0,0-.08,0,.09,0,0-.11.1-.13s-.06,0-.06,0h0l.07,0s0,0,0,0,0-.06,0-.07l0,0c0-.07,0-.15-.07-.21h0s0,0,0-.09h0s0,0,0,0,.05,0,.08,0,0,0-.13-.05h0s0,0-.07,0,.06,0,.1,0-.09-.07,0-.11c-.11,0-.05,0-.08,0a0,0,0,0,1-.07,0s.13,0,.12-.09a0,0,0,0,0,0,0s0,0,0,0,0,0-.07,0l0,0s-.12,0-.08-.07h0s0,0,0,0,0,.05.08.07-.06,0,0,0c-.11,0,0,0-.08-.07h0l0,0h.06c-.06,0,0,0,0-.07s-.06,0-.09,0,.12,0,.09-.12,0,0-.05,0a.1.1,0,0,1,.05,0s-.05,0-.08,0,0,0,0,0h0c0-.06-.1,0-.06,0h.06l0,0h.06s0,0,0,0-.09,0-.09,0,0,0,0,0,.07,0,0,0h0s0,0,0,0h0l-.07,0s0,0,0,0,0,0,0,0a.15.15,0,0,1,.1,0l0,0,.06,0s-.08-.05-.05-.08h0s.05-.07,0-.1l.07,0s-.09,0-.12,0,.06,0,.08,0-.12,0-.06-.07S120.82,87.09,120.83,87.1Zm-.07-.35s0,0,0,0S120.75,86.76,120.76,86.75Zm-.17-.52s0,0,0,0S120.58,86.24,120.59,86.23Zm-.49-1.46h0S120.09,84.78,120.1,84.77Zm0,0h0a0,0,0,0,1,0,0S120.13,84.74,120.12,84.74Zm.37,3.39h0S120.5,88.13,120.49,88.13Z"/><path class="cls-20" d="M120.66,86.28s0,0,0,0Z"/><polygon class="cls-20" points="120.88 87.31 120.88 87.31 120.89 87.31 120.88 87.31"/><path class="cls-20" d="M120.58,85.18l0,0Z"/><path class="cls-20" d="M120,84.58v0l0,0Z"/><path class="cls-20" d="M120.3,84.37s0,0,0,0h0S120.29,84.39,120.3,84.37Z"/><path class="cls-20" d="M120.18,84.54s0,0,0,0h0S120.16,84.53,120.18,84.54Z"/><path class="cls-20" d="M120.19,84.51h0S120.18,84.5,120.19,84.51Z"/><path class="cls-20" d="M120.09,84.7s0,0,0,0S120.12,84.73,120.09,84.7Z"/><polygon class="cls-20" points="120.31 84.52 120.26 84.53 120.3 84.53 120.31 84.52"/><path class="cls-20" d="M120.28,84.63l0,0s0,0,0,0S120.27,84.63,120.28,84.63Z"/><path class="cls-20" d="M120.28,84.6h0Z"/><polygon class="cls-20" points="120.33 84.55 120.32 84.55 120.31 84.57 120.33 84.55"/><path class="cls-20" d="M120.3,84.88l0,0a0,0,0,0,0,0,0Z"/><path class="cls-20" d="M120.43,84.79h0Z"/><path class="cls-20" d="M120.45,84.86s0,0,0,0S120.46,84.83,120.45,84.86Z"/><polygon class="cls-20" points="120.41 85.24 120.41 85.23 120.31 85.25 120.41 85.24"/><path class="cls-20" d="M120.69,85.54s-.07,0,0,0,0,0,0,0S120.62,85.56,120.69,85.54Z"/><path class="cls-20" d="M120.61,85.53h0Z"/><polygon class="cls-20" points="120.56 89.28 120.54 89.3 120.57 89.29 120.56 89.28"/><path class="cls-20" d="M120.64,89.31h0S120.62,89.32,120.64,89.31Z"/><path class="cls-20" d="M120.89,86.68h0s0,0,0,0Z"/><polygon class="cls-20" points="120.86 86.94 120.86 86.94 120.81 86.95 120.86 86.94"/><path class="cls-20" d="M121,87.15s0,0,0,0S120.89,87.16,121,87.15Z"/><path class="cls-21" d="M124.26,89.49s-.61-1.47.46-1.33,3.22,2.17,3.22,2.17-2.85.66-3.69.76C122.9,91.25,122.73,89.66,124.26,89.49Z"/><path class="cls-22" d="M124.26,89.49a13.56,13.56,0,0,1,3.68.84"/><path class="cls-21" d="M113.24,87.31s2.07,1.85.21,2.47c-1.7.57-6.88-.91-6.88-.91s4.22-3.29,5.54-4.12C114.22,83.44,115.65,85.84,113.24,87.31Z"/><path class="cls-22" d="M113.24,87.31a25.42,25.42,0,0,1-6.67,1.56"/><path class="cls-21" d="M119.79,90.88s2.51,1.12.85,2.36c-2.52,1.87-8.49.69-8.49.69l5.8-5.28C119.87,86.89,122,88.89,119.79,90.88Z"/><path class="cls-22" d="M119.79,90.88c-2.4,1.71-7.64,3.05-7.64,3.05"/><path class="cls-21" d="M120.8,89.75s-2.11-1.8-2.47.13c-.33,1.76,1.85,6.69,1.85,6.69s2.68-4.64,3.31-6.06C124.51,88.24,121.93,87.15,120.8,89.75Z"/><path class="cls-22" d="M120.8,89.75a25.75,25.75,0,0,0-.62,6.82"/><ellipse class="cls-23" cx="123.72" cy="91.1" rx="2.63" ry="3.38" transform="translate(-10.58 16.47) rotate(-7.31)"/><ellipse class="cls-24" cx="124.83" cy="92.96" rx="0.55" ry="0.63"/><ellipse class="cls-25" cx="116.79" cy="92.04" rx="3.38" ry="2.63" transform="translate(-9.72 170.18) rotate(-69.94)"/><ellipse class="cls-24" cx="116.24" cy="94.29" rx="0.55" ry="0.63" transform="translate(-31.24 119.81) rotate(-48.87)"/><ellipse class="cls-26" cx="115.28" cy="87.37" rx="3.38" ry="2.63" transform="translate(-11.31 17.38) rotate(-8.22)"/><ellipse class="cls-24" cx="112.27" cy="87.27" rx="0.55" ry="0.63"/><g class="cls-27"><path class="cls-28" d="M84,156.53c-6.32,1.44-18.34-.62-22.44-3.08-.11-.06-.26,0-.39,0-7.44-.35-9.17-4.61-9-6l5.51-22c3.45-3.59.05-7.93,13.44-6.14l25.89,3.93c2,.31,2.27,7.6,2,9L95.86,154C96.08,156.52,88.1,155.61,84,156.53Z"/><path class="cls-9" d="M84.42,157.69c-.19,0-.08.21-.1.25C84.62,157.84,84.4,157.64,84.42,157.69Z"/><polygon class="cls-9" points="87.73 156.84 87.67 156.93 88.18 156.69 87.73 156.84"/><path class="cls-9" d="M91,156.65c-.34-.33-1.2.13-1.8,0l-.1-.08-.25.3A13.41,13.41,0,0,1,91,156.65Z"/><path class="cls-9" d="M92.94,157.25c-.13-.13.39-.17-.44,0l.08,0Z"/><path class="cls-9" d="M92.58,157.28c-.37.05.25.09,0,0Z"/><path class="cls-9" d="M94.33,156.92l-.5.23c.12.07.6,0,.44.07C94.81,157,94.67,157,94.33,156.92Z"/><path class="cls-9" d="M94.76,156.54l-.26.12C94.56,156.68,94.63,156.68,94.76,156.54Z"/><path class="cls-9" d="M94,156.9l.54-.24c-.09,0-.12-.14-.25.11C94.27,156.65,94.19,156.78,94,156.9Z"/><path class="cls-9" d="M93.64,156.9c-.3,0-.65,0-.18-.22C92.54,156.86,92.7,157.1,93.64,156.9Z"/><path class="cls-9" d="M91.19,156.27l-.36-.08-.29.14C90.69,156.26,91.21,156.38,91.19,156.27Z"/><path class="cls-9" d="M97.49,154s-.07,0-.11,0-.1.11-.15.15a.15.15,0,0,1-.07.07,2.24,2.24,0,0,1,0,.58,2.39,2.39,0,0,0,.22-.62C97.41,154.07,97.45,154,97.49,154Z"/><path class="cls-9" d="M97.16,154.26v-.09a1.31,1.31,0,0,0,0-.3l0-.23a1.66,1.66,0,0,0,0,.52C97.1,154.25,97.13,154.27,97.16,154.26Z"/><path class="cls-9" d="M94.74,156.13c-.28.18-.56.34-.85.49a8.08,8.08,0,0,0,1-.56Z"/><polygon class="cls-9" points="97.79 152.1 97.92 152.41 97.73 151.87 97.79 152.1"/><path class="cls-9" d="M98,150.82c.11.24.28-.25.34,0a3.16,3.16,0,0,0-.13-.95A1.93,1.93,0,0,1,98,150.82Z"/><path class="cls-9" d="M98.07,149.39a3,3,0,0,0,.09.47A1.62,1.62,0,0,0,98.07,149.39Z"/><path class="cls-9" d="M97.28,152.79a.55.55,0,0,0,.27-.36l-.24.16Z"/><path class="cls-9" d="M97.3,152.6h0l.08-.42Z"/><path class="cls-9" d="M97.27,152.84v-.05S97.25,152.81,97.27,152.84Z"/><path class="cls-9" d="M96.42,155.3c.22-.43.22-1.27-.14-.59C96.26,155,96.62,154.67,96.42,155.3Z"/><path class="cls-9" d="M97,153l-.13.53c.06,0,.15-.09.19.07Z"/><polygon class="cls-9" points="96.94 152.77 96.97 153.04 97.02 152.85 96.94 152.77"/><path class="cls-9" d="M97.73,150.28a3,3,0,0,1,0-.79c-.08.3-.15.61-.2.91C97.59,150.46,97.69,150.6,97.73,150.28Z"/><path class="cls-9" d="M97.51,151.4v-.05S97.47,151.4,97.51,151.4Z"/><polygon class="cls-9" points="98.15 146.69 98.11 146.73 98.14 146.75 98.15 146.69"/><path class="cls-9" d="M97.49,150.45a.68.68,0,0,0,0,.51,3.69,3.69,0,0,1,0-.56S97.49,150.37,97.49,150.45Z"/><path class="cls-9" d="M98.08,148.6c-.06.11-.11.24-.17.38C98,148.87,98.13,148.65,98.08,148.6Z"/><path class="cls-9" d="M97.57,151.28v0C97.63,151.25,97.61,151.25,97.57,151.28Z"/><path class="cls-9" d="M97.57,151.28a1.5,1.5,0,0,0-.08-.32,2.47,2.47,0,0,0,0,.39Z"/><path class="cls-9" d="M96.92,145.64c.19.07.28.7,0,1.19.07.53.76.29,1.19-.1-.09,0-.17,0-.2-.58-.14.16-.43,1.13-.54.66,0-.72.16-.57.31-.89-.29.25-.22-.94-.6-.84l0,.63C97.05,145.71,97,145.48,96.92,145.64Z"/><path class="cls-9" d="M97.94,147.73V148a2.26,2.26,0,0,1,.38-.71c0-.37-.11-.46-.17-.49L98,147.81Z"/><path class="cls-9" d="M97.78,148.93c-.18-.21-.2-.74-.47-.46-.08.64.11.48.14.87.1-1,.08.31.31-.41a3.26,3.26,0,0,1,0,.56c.06-.18.11-.35.18-.51l0,0h0s0,.05,0,0v0a.18.18,0,0,1-.07,0c.08-.3.06,0,.07,0l0,0h0l0-1.05A6,6,0,0,0,97.78,148.93Z"/><path class="cls-9" d="M96,153.93s0,0,0,0S96,153.8,96,153.93Z"/><path class="cls-9" d="M96.14,153.52a.58.58,0,0,1,0,.41s0,0,0,0-.06,0-.09,0a.07.07,0,0,0,0,0v0c0,.18.1.56.24.08v-.09c.14-.43.48-.9.5-.83A1.58,1.58,0,0,0,96.14,153.52Z"/><path class="cls-9" d="M96.91,151.19l0-.88-.24.41h.11C96.68,151.2,96.84,151.11,96.91,151.19Z"/><polygon class="cls-9" points="98.27 146.61 98.48 146.76 98.24 146.21 98.27 146.61"/><polygon class="cls-9" points="98.41 145.49 98.6 145.56 98.53 145.25 98.41 145.49"/><path class="cls-9" d="M60.11,124l-.08.28A2.22,2.22,0,0,0,60.11,124Z"/><path class="cls-9" d="M60.88,122.27l-.07-.07C60.83,122.29,60.85,122.33,60.88,122.27Z"/><path class="cls-9" d="M92.58,121.23c-.34-.24-.71-.58-.7-.36l.08.24A1.48,1.48,0,0,1,92.58,121.23Z"/><path class="cls-9" d="M73.67,119.67l.1.08.28-.17Z"/><path class="cls-9" d="M73.28,120.52l-.46-.21A3,3,0,0,0,73.28,120.52Z"/><path class="cls-9" d="M57.23,133.21l.14.34C57.49,133.1,57.33,133.27,57.23,133.21Z"/><path class="cls-9" d="M100,134.08a3.57,3.57,0,0,0,.25-.77C100.1,133.67,99.87,134,100,134.08Z"/><path class="cls-9" d="M58.32,122.35c0,.15,0,.22,0,.24C58.39,122.43,58.38,122.34,58.32,122.35Z"/><path class="cls-9" d="M100.41,132.39l-.07.16a4.15,4.15,0,0,1-.06.76A1.21,1.21,0,0,0,100.41,132.39Z"/><path class="cls-9" d="M70.58,155l.07,0S70.63,155,70.58,155Z"/><path class="cls-9" d="M81,157.89a4.16,4.16,0,0,1-.45,0A1.72,1.72,0,0,0,81,157.89Z"/><path class="cls-9" d="M99.17,141c0,.24,0,0,0,0Z"/><path class="cls-9" d="M98.15,142.05a.12.12,0,0,0-.09-.11A.16.16,0,0,1,98.15,142.05Z"/><path class="cls-9" d="M99.12,129.83v0C99.08,129.88,99.09,129.87,99.12,129.83Z"/><path class="cls-9" d="M99,141.37a2.49,2.49,0,0,0,.11-.29A2,2,0,0,0,99,141.37Z"/><path class="cls-9" d="M99.13,141.33l0,.21S99.14,141.55,99.13,141.33Z"/><path class="cls-9" d="M99.21,140.7c0,.13,0,.26-.08.38,0-.05,0-.07,0-.05Z"/><path class="cls-9" d="M53.25,149V149C53.43,149.17,53.36,149.1,53.25,149Z"/><polygon class="cls-9" points="86.11 122.53 86.13 122.52 86.1 122.51 86.11 122.53"/><path class="cls-9" d="M85.23,122.56a.88.88,0,0,1,.87,0l-.19-.66Z"/><path class="cls-9" d="M58.44,127.69l.34-.54c.13.79-.1,1.27.3.79-.32-.13-.19-.7-.07-1.27l.09-.42a.23.23,0,0,0,0-.11s0,0,0,0a.68.68,0,0,0-.21-.25s.07,0,.11,0l.21-.13c-.08.09-.1.17-.15.22a.64.64,0,0,0,.4-.71,1.48,1.48,0,0,1,.27-1c.22-.31.44-.51.39-.24.08-.28.13-.55.19-.82s.19-.11.08.1c.15-.37.28-.76.42-1.07v0a2.55,2.55,0,0,1,0-.73c.21-.17,0,.15.1.13a2.84,2.84,0,0,1,.16-.54c.27,0,.13.35,0,.67.41,0,.41-.15.45-.3a1,1,0,0,1,.11-.3.93.93,0,0,1,.45-.24l-.24.32a.79.79,0,0,0,.49,0,1.27,1.27,0,0,1,.56-.07,4.54,4.54,0,0,0-.54-.15c-.21-.06-.4-.15-.21-.34a1.13,1.13,0,0,0,.56-.33c.1.24.31,0,.71,0l0,.32c.39-.17.33-.32.56-.52a.76.76,0,0,1,.78.42c.8,0-.59-.35.37-.48a6,6,0,0,0,2.07-.19c.5.15-.1.19.08.3l.46-.23c.11,0,.07.09,0,.13.38-.07,0-.32.66-.36.2-.36,1.18.63,2,.32.18.11-.11.18-.07.31a10.7,10.7,0,0,0,1.8-.3l.69.32c-.5-.32.22-.5.85-.64a4.74,4.74,0,0,0-.42-.33l1,0c.11.07,0,.16-.17.27l.18,0c.32.17.12.33-.15.47l-.31-.25c-.26.16-.51.34-.49.53a.92.92,0,0,1,.32,0c-.07,0-.11.09-.09.12s.14,0,.3-.07l.17.38.07-.13,1.21.41a9.61,9.61,0,0,1,3.22-.56c-.39.21-.14.41-.2.72-.34-.39-1.11,0-1.83-.21.37.09.27.23.16.26l1.35-.09c-.07.24.25.23.57.38-.18-.53,1-.18,1.57-.25,0,.17-.14.32-.78.18.66.48,1-.44,1.66,0-.16,0-.24-.06-.32,0,.39-.09,1.28.16,1,.27l-.16,0c1,.22,3.19.49,3.4.09a2.14,2.14,0,0,1-.28.57l2.08-1.13c-.22.33.28,1.29-.62,1.36a2.18,2.18,0,0,0,1.09.15c-.16-.08-.35-.59-.11-.59a5.2,5.2,0,0,0,1.15.75c-.25-.12.12-.64.52-.56-.07.07,0,.56-.2.6l1.08-.4c-.26.06-.11.46.09.65-.09-.12.86.14,1.14.13l-.41-.19c1.12.25,1.24-.62,2.36-.42-.15.1-.44.66.12.82a4.9,4.9,0,0,1,2.39-1.27l.17.2.79-.07a15.71,15.71,0,0,1-2.79,1.29c.4.2.09.21.73.29.2.19-.38.18-.57.16l1.46.33c0-.35,1.18-.17,1.17-.45l-1.66.1c0-.34,1.09-.8,2.09-.59a.16.16,0,0,1,0,.07.19.19,0,0,1,0,.15c-.09.18-.23.39-.26.46a1,1,0,0,1,.16-.06c.18-.08.45,0,.43.13a.65.65,0,0,0-.28,0c.14.22.63-.08.61.64.06.21-.2.72,0,.7.28-.42,1.36-.92,1.73-.73a6.05,6.05,0,0,1-.17,1.7c-.23.44-.81-.45-1-.07.09,0,.25.18.3.27,0,.25-.3-.06-.17.46.35,0,.11,1.1.32.22.16.51,0,.57.07,1.19.2-.23.8.5.92,1-.09,0-.2.1-.25.17a14.65,14.65,0,0,1-.28,2.72c-.1.08-.27.57-.39.33a1.29,1.29,0,0,1,.1.63c-.39.58.06-.71-.36-.3.19.07.14.87.2,1.34.32-.1.21-1,.16-1.51.42.06.73.91.77,2,0,.88-.33.33-.29.49-.31,1.6.52,1.48,0,2.78-.34.49-.53-.06-.74,0,0-.71.33-1.05.39-1.52l-.21.56a1.72,1.72,0,0,1,.06-1c-.31.41-.45,2.71-.86,3.92.06.24.09.63.23.47l0-.4c.27-.33.18.78.36.3a4.06,4.06,0,0,1,0,1.9l-.33.1c.09,0,.26-.46.2-.69.08.33-.59,1.08-.24,1.48l.29-.49a4.45,4.45,0,0,1,.1,1.9c.35-.25,0-.16.41-.57-.49.34.27-1.68-.28-1.1.47-.42.29-.8.73-1.38-.1,0-.22.19-.09-.35a.61.61,0,0,1-.07-.14v0s0,0,0,0a.73.73,0,0,1-.19.26c-.19-.31,0-1.19-.13-1.51.1-.32.1.16.23,0l-.11-.47c.23,0,.5-.82.51,0l.11-.69a2.77,2.77,0,0,0,.28-1.31c.1-.32-.12-.86,0-.55l0-1.11h.05c.19-1.07,0-2.27.55-3.44a14.19,14.19,0,0,1,0-1.53l.2-.12c-.07-.5.16-1.5-.06-1.7.5-.57-.09-2.41-.2-3.32l-.25,0a6.23,6.23,0,0,0-.74-1.94l-.19.13c-.32-.38-.73-1.79-2-2l-.6-.11c.09-.07.26,0,.57.08l-.51-.21a2.07,2.07,0,0,0-.43-.1,5.41,5.41,0,0,0-.9,0,3.47,3.47,0,0,1-1.69-.21.93.93,0,0,1-.62-.1.06.06,0,0,0,.06,0l-.1,0-.34-.17.28.17a4.79,4.79,0,0,0-.81,0l-.09-.25H91.9c-.28-.13-.25.08-.13.28a1.65,1.65,0,0,0-.41.09c-.18-.42-.79,0-1-.45-.23.17-1.51-.08-1.73.32,0,0-.08-.09.08-.07a1.89,1.89,0,0,0-1-.13l-.09-.32-.78.3c-.41-.25-.57-.39-.11-.55-1.1.2-.86,0-1.81.22l.08-.19c-.32,0-.87.15-1,0-.65-.48-3.51-.59-5.28-1.21.27.63-.82-.39-1,.05-.09-.16-.33-.27,0-.35-1,0-1.37-.42-2.07-.15-.08-.15.23-.17.15-.26s-.31.07-.4,0,.15-.1.31-.13c-1-.13-1.11.28-1.24.66a.92.92,0,0,0-1.08-.06c-.15-.15-.41-.33.18-.29-.33-.07-2-.5-2.08-.19-.09-.1-.47-.08-.56,0a14.34,14.34,0,0,0-1.57-.2l.2.07c-.33.35-.63,0-1.24,0l0,0c-1.37-.36-.59,0-2-.29l.07.24c-.12.53-1.21-.34-2,0l.31.11c-.22.11-.53,0-.88-.22a2.53,2.53,0,0,0-1-.3c-.11,0,.15-.1.29-.16-1.34,0-.09.29-1,.65-.23-.1.1-.49-.58-.28-.18,0-.63.37-1.07.8a14,14,0,0,1-1.2,1.34c.22-.1.44-.18.27.25-.36.61-1.22,1.39-1.06,2-.06.06-.1.07-.13.06-.06.46-.45,1.27-.43,1.61a.68.68,0,0,0-.57.25A6.11,6.11,0,0,0,57,125c0,.22-.08.49-.1.68-.05.66-.09,1.28-.46,1.18l-.3,1.37-.06-.05a2.27,2.27,0,0,0-.07,1.56c-.1.19-.13,0-.17,0a4,4,0,0,0-.36,2.53l-.27.05c.06.32-.84,1.74-.87,3.06,0,0-.07-.05-.08-.16-.07,1.47-1.51,3.2-.76,3.93l0,1c.37-1.18.34.27.61-.18-.07.48-.57,1.15-.47.56l.07-.08c-.41-.33-.54,1.45-.84,1.34-.29,1.18-.63,2.33-1,3.46l-.52,1.69a2.88,2.88,0,0,0-.11,1.25,5,5,0,0,0,.27,1.06l.24-.42a6.41,6.41,0,0,0,.34.86c0,.24-.11.44-.39-.19,0,.44.7.9.77.85.65,1.11-.65-.14-.42.16.11.15.23.29.35.43l0-.13c.39.27.53.18,1.06.74.31.37,0,.33.17.47s0,.07.23.19a8.56,8.56,0,0,0,.92.66c-.08-.16-.16-.31-.23-.48.49.15.88.53.61,0a3.6,3.6,0,0,0,2,1.19c.92.3,1.83.41,2,.51a8.42,8.42,0,0,1,2.06,0c-.18-.07-.22-.4.32-.33a.37.37,0,0,0,0,.47l.07.08.16.11.36.25a1.42,1.42,0,0,1,.59.54c-.34-.46,1.85.62,1.28-.08.51.24,0,.24.31.54,1.35.17,2.78,1,4.41,1.25,0-.08-.19-.26.18-.32l.76.59c.33,0,.38-.43.91,0-.07-.08-.17-.21,0-.2,3.12,1,6.47.51,9.77,1.18-.46-.14-.16-.18.18-.2-.22,0,0-.22,0-.34.46.09.93.19,1.4.24.22-.35,1.49-.2,1.58-.57l-.43.14c.26-.24,0-.4-.26-.58s-.63-.38-.62-.62c-.58.5-1.65-.48-2.63.15-.23-.1.19-.16.07-.27a1.34,1.34,0,0,1-1.15.16l.07-.05a18.72,18.72,0,0,1-4.1-.54l.11.25a1.76,1.76,0,0,1-.64-.23c-.49.31,1.09.13.64.49-.46-.52-2.76-.34-3-1-.59-.1.13.3-.46.2l-.13-.17-.19.16c-.38-.09-.54-.32-.53-.44a2.23,2.23,0,0,0,.37,0c-.47-.27-1.42-.21-1.58-.31l.54.21c-1.64-.19-3.52-.87-5.07-1.11l.07.15c-1.19-.22-.87-.43-2.05-.88h0a1.13,1.13,0,0,1-.46-.11,1.53,1.53,0,0,0-.77-.17c.26-.07,0-.12-.14-.19s-.27-.16,0-.21c-1.31.11-.66.15-1.56.44l-.16-.21a1.32,1.32,0,0,1-1,.12c.55,0-.34-.37.28-.44a2.51,2.51,0,0,0-.82-.32,3.57,3.57,0,0,0-.66-.12.88.88,0,0,1-.86-.53c-.77.22.92.73.57.68.22.27-.61.16-1-.07s-.35-.9-1.12-1.5c.08.06.11,0,.18.1-.19-.33-.67-.34-.81-.82-.39,0-.34-.46-.69-.3a5.77,5.77,0,0,0,.64.67c-.4-.3-1.17-.47-1.3-1.42a2.39,2.39,0,0,1,.43.36c0-.27-.28-.4-.24-.68.21,0,.29.2.44.48a1.43,1.43,0,0,0,.65.72c0-.28-.78-.67-.28-.66-.66-.07-.33-.83-.73-1.18l.23,0-.08-.12a.36.36,0,0,1,0-.24.46.46,0,0,0,.25.3.14.14,0,0,1-.05-.09.58.58,0,0,1,0-.2,2,2,0,0,1,.18-.42,1.89,1.89,0,0,0,.3-.85c-.29,1.22-.34.21-.64.68.07-1.58.82-.72,1.13-2.43,0,.24-.35.82-.37.44a3.28,3.28,0,0,1,.49-.88c.24-1.13-.28.11-.3-.4.38-.31,0-.57.06-1.09l.23.06c.47-1.24-.4-.46.07-1.56l.2.56.07-.61.23.19a3,3,0,0,1,.3-1.51c-.2.11-.4-.19-.27-.76.24-.35.17.28.34-.53a.55.55,0,0,1-.07.75c.07.06.1.22.17.27a3.89,3.89,0,0,0,.37-1.32,1.2,1.2,0,0,1-.14.3l0-1.24c.13-.16.17,0,.2.16a7.8,7.8,0,0,1,0-.78.6.6,0,0,1,.34.68l.07-1.16c.1,0,.36-.51.4-.35.26-.58,0-1.59.36-2.36a.68.68,0,0,1,0-.33,6,6,0,0,0,.6-2.34l.47-.42c.1-.73-.6.58-.43-.63.1-.86.37-.24.53-.51a2.68,2.68,0,0,1,.24-2A3.77,3.77,0,0,1,58.44,127.69Zm3.63-7.06c-.1.1-.18.37-.33.32C61.67,120.65,61.83,120.65,62.07,120.63Zm12.84-.3a.64.64,0,0,1-.54-.14A1.27,1.27,0,0,1,74.91,120.33Zm24.45,18.08v0C99.51,138,99.45,138.15,99.36,138.41Zm-.22.78c0,.09.06.09.1.06s0-.25,0-.45C99.18,138.85,99.12,139,99.14,139.19ZM53.68,152l-.1-.16C53.93,152,53.8,152,53.68,152Z"/><path class="cls-9" d="M73.33,120.42a.2.2,0,0,1,0-.14C73.21,120.31,73.2,120.36,73.33,120.42Z"/><path class="cls-9" d="M57.21,133.15v0l0,0Z"/><path class="cls-9" d="M97.86,126.79a.9.9,0,0,1,.07-.32C97.87,126.47,97.84,126.55,97.86,126.79Z"/><path class="cls-9" d="M98.92,143.49V143a.89.89,0,0,1-.15.44C98.84,143.41,98.94,143.33,98.92,143.49Z"/><path class="cls-9" d="M96.78,147.71c0,.08,0,.16,0,.23h.11C96.93,147.62,96.87,147.38,96.78,147.71Z"/><path class="cls-9" d="M98.05,143.84c-.2,0-.18.34-.2.71a.17.17,0,0,1,0-.07C98.12,144.63,98.09,144.24,98.05,143.84Z"/><path class="cls-9" d="M97.84,144.63a1.19,1.19,0,0,1,0,.33C97.91,145,97.84,144.83,97.84,144.63Z"/><path class="cls-9" d="M99.12,140.23c-.07.16.24.14.15.23C99.5,140.68,99.13,139.28,99.12,140.23Z"/><polygon class="cls-9" points="97.35 144.03 97.61 143.94 97.45 143.71 97.35 144.03"/><path class="cls-9" d="M98,141.23l-.15.56s0,.08.06.17C97.92,141.61,98,141.23,98,141.23Z"/><path class="cls-9" d="M97.86,142a1.61,1.61,0,0,0,0,.47A3.18,3.18,0,0,0,97.86,142Z"/><polygon class="cls-9" points="97.39 143.24 97.47 143.08 97.55 142.68 97.39 143.24"/><path class="cls-9" d="M98.92,135.08l0-.63c-.08-.08-.15.08-.15.32S98.82,135.16,98.92,135.08Z"/><path class="cls-9" d="M98,136.87c.07-.16.13-.17.23-.25l-.31-.06Z"/><path class="cls-9" d="M98.16,135c-.08-.08-.11-.95-.21-.15C98,135,98,135.6,98.16,135Z"/><polygon class="cls-9" points="98.51 125.7 98.55 125.85 99.04 125.71 98.51 125.7"/><path class="cls-9" d="M91.63,123.71c.72.24.22-.28.86,0,.2-.09-.52-.21-.33-.28C91.69,123.46,91.47,123.35,91.63,123.71Z"/><path class="cls-9" d="M92.16,123.4l.24,0A.75.75,0,0,0,92.16,123.4Z"/><path class="cls-9" d="M82.87,158l.53,0-.36-.11Z"/><path class="cls-9" d="M83.77,157.44l.19.29.24-.34A.72.72,0,0,1,83.77,157.44Z"/><path class="cls-9" d="M63.21,120.86v-.09c-.07-.06-.15,0-.31,0Z"/><polygon class="cls-9" points="60.07 124.73 60.14 124.62 59.76 124.69 60.07 124.73"/><path class="cls-9" d="M58.65,129.47c.06-.21.06-.49.13-.7C58.71,129.26,58.28,129.44,58.65,129.47Z"/></g></g></g></g></svg>