<svg xmlns="http://www.w3.org/2000/svg" viewBox="0 0 542.9 693.31"><defs><style>.cls-1,.cls-15,.cls-19,.cls-9{fill:#1d1d1d;}.cls-1,.cls-15,.cls-20,.cls-9{stroke:#252a3d;stroke-width:0.25px;}.cls-1,.cls-15,.cls-17,.cls-20,.cls-5,.cls-6,.cls-7,.cls-9{stroke-miterlimit:10;}.cls-1{opacity:0.4;}.cls-2{fill:#747d87;}.cls-3{fill:#5c6267;}.cls-4{fill:#b49c74;}.cls-20,.cls-5,.cls-6,.cls-7{fill:none;}.cls-5{stroke:#b49c74;stroke-width:3px;}.cls-6,.cls-7{stroke:#28292d;}.cls-6{stroke-width:8px;opacity:0.43;}.cls-7{stroke-width:4px;}.cls-8{fill:#504941;}.cls-9{opacity:0.55;}.cls-10{fill:#a67b67;}.cls-11{fill:#f5cda5;}.cls-12{fill:#d33219;}.cls-13{fill:#92575c;}.cls-14{fill:#412523;}.cls-16,.cls-17{fill:#e3d8d3;}.cls-17{stroke:#090a0a;}.cls-18{fill:#995e3c;}.cls-21{fill:#666460;}.cls-22{fill:#28292d;}.cls-23{fill:#694f43;}.cls-24{fill:#422f29;}.cls-25{fill:#323337;}</style></defs><g id="Ebene_2" data-name="Ebene 2"><g id="Ebene_2-2" data-name="Ebene 2"><path class="cls-1" d="M148.38,264.1s14.75,11.69,28.56,9l151.64,67.34s-7.1-16.16,79.44-67.53c0,0,7.14-11.27,18.19-10.42,0,0-12.61-28.28-70.64-66.62,0,0-38.7,95.56-54.66,98.5,0,0-25.15-46.22-31-39.67C237.55,290.76,156.25,186.34,148.38,264.1Z"/><g id="ropa"><path class="cls-2" d="M192.71,409.82v31.11S42.13,443.56,20.12,486.51s-11.5,68.37-9.75,102.56c0,0,79.71-43,170,99.92H453s37.69-166.63,75.38-156.5c0,0-11.4-83.12-148.14-98.29l-2.63-33.59Z"/><polygon class="cls-3" points="174.2 396.93 185.38 447.45 206.77 444.34 299.65 637.53 389.2 435.31 389.2 394.86 174.2 396.93"/><path class="cls-4" d="M151.85,439.06l-22.1-20.84S-4.2,456.72.45,475.05c0,0,31,17.42,60.43,14.67C60.88,489.72,107.52,445,151.85,439.06Z"/><path class="cls-4" d="M419.21,434.78s72.56,47.92,101,51.07c0,0,7.33,3.15,8.25-6,0,0-2.88-19.41-106.85-62.87Z"/><path class="cls-5" d="M487.22,460.89s44.79,60,41.19,89.33"/><path class="cls-5" d="M503.72,460.89s44.92,72.4,36.67,98.28"/><path class="cls-5" d="M497.67,460.89s42.39,72.58,39.31,87.94"/><circle class="cls-4" cx="123.22" cy="493.68" r="11.17"/><circle class="cls-4" cx="431.18" cy="669.44" r="11.17"/><circle class="cls-4" cx="445.66" cy="592.85" r="11.17"/><circle class="cls-4" cx="449.17" cy="552.39" r="11.17"/><circle class="cls-4" cx="450.17" cy="521.2" r="11.17"/><circle class="cls-4" cx="140.68" cy="521.2" r="11.17"/><circle class="cls-4" cx="151.85" cy="552.39" r="11.17"/><circle class="cls-4" cx="438" cy="633.31" r="11.17"/><path class="cls-6" d="M382.57,463.41c11.72-1.12,23.78-2.21,35.05,1.16s21.71,12.35,23.13,24a10.23,10.23,0,0,1-.53,5.38c-1.31,2.92-4.62,4.5-7.81,4.7s-6.32-.7-9.41-1.5a137.71,137.71,0,0,0-50.34-3.33,6.7,6.7,0,0,0-3,.86c-2.82,1.89-1,6.79,2.18,7.92s6.69-.1,9.95-1.07c10.61-3.17,21.91-3.51,32.91-2.19,8.73,1.05,19,4.75,20.62,13.39,1.57,8.37-6.74,15.85-15.16,17.08s-16.8-1.78-25-3.87a119.65,119.65,0,0,0-33-3.62c-2.56.08-5.27.29-7.4,1.72s-3.36,4.52-1.94,6.67a313.47,313.47,0,0,1,59.83,7.93c5.25,1.22,10.66,2.68,14.74,6.19,3.17,2.73,5.37,7.08,4.18,11.08-.83,2.76-3.08,4.85-5.48,6.44-11.22,7.44-26.08,6.26-39.05,2.66s-25.54-9.34-39-10.24a16.34,16.34,0,0,0-7.8,1c-2.41,1.1-4.39,3.5-4.26,6.14.25,5.14,7,6.72,12.17,6.72,19.88,0,40-1.6,59.43,2.78,5.74,1.29,11.57,3.23,15.82,7.29s6.49,10.73,3.92,16c-2.38,4.89-8,7.29-13.32,8.42-25.38,5.37-50.9-8.83-76.84-8.61-4.55,0-9.63.8-12.39,4.41a8.4,8.4,0,0,0,11.9,11.67c1.48-1.18,2.53-2.82,4-4,4-3.25,9.8-2.39,14.87-1.5A274.67,274.67,0,0,0,398,609.21c5.12.11,10.35.08,15.22,1.65s9.44,5.1,10.79,10c2.05,7.51-4.24,15.22-11.62,17.68s-15.41,1.12-23.1-.06c-22.55-3.48-45.29-5.45-68-7.42a11,11,0,0,0-4.39.21c-3.68,1.2-5,6.27-3.14,9.67s5.88,5.12,9.75,5.31,7.65-.9,11.4-1.84a169.82,169.82,0,0,1,59.75-4.15c8.54.92,18.48,3.68,21.33,11.78,1.65,4.68.33,9.87-1.51,14.48-1.93,4.84-4.6,9.63-8.9,12.58-7.9,5.41-18.5,3.13-27.88,1.19a243.72,243.72,0,0,0-54.35-5.05c-3,.06-6.58.51-7.94,3.18-1.29,2.52.3,5.74,2.71,7.21s5.37,1.66,8.19,1.8c15.87.8,31.76,1.6,47.64,1.19,5.72-.14,11.5-.44,17.1.73"/><path class="cls-6" d="M192.35,465.71c-9.7.59-19.69,1.27-28.25,6.23s-15.45,15.3-14.54,27a12.2,12.2,0,0,0,1.38,5.22,7.39,7.39,0,0,0,7.16,3.49c2.62-.26,5-1.61,7.38-2.84a94.35,94.35,0,0,1,40.28-10.59,4.92,4.92,0,0,1,2.56.41c2.62,1.45,2,6.54-.38,8.12s-5.45.87-8.26.39c-9.17-1.58-18.41-.28-27.1,2.62-6.9,2.3-14.58,7.44-14.38,16.18.19,8.46,8.26,14.62,15.31,14.61s13.32-4.19,19.65-7.45a82.25,82.25,0,0,1,26.11-8.34c2.1-.3,4.33-.49,6.31.62s3.52,4,2.75,6.28a215.75,215.75,0,0,0-47.17,16.5c-4,2-8.18,4.18-10.88,8.23-2.09,3.14-3.11,7.75-1.43,11.51a12.19,12.19,0,0,0,5.57,5.54c10.42,5.69,22.27,2.38,32.18-3s19.08-12.91,29.83-15.74a11.16,11.16,0,0,1,6.5-.2,6.94,6.94,0,0,1,4.54,5.43c.7,5.09-4.52,7.63-8.69,8.38-16.14,2.9-32.79,4.23-47.76,11.36-4.43,2.1-8.82,4.85-11.56,9.47s-3.38,11.5-.36,16.34c2.79,4.47,7.77,6,12.29,6.35,21.55,1.6,39.77-16.07,60.86-19.63,3.7-.62,8-.6,10.84,2.55a10.14,10.14,0,0,1,1.31,11,6.24,6.24,0,0,1-8.92,2.17c-1.41-.94-2.55-2.41-3.94-3.37-3.82-2.63-8.38-.94-12.34.68a188.61,188.61,0,0,1-33.73,10.24c-4.13.84-8.38,1.57-12.06,3.83a14.46,14.46,0,0,0-7,11.45c-.34,7.69,6.12,14.36,12.55,15.71s12.71-1.13,18.74-3.41c17.69-6.7,35.8-11.94,53.9-17.18a7.52,7.52,0,0,1,3.6-.43c3.2.65,5.15,5.46,4.25,9.07a9.27,9.27,0,0,1-7,6.64c-3.1.74-6.37.23-9.58-.16a116.13,116.13,0,0,0-49.23,4.59c-6.77,2.15-14.35,6.31-15.24,14.7-.51,4.84,1.46,9.76,3.77,14,2.42,4.48,5.43,8.81,9.44,11.09,7.37,4.18,15.57.4,22.84-2.88a167.55,167.55,0,0,1,43.24-12.86c2.45-.38,5.42-.45,7,2s.76,5.69-.93,7.5-4.07,2.41-6.34,3c-12.74,3.09-25.49,6.18-38.46,8.08-4.66.69-9.41,1.23-13.75,3.2"/><path class="cls-7" d="M382.57,463.41c11.72-1.12,23.78-2.21,35.05,1.16s21.71,12.35,23.13,24a10.23,10.23,0,0,1-.53,5.38c-1.31,2.92-4.62,4.5-7.81,4.7s-6.32-.7-9.41-1.5a137.71,137.71,0,0,0-50.34-3.33,6.7,6.7,0,0,0-3,.86c-2.82,1.89-1,6.79,2.18,7.92s6.69-.1,9.95-1.07c10.61-3.17,21.91-3.51,32.91-2.19,8.73,1.05,19,4.75,20.62,13.39,1.57,8.37-6.74,15.85-15.16,17.08s-16.8-1.78-25-3.87a119.65,119.65,0,0,0-33-3.62c-2.56.08-5.27.29-7.4,1.72s-3.36,4.52-1.94,6.67a313.47,313.47,0,0,1,59.83,7.93c5.25,1.22,10.66,2.68,14.74,6.19,3.17,2.73,5.37,7.08,4.18,11.08-.83,2.76-3.08,4.85-5.48,6.44-11.22,7.44-26.08,6.26-39.05,2.66s-25.54-9.34-39-10.24a16.34,16.34,0,0,0-7.8,1c-2.41,1.1-4.39,3.5-4.26,6.14.25,5.14,7,6.72,12.17,6.72,19.88,0,40-1.6,59.43,2.78,5.74,1.29,11.57,3.23,15.82,7.29s6.49,10.73,3.92,16c-2.38,4.89-8,7.29-13.32,8.42-25.38,5.37-50.9-8.83-76.84-8.61-4.55,0-9.63.8-12.39,4.41a8.4,8.4,0,0,0,11.9,11.67c1.48-1.18,2.53-2.82,4-4,4-3.25,9.8-2.39,14.87-1.5A274.67,274.67,0,0,0,398,609.21c5.12.11,10.35.08,15.22,1.65s9.44,5.1,10.79,10c2.05,7.51-4.24,15.22-11.62,17.68s-15.41,1.12-23.1-.06c-22.55-3.48-45.29-5.45-68-7.42a11,11,0,0,0-4.39.21c-3.68,1.2-5,6.27-3.14,9.67s5.88,5.12,9.75,5.31,7.65-.9,11.4-1.84a169.82,169.82,0,0,1,59.75-4.15c8.54.92,18.48,3.68,21.33,11.78,1.65,4.68.33,9.87-1.51,14.48-1.93,4.84-4.6,9.63-8.9,12.58-7.9,5.41-18.5,3.13-27.88,1.19a243.72,243.72,0,0,0-54.35-5.05c-3,.06-6.58.51-7.94,3.18-1.29,2.52.3,5.74,2.71,7.21s5.37,1.66,8.19,1.8c15.87.8,31.76,1.6,47.64,1.19,5.72-.14,11.5-.44,17.1.73"/><path class="cls-7" d="M192.35,465.71c-9.7.59-19.69,1.27-28.25,6.23s-15.45,15.3-14.54,27a12.2,12.2,0,0,0,1.38,5.22,7.39,7.39,0,0,0,7.16,3.49c2.62-.26,5-1.61,7.38-2.84a94.35,94.35,0,0,1,40.28-10.59,4.92,4.92,0,0,1,2.56.41c2.62,1.45,2,6.54-.38,8.12s-5.45.87-8.26.39c-9.17-1.58-18.41-.28-27.1,2.62-6.9,2.3-14.58,7.44-14.38,16.18.19,8.46,8.26,14.62,15.31,14.61s13.32-4.19,19.65-7.45a82.25,82.25,0,0,1,26.11-8.34c2.1-.3,4.33-.49,6.31.62s3.52,4,2.75,6.28a215.75,215.75,0,0,0-47.17,16.5c-4,2-8.18,4.18-10.88,8.23-2.09,3.14-3.11,7.75-1.43,11.51a12.19,12.19,0,0,0,5.57,5.54c10.42,5.69,22.27,2.38,32.18-3s19.08-12.91,29.83-15.74a11.16,11.16,0,0,1,6.5-.2,6.94,6.94,0,0,1,4.54,5.43c.7,5.09-4.52,7.63-8.69,8.38-16.14,2.9-32.79,4.23-47.76,11.36-4.43,2.1-8.82,4.85-11.56,9.47s-3.38,11.5-.36,16.34c2.79,4.47,7.77,6,12.29,6.35,21.55,1.6,39.77-16.07,60.86-19.63,3.7-.62,8-.6,10.84,2.55a10.14,10.14,0,0,1,1.31,11,6.24,6.24,0,0,1-8.92,2.17c-1.41-.94-2.55-2.41-3.94-3.37-3.82-2.63-8.38-.94-12.34.68a188.61,188.61,0,0,1-33.73,10.24c-4.13.84-8.38,1.57-12.06,3.83a14.46,14.46,0,0,0-7,11.45c-.34,7.69,6.12,14.36,12.55,15.71s12.71-1.13,18.74-3.41c17.69-6.7,35.8-11.94,53.9-17.18a7.52,7.52,0,0,1,3.6-.43c3.2.65,5.15,5.46,4.25,9.07a9.27,9.27,0,0,1-7,6.64c-3.1.74-6.37.23-9.58-.16a116.13,116.13,0,0,0-49.23,4.59c-6.77,2.15-14.35,6.31-15.24,14.7-.51,4.84,1.46,9.76,3.77,14,2.42,4.48,5.43,8.81,9.44,11.09,7.37,4.18,15.57.4,22.84-2.88a167.55,167.55,0,0,1,43.24-12.86c2.45-.38,5.42-.45,7,2s.76,5.69-.93,7.5-4.07,2.41-6.34,3c-12.74,3.09-25.49,6.18-38.46,8.08-4.66.69-9.41,1.23-13.75,3.2"/><path class="cls-5" d="M30.68,470.47s-26.58,70-15.06,97.2"/><path class="cls-5" d="M14.81,475S-8.48,557,6.56,579.57"/><path class="cls-5" d="M20.63,473.33S-.18,554.77,7,568.69"/><path class="cls-5" d="M50.12,472.73s-26.58,70-15.06,97.21"/><path class="cls-5" d="M34.25,477.26S11,559.22,26,581.83"/><path class="cls-5" d="M40.08,475.6S19.26,557,26.43,571"/><path class="cls-5" d="M486.32,463.62s32.24,67.57,23,95.64"/><path class="cls-5" d="M502.51,466.83s29.93,79.77,16.8,103.54"/><path class="cls-5" d="M496.57,465.65S524,545.1,518,559.57"/><circle class="cls-4" cx="192.71" cy="672.44" r="11.17"/><circle class="cls-4" cx="174.2" cy="629.3" r="11.17"/><circle class="cls-4" cx="163.03" cy="592.85" r="11.17"/><circle class="cls-4" cx="453.53" cy="490.01" r="11.17"/></g><path class="cls-8" d="M323.05,292.15l54.58-35.84.69,4.25s11.7-4.24,14.57,10.07c0,0,2.72,26.65,20.78,21.75,0,0-7.72,8.85-21.51,3.6,0,0,19.81,38.92,34.48,36.35,0,0-5.33,4.37-13.87-.41,0,0,6.22,18.17,25.64,25.25,0,0-11.75,0-15.46-4.82,0,0,5.95,22.58,17.14,31.2,0,0-14.32-7.85-16.49-9.12,0,0,16.56,19.55,27.14,26.47,0,0-23.15-9.95-25.09-15.9,0,0,26.7,19.79,29.69,28.11,0,0-4.55,4.1-2.25,8.24,0,0-7.16-3.89-5.7-6.94,0,0,13.16-1.38-20.7-23,0,0,6.56,26.32,16,34.06,0,0-14.5-6.87-15.44-12.68,0,0-8.34,16.93,1.2,27.43,0,0-10.44,2-12.52-12.81,0,0-6.9,37.86,12.93,25.38,0,0-9.32,13.75-26.83-6.07,0,0-27,13.15-33.44-32.54,0,0,28.41-13.67,21.64-40Z"/><path class="cls-8" d="M251.52,295.19l-54.58-35.84-.69,4.25s-11.7-4.24-14.57,10.07c0,0-2.72,26.66-20.78,21.75,0,0,7.72,8.85,21.51,3.6,0,0-19.8,38.92-34.47,36.35,0,0,5.33,4.38,13.86-.41,0,0-6.22,18.17-25.64,25.26,0,0,11.75-.05,15.47-4.83,0,0-6,22.58-17.15,31.2,0,0,14.33-7.85,16.49-9.12,0,0-16.55,19.55-27.14,26.48,0,0,23.15-10,25.1-15.9,0,0-26.71,19.78-29.7,28.11,0,0,4.56,4.09,2.25,8.24,0,0,7.16-3.9,5.7-6.95,0,0-13.15-1.38,20.71-23,0,0-6.57,26.33-16,34.06,0,0,14.5-6.86,15.44-12.68,0,0,8.34,16.93-1.2,27.43,0,0,10.44,2,12.53-12.8,0,0,6.89,37.85-12.94,25.38,0,0,9.33,13.74,26.83-6.08,0,0,26.55,17.08,32.95-28.62,0,0-27.92-17.59-21.14-43.94Z"/><path class="cls-8" d="M353.06,302.91l54.58-35.84.69,4.24s11.7-4.24,14.57,10.08c0,0,2.72,26.65,20.78,21.74,0,0-7.72,8.85-21.51,3.6,0,0,19.8,38.92,34.48,36.35,0,0-5.33,4.38-13.87-.4,0,0,6.22,18.17,25.64,25.25,0,0-11.75-.05-15.46-4.82,0,0,6,22.58,17.14,31.19,0,0-14.33-7.84-16.49-9.11,0,0,16.56,19.54,27.14,26.47,0,0-23.15-10-25.09-15.9,0,0,26.7,19.78,29.69,28.11,0,0-4.55,4.1-2.25,8.24,0,0-7.16-3.89-5.7-6.95,0,0,13.16-1.37-20.7-23,0,0,6.56,26.33,16,34.07,0,0-14.5-6.87-15.44-12.68,0,0-8.34,16.92,1.2,27.42,0,0-10.44,2-12.52-12.8,0,0-6.9,37.85,12.93,25.38,0,0-9.33,13.75-26.83-6.07,0,0-26.55,17.07-32.95-28.62,0,0,27.92-17.6,21.15-44Z"/><path class="cls-8" d="M219.3,302.91l-54.57-35.84-.7,4.24s-11.7-4.24-14.57,10.08c0,0-2.72,26.65-20.78,21.74,0,0,7.72,8.85,21.51,3.6,0,0-19.8,38.92-34.47,36.35,0,0,5.33,4.38,13.86-.4,0,0-6.22,18.17-25.64,25.25,0,0,11.75-.05,15.47-4.82,0,0-6,22.58-17.15,31.19,0,0,14.33-7.84,16.49-9.11,0,0-16.55,19.54-27.14,26.47,0,0,23.15-10,25.1-15.9,0,0-26.71,19.78-29.7,28.11,0,0,4.56,4.1,2.25,8.24,0,0,7.16-3.89,5.7-6.95,0,0-13.15-1.37,20.71-23,0,0-6.57,26.33-16,34.07,0,0,14.49-6.87,15.43-12.68,0,0,8.34,16.92-1.19,27.42,0,0,10.43,2,12.52-12.8,0,0,6.89,37.85-12.94,25.38,0,0,9.33,13.75,26.83-6.07,0,0,26.56,17.07,33-28.62,0,0-27.93-17.6-21.15-44Z"/><path class="cls-9" d="M213.81,401.29s8.63,165.84,96.87,145.6c0,0,66.23,3.33,55.49-145.6Z"/><path id="cara" class="cls-10" d="M174,255.81l11.37,84.6s-49.76,56.8,24.88,82.43l33.42,79s14.22,35.54,56.87,36.26c0,0,59.68-4.39,52.56-52.67,0,0,5.57-5.57,4.64-24.14,0,0,7.43-13.93,4.66-46.19,0,0,86.73-.71,37-81.76l-4.26-77.49Z"/><g id="boca"><path class="cls-11" d="M224.33,441.78s11.11,42.32,20.1,54c0,0,30,41.49,65.06,34.38,0,0,16.4-8.47,32.27-11.11,0,0,10.58-3.7,10.58-20.63l.54-12s-4.24,21-23.81,11.49c0,0-7.65-7.93-39.8-.53,0,0-38,9.81-43.78-11Z"/><path class="cls-12" d="M224.33,439.06s11,41.94,19.93,53.47c0,0,29.71,41.13,64.48,34.08,0,0,16.25-8.39,32-11,0,0,10.49-3.67,10.49-20.44l1.85-9.77s-5.52,18.68-24.92,9.24c0,0-7.58-7.86-39.44-.52,0,0-37.63,9.72-43.4-10.87Z"/><path class="cls-13" d="M247.42,487.85s5.5,15.12,45.66,5.31c0,0,26.17-5.73,35.06,1.47,0,0,17.9,9.89,24.92-9.24,0,0-3.63,21.88-25.37,13.26-9.1-3.6-12.1-11.23-33.08-3.57-11.56,4.21-31.86,18.44-47.19-7.23-5.35-9-17.1-36.18-17.1-36.18Z"/></g><path class="cls-14" d="M261.41,431.75s15.88,20.95,36.68,23.54c0,0,38.25-10.07,36.42-25.7,0,0,6.34,1.13,6-10.83,0,0,5.57-5.47-23.51-29.18-4.72-3.85-2.07-24.27-2.07-24.27l-41.06,2.42s-3.6,36.48-9.49,42.57C264.34,410.3,251.26,424.31,261.41,431.75Z"/><path class="cls-14" d="M340.47,382.73s0,17.47,12.59,14.2c11.6-3,45.71,13.37,57.3-12.06,0,0-40.66,4.88-66.89-17.14Z"/><polygon class="cls-14" points="347.36 306.66 378.73 283.87 398.77 323.17 369.55 353.58 347.36 306.66"/><g id="ojo_izq" data-name="ojo izq"><path class="cls-15" d="M296.58,341.49c0,19.24-24.92,37.47-45.74,37.47s-32.5-18.85-32.86-36.15c-.41-19.39,20.1-36.15,40.92-36.15S296.58,322.25,296.58,341.49Z"/><ellipse class="cls-10" cx="251.45" cy="346.5" rx="24.48" ry="23.33"/><path class="cls-14" d="M273.83,344.6c0,8.91-10.3,17.2-22.92,16.13-13.74-1.16-22.93-13.14-20.18-20.45,3.12-8.26,7.51-11.82,20.18-11.82S273.83,335.69,273.83,344.6Z"/><path class="cls-10" d="M272.79,342.77c0,7.74-9.59,14.94-21.33,14-12.78-1-21.32-11.42-18.76-17.77,2.9-7.18,7-10.27,18.76-10.27S272.79,335,272.79,342.77Z"/><ellipse class="cls-15" cx="254.91" cy="327.69" rx="24.29" ry="18.08"/><ellipse class="cls-16" cx="254.99" cy="327.81" rx="22.3" ry="16.6"/><circle class="cls-15" cx="255.92" cy="327.81" r="8.42"/></g><g id="ojo_der" data-name="ojo der"><path class="cls-15" d="M374.41,343.63c-8.45,18.55-21.63,41.24-38.78,41.24s-31.55-14.46-27.17-40.47c3.4-20.13,17.74-37.74,34.89-37.74S382.87,325.05,374.41,343.63Z"/><path class="cls-10" d="M373.09,339.19c0,12.89-16.1,28.54-29.62,28.54S319,357.29,319,344.4s11-23.33,24.48-23.33S373.09,326.31,373.09,339.19Z"/><path class="cls-14" d="M366.06,340.71c-2,12.69-15.89,19-27.24,17.59-17.17-2.1-19.18-14.59-16.39-21.93,3.15-8.3,7.6-11.87,20.42-11.87S367.45,331.85,366.06,340.71Z"/><path class="cls-10" d="M364,337.28c-1.84,12.7-14.6,19-25,17.59-15.78-2.09-17.62-14.59-15.06-21.93,2.9-8.3,7-11.87,18.76-11.87S365.24,328.42,364,337.28Z"/><circle class="cls-17" cx="347.36" cy="329.91" r="16.6"/><circle class="cls-15" cx="348.89" cy="327.81" r="8.42"/></g><g id="nariz"><path class="cls-18" d="M288.7,353.58l5.91,33.58L273,411.88S256.81,403.55,288.7,353.58Z"/><path class="cls-19" d="M321,431.73l12.13-9.4s-4.12-23-25.81-.75c0,0-15.17,12.08.9,19.6C308.2,441.18,317.41,437.18,321,431.73Z"/><path class="cls-20" d="M321,431.73l12.13-9.4s-4.12-23-25.81-.75c0,0-15.17,12.08.9,19.6C308.2,441.18,317.41,437.18,321,431.73Z"/><path class="cls-19" d="M281.51,436.05l13.47,3s13.14-18.18-14.63-20c0,0-17.06-3.55-12.73,13.52C267.62,432.58,275.72,436.92,281.51,436.05Z"/><path class="cls-20" d="M281.51,436.05l13.47,3s13.14-18.18-14.63-20c0,0-17.06-3.55-12.73,13.52C267.62,432.58,275.72,436.92,281.51,436.05Z"/><path class="cls-10" d="M270.46,434.2s-9.46-15.57,9.89-15.14c0,0,19.79,4.73,14.63,20,0,0,4.73,16.13,13.33,3.66,0,0-9.89-15.48,12-27.1,0,0,15.06-3.87,10.75,9,0,0,1.3,7.74,6,2.15,0,0,.43-11,0-11.73,0,0,4.3-2.86-15.92-18.15,0,0-11.61-5.82-8.6-22.6,0,0-5.59-30.1,8.6-51.18l-49.46-19.64s13.76,21.79,14.62,38.57c0,0-2.15,30.59,3.88,44.33,0,0-18.93,16.31-20.65,23.41,0,0-15.05,5.42-7.74,21.1C261.86,430.92,267.45,438.57,270.46,434.2Z"/><polygon class="cls-14" points="285.33 317.68 300.82 365.31 314.89 326.82 285.33 317.68"/></g><path class="cls-15" d="M340.47,382.73S345,398.28,346,400.3c3.29,6.53,8.24,6.09,12.95,26.23,0,0,.36,19.63-4,28.76,0,0,8.91-5.54,7.36-40.23,0,0,24.25-2.4,38.73-12.55,5.76-4,9.27-17.64,9.27-17.64S373.09,413.31,340.47,382.73Z"/><path class="cls-21" d="M218.36,284.16l-59.48-26.92,0,4.3s-12.22-2.36-12.82,12.22c0,0,1.45,26.75-17.15,24.71,0,0,9,7.54,21.81.22,0,0-13.51,41.52-28.41,41.26,0,0,5.95,3.5,13.64-2.55,0,0-3.32,18.91-21.41,28.93,0,0,11.61-1.87,14.53-7.17,0,0-2.37,23.23-12.08,33.48,0,0,12.93-10,14.87-11.57,0,0-13.32,21.89-22.7,30.37,0,0,21.32-13.43,22.32-19.6,0,0-23.31,23.69-25,32.38,0,0,5.13,3.34,3.5,7.79,0,0,6.47-5,4.55-7.75,0,0-13.21.69,16.88-25.95,0,0-2.4,27-10.49,36.14,0,0,13.25-9,13.28-14.93,0,0,10.87,15.43,3.08,27.28,0,0,10.62.37,10.38-14.6,0,0,12.69,36.32-8.84,27.09,0,0,11.35,12.13,25.57-10.17,0,0,28.88,12.73,28.1-33.4,0,0-30.32-13-27.73-40.12Z"/><path class="cls-8" d="M251.45,297l-37.64,31.44s-11.67-10.78-33.53,19.47l-12.17-3.16,9.91-4.49-9.75-6.51,11.86-.25s-13.29-12.6-18-7.83c0,0,6.62-7.25,21.65-3.71,0,0-7.65-16.68-16.07-14.15,0,0,26.6-16,39.58-7.58C207.24,300.25,241.57,257.85,251.45,297Z"/><path class="cls-8" d="M168.5,371.37,167,375.86s4.58,30.67,27,35.5l-12.73,5.56-2.92-10.48-7.92,8.63L172,403.32s-14.49,11.2-10.5,16.63c0,0-6.15-7.65-.35-22,0,0-17.66,5-16.45,13.71,0,0,13.43-28.79,23.77-40.33Z"/><path class="cls-14" d="M218,342.81s-22.15-4-42,18c0,0-16.9,32.39,11.17,44.11,0,0,5.56,9.59,43.52-20.07,0,0,4.2,21.74-25.79,36,0,0-53.49-15.64-29.13-65.77C175.71,355.06,208.73,298.12,218,342.81Z"/><ellipse class="cls-11" cx="200.87" cy="375.86" rx="12.93" ry="10.55"/><ellipse class="cls-11" cx="390.71" cy="360.83" rx="14.45" ry="10.55"/><path class="cls-15" d="M203.75,420.42s15.15-2.24,34.11-41.46c0,0-10.28,34.56-19,39.22,0,0-2,5.9-.93,9.76,1.14,4.26,11.14,39.09,11.14,39.09s21.78,63.49,62.8,64c0,0,24.76,4.67,43.19-5.13,0,0-10.12,12.21-41,11.8,0,0-29.48.19-50-32.07,0,0-16.36-35.23-33.91-82.76Z"/><path class="cls-21" d="M366.17,278.12l54.5-26.61v4.3s11.19-2.3,11.68,12.29c0,0-1.46,26.74,15.56,24.8,0,0-8.27,7.49-19.94.1,0,0,12.16,41.59,25.77,41.41,0,0-5.45,3.47-12.45-2.63,0,0,2.94,18.93,19.43,29.05,0,0-10.6-1.94-13.25-7.25,0,0,2.06,23.24,10.89,33.55,0,0-11.77-10.05-13.54-11.65,0,0,12.07,21.95,20.61,30.49,0,0-19.43-13.54-20.31-19.73,0,0,21.19,23.82,22.66,32.52,0,0-4.71,3.31-3.23,7.77,0,0-5.89-5-4.13-7.77,0,0,12.07.75-15.3-26,0,0,2.06,27,9.42,36.19,0,0-12.07-9.11-12.07-15,0,0-10,15.37-3,27.26,0,0-9.71.32-9.42-14.65,0,0-11.77,36.25,7.95,27.13,0,0-10.43,12.07-23.32-10.3,0,0-26.47,12.58-25.53-33.54,0,0,27.78-12.89,25.53-40Z"/><g id="pelo"><path class="cls-8" d="M364,290.06l28.33,39.85s13.51,7,19.95,30.92h10.61l-8.12-7.25,11.24-3.3-11.24-3.78s16.44-8.07,19.56-2.1c0,0-4.16-8.89-19.56-10,0,0,12.28-13.64,19.56-8.72,0,0-20.61-23.23-35.52-19C398.77,306.66,385.07,255.62,364,290.06Z"/><path class="cls-8" d="M414.73,369.84l1.48,4.48a114.12,114.12,0,0,1-27,35.5l12.72,5.56,2.93-10.48,7.92,8.63-1.57-11.75s14.49,11.2,10.51,16.63c0,0,6.15-7.65.34-22,0,0,17.66,5,16.45,13.71,0,0-13.43-28.79-23.77-40.32Z"/></g><g id="sombrero"><path class="cls-2" d="M149,261.31s12.63,11.68,26.16,9L324,338.82s-3.61-10.82,84.76-70.34c0,0,4.27-10.57,15.09-9.72,0,0-21.91-87.4-52.22-157.79,0,0-54.75-89.94-70.39-87,0,0-3.38,3.67-9.13,10.22C260.4,60.25,156.74,183.56,149,261.31Z"/><path class="cls-22" d="M280.14,38s9.14-8.68,8.25-6.86c0,0-15.94,164.36,33.79,276.88,0,0,.86,24.4-3.32,28.07l7.15,2.71s-2.09-22.78,7.68-37c0,0-39.73,7.82-31.65-293.79C302.26-.36,290.07,26.77,280.14,38Z"/><path class="cls-4" d="M289.28,29.34S297.75,19,295.08,25c0,0-19.53,168.18,30.2,280.7,0,0,2.2,29.12-2,32.79l5.29,1.92s2-30.54,11.8-44.75c0,0-39.72,7.83-31.65-293.78C309-6.51,285.21,14.87,289.28,29.34Z"/></g><path class="cls-13" d="M325.3,510.56c.34,9-9.23,17.42-20.73,18.38-15.07,1.25-21.07-9.52-21.07-18.38s3.41-13.82,20.9-16.06C315.85,493,324.93,500.61,325.3,510.56Z"/><path class="cls-23" d="M286.42,503.08c-7.09,5,12.4,53.32,14.57,61.13,2.34,8.44,32.7,2.31,32.7-6.46,0-6.33-6.44-38.36-12-54.67C318.9,494.72,298.53,494.52,286.42,503.08Z"/><path class="cls-24" d="M309.29,545.7c0,.06.38,0,.46-.05C309.64,545.58,309.18,545.72,309.29,545.7Z"/><polygon class="cls-24" points="308.18 544.98 308.35 544.96 307.92 544.91 308.18 544.98"/><path class="cls-24" d="M308,544.14c-.68.22.18.28,0,.48l-.16.06.58,0C308.27,544.47,307.85,544.3,308,544.14Z"/><path class="cls-24" d="M309.45,543.39c-.27.08-.25,0-.06.12l.06,0S309.44,543.44,309.45,543.39Z"/><path class="cls-24" d="M309.45,543.48c0,.09.22-.1,0,0Z"/><path class="cls-24" d="M309.21,543.1l.27.07c.16,0,.17-.17.3-.15C309.62,542.93,309.46,543,309.21,543.1Z"/><path class="cls-24" d="M308.68,543.09l.12,0C308.86,543.11,308.88,543.09,308.68,543.09Z"/><path class="cls-24" d="M309,543.22l-.24-.09c-.11,0-.34.09.09,0C308.68,543.21,308.88,543.19,309,543.22Z"/><path class="cls-24" d="M309,543.31a.47.47,0,0,1-.49.13C308.6,543.65,309.09,543.52,309,543.31Z"/><path class="cls-24" d="M307.29,544.24l-.19.13.25,0C307.23,544.38,307.51,544.19,307.29,544.24Z"/><path class="cls-24" d="M309.43,542.3c-.15,0-.39.12-.57.17l.18,0A1,1,0,0,1,309.43,542.3Z"/><path class="cls-24" d="M308.86,542.47l-.29-.08C308.57,542.51,308.69,542.51,308.86,542.47Z"/><polygon class="cls-24" points="307.9 543.22 308.48 543.33 307.88 543.18 307.9 543.22"/><polygon class="cls-24" points="309.36 541.81 309.71 541.81 309.17 541.78 309.36 541.81"/><path class="cls-24" d="M309.23,541.49c.3,0,.47-.17.66-.14a1.16,1.16,0,0,0-.57-.13C309.46,541.26,309.44,541.35,309.23,541.49Z"/><path class="cls-24" d="M309,541.16a2.12,2.12,0,0,0,.34.06A1,1,0,0,0,309,541.16Z"/><path class="cls-24" d="M308.6,542.15A1.05,1.05,0,0,0,309,542l-.41.13Z"/><path class="cls-24" d="M308.59,542.11h0V542A.83.83,0,0,1,308.59,542.11Z"/><path class="cls-24" d="M308.61,542.17v0S308.55,542.17,308.61,542.17Z"/><path class="cls-24" d="M308.21,542.81a1,1,0,0,0-.86.09A4.37,4.37,0,0,1,308.21,542.81Z"/><path class="cls-24" d="M308.09,542.33l-.07.16a1.68,1.68,0,0,1,.39-.07Z"/><polygon class="cls-24" points="307.95 542.29 308.09 542.33 308.12 542.28 307.95 542.29"/><path class="cls-24" d="M308.63,541.48c-.19,0-.22-.09-.26-.16a.33.33,0,0,0-.08.26C308.42,541.57,308.67,541.56,308.63,541.48Z"/><path class="cls-24" d="M308.57,541.79h0S308.5,541.81,308.57,541.79Z"/><path class="cls-24" d="M308.23,540.6l-.07,0h.07Z"/><path class="cls-24" d="M308.21,541.61c-.07.08,0,.09.18.1a.21.21,0,0,1-.1-.13C308.23,541.59,308.19,541.6,308.21,541.61Z"/><path class="cls-24" d="M308.74,541l-.21.15C308.66,541.09,308.86,541,308.74,541Z"/><path class="cls-24" d="M308.66,541.74h0C308.77,541.71,308.72,541.72,308.66,541.74Z"/><path class="cls-24" d="M308.66,541.74a1.85,1.85,0,0,0-.27,0,.48.48,0,0,0,.16.07Z"/><path class="cls-24" d="M305.49,540.91c.4-.06.79,0,.39.24a7.9,7.9,0,0,0,2.28-.52,1,1,0,0,1-.59,0c-.2.09-.44.4-.81.35s.11-.17.3-.3c-.47.17-.75-.09-1.46.09l.29.11A1.34,1.34,0,0,0,305.49,540.91Z"/><path class="cls-24" d="M308.17,540.9l.06,0c0-.08.2-.15.48-.29a1,1,0,0,0-.48,0v.28Z"/><path class="cls-24" d="M308.28,541.19a3.06,3.06,0,0,0-1.08.11c.06.16.37.05.58.11-.16-.24.25,0,.45-.21a.35.35,0,0,1,.14.12,1.2,1.2,0,0,1,.16-.17h0c-.05,0-.08,0-.05,0h0l-.16,0c.07-.09.11,0,.16,0h.07l-.28-.22C308.18,541,308.2,541.08,308.28,541.19Z"/><path class="cls-24" d="M306.42,542.93l.09,0C306.46,542.9,306.42,542.9,306.42,542.93Z"/><path class="cls-24" d="M306.65,542.78c.06,0,.23,0,.2.06s-.2,0-.34.07a.59.59,0,0,0,.51-.09H307a2.49,2.49,0,0,1,.69-.37A9.06,9.06,0,0,0,306.65,542.78Z"/><path class="cls-24" d="M307.35,542l-.25-.18-.34.18.22,0C306.92,542.09,307.18,542,307.35,542Z"/><polygon class="cls-24" points="308.44 540.54 308.89 540.48 308.23 540.48 308.44 540.54"/><polygon class="cls-24" points="308.32 540.26 308.71 540.2 308.47 540.17 308.32 540.26"/><path class="cls-24" d="M300.33,525.07l-.12,0Z"/><path class="cls-24" d="M300.4,525.54l.19,0C300.48,525.52,300.4,525.52,300.4,525.54Z"/><path class="cls-24" d="M306.9,533.25c.34-.17.89-.39.45-.29l-.42.11C307,533.13,307,533.19,306.9,533.25Z"/><path class="cls-24" d="M303.41,528.94l-.12,0,.42,0Z"/><path class="cls-24" d="M301.64,529.22l.25-.18A.72.72,0,0,0,301.64,529.22Z"/><path class="cls-24" d="M299.38,522.6h-.45C299,522.73,299.16,522.64,299.38,522.6Z"/><path class="cls-24" d="M307.59,537.36c.15-.11.21-.19.22-.25C307.58,537.26,307.23,537.41,307.59,537.36Z"/><path class="cls-24" d="M304.89,524.37a.5.5,0,0,0-.27,0A.41.41,0,0,0,304.89,524.37Z"/><path class="cls-24" d="M307.76,536.88l-.09.06c.08,0,.15.09.14.17C308,537,308.07,536.9,307.76,536.88Z"/><path class="cls-24" d="M297.91,513.26l0,0C297.9,513.24,297.9,513.25,297.91,513.26Z"/><path class="cls-24" d="M301.67,509.72s0,.06.06.1S301.74,509.76,301.67,509.72Z"/><path class="cls-24" d="M308.28,539.07c0,.06.05,0,0,0Z"/><path class="cls-24" d="M306.66,539.7a1,1,0,0,0-.21,0A1,1,0,0,1,306.66,539.7Z"/><path class="cls-24" d="M305,536.79Z"/><path class="cls-24" d="M308.11,539.2a.36.36,0,0,0,.11-.1A.47.47,0,0,0,308.11,539.2Z"/><path class="cls-24" d="M308.31,539.15l0,.06C308.35,539.21,308.39,539.19,308.31,539.15Z"/><path class="cls-24" d="M308.24,539s0,.07,0,.11l.06,0Z"/><path class="cls-24" d="M300,518l0,0C299.87,518,299.91,518,300,518Z"/><path class="cls-24" d="M302.17,532.54h0Z"/><path class="cls-24" d="M301.81,532.38c.55,0,.49.06.39.15l1.22-.32Z"/><path class="cls-24" d="M300,524l-.35.23c-.67-.06-.48-.23-1,0,1.34-.24.26.57,1.59.33l-.26.16s-.07,0-.06-.05c-.6.32,1,0,.85.24a.5.5,0,0,1-.44.18l.37.13c0,.06-.25.1-.23,0l.16.28h0a6.76,6.76,0,0,1,.71.05c-.18.12-.15,0-.31,0l.35.1c-.33.13-.69.06-.66-.06-1.3.41.36.07-.35.56l-.2-.13c-.74.25-.44.32-.88.59.24-.09,1.12-.59,1.49-.47-.09.07-.13.14.16.19-.47.09-.34.16-.29.28l-.63.11a3,3,0,0,0,.82,0c0,.16-.51.28-.91.4-.06.24.74-.32.92-.07-.21.24.08.32.5.48-.19.17-.39.05-.56.13l.52,0s-.16.05-.24.06c.21.07.63-.11.83,0,.7-.09-.95.52-.12.56a6,6,0,0,1-.63.12,4.16,4.16,0,0,0,1.15.23l-.37.27a2.61,2.61,0,0,1,1.52-.1l.5-.22.39.17a1.82,1.82,0,0,1-.59.08l.16,0a2.05,2.05,0,0,1-.95.16l.37-.16a5.78,5.78,0,0,0-1.19.13.44.44,0,0,1,.18,0,1.56,1.56,0,0,0-.26,0c-.06,0,.08,0,.25,0l-.69.2.28,0-.38.41a5.76,5.76,0,0,1,2.19.39,7.68,7.68,0,0,0-1.45.26c.62-.23-.33-.23-.24-.44,0,.11-.34.15-.44.14l.65.22c-.5.09-.36.14-.55.27,1-.26.7.12,1,.2-.33.07-.67.11-.62-.08-.71.33,1.2,0,.6.32,0,0,0-.07-.14-.06.32,0,.13.32-.17.32v0c-.07.29.15.82,1,.7l-1.18.18,2.9-.07a14.29,14.29,0,0,1-2.85.45c-.09.08-.19.19.09.27a4,4,0,0,1,1.09-.26,6,6,0,0,0-1.05.53c.15-.1,1.28-.24,1.27-.13-.17,0-1.11.22-1.23.21l1.15,0a4.31,4.31,0,0,0-1.24.29c.21-.07,0,.23.15.28l.23-.16c-.11.32,1.61,0,1.61.28a4.47,4.47,0,0,0-1.53.36,17.06,17.06,0,0,1,3.26-.06l-.31.11.41.12c-.88.05-2.74.06-3.47,0-.23.16-.37.1-.31.26a.46.46,0,0,1-.51,0l-.12.41c.66-.14.72.17,1.27,0l-.77-.28c.66-.14,1.92-.13,1.86.17a10.46,10.46,0,0,1-1.4.23c.23,0,.48.17.32.22l-.37,0c-.22.2.92.07.33.37,0,.07-.82.36-.42.29a26.33,26.33,0,0,1,3.63-.77,6.24,6.24,0,0,1-1,.61c-.57.22-1.44.12-1.93.31a2.07,2.07,0,0,1,.49,0c-.14.1-.56.09-.45.21.67-.11,0,.3.58,0,.22.1-.11.17-.05.33a4.2,4.2,0,0,1,1.72,0,3.08,3.08,0,0,0-.49.13c0,.3-.28.51-.23.78a1.58,1.58,0,0,1-.63.22c.13,0,.36,0,.4.09-.55.27-.13-.17-.8.09a1.52,1.52,0,0,1,.84.17c.6-.15.07-.29-.2-.36a4.22,4.22,0,0,1,2.17.07c.25.18-.51.2-.39.22-.06.44,1.52.07,1,.53a7.09,7.09,0,0,1-1.43.32c-.23-.14.28-.34.24-.46l-.22.2c-.19,0-.34-.12-.2-.21-.46.2,0,.71-.33,1.12a1.08,1.08,0,0,0,.59,0l-.09-.08c.4-.18.62.07.8-.1.32.08.82.14.62.38l-.6.15c.18,0,.34-.19.14-.21.29,0-.75.45,0,.39l.39-.22c.33.08,1,.12.85.33.58-.2-.08,0,.59-.29-.84.28-.05-.44-.92-.09.78-.28.3-.28,1-.58-.2,0-.37.13-.3,0h-.18v0l0,0h0a1.11,1.11,0,0,1-.29.13c-.47,0-.5-.21-.75-.24.08-.1.24,0,.44-.09l-.38,0c.44-.1.69-.37,1-.22l0-.18c.23-.16.3-.32.1-.37.08-.11-.53-.12-.17-.11l-.33-.23.11,0c0-.29-.84-.43-.11-.9-.13-.07-.28-.14-.19-.32l.37-.11c-.15-.09.32-.43-.09-.41,1-.33.11-.62.25-.86l-.5.09c0-.16-.17-.27-.4-.41l-.44.1c-.39-.08.23-.46.14-.69.17,0,.14,0,.05.11.93-.48-.85-.47-.18-.88-.17,0-.12-.09,0-.16h0a0,0,0,0,0,0,0l.22-.13a1,1,0,0,0-.22.12.38.38,0,0,0-.21-.17l.46-.13h0c.16-.11-.23,0-.58.09a1.21,1.21,0,0,0-.3,0c.75-.21-.3-.15.5-.39-.41,0-.38-.32-1.22-.2.11,0,.16-.06.17,0s.16-.2-.09-.23l.59-.16-.84,0a1.62,1.62,0,0,1,1-.25c-.76-.13-.31-.17-1.06-.26l.39-.06c0-.08-.58-.11-.26-.22.7-.33-.08-.93.51-1.53-1.12.31.47-.32-.42-.17a1.48,1.48,0,0,1,.66-.14c-.31-.19.36-.45-.42-.46.26-.08.4,0,.56-.09-.06,0-.25,0-.09-.08a.59.59,0,0,1,.35,0c-.09-.23-.93-.09-1.71,0,.34-.19.28-.25-.25-.23.24-.1.5-.22.62-.09,0-.09.27-.59-.36-.48.16-.06,0-.13-.05-.14,0-.2.05-.22,0-.4l-.1.07c-.77.08-.2-.12-.32-.26h.08c.48-.45-.29-.1.27-.56l-.47.11c-1,.17.54-.42.11-.55l-.25.13c-.37,0,1.31-.58,1.42-.71s.15,0,.22,0c.54-.4-.63.09-.81-.1.32-.1.85-.12.89-.27.25-.13-1.16-.21-.56-.53a1.18,1.18,0,0,1-.71.13c-.12-.14.89-.6.05-.58l.2-.07c-.23-.07-.42-.31-.87-.29,1.6-.43-.94-.57.56-.86l-.15-.34.16,0c.05-.25-.32-.26-.7-.27a.64.64,0,0,1,.32-.07c.24-.39.17-.41-.64-.55l.48-.12c-.29,0,.67-.63,0-.85a.85.85,0,0,1,.23,0c-.65-.25,1.17-1.14-.63-.93l-.48-.16c-.08.35-.78.11-1.05.3-.13-.11.47-.43.6-.3l-.09.05c.94-.13.25-.46.88-.57-.17-.61.23-1.32.15-1.9l-.7.2v-.21c.16-.08.55-.18.55,0,.39-.15-.39-.17-.55-.14.24-.34.86-.06.86-.15l-.08-.11-.08.05c-.31,0-.62,0-.62-.17s.43-.14.45-.19.07,0,0-.07v-.27l-.55.22c-.3-.06,0-.25-.63,0,.95-.36.17-1,.45-1.18-.44-.08-.46-.23-.45-.44-.11.07-.74.23-.7,0,1.33-.2.51-.42,1.43-.74-.6.24-.25-.45-1.1-.08.08-.16.49-.11.78-.27-.57-.23.19-.8-.06-1.17a2,2,0,0,1-.7.11l.82-.39c-.1-.06-1,.12-.44-.14-.14,0-.36.12-.42.08.68-1-1-1.5.41-2.63-.32.18-.36.11-.39,0a3.43,3.43,0,0,1-.66.14l.58-.47c-.66.07-.11-.36-.74-.27l.13.09a21.16,21.16,0,0,0-2.53.68c.86,0-1.15.67.09.7-.18.09-.31,0-.52.08.41,0,.51.05.36.24h-.1c.18.4-.18.66-.35,1.18l.45-.12c0,.11-.18.16-.29.23.73,0,0-.29.79-.34-.92.32.12.72-.94,1,0,.16.53-.15.56,0l-.28.1.38,0c0,.12-.4.24-.64.29,0,0-.09-.06-.11-.08-.32.2.19.35.09.42l.15-.18c.35.37.07,1,.74,1.26l.22-.08c.46.24-.19.3.06.61h-.05c.23,0,.36.09.35.19-.27,0-.47.27-.77.21.5.25.37.1,1.23.16l-.35.13c.34,0,.52,0,.65.13-.34-.08-.54.22-1,.15-.73.51.91.37-.22.77,1,0,.49-.42.73-.37.31-.15.78,0,.7.12s-1.25.45-1.17.74c0,0-.08,0-.08,0-.24.16.39.14,0,.36.62-.05,0,.18.78,0l-.24-.23c.24.11,1.17.07.78.41a2.67,2.67,0,0,1-.51,0c-.21.11.18.11,0,.23-.78.13-.23-.29-.85-.34-.32.14.62.2-.24.28,1.1-.09-.08.31.78.35l-.47.08c.08,0,.31,0,.31.1h-.62c.54.06-.39.4-.08.49-.08-.31.55-.18.86-.38.7.27-1.18.47-.86.86-.08,0,.23-.28.46-.22a1,1,0,0,1-.47.34c.16.28.47-.13.79-.07-.55.22.25.1.46.19l-.47.1c-.24.39,1-.11.69.27h-.68l.2.12-.54.07c.43.1.34.17.22.37.33-.11.86-.15.91,0-.26.16-.46,0-.36.23-.3,0-.68,0-.26-.14-.16,0-.31,0-.46,0-.31.17,0,.29,0,.36a.19.19,0,0,1,.1-.1l.71.17a.83.83,0,0,1-.46.06c.06.06.29.06.35.14a2.49,2.49,0,0,1-1,0l.49.21c-.17,0-.43.24-.58.23-.2.2.82.24.57.51a.49.49,0,0,1,.21,0c-.05.22-.48.49.09.62l-.66.27c.19.16.83-.35,1.15-.09s-.57.19-.75.31c.37,0,1.12.09.59.4C300,524.1,300.05,524,300,524Zm.76,2.23c-.11,0-.44-.05-.16-.14C301.14,526,300.89,526.09,300.75,526.2Zm1.82,3.25c-.16,0-.1-.07.07-.16S302.68,529.38,302.57,529.45Zm5.2,9h0C307.91,538.35,307.84,538.4,307.77,538.48Zm-.17.25a.44.44,0,0,0,.2,0c-.12,0-.14,0-.11-.09S307.49,538.69,307.6,538.73Zm-4.52-22-.11.07C302.81,516.73,302.94,516.73,303.08,516.73Z"/><path class="cls-24" d="M301.84,529.19l.26-.07A.36.36,0,0,0,301.84,529.19Z"/><path class="cls-24" d="M299.46,522.6h0Z"/><path class="cls-24" d="M303,536.34a.86.86,0,0,1,.23-.13C303.08,536.23,303,536.27,303,536.34Z"/><path class="cls-24" d="M308.62,539.66l-.15-.11c0,.06-.06.1-.13.15C308.45,539.68,308.61,539.62,308.62,539.66Z"/><path class="cls-24" d="M305.92,541.38c.06,0,0,0,.07,0l.22,0A.19.19,0,0,0,305.92,541.38Z"/><path class="cls-24" d="M307.07,540.09c-.39.09-.24.15-.15.22s0,0,0,0C307.48,540.21,307.28,540.15,307.07,540.09Z"/><path class="cls-24" d="M306.94,540.33s0,0,0,.08C307.19,540.38,307,540.37,306.94,540.33Z"/><path class="cls-24" d="M307.92,538.94c-.1.06.51-.07.36,0C308.79,538.87,307.6,538.75,307.92,538.94Z"/><polygon class="cls-24" points="305.77 540.42 306.26 540.29 305.85 540.32 305.77 540.42"/><path class="cls-24" d="M306,539.63l-.1.17a.23.23,0,0,1,.17,0C306.06,539.71,306.14,539.59,306,539.63Z"/><path class="cls-24" d="M306.06,539.81s0,.09.11.1A.16.16,0,0,0,306.06,539.81Z"/><polygon class="cls-24" points="305.59 540.25 305.68 540.19 305.7 540.08 305.59 540.25"/><path class="cls-24" d="M305.78,538l-.18-.13c-.17,0-.26.08-.18.13A.63.63,0,0,0,305.78,538Z"/><path class="cls-24" d="M304.53,538.78a1.39,1.39,0,0,1,.36-.15l-.61.12Z"/><path class="cls-24" d="M304.29,538.34c-.17,0-.53-.14-.45,0C304,538.38,304.18,538.51,304.29,538.34Z"/><polygon class="cls-24" points="304.59 535.76 304.6 535.8 305.6 535.6 304.59 535.76"/><path class="cls-24" d="M301.78,534.1c-.21.24.62-.07.36.16.24,0,.21-.19.43-.19C302.29,534,302.42,533.92,301.78,534.1Z"/><path class="cls-24" d="M302.57,534.07l.16,0Z"/><polygon class="cls-24" points="302.12 509.16 302.31 509 301.99 509.14 302.12 509.16"/><path class="cls-24" d="M301.33,509.07l.63-.15-.59,0S301.47,509,301.33,509.07Z"/><path class="cls-24" d="M299.53,526.79l.15,0c.17,0,.17-.08.19-.14Z"/><polygon class="cls-24" points="299.68 525.04 299.67 525.07 300.24 524.9 299.68 525.04"/><path class="cls-24" d="M298.67,523.79c0,.06.13.1.12.17C298.66,523.85,299.39,523.63,298.67,523.79Z"/><path class="cls-24" d="M334,559.25c0,7.75-7.84,14-17.51,14S299,567,299,559.25s7.95-13.5,17.62-13.5S334,551.5,334,559.25Z"/><ellipse class="cls-25" cx="316.67" cy="559.17" rx="17.02" ry="12.96"/></g></g></svg>