<svg xmlns="http://www.w3.org/2000/svg" viewBox="0 0 398.34 573.28"><defs><style>.cls-1,.cls-13,.cls-3,.cls-9{fill:#1d1d1d;}.cls-1,.cls-14,.cls-3,.cls-9{stroke:#252a3d;stroke-width:0.25px;}.cls-1,.cls-11,.cls-14,.cls-3,.cls-9{stroke-miterlimit:10;}.cls-1{opacity:0.4;}.cls-2{fill:#504941;}.cls-3{opacity:0.55;}.cls-4{fill:#a67b67;}.cls-5{fill:#f5cda5;}.cls-6{fill:#d33219;}.cls-7{fill:#92575c;}.cls-8{fill:#412523;}.cls-10,.cls-11{fill:#e3d8d3;}.cls-11{stroke:#090a0a;}.cls-12{fill:#995e3c;}.cls-14{fill:none;}.cls-15{fill:#666460;}.cls-16{fill:#747d87;}.cls-17{fill:#28292d;}.cls-18{fill:#b49c74;}.cls-19{fill:#694f43;}.cls-20{fill:#422f29;}.cls-21{fill:#323337;}</style></defs><g id="Ebene_2" data-name="Ebene 2"><g id="Ebene_2-2" data-name="Ebene 2"><path class="cls-1" d="M61.36,264.1s14.76,11.69,28.56,9l151.65,67.34s-7.1-16.16,79.44-67.53c0,0,7.14-11.27,18.18-10.42,0,0-12.6-28.28-70.64-66.62,0,0-38.69,95.56-54.65,98.5,0,0-25.15-46.22-31-39.67C150.53,290.76,69.24,186.34,61.36,264.1Z"/><path class="cls-2" d="M236,292.15l54.57-35.84.7,4.25s11.7-4.24,14.57,10.07c0,0,2.72,26.65,20.78,21.75,0,0-7.72,8.85-21.51,3.6,0,0,19.8,38.92,34.47,36.35,0,0-5.33,4.37-13.86-.41,0,0,6.22,18.17,25.64,25.25,0,0-11.75,0-15.47-4.82,0,0,6,22.58,17.15,31.2,0,0-14.33-7.85-16.49-9.12,0,0,16.55,19.55,27.14,26.47,0,0-23.15-9.95-25.1-15.9,0,0,26.71,19.79,29.7,28.11,0,0-4.56,4.1-2.25,8.24,0,0-7.16-3.89-5.7-6.94,0,0,13.15-1.38-20.71-23,0,0,6.57,26.32,16,34.06,0,0-14.49-6.87-15.43-12.68,0,0-8.34,16.93,1.19,27.43,0,0-10.43,2-12.52-12.81,0,0-6.89,37.86,12.94,25.38,0,0-9.33,13.75-26.83-6.07,0,0-27.05,13.15-33.45-32.54,0,0,28.42-13.67,21.64-40Z"/><path class="cls-2" d="M164.51,295.19l-54.58-35.84-.69,4.25s-11.7-4.24-14.57,10.07c0,0-2.72,26.66-20.78,21.75,0,0,7.72,8.85,21.51,3.6,0,0-19.81,38.92-34.48,36.35,0,0,5.33,4.38,13.87-.41,0,0-6.22,18.17-25.64,25.26,0,0,11.75-.05,15.46-4.83,0,0-6,22.58-17.14,31.2,0,0,14.32-7.85,16.49-9.12,0,0-16.56,19.55-27.14,26.48,0,0,23.15-10,25.09-15.9,0,0-26.7,19.78-29.69,28.11,0,0,4.55,4.09,2.25,8.24,0,0,7.16-3.9,5.69-6.95,0,0-13.15-1.38,20.71-23,0,0-6.56,26.33-16,34.06,0,0,14.49-6.86,15.44-12.68,0,0,8.34,16.93-1.2,27.43,0,0,10.44,2,12.52-12.8,0,0,6.9,37.85-12.93,25.38,0,0,9.32,13.74,26.83-6.08,0,0,26.55,17.08,33-28.62,0,0-27.92-17.59-21.15-43.94Z"/><path class="cls-2" d="M266.05,302.91l54.57-35.84.69,4.24s11.71-4.24,14.58,10.08c0,0,2.72,26.65,20.78,21.74,0,0-7.72,8.85-21.51,3.6,0,0,19.8,38.92,34.47,36.35,0,0-5.33,4.38-13.86-.4,0,0,6.22,18.17,25.64,25.25,0,0-11.75-.05-15.47-4.82,0,0,6,22.58,17.15,31.19,0,0-14.33-7.84-16.49-9.11,0,0,16.55,19.54,27.14,26.47,0,0-23.15-10-25.1-15.9,0,0,26.71,19.78,29.7,28.11,0,0-4.56,4.1-2.25,8.24,0,0-7.16-3.89-5.7-6.95,0,0,13.15-1.37-20.71-23,0,0,6.57,26.33,16,34.07,0,0-14.49-6.87-15.43-12.68,0,0-8.34,16.92,1.19,27.42,0,0-10.43,2-12.52-12.8,0,0-6.89,37.85,12.94,25.38,0,0-9.33,13.75-26.83-6.07,0,0-26.56,17.07-33-28.62,0,0,27.93-17.6,21.15-44Z"/><path class="cls-2" d="M132.29,302.91,77.71,267.07,77,271.31s-11.7-4.24-14.57,10.08c0,0-2.72,26.65-20.78,21.74,0,0,7.72,8.85,21.51,3.6,0,0-19.8,38.92-34.48,36.35,0,0,5.33,4.38,13.87-.4,0,0-6.22,18.17-25.64,25.25,0,0,11.75-.05,15.46-4.82,0,0-5.95,22.58-17.14,31.19,0,0,14.33-7.84,16.49-9.11,0,0-16.56,19.54-27.14,26.47,0,0,23.15-10,25.09-15.9,0,0-26.7,19.78-29.69,28.11,0,0,4.55,4.1,2.25,8.24,0,0,7.16-3.89,5.7-6.95,0,0-13.16-1.37,20.7-23,0,0-6.56,26.33-16,34.07,0,0,14.5-6.87,15.44-12.68,0,0,8.34,16.92-1.2,27.42,0,0,10.44,2,12.52-12.8,0,0,6.9,37.85-12.93,25.38,0,0,9.32,13.75,26.83-6.07,0,0,26.55,17.07,33-28.62,0,0-27.92-17.6-21.15-44Z"/><path class="cls-3" d="M126.79,401.29s8.64,165.84,96.87,145.6c0,0,66.23,3.33,55.49-145.6Z"/><path id="cara" class="cls-4" d="M86.94,255.81l11.38,84.6s-49.77,56.8,24.88,82.43l33.42,79s14.21,35.54,56.87,36.26c0,0,59.68-4.39,52.56-52.67,0,0,5.57-5.57,4.64-24.14,0,0,7.43-13.93,4.65-46.19,0,0,86.74-.71,37-81.76l-4.26-77.49Z"/><g id="boca"><path class="cls-5" d="M137.32,441.78s11.11,42.32,20.1,54c0,0,30,41.49,65.06,34.38,0,0,16.4-8.47,32.27-11.11,0,0,10.58-3.7,10.58-20.63l.53-12s-4.24,21-23.81,11.49c0,0-7.65-7.93-39.79-.53,0,0-38,9.81-43.78-11Z"/><path class="cls-6" d="M137.32,439.06s11,41.94,19.92,53.47c0,0,29.72,41.13,64.49,34.08,0,0,16.25-8.39,32-11,0,0,10.48-3.67,10.48-20.44l1.86-9.77s-5.53,18.68-24.93,9.24c0,0-7.58-7.86-39.44-.52,0,0-37.62,9.72-43.39-10.87Z"/><path class="cls-7" d="M160.41,487.85s5.49,15.12,45.66,5.31c0,0,26.17-5.73,35.05,1.47,0,0,17.91,9.89,24.93-9.24,0,0-3.63,21.88-25.38,13.26-9.09-3.6-12.09-11.23-33.08-3.57-11.55,4.21-31.85,18.44-47.18-7.23-5.35-9-17.11-36.18-17.11-36.18Z"/></g><path class="cls-8" d="M174.4,431.75s15.88,20.95,36.67,23.54c0,0,38.26-10.07,36.43-25.7,0,0,6.34,1.13,5.95-10.83,0,0,5.58-5.47-23.5-29.18-4.72-3.85-2.07-24.27-2.07-24.27l-41.06,2.42s-3.6,36.48-9.49,42.57C177.33,410.3,164.24,424.31,174.4,431.75Z"/><path class="cls-8" d="M253.45,382.73s0,17.47,12.6,14.2c11.6-3,45.7,13.37,57.3-12.06,0,0-40.66,4.88-66.89-17.14Z"/><polygon class="cls-8" points="260.35 306.66 291.72 283.87 311.75 323.17 282.54 353.58 260.35 306.66"/><g id="ojo_izq" data-name="ojo izq"><path class="cls-9" d="M209.57,341.49c0,19.24-24.93,37.47-45.74,37.47s-32.5-18.85-32.87-36.15c-.4-19.39,20.11-36.15,40.92-36.15S209.57,322.25,209.57,341.49Z"/><ellipse class="cls-4" cx="164.44" cy="346.5" rx="24.48" ry="23.33"/><path class="cls-8" d="M186.82,344.6c0,8.91-10.3,17.2-22.93,16.13-13.74-1.16-22.92-13.14-20.17-20.45,3.11-8.26,7.51-11.82,20.17-11.82S186.82,335.69,186.82,344.6Z"/><path class="cls-4" d="M185.77,342.77c0,7.74-9.58,14.94-21.32,14-12.78-1-21.33-11.42-18.76-17.77,2.89-7.18,7-10.27,18.76-10.27S185.77,335,185.77,342.77Z"/><ellipse class="cls-9" cx="167.9" cy="327.69" rx="24.29" ry="18.08"/><ellipse class="cls-10" cx="167.98" cy="327.81" rx="22.3" ry="16.6"/><circle class="cls-9" cx="168.91" cy="327.81" r="8.42"/></g><g id="ojo_der" data-name="ojo der"><path class="cls-9" d="M287.4,343.63c-8.45,18.55-21.63,41.24-38.78,41.24s-31.55-14.46-27.17-40.47c3.39-20.13,17.74-37.74,34.89-37.74S295.86,325.05,287.4,343.63Z"/><path class="cls-4" d="M286.08,339.19c0,12.89-16.1,28.54-29.62,28.54S232,357.29,232,344.4s11-23.33,24.49-23.33S286.08,326.31,286.08,339.19Z"/><path class="cls-8" d="M279,340.71c-2,12.69-15.88,19-27.23,17.59-17.18-2.1-19.18-14.59-16.39-21.93,3.15-8.3,7.6-11.87,20.42-11.87S280.44,331.85,279,340.71Z"/><path class="cls-4" d="M276.94,337.28c-1.83,12.7-14.59,19-25,17.59-15.78-2.09-17.62-14.59-15.06-21.93,2.9-8.3,7-11.87,18.76-11.87S278.22,328.42,276.94,337.28Z"/><circle class="cls-11" cx="260.35" cy="329.91" r="16.6"/><circle class="cls-9" cx="261.87" cy="327.81" r="8.42"/></g><g id="nariz"><path class="cls-12" d="M201.68,353.58l5.91,33.58L186,411.88S169.79,403.55,201.68,353.58Z"/><path class="cls-13" d="M234,431.73l12.13-9.4s-4.12-23-25.81-.75c0,0-15.17,12.08.9,19.6C221.19,441.18,230.39,437.18,234,431.73Z"/><path class="cls-14" d="M234,431.73l12.13-9.4s-4.12-23-25.81-.75c0,0-15.17,12.08.9,19.6C221.19,441.18,230.39,437.18,234,431.73Z"/><path class="cls-13" d="M194.5,436.05l13.46,3s13.15-18.18-14.62-20c0,0-17.07-3.55-12.73,13.52C180.61,432.58,188.71,436.92,194.5,436.05Z"/><path class="cls-14" d="M194.5,436.05l13.46,3s13.15-18.18-14.62-20c0,0-17.07-3.55-12.73,13.52C180.61,432.58,188.71,436.92,194.5,436.05Z"/><path class="cls-4" d="M183.45,434.2s-9.46-15.57,9.89-15.14c0,0,19.78,4.73,14.62,20,0,0,4.73,16.13,13.34,3.66,0,0-9.9-15.48,12-27.1,0,0,15-3.87,10.75,9,0,0,1.29,7.74,6,2.15,0,0,.43-11,0-11.73,0,0,4.3-2.86-15.91-18.15,0,0-11.61-5.82-8.6-22.6,0,0-5.59-30.1,8.6-51.18l-49.46-19.64s13.76,21.79,14.62,38.57c0,0-2.15,30.59,3.87,44.33,0,0-18.92,16.31-20.64,23.41,0,0-15.06,5.42-7.74,21.1C174.85,430.92,180.44,438.57,183.45,434.2Z"/><polygon class="cls-8" points="198.32 317.68 213.8 365.31 227.88 326.82 198.32 317.68"/></g><path class="cls-9" d="M253.45,382.73S258,398.28,259,400.3c3.29,6.53,8.23,6.09,12.94,26.23,0,0,.36,19.63-4,28.76,0,0,8.91-5.54,7.35-40.23,0,0,24.26-2.4,38.74-12.55,5.76-4,9.27-17.64,9.27-17.64S286.08,413.31,253.45,382.73Z"/><path class="cls-15" d="M131.35,284.16,71.86,257.24l0,4.3S59.62,259.18,59,273.76c0,0,1.46,26.75-17.14,24.71,0,0,9,7.54,21.8.22,0,0-13.51,41.52-28.4,41.26,0,0,5.95,3.5,13.63-2.55,0,0-3.31,18.91-21.4,28.93,0,0,11.6-1.87,14.53-7.17,0,0-2.37,23.23-12.09,33.48,0,0,12.93-10,14.87-11.57,0,0-13.31,21.89-22.69,30.37,0,0,21.32-13.43,22.32-19.6,0,0-23.31,23.69-25,32.38,0,0,5.13,3.34,3.5,7.79,0,0,6.46-5,4.55-7.75,0,0-13.21.69,16.87-25.95,0,0-2.39,27-10.49,36.14,0,0,13.25-9,13.28-14.93,0,0,10.87,15.43,3.08,27.28,0,0,10.63.37,10.38-14.6,0,0,12.7,36.32-8.83,27.09,0,0,11.35,12.13,25.56-10.17,0,0,28.89,12.73,28.1-33.4,0,0-30.32-13-27.72-40.12Z"/><path class="cls-2" d="M164.44,297l-37.65,31.44s-11.67-10.78-33.53,19.47l-12.17-3.16L91,340.28l-9.74-6.51,11.85-.25s-13.28-12.6-18-7.83c0,0,6.62-7.25,21.65-3.71,0,0-7.66-16.68-16.07-14.15,0,0,26.6-16,39.58-7.58C120.23,300.25,154.56,257.85,164.44,297Z"/><path class="cls-2" d="M81.49,371.37,80,375.86s4.58,30.67,27,35.5L94.3,416.92l-2.93-10.48-7.92,8.63L85,403.32S70.53,414.52,74.51,420c0,0-6.15-7.65-.35-22,0,0-17.65,5-16.44,13.71,0,0,13.43-28.79,23.77-40.33Z"/><path class="cls-8" d="M131,342.81s-22.14-4-42,18c0,0-16.89,32.39,11.18,44.11,0,0,5.56,9.59,43.51-20.07,0,0,4.21,21.74-25.79,36,0,0-53.48-15.64-29.12-65.77C88.7,355.06,121.72,298.12,131,342.81Z"/><ellipse class="cls-5" cx="113.86" cy="375.86" rx="12.93" ry="10.55"/><ellipse class="cls-5" cx="303.7" cy="360.83" rx="14.45" ry="10.55"/><path class="cls-9" d="M116.74,420.42s15.15-2.24,34.1-41.46c0,0-10.27,34.56-19,39.22,0,0-2,5.9-.93,9.76C132.1,432.2,142.1,467,142.1,467s21.77,63.49,62.79,64c0,0,24.76,4.67,43.19-5.13,0,0-10.12,12.21-41,11.8,0,0-29.49.19-50-32.07,0,0-16.37-35.23-33.91-82.76Z"/><path class="cls-15" d="M279.15,278.12l54.51-26.61v4.3s11.19-2.3,11.67,12.29c0,0-1.46,26.74,15.56,24.8,0,0-8.26,7.49-19.93.1,0,0,12.15,41.59,25.77,41.41,0,0-5.45,3.47-12.45-2.63,0,0,2.94,18.93,19.43,29.05,0,0-10.6-1.94-13.25-7.25,0,0,2.06,23.24,10.89,33.55,0,0-11.77-10.05-13.54-11.65,0,0,12.07,21.95,20.61,30.49,0,0-19.43-13.54-20.32-19.73,0,0,21.2,23.82,22.67,32.52,0,0-4.71,3.31-3.24,7.77,0,0-5.88-5-4.12-7.77,0,0,12.07.75-15.31-26,0,0,2.06,27,9.42,36.19,0,0-12.07-9.11-12.07-15,0,0-10,15.37-2.94,27.26,0,0-9.71.32-9.42-14.65,0,0-11.78,36.25,8,27.13,0,0-10.44,12.07-23.32-10.3,0,0-26.47,12.58-25.54-33.54,0,0,27.78-12.89,25.54-40Z"/><g id="pelo"><path class="cls-2" d="M276.94,290.06l28.34,39.85s13.5,7,20,30.92h10.61l-8.12-7.25,11.24-3.3-11.24-3.78s16.44-8.07,19.56-2.1c0,0-4.16-8.89-19.56-10,0,0,12.28-13.64,19.56-8.72,0,0-20.61-23.23-35.53-19C311.75,306.66,298.05,255.62,276.94,290.06Z"/><path class="cls-2" d="M327.72,369.84l1.47,4.48a113.93,113.93,0,0,1-27,35.5l12.73,5.56,2.92-10.48,7.92,8.63-1.56-11.75s14.49,11.2,10.5,16.63c0,0,6.15-7.65.35-22,0,0,17.66,5,16.45,13.71,0,0-13.43-28.79-23.77-40.32Z"/></g><g id="sombrero"><path class="cls-16" d="M62,261.31s12.63,11.68,26.15,9L237,338.82s-3.61-10.82,84.76-70.34c0,0,4.27-10.57,15.09-9.72,0,0-21.92-87.4-52.22-157.79,0,0-54.75-89.94-70.39-87,0,0-3.38,3.67-9.13,10.22C173.38,60.25,69.73,183.56,62,261.31Z"/><path class="cls-17" d="M193.12,38s9.14-8.68,8.26-6.86c0,0-15.95,164.36,33.79,276.88,0,0,.86,24.4-3.33,28.07l7.16,2.71s-2.1-22.78,7.67-37c0,0-39.72,7.82-31.65-293.79C215.25-.36,203.06,26.77,193.12,38Z"/><path class="cls-18" d="M202.26,29.34S210.73,19,208.07,25c0,0-19.54,168.18,30.2,280.7,0,0,2.19,29.12-2,32.79l5.29,1.92s2-30.54,11.8-44.75c0,0-39.73,7.83-31.65-293.78C221.94-6.51,198.2,14.87,202.26,29.34Z"/></g><path class="cls-7" d="M238.29,510.56c.34,9-9.23,17.42-20.73,18.38-15.08,1.25-21.07-9.52-21.07-18.38s3.4-13.82,20.9-16.06C228.84,493,237.92,500.61,238.29,510.56Z"/><path class="cls-19" d="M199.41,503.08c-7.09,5,12.4,53.32,14.56,61.13,2.34,8.44,32.7,2.31,32.7-6.46,0-6.33-6.43-38.36-12-54.67C231.88,494.72,211.52,494.52,199.41,503.08Z"/><path class="cls-20" d="M222.28,545.7c0,.06.38,0,.46-.05C222.63,545.58,222.17,545.72,222.28,545.7Z"/><polygon class="cls-20" points="221.17 544.98 221.34 544.96 220.9 544.91 221.17 544.98"/><path class="cls-20" d="M221,544.14c-.68.22.17.28,0,.48l-.15.06.58,0C221.26,544.47,220.84,544.3,221,544.14Z"/><path class="cls-20" d="M222.44,543.39c-.27.08-.26,0-.07.12l.07,0S222.43,543.44,222.44,543.39Z"/><path class="cls-20" d="M222.44,543.48c0,.09.22-.1,0,0Z"/><path class="cls-20" d="M222.2,543.1l.27.07c.15,0,.17-.17.29-.15C222.61,542.93,222.45,543,222.2,543.1Z"/><path class="cls-20" d="M221.67,543.09l.11,0C221.85,543.11,221.87,543.09,221.67,543.09Z"/><path class="cls-20" d="M222,543.22l-.25-.09c-.11,0-.33.09.09,0C221.66,543.21,221.87,543.19,222,543.22Z"/><path class="cls-20" d="M221.93,543.31a.45.45,0,0,1-.48.13C221.59,543.65,222.07,543.52,221.93,543.31Z"/><path class="cls-20" d="M220.28,544.24l-.19.13.25,0C220.22,544.38,220.5,544.19,220.28,544.24Z"/><path class="cls-20" d="M222.42,542.3c-.15,0-.39.12-.58.17l.19,0A.91.91,0,0,1,222.42,542.3Z"/><path class="cls-20" d="M221.84,542.47l-.28-.08C221.55,542.51,221.68,542.51,221.84,542.47Z"/><polygon class="cls-20" points="220.89 543.22 221.47 543.33 220.87 543.18 220.89 543.22"/><polygon class="cls-20" points="222.34 541.81 222.7 541.81 222.16 541.78 222.34 541.81"/><path class="cls-20" d="M222.22,541.49c.29,0,.47-.17.65-.14-.06-.08-.33-.11-.56-.13C222.45,541.26,222.43,541.35,222.22,541.49Z"/><path class="cls-20" d="M222,541.16a1.77,1.77,0,0,0,.34.06A1.09,1.09,0,0,0,222,541.16Z"/><path class="cls-20" d="M221.59,542.15A1.05,1.05,0,0,0,222,542l-.41.13Z"/><path class="cls-20" d="M221.57,542.11h0V542Z"/><path class="cls-20" d="M221.59,542.17v0S221.54,542.17,221.59,542.17Z"/><path class="cls-20" d="M221.2,542.81a1,1,0,0,0-.86.09A4.29,4.29,0,0,1,221.2,542.81Z"/><path class="cls-20" d="M221.08,542.33l-.07.16a1.68,1.68,0,0,1,.39-.07Z"/><polygon class="cls-20" points="220.93 542.29 221.08 542.33 221.11 542.28 220.93 542.29"/><path class="cls-20" d="M221.62,541.48a.31.31,0,0,1-.27-.16.35.35,0,0,0-.07.26C221.41,541.57,221.65,541.56,221.62,541.48Z"/><path class="cls-20" d="M221.56,541.79h0S221.49,541.81,221.56,541.79Z"/><path class="cls-20" d="M221.22,540.6l-.08,0h.08Z"/><path class="cls-20" d="M221.2,541.61c-.07.08,0,.09.18.1a.18.18,0,0,1-.1-.13C221.21,541.59,221.18,541.6,221.2,541.61Z"/><path class="cls-20" d="M221.73,541l-.21.15C221.65,541.09,221.84,541,221.73,541Z"/><path class="cls-20" d="M221.65,541.74h0C221.75,541.71,221.71,541.72,221.65,541.74Z"/><path class="cls-20" d="M221.65,541.74a2,2,0,0,0-.27,0,.52.52,0,0,0,.15.07Z"/><path class="cls-20" d="M218.48,540.91c.39-.06.78,0,.39.24a7.78,7.78,0,0,0,2.27-.52,1,1,0,0,1-.58,0c-.2.09-.44.4-.81.35s.11-.17.29-.3c-.47.17-.75-.09-1.45.09l.28.11C218.76,540.87,218.57,540.85,218.48,540.91Z"/><path class="cls-20" d="M221.15,540.9l.06,0a1.51,1.51,0,0,1,.49-.29,1,1,0,0,0-.48,0v.28Z"/><path class="cls-20" d="M221.26,541.19a3.11,3.11,0,0,0-1.08.11c.07.16.38.05.58.11-.15-.24.25,0,.46-.21a.26.26,0,0,1,.13.12l.17-.17h0c-.05,0-.08,0-.05,0h0l-.16,0c.07-.09.1,0,.16,0h.07l-.29-.22C221.16,541,221.19,541.08,221.26,541.19Z"/><path class="cls-20" d="M219.4,542.93l.1,0C219.44,542.9,219.41,542.9,219.4,542.93Z"/><path class="cls-20" d="M219.64,542.78c.06,0,.23,0,.2.06s-.2,0-.34.07a.59.59,0,0,0,.51-.09H220a2.24,2.24,0,0,1,.69-.37A8.4,8.4,0,0,0,219.64,542.78Z"/><path class="cls-20" d="M220.34,542l-.25-.18-.34.18.21,0C219.9,542.09,220.17,542,220.34,542Z"/><polygon class="cls-20" points="221.42 540.54 221.87 540.48 221.22 540.48 221.42 540.54"/><polygon class="cls-20" points="221.31 540.26 221.7 540.2 221.45 540.17 221.31 540.26"/><path class="cls-20" d="M213.32,525.07l-.12,0Z"/><path class="cls-20" d="M213.39,525.54l.19,0C213.47,525.52,213.39,525.52,213.39,525.54Z"/><path class="cls-20" d="M219.89,533.25c.34-.17.88-.39.45-.29l-.42.11C220,533.13,220,533.19,219.89,533.25Z"/><path class="cls-20" d="M216.4,528.94l-.12,0,.42,0Z"/><path class="cls-20" d="M214.62,529.22l.25-.18A.83.83,0,0,0,214.62,529.22Z"/><path class="cls-20" d="M212.37,522.6h-.45C211.94,522.73,212.15,522.64,212.37,522.6Z"/><path class="cls-20" d="M220.58,537.36c.15-.11.21-.19.22-.25C220.57,537.26,220.22,537.41,220.58,537.36Z"/><path class="cls-20" d="M217.87,524.37a.49.49,0,0,0-.27,0A.41.41,0,0,0,217.87,524.37Z"/><path class="cls-20" d="M220.75,536.88l-.09.06c.08,0,.15.09.14.17C221,537,221.06,536.9,220.75,536.88Z"/><path class="cls-20" d="M210.9,513.26l0,0C210.88,513.24,210.88,513.25,210.9,513.26Z"/><path class="cls-20" d="M214.66,509.72a.16.16,0,0,1,.05.1S214.73,509.76,214.66,509.72Z"/><path class="cls-20" d="M221.27,539.07c0,.06,0,0,0,0Z"/><path class="cls-20" d="M219.65,539.7a1,1,0,0,0-.22,0Z"/><path class="cls-20" d="M218,536.79Z"/><path class="cls-20" d="M221.1,539.2a.52.52,0,0,0,.11-.1A.47.47,0,0,0,221.1,539.2Z"/><path class="cls-20" d="M221.29,539.15l0,.06C221.34,539.21,221.38,539.19,221.29,539.15Z"/><path class="cls-20" d="M221.23,539s0,.07,0,.11l.06,0Z"/><path class="cls-20" d="M213,518l0,0C212.86,518,212.89,518,213,518Z"/><path class="cls-20" d="M215.16,532.54h0Z"/><path class="cls-20" d="M214.8,532.38c.54,0,.49.06.39.15l1.21-.32Z"/><path class="cls-20" d="M213,524l-.36.23c-.66-.06-.47-.23-1,0,1.34-.24.25.57,1.59.33l-.26.16s-.07,0-.07-.05c-.6.32,1,0,.86.24a.5.5,0,0,1-.44.18l.37.13c0,.06-.25.1-.24,0l.17.28h0a6.76,6.76,0,0,1,.71.05c-.18.12-.15,0-.32,0l.36.1c-.33.13-.69.06-.67-.06-1.3.41.37.07-.35.56l-.2-.13c-.73.25-.43.32-.87.59.24-.09,1.12-.59,1.48-.47-.09.07-.12.14.17.19-.48.09-.34.16-.29.28l-.63.11a3,3,0,0,0,.82,0c0,.16-.51.28-.92.4-.05.24.75-.32.92-.07-.2.24.08.32.5.48-.19.17-.38.05-.56.13l.53,0s-.16.05-.24.06c.21.07.63-.11.83,0,.7-.09-.95.52-.13.56a5.27,5.27,0,0,1-.62.12,4,4,0,0,0,1.15.23l-.38.27a2.65,2.65,0,0,1,1.53-.1l.5-.22.38.17a1.75,1.75,0,0,1-.58.08l.15,0a2,2,0,0,1-.94.16l.37-.16a5.88,5.88,0,0,0-1.2.13.45.45,0,0,1,.19,0,1.43,1.43,0,0,0-.26,0c-.07,0,.08,0,.24,0l-.68.2.28,0-.38.41a5.76,5.76,0,0,1,2.19.39,7.54,7.54,0,0,0-1.45.26c.62-.23-.33-.23-.24-.44-.05.11-.34.15-.45.14l.65.22c-.5.09-.36.14-.54.27,1-.26.7.12,1,.2-.33.07-.67.11-.63-.08-.7.33,1.2,0,.61.32,0,0,0-.07-.14-.06.31,0,.13.32-.17.32l0,0c-.06.29.16.82,1,.7l-1.19.18,2.91-.07a14.29,14.29,0,0,1-2.85.45c-.09.08-.2.19.08.27a4.17,4.17,0,0,1,1.1-.26,6,6,0,0,0-1.05.53c.14-.1,1.28-.24,1.26-.13s-1.1.22-1.23.21l1.16,0a4.31,4.31,0,0,0-1.24.29c.21-.07,0,.23.15.28l.23-.16c-.11.32,1.61,0,1.61.28a4.47,4.47,0,0,0-1.53.36,17,17,0,0,1,3.26-.06l-.31.11.4.12c-.87.05-2.73.06-3.46,0-.24.16-.38.1-.32.26a.45.45,0,0,1-.5,0l-.12.41c.66-.14.72.17,1.27,0l-.77-.28c.66-.14,1.92-.13,1.86.17a10.59,10.59,0,0,1-1.41.23c.24,0,.49.17.33.22l-.37,0c-.22.2.92.07.32.37,0,.07-.81.36-.42.29a26.76,26.76,0,0,1,3.64-.77,7.33,7.33,0,0,1-1,.61c-.57.22-1.44.12-1.93.31a2.07,2.07,0,0,1,.49,0c-.14.1-.56.09-.45.21.67-.11,0,.3.57,0,.22.1-.1.17,0,.33a4.2,4.2,0,0,1,1.72,0,2.81,2.81,0,0,0-.49.13c0,.3-.28.51-.23.78a1.58,1.58,0,0,1-.63.22c.13,0,.36,0,.39.09-.54.27-.12-.17-.79.09.39-.07.57.1.84.17.59-.15.06-.29-.2-.36a4.23,4.23,0,0,1,2.17.07c.25.18-.52.2-.39.22-.07.44,1.51.07,1,.53a7.16,7.16,0,0,1-1.42.32c-.23-.14.28-.34.24-.46l-.22.2c-.19,0-.35-.12-.21-.21-.45.2.05.71-.33,1.12a1.11,1.11,0,0,0,.6,0l-.1-.08c.41-.18.63.07.8-.1.33.08.83.14.63.38l-.6.15c.18,0,.34-.19.14-.21.28,0-.76.45,0,.39l.39-.22c.33.08,1,.12.84.33.58-.2-.07,0,.6-.29-.84.28-.05-.44-.92-.09.78-.28.3-.28.95-.58-.2,0-.37.13-.3,0h-.18l0,0,0,0h0a1.11,1.11,0,0,1-.29.13c-.47,0-.5-.21-.75-.24.08-.1.23,0,.44-.09l-.38,0c.44-.1.69-.37,1-.22l0-.18c.23-.16.3-.32.09-.37.08-.11-.53-.12-.17-.11l-.32-.23.1,0c0-.29-.84-.43-.1-.9-.13-.07-.29-.14-.19-.32l.37-.11c-.15-.09.31-.43-.09-.41,1-.33.11-.62.25-.86l-.5.09c0-.16-.17-.27-.41-.41l-.43.1c-.4-.08.23-.46.14-.69.17,0,.14,0,0,.11.94-.48-.84-.47-.17-.88-.17,0-.13-.09,0-.16h0v0l.22-.13a.82.82,0,0,0-.22.12.38.38,0,0,0-.22-.17l.47-.13h0c.16-.11-.23,0-.58.09a1.37,1.37,0,0,0-.31,0c.75-.21-.29-.15.5-.39-.4,0-.37-.32-1.21-.2.11,0,.15-.06.17,0s.16-.2-.09-.23l.59-.16-.84,0a1.6,1.6,0,0,1,1-.25c-.77-.13-.31-.17-1.06-.26l.39-.06c0-.08-.58-.11-.27-.22.7-.33-.07-.93.52-1.53-1.13.31.47-.32-.42-.17a1.48,1.48,0,0,1,.66-.14c-.32-.19.35-.45-.43-.46.27-.08.41,0,.57-.09-.07,0-.25,0-.1-.08a.63.63,0,0,1,.36,0c-.09-.23-.93-.09-1.72,0,.35-.19.29-.25-.25-.23.25-.1.51-.22.63-.09,0-.09.27-.59-.36-.48.15-.06,0-.13-.05-.14,0-.2.05-.22,0-.4l-.09.07c-.77.08-.2-.12-.32-.26h.08c.48-.45-.29-.1.26-.56l-.46.11c-1,.17.53-.42.11-.55l-.26.13c-.36,0,1.32-.58,1.42-.71s.15,0,.22,0c.55-.4-.62.09-.8-.1.32-.1.85-.12.89-.27.25-.13-1.17-.21-.57-.53a1.14,1.14,0,0,1-.7.13c-.13-.14.88-.6,0-.58l.19-.07c-.23-.07-.42-.31-.87-.29,1.61-.43-.93-.57.57-.86l-.15-.34.15,0c.06-.25-.32-.26-.69-.27a.64.64,0,0,1,.32-.07c.23-.39.16-.41-.64-.55l.48-.12c-.3,0,.67-.63,0-.85a.77.77,0,0,1,.22,0c-.64-.25,1.18-1.14-.62-.93l-.48-.16c-.08.35-.78.11-1.05.3-.13-.11.47-.43.59-.3l-.08.05c.93-.13.25-.46.88-.57-.17-.61.22-1.32.15-1.9l-.7.2v-.21c.15-.08.54-.18.54,0,.39-.15-.39-.17-.54-.14.23-.34.86-.06.86-.15l-.08-.11-.08.05c-.31,0-.62,0-.62-.17s.43-.14.45-.19.07,0,0-.07v-.27l-.55.22c-.3-.06,0-.25-.64,0,1-.36.17-1,.46-1.18-.44-.08-.47-.23-.46-.44-.1.07-.74.23-.69,0,1.33-.2.51-.42,1.43-.74-.6.24-.25-.45-1.1-.08.08-.16.49-.11.78-.27-.58-.23.18-.8-.07-1.17a1.94,1.94,0,0,1-.7.11l.82-.39c-.1-.06-1,.12-.44-.14-.14,0-.35.12-.42.08.69-1-1-1.5.41-2.63-.31.18-.36.11-.39,0a3.3,3.3,0,0,1-.65.14l.58-.47c-.66.07-.12-.36-.74-.27l.13.09a21.16,21.16,0,0,0-2.53.68c.86,0-1.15.67.09.7-.18.09-.31,0-.53.08.42,0,.52.05.37.24h-.1c.18.4-.18.66-.36,1.18l.46-.12c0,.11-.18.16-.29.23.73,0,0-.29.78-.34-.92.32.13.72-.93,1,0,.16.53-.15.56,0l-.29.1.39,0c-.05.12-.4.24-.65.29,0,0-.08-.06-.1-.08-.32.2.19.35.08.42l.15-.18c.36.37.08,1,.75,1.26l.21-.08c.47.24-.19.3.07.61h-.06c.24,0,.36.09.36.19-.28,0-.47.27-.78.21.51.25.38.1,1.24.16l-.35.13c.34,0,.51,0,.64.13-.34-.08-.53.22-1,.15-.73.51.9.37-.23.77,1,0,.5-.42.73-.37.32-.15.78,0,.71.12s-1.25.45-1.18.74c0,0-.08,0-.08,0-.23.16.39.14,0,.36.63-.05,0,.18.78,0l-.23-.23c.23.11,1.17.07.78.41a2.67,2.67,0,0,1-.51,0c-.21.11.18.11,0,.23-.78.13-.23-.29-.86-.34-.31.14.63.2-.23.28,1.09-.09-.08.31.78.35l-.47.08c.08,0,.31,0,.31.1h-.63c.55.06-.39.4-.07.49-.08-.31.54-.18.86-.38.7.27-1.18.47-.87.86-.08,0,.24-.28.47-.22a1.09,1.09,0,0,1-.47.34c.16.28.47-.13.78-.07-.55.22.26.1.47.19l-.48.1c-.23.39,1-.11.7.27h-.68l.2.12-.55.07c.44.1.34.17.23.37.32-.11.86-.15.9,0-.26.16-.46,0-.35.23-.3,0-.69,0-.27-.14-.15,0-.3,0-.46,0s0,.29,0,.36a.16.16,0,0,1,.1-.1l.71.17a.85.85,0,0,1-.46.06c.06.06.28.06.34.14a2.44,2.44,0,0,1-1,0l.49.21c-.17,0-.44.24-.58.23-.2.2.82.24.56.51a.51.51,0,0,1,.22,0c0,.22-.49.49.09.62l-.67.27c.2.16.84-.35,1.16-.09s-.57.19-.75.31c.37,0,1.11.09.59.4C213,524.1,213,524,213,524Zm.75,2.23c-.11,0-.43-.05-.16-.14C214.13,526,213.87,526.09,213.73,526.2Zm1.83,3.25c-.17,0-.1-.07.07-.16S215.67,529.38,215.56,529.45Zm5.2,9h0C220.9,538.35,220.83,538.4,220.76,538.48Zm-.17.25a.44.44,0,0,0,.2,0c-.12,0-.14,0-.12-.09S220.47,538.69,220.59,538.73Zm-4.52-22-.12.07C215.8,516.73,215.93,516.73,216.07,516.73Z"/><path class="cls-20" d="M214.83,529.19l.25-.07A.35.35,0,0,0,214.83,529.19Z"/><path class="cls-20" d="M212.45,522.6h0Z"/><path class="cls-20" d="M216,536.34a.73.73,0,0,1,.23-.13C216.06,536.23,216,536.27,216,536.34Z"/><path class="cls-20" d="M221.61,539.66l-.15-.11c0,.06-.06.1-.13.15C221.44,539.68,221.59,539.62,221.61,539.66Z"/><path class="cls-20" d="M218.9,541.38c.07,0,0,0,.08,0l.22,0A.2.2,0,0,0,218.9,541.38Z"/><path class="cls-20" d="M220.06,540.09c-.4.09-.25.15-.15.22h0C220.47,540.21,220.26,540.15,220.06,540.09Z"/><path class="cls-20" d="M219.92,540.33s0,0,0,.08C220.18,540.38,220,540.37,219.92,540.33Z"/><path class="cls-20" d="M220.91,538.94c-.1.06.51-.07.35,0C221.78,538.87,220.59,538.75,220.91,538.94Z"/><polygon class="cls-20" points="218.76 540.42 219.25 540.29 218.84 540.32 218.76 540.42"/><path class="cls-20" d="M219,539.63l-.11.17a.26.26,0,0,1,.18,0C219.05,539.71,219.13,539.59,219,539.63Z"/><path class="cls-20" d="M219.05,539.81s0,.09.1.1A.14.14,0,0,0,219.05,539.81Z"/><polygon class="cls-20" points="218.57 540.25 218.67 540.19 218.69 540.08 218.57 540.25"/><path class="cls-20" d="M218.76,538l-.17-.13c-.17,0-.26.08-.19.13S218.61,538.08,218.76,538Z"/><path class="cls-20" d="M217.51,538.78a1.77,1.77,0,0,1,.36-.15l-.61.12Z"/><path class="cls-20" d="M217.28,538.34c-.17,0-.53-.14-.45,0C217,538.38,217.17,538.51,217.28,538.34Z"/><polygon class="cls-20" points="217.57 535.76 217.59 535.8 218.59 535.6 217.57 535.76"/><path class="cls-20" d="M214.76,534.1c-.2.24.63-.07.36.16.25,0,.22-.19.43-.19C215.28,534,215.41,533.92,214.76,534.1Z"/><path class="cls-20" d="M215.55,534.07l.17,0Z"/><polygon class="cls-20" points="215.11 509.16 215.29 509 214.97 509.14 215.11 509.16"/><path class="cls-20" d="M214.32,509.07l.63-.15-.59,0S214.46,509,214.32,509.07Z"/><path class="cls-20" d="M212.52,526.79l.15,0c.16,0,.17-.08.18-.14Z"/><polygon class="cls-20" points="212.67 525.04 212.66 525.07 213.22 524.9 212.67 525.04"/><path class="cls-20" d="M211.66,523.79c0,.06.13.1.11.17C211.65,523.85,212.37,523.63,211.66,523.79Z"/><path class="cls-20" d="M247,559.25c0,7.75-7.84,14-17.52,14s-17.51-6.28-17.51-14,7.94-13.5,17.62-13.5S247,551.5,247,559.25Z"/><ellipse class="cls-21" cx="229.66" cy="559.17" rx="17.02" ry="12.96"/></g></g></svg>