<svg xmlns="http://www.w3.org/2000/svg" xmlns:xlink="http://www.w3.org/1999/xlink" viewBox="0 0 188.02 246.49"><defs><style>.cls-1{fill:#af1926;}.cls-2,.cls-25{fill:#3aaa35;}.cls-2,.cls-25,.cls-26,.cls-3{stroke:#008d36;}.cls-15,.cls-2,.cls-20,.cls-23,.cls-24,.cls-25,.cls-26,.cls-28,.cls-29,.cls-3,.cls-4,.cls-6,.cls-9{stroke-miterlimit:10;}.cls-2,.cls-3{stroke-width:0.5px;}.cls-15,.cls-26,.cls-29,.cls-3,.cls-6{fill:none;}.cls-4{fill:#83c073;stroke:#60b55c;}.cls-5{fill:#60b55c;}.cls-15,.cls-29,.cls-6{stroke-width:3px;}.cls-6{stroke:url(#Unbenannter_Verlauf_54);}.cls-7{fill:#fff;opacity:0.54;}.cls-8{fill:#9d9d9c;opacity:0.2;}.cls-20,.cls-9{fill:#f2deba;stroke:#f0d9b1;stroke-width:4px;}.cls-10{fill:#d3d3d3;opacity:0.39;}.cls-11{fill:url(#Unbenannter_Verlauf_34);}.cls-12{opacity:0.57;}.cls-13{fill:#828244;}.cls-14{fill:#727422;}.cls-15{opacity:0.6;stroke:url(#Unbenannter_Verlauf_74);}.cls-16{opacity:0.33;fill:url(#Unbenannter_Verlauf_78);}.cls-17{fill:url(#Unbenannter_Verlauf_36);}.cls-18{opacity:0.23;}.cls-19,.cls-23{fill:#ededed;}.cls-20{opacity:0.22;}.cls-21{opacity:0.86;}.cls-22{fill:#ece0cc;}.cls-23{stroke:#dadada;opacity:0.91;}.cls-23,.cls-24{stroke-width:0.25px;}.cls-24{fill:#dadada;stroke:#cccac8;}.cls-25,.cls-26{stroke-width:0.1px;}.cls-27{fill:#727321;}.cls-28{fill:#ed6964;stroke:#ea5351;}.cls-29{stroke:url(#Unbenannter_Verlauf_54-2);}</style><linearGradient id="Unbenannter_Verlauf_54" x1="368.9" y1="240.93" x2="365.78" y2="244.05" gradientTransform="matrix(0.62, 1.17, -1.05, 0.56, 177.11, -417.84)" gradientUnits="userSpaceOnUse"><stop offset="0" stop-color="#6c481d"/><stop offset="0.15" stop-color="#6f491d"/><stop offset="0.24" stop-color="#774b1c"/><stop offset="0.32" stop-color="#864e1b"/><stop offset="0.39" stop-color="#9b531a"/><stop offset="0.46" stop-color="#b55918"/><stop offset="0.52" stop-color="#d66116"/><stop offset="0.55" stop-color="#ec6614"/><stop offset="0.57" stop-color="#da6215"/><stop offset="0.63" stop-color="#b95a18"/><stop offset="0.68" stop-color="#9d531a"/><stop offset="0.74" stop-color="#874e1b"/><stop offset="0.81" stop-color="#784b1c"/><stop offset="0.89" stop-color="#6f491d"/><stop offset="1" stop-color="#6c481d"/></linearGradient><linearGradient id="Unbenannter_Verlauf_34" x1="23.61" y1="112.24" x2="106.36" y2="112.24" gradientUnits="userSpaceOnUse"><stop offset="0" stop-color="#c19a1b"/><stop offset="0.07" stop-color="#aa8f1e"/><stop offset="0.17" stop-color="#8b8121"/><stop offset="0.28" stop-color="#747624"/><stop offset="0.38" stop-color="#677025"/><stop offset="0.47" stop-color="#626e26"/><stop offset="0.56" stop-color="#677025"/><stop offset="0.68" stop-color="#777824"/><stop offset="0.81" stop-color="#908321"/><stop offset="0.95" stop-color="#b3941d"/><stop offset="1" stop-color="#c19a1b"/></linearGradient><linearGradient id="Unbenannter_Verlauf_74" x1="33.05" y1="160.29" x2="98.02" y2="160.29" gradientUnits="userSpaceOnUse"><stop offset="0" stop-color="#eed5a8"/><stop offset="0.11" stop-color="#eed7af"/><stop offset="0.26" stop-color="#eedec1"/><stop offset="0.44" stop-color="#ede8e0"/><stop offset="0.51" stop-color="#ededed"/><stop offset="0.62" stop-color="#edebe6"/><stop offset="0.77" stop-color="#ede4d3"/><stop offset="0.94" stop-color="#eed9b4"/><stop offset="1" stop-color="#eed5a8"/></linearGradient><linearGradient id="Unbenannter_Verlauf_78" x1="66.38" y1="180.55" x2="66.82" y2="198.69" gradientUnits="userSpaceOnUse"><stop offset="0" stop-color="#ededed"/><stop offset="0.58" stop-color="#eee0c7"/><stop offset="1" stop-color="#eed5a8"/></linearGradient><radialGradient id="Unbenannter_Verlauf_36" cx="64.8" cy="65.89" r="42.79" gradientUnits="userSpaceOnUse"><stop offset="0" stop-color="#c19a1b"/><stop offset="0.09" stop-color="#a38c1e"/><stop offset="0.2" stop-color="#877f22"/><stop offset="0.3" stop-color="#727624"/><stop offset="0.41" stop-color="#667026"/><stop offset="0.51" stop-color="#626e26"/><stop offset="0.62" stop-color="#657026"/><stop offset="0.72" stop-color="#707524"/><stop offset="0.81" stop-color="#827d22"/><stop offset="0.9" stop-color="#9c891f"/><stop offset="0.99" stop-color="#bc981c"/><stop offset="1" stop-color="#c19a1b"/></radialGradient><linearGradient id="Unbenannter_Verlauf_54-2" x1="378.51" y1="270.01" x2="375.61" y2="272.91" xlink:href="#Unbenannter_Verlauf_54"/></defs><g id="Ebene_2" data-name="Ebene 2"><g id="Ebene_1-2" data-name="Ebene 1"><path class="cls-1" d="M157.22,153.52c0,1.21-3.34,2.2-6.14,2.2s-6.49-1-6.49-2.2,3.69-2.2,6.49-2.2S157.22,152.31,157.22,153.52Z"/><path class="cls-2" d="M153.19,149.41s-5.08-3.22-2.92-7.69c4.81-9.95,31.2-4.8,31.2-4.8s-12.39,19.92-18.86,19.92C156.77,156.84,152.28,155.75,153.19,149.41Z"/><path class="cls-3" d="M153.19,149.41c8.92-10.63,28.28-12.49,28.28-12.49"/><path class="cls-4" d="M161.1,161.76c-.92-3.6-2.82-11-10.58-10.43-3.57.27-8.82,0-10.52,9.7,0,0,.15,9.87-4.39,16.15,0,0-27,37.74-2.44,54.89,9.15,6.39,29,9.57,44.67,0,11.77-7.2,15.91-30.78-5.64-54.89C169,173.64,163.88,172.75,161.1,161.76Z"/><path class="cls-5" d="M154.9,154c0,1.21-2.15,2.19-4,2.19s-4.18-1-4.18-2.19,2.37-2.2,4.18-2.2S154.9,152.8,154.9,154Z"/><path class="cls-6" d="M150.91,154.7S150,143,154.48,137.2"/><path class="cls-7" d="M154.21,157.8l2.61-1s3.73,4,2.22,8.75C159,165.59,158.46,159.55,154.21,157.8Z"/><path class="cls-7" d="M169.21,190.22l8,4.94s3.43,17.66-7.55,23.12C169.68,218.28,177.31,204.83,169.21,190.22Z"/><path class="cls-8" d="M0,236.87c0,6.36,16.13,9.62,57.43,9.62s74.76-5.16,74.76-11.52-26.28-6.47-67.57-6.47S0,230.51,0,236.87Z"/><path class="cls-9" d="M108.64,45.58s.79,77.93-12.12,110.92c0,0-2.39,5.76-5.37,6,0,0-26.82,18.87-9.33,53.44,0,0,5.36,5.37,12.51,6.56,0,0,15.9,2.19,15.5,7,0,0,5.56,6.75-37.95,10.13,0,0-39.94,1.39-48.68-7.15,0,0-4.57-5.37,8.55-8.15,0,0,14.3-3.38,19.67-8.15,0,0,18.67-27.61-10.93-53,0,0-3.58-.79-5.37-6.36,0,0-15.13-41.59-13.16-110.16"/><path class="cls-9" d="M21.47,47.64c.05,2.31,71.14,5,85.27.09C117.32,44,79.27,43.56,65.3,43.51,49.46,43.46,21.4,44.55,21.47,47.64Z"/><path class="cls-10" d="M54.37,58.35s-7.61-9-1.06-17.5,5.2-6.05,6.54-8.49c2.6-4.74-4.2-14.27-9.55-18-4.18-2.94,8.76,0,14.9,14a4.72,4.72,0,0,1-1.1,5.27C59.08,38,53.31,40.32,54.37,58.35Z"/><path class="cls-11" d="M23.61,65.16s51.12,10.58,82.75-1.48c0,0-.8,71.14-11.54,93.58,0,0-22.87,7.84-57.68.21C37.14,157.47,26.6,128.68,23.61,65.16Z"/><g class="cls-12"><path class="cls-13" d="M83.2,156.58c-6.48,2.43-18.48.27-22.47-2.94-.1-.08-.26,0-.39,0-7.49,0-9-6-8.66-8l7-31.54c3.71-5.31,11.91-9.85,14-9.55L92.39,107c2,.31,7.9,12.09,7.59,14.13l-4.66,31.1C95.39,155.8,87.39,155,83.2,156.58Z"/><path class="cls-14" d="M83.59,157.1c-.23.06-.11.13-.14.16C83.81,157.12,83.57,157.07,83.59,157.1Z"/><polygon class="cls-14" points="87.43 156.04 87.37 156.09 87.95 155.9 87.43 156.04"/><path class="cls-14" d="M91.23,155.47a16.4,16.4,0,0,0-2.06.29l-.12,0-.28.18C89.59,155.79,90.64,155.54,91.23,155.47Z"/><path class="cls-14" d="M93.39,155.31c-.15,0,.44-.2-.49.15l.09,0Z"/><path class="cls-14" d="M93,155.44c-.42.15.29,0,0,0Z"/><path class="cls-14" d="M94.88,154.51c-.16.13-.33.28-.51.4.14,0,.63-.35.47-.2.27-.2.36-.32.35-.34S95.06,154.44,94.88,154.51Z"/><path class="cls-14" d="M95.25,154l-.22.27A.59.59,0,0,0,95.25,154Z"/><path class="cls-14" d="M94.5,154.71a5.72,5.72,0,0,0,.53-.45c-.08.05-.13,0-.24.21C94.8,154.39,94.73,154.51,94.5,154.71Z"/><path class="cls-14" d="M94.15,154.87c-.32.1-.71.25-.2-.05-.5.26-.71.33-.66.36A2.19,2.19,0,0,0,94.15,154.87Z"/><path class="cls-14" d="M91.39,155.25l-.4,0-.33.12C90.82,155.34,91.43,155.3,91.39,155.25Z"/><path class="cls-14" d="M96.32,151.06s-.12.16-.18.2v.39C96.18,151.45,96.26,151.08,96.32,151.06Z"/><path class="cls-14" d="M96.14,151.26l0-.59C96.08,151.18,96.09,151.28,96.14,151.26Z"/><path class="cls-14" d="M95.18,153.77a5.07,5.07,0,0,1-.35.46l-.42.36a5.15,5.15,0,0,0,.5-.43c.14-.19.29-.37.41-.55A1.07,1.07,0,0,1,95.18,153.77Z"/><polygon class="cls-14" points="96.66 148.85 96.7 149.19 96.65 148.58 96.66 148.85"/><path class="cls-14" d="M96.86,147.37c0,.26.18-.31.18-.05a6.51,6.51,0,0,0,0-1.06A4.84,4.84,0,0,1,96.86,147.37Z"/><path class="cls-14" d="M97.06,145.73c0,.16,0,.34,0,.53A3.13,3.13,0,0,0,97.06,145.73Z"/><path class="cls-14" d="M96.33,149.68a1,1,0,0,0,.18-.44l-.14.21Z"/><path class="cls-14" d="M96.36,149.46h0l.08-.49Z"/><path class="cls-14" d="M96.32,149.74v-.06A.06.06,0,0,0,96.32,149.74Z"/><path class="cls-14" d="M95.83,152.17c0-.35,0-1.07-.16-.39C95.71,152,95.82,151.65,95.83,152.17Z"/><path class="cls-14" d="M96.15,150l-.12.61s.09-.11.09.06Z"/><polygon class="cls-14" points="96.16 149.69 96.15 150 96.19 149.77 96.16 149.69"/><path class="cls-14" d="M96.81,146.77a6,6,0,0,1,.07-.9c-.07.35-.14.72-.19,1.06C96.72,147,96.75,147.15,96.81,146.77Z"/><path class="cls-14" d="M96.58,148.07V148S96.56,148.08,96.58,148.07Z"/><polygon class="cls-14" points="97.37 142.63 97.34 142.68 97.36 142.7 97.37 142.63"/><path class="cls-14" d="M96.66,147a1.82,1.82,0,0,0,0,.58l.08-.64S96.67,146.9,96.66,147Z"/><path class="cls-14" d="M97.15,144.82l-.13.45A1.32,1.32,0,0,0,97.15,144.82Z"/><path class="cls-14" d="M96.63,147.93v0C96.66,147.89,96.65,147.9,96.63,147.93Z"/><path class="cls-14" d="M96.63,147.93c0-.14,0-.25,0-.36,0,.16,0,.31,0,.44A.56.56,0,0,1,96.63,147.93Z"/><path class="cls-14" d="M96.84,141.55a2.48,2.48,0,0,1-.12,1.36c0,.6.36.26.62-.23,0,0-.08,0,0-.64-.09.2-.33,1.33-.34.8a2.65,2.65,0,0,1,.24-1c-.17.32,0-1.05-.23-.9l0,.71S96.89,141.36,96.84,141.55Z"/><path class="cls-14" d="M97.16,143.84l0,.26a5.65,5.65,0,0,1,.26-.85c0-.43,0-.52,0-.55l-.2,1.23Z"/><path class="cls-14" d="M97,145.22c-.07-.21,0-.82-.2-.47a4,4,0,0,0,0,1c.15-1.19,0,.35.2-.5,0,.23,0,.44-.07.64l.14-.6v0h0s0,.06,0,0v0a.09.09,0,0,1,0-.06c.08-.34,0-.05,0,.06s0,0,0,0h0l.12-1.19C97.08,144.34,97,144.66,97,145.22Z"/><path class="cls-14" d="M95.54,151.11s0,0,0,0S95.56,151,95.54,151.11Z"/><path class="cls-14" d="M95.67,150.63a1.14,1.14,0,0,1,0,.44c-.06.24-.05,0-.08,0,0,.18,0,.61.11.08v-.08a3.6,3.6,0,0,1,.34-1A1.55,1.55,0,0,0,95.67,150.63Z"/><path class="cls-14" d="M96.3,147.89l.09-1-.17.49.06,0C96.18,147.92,96.26,147.81,96.3,147.89Z"/><polygon class="cls-14" points="97.44 142.53 97.53 142.68 97.46 142.08 97.44 142.53"/><polygon class="cls-14" points="97.62 141.24 97.71 141.3 97.7 140.96 97.62 141.24"/><path class="cls-14" d="M59.34,114.17l-.08.12,0,.06Z"/><path class="cls-14" d="M60.65,112.58v-.07C60.61,112.6,60.6,112.64,60.65,112.58Z"/><path class="cls-14" d="M95.9,110.12c-.15-.42-.3-.91-.37-.8v.17A3.89,3.89,0,0,1,95.9,110.12Z"/><path class="cls-14" d="M75.24,104.92l.12,0,.3-.07Z"/><path class="cls-14" d="M74.88,105.33l-.55-.14Z"/><path class="cls-14" d="M56.91,125.26l0,.35C57.06,125.09,57,125.31,56.91,125.26Z"/><path class="cls-14" d="M99.55,128.06a7.74,7.74,0,0,0,.2-.91C99.63,127.59,99.48,127.93,99.55,128.06Z"/><path class="cls-14" d="M58.93,112.8c-.09.16-.13.24-.1.25C58.93,112.88,59,112.78,58.93,112.8Z"/><path class="cls-14" d="M99.91,126.1l0,.19c0,.27,0,.54-.11.86A3,3,0,0,0,99.91,126.1Z"/><path class="cls-14" d="M67.68,155.93l.09,0S67.74,155.94,67.68,155.93Z"/><path class="cls-14" d="M79.79,157.87l-.51.08Z"/><path class="cls-14" d="M98.44,136.07c0,.27,0,.05,0,0Z"/><path class="cls-14" d="M97.82,137.33c0-.06,0-.1,0-.11A.23.23,0,0,1,97.82,137.33Z"/><path class="cls-14" d="M99.65,123.28v0C99.62,123.33,99.63,123.32,99.65,123.28Z"/><path class="cls-14" d="M98.33,136.47l.08-.34Z"/><path class="cls-14" d="M98.39,136.43l0,.23S98.37,136.67,98.39,136.43Z"/><path class="cls-14" d="M98.49,135.69c0,.16,0,.3-.08.44l0-.06Z"/><path class="cls-14" d="M52.32,144.3l0,0C52.28,144.63,52.3,144.51,52.32,144.3Z"/><path class="cls-14" d="M89.77,107.22h0Z"/><path class="cls-14" d="M88.77,107.18a2,2,0,0,1,1,0l-.29-.35Z"/><path class="cls-14" d="M58.23,118.86l.25-.65c0,.85-.21,1.43.06.82-.31-.17.55-2.64.24-2.81l.17-.43c0,.12,0,.15-.05.27a1.21,1.21,0,0,0,.12-.8,1.9,1.9,0,0,1,0-.37,1.39,1.39,0,0,1,0-.27,2.35,2.35,0,0,1,.06-.29s.07-.07.1-.11l.14-.13c.06,0,.08,0,0,.08l.45-.74c.18-.19.18-.1,0,.08l.85-1h0c.09-.17.34-.54.46-.71.27-.21-.09.14,0,.11.15-.19.3-.39.47-.58s-.12.33-.47.7c.71-.25.36-.51,1.6-1.36-.17.16-.33.33-.49.5a11.83,11.83,0,0,0,1.5-1c-.18.07-1.4.79-.84.21a4.38,4.38,0,0,0,.72-.64c.08.09.39-.19.81-.52l.06.15a3.49,3.49,0,0,0,.58-.67c.53-.36.72-.33.9-.32.86-.55-.7.22.29-.47a23.41,23.41,0,0,0,2.07-1.36c.54-.24,0,.14.16.08l.41-.36c.11-.05.09,0,.08,0,.38-.24,0-.17.57-.51.11-.24,1.4-.37,2.14-.74.2,0-.07.11,0,.16a5,5,0,0,1,.57-.17l.31,0,1,0,.83.21c-.6-.2.2-.24.91-.27l-.51-.2,1.11,0c.13,0,0,.09-.18.13h.21c.38.11.17.17-.13.23l-.38-.15c-.29.06-.56.14-.51.23h.36c-.07,0-.12,0-.09.05a1.11,1.11,0,0,0,.34,0l.23.21.07-.06,1.42.29a22.7,22.7,0,0,1,3.63-.07c-.42.08-.11.2-.15.35a13.28,13.28,0,0,0-2.12-.22c.44.07.33.13.21.14l1.54,0c-.06.12.3.14.69.24-.26-.29,1.15,0,1.78,0,0,.09-.14.16-.88.05.8.29,1.1-.16,1.9.1-.19,0-.28,0-.36,0,.44,0,1.47.16,1.22.21l-.18,0a16.07,16.07,0,0,0,3.91.28.91.91,0,0,1-.28.27l2.26-.44c-.21.16.47.68-.55.66a6.47,6.47,0,0,0,1.26.15c-.2-.05-.46-.33-.19-.31a13.3,13.3,0,0,0,1.39.46c-.14,0-.12-.12,0-.18a.38.38,0,0,1,.44,0c-.07,0-.13.25-.24.22a2.89,2.89,0,0,1,1,.47c-.23-.17-.2.12-.1.36a9,9,0,0,1,.79,1l-.23-.43c.71,1.08,1.07.83,1.74,2-.13-.11-.5-.15-.19.44a6.61,6.61,0,0,1,1.92,1.81l0,.24.49.75c-.44-.41-1.57-1.58-2.14-2.21a2.55,2.55,0,0,0,.34.8c.06.27-.29-.29-.4-.48.26.5.52,1,.76,1.53.12-.15.75,1.08.84,1-.33-.54-.66-1.06-1-1.58.11-.15.93.73,1.43,1.84.08.31-.37-.08-.41,0a5.16,5.16,0,0,1,.61,1.12l-.3-.43c.23.63.66.91.83,1.72.1.26.11.85.22.86,0-.49.53-.8.78-.57a13.25,13.25,0,0,1,.35,1.81c0,.48-.55-.55-.56-.14,0,0,.18.23.23.32,0,.29-.16-.07,0,.52.23.07.18,1.18.21.25.14.59,0,.54-.08,1.3.15-.22.28.71.23,1.35,0,0-.11.08-.15.15-.21,1.28-.39,2-.57,3.15,0,.1-.19.67-.22.41a3.62,3.62,0,0,1,0,.71c-.25.69.1-.82-.15-.3a7.07,7.07,0,0,1,0,1.5,4.82,4.82,0,0,0,.23-1.74c.21,0,.29,1,.2,2.24-.1,1-.2.41-.2.58-.31,1.86.13,1.65-.25,3.17-.23.59-.27,0-.39.11a17.52,17.52,0,0,1,.35-1.78l-.16.67a4.69,4.69,0,0,1,.12-1.1c-.2.5-.49,3.14-.82,4.56,0,.27,0,.71.07.51l0-.45c.17-.41,0,.87.16.31a10.55,10.55,0,0,1-.19,2.17l-.18.14a2,2,0,0,0,.17-.8c0,.37-.41,1.29-.27,1.71l.2-.59a11.78,11.78,0,0,1-.13,2.16c.2-.32,0-.18.27-.69-.29.43.3-2,0-1.23.29-.52.23-.94.52-1.64-.06,0-.14.24,0-.4a.59.59,0,0,1,0-.14v0s0,0,0,0a1.45,1.45,0,0,1-.12.32,16.57,16.57,0,0,1,.08-1.71c.08-.37,0,.17.12,0v-.52c.11,0,.33-1,.26-.08l.13-.8a8.13,8.13,0,0,0,.27-1.52c.08-.38,0-1,0-.64l.12-1.27h0a27.63,27.63,0,0,1,.62-4,10.84,10.84,0,0,1,.2-1.56l.12-.12c0-.54.33-1.6.27-1.85a2.53,2.53,0,0,0,.22-.65l.08-.46a4.3,4.3,0,0,0,.07-.61,8.94,8.94,0,0,0-.49-2.16h-.13a13.86,13.86,0,0,0-.85-2l-.08.09c-.36-.62-.66-1.71-1.17-2.72a1.41,1.41,0,0,1,.25.51c-.35-1.33-1.44-2.45-1.89-3.59a3.14,3.14,0,0,1-.37-.64.15.15,0,0,0,0,.06l-.06-.1-.17-.4c0,.12.09.24.14.34-.13-.2-.33-.5-.54-.78l0-.19,0-.07c-.15-.31-.2-.2-.17,0l-.32-.35c0-.35-.59-.71-.67-1.14-.12-.06-.42-.41-.78-.71s-.86-.54-1-.43-.14-.09.1,0a3.13,3.13,0,0,0-.62-.13,2.48,2.48,0,0,0-.54,0l-.14-.17-.86.1c-.5-.16-.7-.24-.18-.29-1.24,0-1-.06-2,0l.06-.09a5.66,5.66,0,0,1-1.18-.09c-.8-.29-4.08-.54-6.17-1,.37.34-1-.25-1.08,0-.12-.08-.41-.16-.06-.17a14.53,14.53,0,0,0-2.38-.22c-.11-.08.25-.07.14-.12a1.48,1.48,0,0,1-.46,0c-.1-.06.17,0,.35,0-1.11-.12-1.25.07-1.36.26a2.32,2.32,0,0,0-1.25-.11c-.18-.09-.5-.19.19-.13a10.28,10.28,0,0,0-2.41-.23,1.47,1.47,0,0,0-.73,0,7.26,7.26,0,0,0-1.8.54l.24-.06c-.26.29-.66.31-1.28.63v0c-1.5.6-.59.36-2,1l.14,0c0,.3-1.28.59-2,1.2l.31-.13c-.37.34-1.34.51-1.77.79-.11,0,.11-.14.23-.24-1.15.68,0,.23-.8.86-.2,0,0-.32-.49.08-.31.16-1.29,1.45-2,2,.18-.1.37-.19.08.17-.48.5-1.5,1.22-1.74,1.86-.06.06-.1.07-.11.07l-.28.43-.18.26-.12.18,0,.22a4.65,4.65,0,0,0-.09,1c-.51.39-.51,3.25-.88,3.16l-.33,1.59,0,0a5.19,5.19,0,0,0-.22,1.77c-.08.23-.08.05-.09,0a10.25,10.25,0,0,0-.51,2.9l-.15.11c0,.35-.66,2.1-.84,3.58,0,0,0-.05,0-.17-.22,1.67-1.2,3.85-.89,4.54l-.13,1.1c.34-1.39.14.25.35-.31-.1.55-.45,1.39-.33.71l.05-.1c-.18-.3-.46,1.72-.61,1.65-.6,2.75-1.32,5.4-1.89,8l.24-.26-.21.9c-.09.23-.21.29-.06-.35a2.41,2.41,0,0,0-.12,1.11c-.34,1.24-.1-.53-.19-.14l-.1.52.05-.11c0,.41,0,.56,0,1.38,0,.53-.08.29-.06.5,0,0,0,.07.05.32a10.07,10.07,0,0,0,.31,1.2c0-.17,0-.35,0-.52.2.51.39,1.07.33.5A5.15,5.15,0,0,0,53,151a10,10,0,0,0,1.78,1.62,18.89,18.89,0,0,0,2.22.91c-.21-.09-.28-.28.45-.05-.36.27,1.36.47,2,.69-.23-.08.09-.08.48-.07h.47l.08,0c.11,0,.17.05.21,0s0,0,0,0a.41.41,0,0,0-.06-.1l.08.06c.23.21-.15,0,.17.36a21.29,21.29,0,0,0,4.82,2.22c.05,0-.24-.19.17-.13s.59.33.9.48.39-.16,1,.16c-.08-.06-.21-.15,0-.1,3.57,1,7.43,1,11.21,1.09-.52,0-.18-.07.21-.12-.26,0,0-.11-.06-.16.52,0,1,0,1.58-.07.26-.21,1.67-.37,1.78-.61l-.48.18c.3-.2.05-.21-.27-.25s-.7-.08-.68-.21a2.73,2.73,0,0,1-1.35.2,6.4,6.4,0,0,0-1.7.2c-.26,0,.22-.09.08-.14a2.66,2.66,0,0,1-1.33.14l.08,0a23.33,23.33,0,0,1-4.8-.39l.15.14a4.07,4.07,0,0,1-.75-.18c-.55.12,1.27.17.77.31-.57-.29-3.19-.47-3.53-.86-.68-.15.17.18-.51,0l-.17-.11-.19.05c-.44-.13-.64-.28-.64-.35a2.84,2.84,0,0,0,.42.09c-.55-.22-1.61-.4-1.8-.51l.63.25a20.64,20.64,0,0,1-2.8-1c-.46-.21-.93-.4-1.35-.64-.21-.12-.44-.22-.63-.34l-.63-.4-.18-.1a1.22,1.22,0,0,1,.15.17.66.66,0,0,0-.59-.15l-.13,0h-.22l-.48-.05c-.3,0-.61-.07-1.35-.18h.06a2.87,2.87,0,0,1-1.11-.17c.38,0-.65-.32-.15-.25-.7-.19-.87-.27-1-.28a1.92,1.92,0,0,1-.68-.15l-.14-.2a2.14,2.14,0,0,1-1-.54c.52.34-.28-.41.32-.05-.52-.58-.92-1-1.23-1.34a1.8,1.8,0,0,1-.52-1.06c-.28-.26-.16,0,0,.4s.43.67.29.52c.12.34-.5-.4-.68-.88a16.37,16.37,0,0,1-.29-2.11,2,2,0,0,0,.05.24,4,4,0,0,1-.05-1.39c-.08-.35.18-.76,0-.89A8.55,8.55,0,0,0,52,146a7.53,7.53,0,0,1,0-1,6.05,6.05,0,0,1,.28-1.37,4.09,4.09,0,0,1,0,.67c.13-.32.1-.63.23-1,.17.13-.27,1.45-.28,2.19.16-.33.16-1.38.29-1-.16-.57.31-1.26.3-2.18l.1.08a4.29,4.29,0,0,1,.08-.69l.05.49c0-.73.41-1.34.49-2-.31,1.42-.21.29-.42.87.23-1.78.52-1,.9-2.92,0,.27-.29,1-.25.56a7.26,7.26,0,0,1,.37-1.07c.26-1.3-.17.18-.11-.39.23-.41.08-.65.16-1.23l.12,0c.4-1.46-.16-.44.22-1.75l0,.59.11-.7.11.17a7.15,7.15,0,0,1,.34-1.74c-.12.16-.19-.14-.05-.8.17-.43.06.28.25-.66a1.3,1.3,0,0,1-.13.86,2.56,2.56,0,0,1,0,.27,9.29,9.29,0,0,0,.36-1.54,1.94,1.94,0,0,1-.11.36l.14-1.38c.09-.21.09,0,.09.14,0-.27,0-.47.11-.88.07.13.18.12.1.7l.17-1.31c.06-.07.26-.63.26-.46.22-.7.2-1.78.48-2.71a2.33,2.33,0,0,1,0-.36,16.1,16.1,0,0,0,.61-2.72l.3-.56c.14-.83-.39.76-.16-.62.16-1,.23-.33.35-.66a6.61,6.61,0,0,1,.37-2.24C58.36,118.36,58.28,118.59,58.23,118.86Zm4.63-8.45c-.13.14-.38.45-.53.5C62.4,110.65,62.58,110.59,62.86,110.41Zm13.87-5.07a1.71,1.71,0,0,1-.64-.11A4.53,4.53,0,0,1,76.73,105.34Zm22.06,27.72v0C98.9,132.61,98.86,132.76,98.79,133.06Zm-.19.92c0,.1,0,.09,0,.06a1.72,1.72,0,0,1,.06-.52A.88.88,0,0,0,98.6,134ZM51.25,147.22V147C51.35,147.45,51.31,147.33,51.25,147.22Z"/><path class="cls-14" d="M74.92,105.28a.13.13,0,0,1-.07-.08C74.77,105.22,74.76,105.24,74.92,105.28Z"/><path class="cls-14" d="M56.9,125.19v0l0,0Z"/><path class="cls-14" d="M99.25,119.75a1.63,1.63,0,0,1,0-.36S99.17,119.48,99.25,119.75Z"/><path class="cls-14" d="M98.07,138.9l.06-.59a2.91,2.91,0,0,1-.12.52S98.1,138.72,98.07,138.9Z"/><path class="cls-14" d="M96.56,143.93a2.65,2.65,0,0,1,0,.27l.06,0C96.65,143.81,96.64,143.55,96.56,143.93Z"/><path class="cls-14" d="M97.59,139.39c-.11,0-.13.41-.17.83v-.08C97.55,140.29,97.57,139.84,97.59,139.39Z"/><path class="cls-14" d="M97.41,140.31c0,.13,0,.26-.06.39S97.39,140.54,97.41,140.31Z"/><path class="cls-14" d="M98.49,135.16c0,.19.11.14.05.25C98.64,135.65,98.59,134.08,98.49,135.16Z"/><polygon class="cls-14" points="97.21 139.68 97.36 139.55 97.29 139.3 97.21 139.68"/><path class="cls-14" d="M97.79,136.42l-.13.66s0,.08,0,.18A4.16,4.16,0,0,0,97.79,136.42Z"/><path class="cls-14" d="M97.67,137.26a3,3,0,0,0,0,.54C97.63,137.68,97.66,137.43,97.67,137.26Z"/><polygon class="cls-14" points="97.31 138.77 97.36 138.57 97.44 138.11 97.31 138.77"/><path class="cls-14" d="M98.88,129.31l.07-.73c0-.08-.08.11-.11.38S98.82,129.41,98.88,129.31Z"/><path class="cls-14" d="M98.22,131.44a.76.76,0,0,1,.14-.3l-.15,0Z"/><path class="cls-14" d="M98.5,129.33c0-.08,0-1.07-.1-.15C98.43,129.26,98.36,130,98.5,129.33Z"/><polygon class="cls-14" points="99.3 118.56 99.37 118.74 99.6 118.63 99.3 118.56"/><path class="cls-14" d="M94.45,110.26c.4.74.24.08.58.77.16.14-.27-.57-.12-.42C94.58,110.21,94.46,110,94.45,110.26Z"/><path class="cls-14" d="M94.91,110.61l.17.21Z"/><path class="cls-14" d="M81.88,157.62a3.78,3.78,0,0,0,.57-.1l-.38,0Z"/><path class="cls-14" d="M82.89,157.13l.18.11.28-.24A2.31,2.31,0,0,1,82.89,157.13Z"/><path class="cls-14" d="M64.24,109.71v-.06a1.48,1.48,0,0,0-.4.25Z"/><polygon class="cls-14" points="59.3 114.6 59.33 114.47 59.14 114.68 59.3 114.6"/><path class="cls-14" d="M58.12,120.82l.16-.81C58.18,120.57,57.93,120.85,58.12,120.82Z"/></g><path class="cls-15" d="M35.12,156.69s18.27,9.48,61.4-.19c0,0,0,2.84-4,5.48,0,0-27,7.23-54.52-.14C38,161.84,36,161.29,35.12,156.69Z"/><path class="cls-16" d="M69.39,211.87l-4.58.3a7.2,7.2,0,0,1-7-7.49L58.09,186c0-4.07-.21-7.76,5-7.28l6.27-.15c6.12-.79,6.5,3.48,6.3,7.57l-1.35,18.43C74.42,209,73.46,211.87,69.39,211.87Z"/><path class="cls-17" d="M106.38,63.64c0,1-17.25,6.18-40.14,6.18s-42.55-4-42.55-4.95S42.06,62.39,65,62.39,106.38,62.7,106.38,63.64Z"/><g class="cls-18"><path class="cls-19" d="M113,75.56c0,.16.1.1.12.12C113.09,75.43,113,75.57,113,75.56Z"/><polygon class="cls-19" points="112.64 73.05 112.69 73.1 112.57 72.73 112.64 73.05"/><path class="cls-19" d="M112.53,70.69c-.17.24.07.86,0,1.28l0,.07.15.19A13.92,13.92,0,0,1,112.53,70.69Z"/><path class="cls-19" d="M112.86,69.42c-.07.08-.08-.27,0,.29v-.29Z"/><path class="cls-19" d="M112.86,69.66c0,.25,0-.17,0,0Z"/><path class="cls-19" d="M112.77,68.51l.08.33c0-.07,0-.37.06-.26C112.86,68.25,112.83,68.32,112.77,68.51Z"/><path class="cls-19" d="M112.62,68.21l0,.17A.18.18,0,0,0,112.62,68.21Z"/><path class="cls-19" d="M112.73,68.73l-.07-.35c0,.05-.09.05,0,.16C112.63,68.51,112.69,68.58,112.73,68.73Z"/><path class="cls-19" d="M112.71,68.94c0,.18,0,.42-.12.1C112.65,69.66,112.77,69.56,112.71,68.94Z"/><path class="cls-19" d="M112.34,70.58l0,.25.07.21C112.34,70.94,112.4,70.56,112.34,70.58Z"/><path class="cls-19" d="M112.76,66.47s-.1.11-.14.14l0,.24C112.69,66.73,112.71,66.49,112.76,66.47Z"/><path class="cls-19" d="M112.62,66.61l-.09-.36C112.54,66.58,112.58,66.63,112.62,66.61Z"/><polygon class="cls-19" points="112.42 68.16 112.59 68.75 112.41 68.05 112.42 68.16"/><polygon class="cls-19" points="112.7 65.09 112.8 65.29 112.64 64.93 112.7 65.09"/><path class="cls-19" d="M112.64,64.17c.08.15.11-.21.16,0a2.38,2.38,0,0,0-.16-.65A2,2,0,0,1,112.64,64.17Z"/><path class="cls-19" d="M112.54,63.15a2.33,2.33,0,0,0,.1.32A1.31,1.31,0,0,0,112.54,63.15Z"/><path class="cls-19" d="M112.52,65.64s.08-.09.1-.29l-.1.14Z"/><path class="cls-19" d="M112.51,65.5h0v0Z"/><path class="cls-19" d="M112.52,65.67v0A0,0,0,0,0,112.52,65.67Z"/><path class="cls-19" d="M112.47,67.21c-.07-.21-.15-.65-.22-.22C112.33,67.14,112.37,66.89,112.47,67.21Z"/><path class="cls-19" d="M112.4,65.85v.39s.07-.08.1,0Z"/><polygon class="cls-19" points="112.36 65.67 112.4 65.86 112.4 65.71 112.36 65.67"/><path class="cls-19" d="M112.47,63.82a3,3,0,0,1-.08-.55c0,.22,0,.45,0,.66C112.43,64,112.49,64.05,112.47,63.82Z"/><path class="cls-19" d="M112.48,64.63v0S112.47,64.64,112.48,64.63Z"/><polygon class="cls-19" points="112.29 61.25 112.27 61.28 112.29 61.29 112.29 61.25"/><path class="cls-19" d="M112.37,64a.69.69,0,0,0,.06.35c0-.12,0-.25,0-.39S112.36,63.92,112.37,64Z"/><path class="cls-19" d="M112.47,62.59a2.5,2.5,0,0,0,0,.29A.7.7,0,0,0,112.47,62.59Z"/><path class="cls-19" d="M112.5,64.54v0S112.52,64.52,112.5,64.54Z"/><path class="cls-19" d="M112.5,64.54c0-.08,0-.15-.07-.22a2,2,0,0,0,0,.28A.14.14,0,0,1,112.5,64.54Z"/><path class="cls-19" d="M111.58,60.67c.1,0,.21.45.12.83.09.37.41.11.57-.22,0,0-.08,0-.16-.38,0,.13-.08.85-.19.53-.07-.5,0-.41.06-.66-.11.21-.21-.63-.39-.51l.09.43S111.6,60.55,111.58,60.67Z"/><path class="cls-19" d="M112.3,62l0,.15a2.22,2.22,0,0,1,.11-.55c-.06-.25-.1-.31-.14-.32l0,.77Z"/><path class="cls-19" d="M112.35,62.86c-.11-.11-.17-.49-.28-.25,0,.46.11.31.17.59-.07-.74.07.21.1-.33a2.91,2.91,0,0,1,0,.4q0-.21,0-.39v0h0s0,.05,0,0v0s0,0-.05,0c0-.21,0,0,.05,0h0l-.09-.74A4.93,4.93,0,0,0,112.35,62.86Z"/><path class="cls-19" d="M112,66.61s0,0,0,0S112,66.52,112,66.61Z"/><path class="cls-19" d="M112.05,66.3a.6.6,0,0,1,.06.27c0,.15-.06,0-.09,0s.09.37.13,0l0,0a1.66,1.66,0,0,1,.16-.64A1.08,1.08,0,0,0,112.05,66.3Z"/><path class="cls-19" d="M112.17,64.56l-.08-.61-.08.31h.06C112.06,64.6,112.13,64.52,112.17,64.56Z"/><polygon class="cls-19" points="112.34 61.17 112.46 61.25 112.28 60.9 112.34 61.17"/><polygon class="cls-19" points="112.29 60.37 112.39 60.4 112.32 60.19 112.29 60.37"/><path class="cls-19" d="M101.74,70.54v.19A1.49,1.49,0,0,0,101.74,70.54Z"/><path class="cls-19" d="M102,69.25l0,0C102,69.28,102,69.3,102,69.25Z"/><path class="cls-19" d="M105.29,45c-.31.07-.68.19-.58.25l.14,0A1.32,1.32,0,0,1,105.29,45Z"/><path class="cls-19" d="M103.3,58.52l0-.07-.08-.19Z"/><path class="cls-19" d="M103.72,58.77l-.12.34A1.83,1.83,0,0,0,103.72,58.77Z"/><path class="cls-19" d="M100,77.56a2,2,0,0,1,0,.24C100.18,77.48,100.08,77.6,100,77.56Z"/><path class="cls-19" d="M111.85,52.16a4.31,4.31,0,0,0,0-.57C111.84,51.87,111.76,52.09,111.85,52.16Z"/><path class="cls-19" d="M100.72,69.78c0,.12,0,.17,0,.17S100.75,69.77,100.72,69.78Z"/><path class="cls-19" d="M111.85,50.93l0,.12a4.24,4.24,0,0,1,.06.54A1.25,1.25,0,0,0,111.85,50.93Z"/><path class="cls-19" d="M88.4,101l0,0S88.38,101,88.4,101Z"/><path class="cls-19" d="M82.26,105.5l.23-.2Z"/><path class="cls-19" d="M112.18,57.14c0,.17,0,0,0,0Z"/><path class="cls-19" d="M111.79,58s0-.06-.05-.06A.1.1,0,0,1,111.79,58Z"/><path class="cls-19" d="M111.1,49.27h0C111.08,49.31,111.08,49.3,111.1,49.27Z"/><path class="cls-19" d="M112.14,57.4a1.38,1.38,0,0,0,0-.22S112.15,57.29,112.14,57.4Z"/><path class="cls-19" d="M112.19,57.37v.15S112.22,57.52,112.19,57.37Z"/><path class="cls-19" d="M112.16,56.91a1.22,1.22,0,0,1,0,.27l0,0Z"/><path class="cls-19" d="M95.44,88.81l0,0C95.38,89,95.41,88.94,95.44,88.81Z"/><polygon class="cls-19" points="104.78 49.55 104.78 49.53 104.77 49.55 104.78 49.55"/><path class="cls-19" d="M104.81,50.17a.91.91,0,0,1,0-.62l-.33.18Z"/><path class="cls-19" d="M101,73.62l.21-.4c0,.55-.13.9.11.54-.32-.14.39-1.63.08-1.77l.14-.26c0,.08,0,.09,0,.17.29-.5-.11-.45.08-1.13.07-.24.15-.4.16-.23l0-.56c0-.15.08-.1,0,0l.14-.83h0a4.86,4.86,0,0,1-.07-.55c.09-.2,0,.11.07.07v-.48c.13-.17.13.23.06.54.42-.35,0-.39.37-1.28l0,.44c.24-.24.24-.59.46-1-.09.1-.5.92-.48.4a1.48,1.48,0,0,0,.09-.6c.12,0,.14-.24.2-.57l.16.05c0-.36-.06-.35-.09-.57a.67.67,0,0,1,.35-.53c.16-.63-.28.4-.16-.35a4.19,4.19,0,0,0,.18-1.55c.11-.36.09.08.15,0l-.08-.35c0-.08,0,0,.07,0,0-.29-.15,0-.13-.49-.16-.15.38-.86.26-1.43.07-.12.09.08.16,0a6.93,6.93,0,0,0-.09-1.28l.18-.5c-.17.36-.24-.15-.3-.59l-.18.31,0-.69c0-.08.08,0,.13.12l0-.13c.09-.23.17-.1.23.09l-.13.23c.07.18.15.35.25.33a.78.78,0,0,1,0-.23c0,.05,0,.08.06.06s0-.09,0-.21l.2-.13-.07-.05.24-.87a11.12,11.12,0,0,1-.21-2.26c.1.26.2.08.36.11-.18.26,0,.79-.14,1.31.06-.27.12-.2.14-.13,0-.32,0-.63,0-1,.12,0,.11-.19.19-.43-.27.16-.1-.72-.14-1.11.08,0,.16.09.09.55.24-.49-.22-.69,0-1.18,0,.12,0,.18,0,.22,0-.27.07-.91.13-.75v.11a6.49,6.49,0,0,0,0-2.43.88.88,0,0,1,.28.18l-.58-1.41c.17.13.65-.29.69.35a2.33,2.33,0,0,0,.06-.78c0,.12-.29.28-.29.11a4.71,4.71,0,0,0,.37-.86c-.06.18-.33,0-.29-.34,0,.05.28,0,.3.11l-.21-.74c0,.18.24,0,.33-.11,0,0,0,0,0-.07l0-.12c0-.09.1-.13.15-.21a1.94,1.94,0,0,0-.17.1,1.82,1.82,0,0,0,.21-.29c.06-.1.09-.2.14-.3a1,1,0,0,1,.55-.57c-.07.1,0,.41.3.3a1.78,1.78,0,0,1,1.37-1l.14.1a6,6,0,0,1,.6,0,8,8,0,0,0-.92.34,5.21,5.21,0,0,0-.84.52c.27,0,.09.08.47,0,.14.06-.19.15-.29.17a3.53,3.53,0,0,1,.86,0c0-.18.7-.08.7-.2a2.26,2.26,0,0,0-.52,0,2.73,2.73,0,0,0-.5.06c-.07-.16.62-.53,1.34-.26.15.11-.22.26-.22.32a1.32,1.32,0,0,1,.7.17l-.3,0c.33.19.67,0,1,.42.14.08.29.46.37.38-.11-.31.15-.85.39-.86l.42.42c0,.06.12.1.14.16l0,.23a2,2,0,0,1-.06.29c-.07.15-.17,0-.26,0s-.17-.11-.23,0,.1.08.12.13-.14-.07-.1.33c.17.05,0,.81.15.18a6,6,0,0,1,0,.87c.1-.15.39.39.46.78,0,0-.1.07-.12.11,0,.8,0,1.23,0,2,0,.07-.07.43-.15.28a1.23,1.23,0,0,1,.11.43c-.12.45,0-.51-.21-.17.1,0,.17.59.25.92.14-.11,0-.76-.09-1.09.21,0,.46.55.6,1.32s-.13.28-.09.38c0,1.17.41,1,.31,2-.12.39-.27,0-.36.12a6.45,6.45,0,0,1,0-1.12l0,.42a1.9,1.9,0,0,1-.07-.68c-.11.33.07,2,0,2.87.06.15.12.43.16.29l0-.28c.1-.26.18.53.21.17a3.69,3.69,0,0,1,.2,1.33l-.15.11s.08-.36,0-.5c.08.22-.16.83,0,1.06l.09-.38a4.42,4.42,0,0,1,.25,1.32c.14-.22,0-.11.14-.45-.21.3,0-1.22-.26-.74.19-.35.06-.6.21-1.06,0,0-.09.16-.08-.23a.26.26,0,0,1,0-.09v0h0a.5.5,0,0,1-.07.21,6,6,0,0,1-.22-1c0-.23.06.1.11,0l-.11-.32c.11,0,.16-.63.25-.08l0-.5a2.73,2.73,0,0,0,0-1c0-.24-.15-.59,0-.39l-.11-.79h0a11.84,11.84,0,0,1-.11-2.49,4.83,4.83,0,0,1-.07-1l.09-.09c0-.33.05-1-.06-1.15a2,2,0,0,0,.08-1l-.06-.65,0-.34,0-.46h-.12c0-.08,0-.17,0-.25l-.22-.15L111,45.7a6.75,6.75,0,0,0-.66-.35l0,.12a10.86,10.86,0,0,0-1.77-.81.82.82,0,0,1,.37.1,2.18,2.18,0,0,0-1.4-.26c-.49,0-.94.18-1.38.24a2.15,2.15,0,0,1-.48.19l0,0-.08,0-.3.09.25-.07a2.54,2.54,0,0,0-.53.38l-.16,0,0,0c-.22.12-.11.17,0,.15a1.7,1.7,0,0,0-.19.27c-.14,0-.23.1-.37.3a2.53,2.53,0,0,0-.18.27.77.77,0,0,1-.12.28c.08.25,0,1.09.18,1.25,0,0,0,.06,0,0a2,2,0,0,0-.06.68l-.16.09.16.53c-.12.31-.19.43-.28.11.11.77,0,.61.13,1.27l-.09,0c0,.23.08.6,0,.73-.23.49-.26,2.52-.56,3.81.31-.22-.18.59,0,.67-.08.07-.15.24-.18,0,0,.67-.25,1-.13,1.46-.08.07-.08-.15-.13-.09s0,.22,0,.28,0-.11-.06-.21c-.09.67.11.77.3.85a.92.92,0,0,0-.06.77c-.08.11-.18.3-.14-.13,0,.24-.3,1.44-.15,1.48a.92.92,0,0,0,0,.4c-.09.53-.11.57-.17,1.1l.05-.14c.16.23,0,.44-.06.86h0c-.28.94,0,.42-.29,1.35l.12,0c.25.13-.31.81-.33,1.37l.11-.18c0,.31-.51.77-.61,1.06,0,.06,0-.11,0-.2-.31.75.13.13,0,.72-.1.09-.18-.18-.28.21-.1.18,0,1.19-.23,1.7.09-.11.18-.21.17.07s-.47,1.07-.34,1.49c0,.05,0,.07-.07.07a12.25,12.25,0,0,0-.07,1.27c-.48.19-.32,2-.69,1.9l-.23,1,0,0a2.28,2.28,0,0,0-.12,1.1c-.06.13-.07,0-.09,0a4.11,4.11,0,0,0-.34,1.79L99,77c0,.23-.6,1.23-.74,2.14a.15.15,0,0,1,0-.12c-.19,1-1.1,2.23-.8,2.73l-.11.68c.31-.82.15.19.33-.12-.08.33-.41.8-.3.39l0-.06c-.09-.11-.2.14-.3.41s-.24.55-.31.51c-.65,1.6-1.37,3.12-2,4.59l.25-.09-.26.5c-.1.12-.21.12,0-.23a.89.89,0,0,0-.19.66c-.41.68,0-.36-.16-.15l-.13.3,0-.05a1.64,1.64,0,0,1-.21.75c-.17.26-.17.09-.23.2s0,0-.09.16l-.32.63.25-.19c-.07.32-.3.6,0,.38a5.46,5.46,0,0,0-.82,1.31,13.15,13.15,0,0,1-.72,1.2,5.54,5.54,0,0,1-.63,1.27c.09-.1.27-.09,0,.31-.21-.33-.53.67-1,.84.33-.19-.7,1.11-.22.8-.24.31-.12,0-.35.15a17.45,17.45,0,0,1-1.87,2.54s.19-.06.09.17l-.54.33c-.13.19.06.32-.31.55.07,0,.16-.06.08.07-.76.82-1.55,1.63-2.29,2.5a11.41,11.41,0,0,1-2.66,2.1c.28-.12.13,0-.05.16.13-.08.07.09.13.12-.28.16-.57.28-.86.42,0,.25-.82.56-.82.74l.24-.18c-.25.37.69.06.77.28.25-.43,1.19-.44,1.57-1.17.16-.07-.06.15,0,.14.08-.2.24-.36.6-.6l0,0c.44-.41.76-.69,1.11-1a13,13,0,0,0,1.19-1h-.16a2.24,2.24,0,0,1,.39-.3c.09-.36-.56.59-.49.23.42-.12,1.39-1.47,1.74-1.51.28-.35-.19,0,.09-.33l.13,0V101c.19-.22.35-.28.41-.25s-.11.17-.16.23a7.1,7.1,0,0,0,.74-.93l-.3.3A22,22,0,0,0,91,97.13l-.09,0c.4-.8.47-.54.93-1.4v0a2.52,2.52,0,0,1,.29-.67c-.06.25.34-.34.24,0,.39-.89.17-.46.31-1.11l.15-.08a1.59,1.59,0,0,1,.23-.7c-.13.39.28-.2.15.24.7-.78.56-1.42,1-1.71,0-.53-.51.73-.45.47-.17.16,0-.44.16-.71s.54-.35.9-1.09a1,1,0,0,0-.06.16c.19-.25.18-.58.44-.87,0-.26.23-.44.07-.58l-.29.7a4.27,4.27,0,0,1,.52-1.45,1.58,1.58,0,0,1-.07.42c.14-.16.14-.37.29-.54.15.14-.36.84-.43,1.32.17-.17.25-.84.35-.54-.11-.42.4-.71.4-1.32l.1.08a1.74,1.74,0,0,1,.09-.43l0,.34c0-.47.44-.76.53-1.19-.33.84-.2.13-.43.45.28-1.09.53-.47.95-1.65,0,.16-.31.56-.26.29a2.62,2.62,0,0,1,.39-.59c.29-.78-.16.07-.1-.28.24-.21.1-.4.19-.75l.12,0c.41-.85-.13-.32.24-1.08l0,.4.1-.44.1.14A2.85,2.85,0,0,1,98.46,82c-.12.07-.19-.13-.06-.53.16-.25.06.19.23-.38a.52.52,0,0,1-.12.53s0,.15.06.19a3.88,3.88,0,0,0,.33-.93,1,1,0,0,1-.1.21l.11-.86c.09-.12.09,0,.09.11,0-.17,0-.3.09-.55.08.09.18.11.11.47l.15-.81c.06,0,.25-.36.25-.25.19-.42.17-1.11.42-1.66a.63.63,0,0,1,0-.23,6.53,6.53,0,0,0,.45-1.68l.27-.32c.09-.51-.35.44-.19-.42.1-.61.2-.18.31-.38a2.6,2.6,0,0,1,.23-1.39A2.61,2.61,0,0,1,101,73.62Zm1.36-6.31c0,.13,0,.39-.06.47C102.18,67.61,102.26,67.51,102.35,67.31Zm1.32-9.69a.62.62,0,0,1-.08.39A1.18,1.18,0,0,1,103.67,57.62ZM112,55.29v0C112,55,112,55.09,112,55.29Zm0,.57c0,.06,0,.06,0,0a.76.76,0,0,1,0-.32S111.93,55.69,112,55.86ZM93.91,90.09,94,90C93.91,90.25,93.91,90.17,93.91,90.09Z"/><path class="cls-19" d="M103.67,58.74a.09.09,0,0,1-.07,0S103.64,58.84,103.67,58.74Z"/><path class="cls-19" d="M100,77.52v0l0,0Z"/><path class="cls-19" d="M110.51,47a.23.23,0,0,1,.06-.13S110.51,46.91,110.51,47Z"/><path class="cls-19" d="M112.32,58.9l0-.36a1,1,0,0,1,0,.33S112.31,58.79,112.32,58.9Z"/><path class="cls-19" d="M111.73,62.14s0,.11,0,.16h0C111.8,62.06,111.74,61.9,111.73,62.14Z"/><path class="cls-19" d="M111.94,59.26c-.1,0-.06.27,0,.52v0C112.06,59.81,112,59.53,111.94,59.26Z"/><path class="cls-19" d="M111.92,59.84a1.93,1.93,0,0,1,0,.24C112,60.11,111.94,60,111.92,59.84Z"/><path class="cls-19" d="M112.07,56.59c0,.12.13.07.09.14C112.3,56.86,112,55.92,112.07,56.59Z"/><polygon class="cls-19" points="111.61 59.49 111.73 59.39 111.63 59.25 111.61 59.49"/><path class="cls-19" d="M111.6,57.45v.41s0,0,0,.11C111.63,57.71,111.64,57.43,111.6,57.45Z"/><path class="cls-19" d="M111.64,58a1,1,0,0,0,0,.33C111.67,58.23,111.66,58.07,111.64,58Z"/><polygon class="cls-19" points="111.55 58.93 111.57 58.8 111.56 58.51 111.55 58.93"/><path class="cls-19" d="M111.41,53l-.06-.45s-.06.08,0,.25S111.37,53.08,111.41,53Z"/><path class="cls-19" d="M111.14,54.39a.46.46,0,0,1,.08-.21h-.15Z"/><path class="cls-19" d="M111,53.08c-.05,0-.16-.65-.12-.08C111,53,111,53.49,111,53.08Z"/><path class="cls-19" d="M110.75,46.42l.09.06.2-.17Z"/><path class="cls-19" d="M105.68,46.33c.38-.2,0-.19.38-.34.06-.1-.32.12-.25,0C105.6,46.21,105.48,46.27,105.68,46.33Z"/><path class="cls-19" d="M105.81,46l.1-.11Z"/><polygon class="cls-19" points="81.18 106.08 80.88 106.2 81.1 106.17 81.18 106.08"/><path class="cls-19" d="M80.74,106.57l-.14-.11-.1.21A.46.46,0,0,1,80.74,106.57Z"/><path class="cls-19" d="M102.86,66.44l0,0a.63.63,0,0,0-.11.28Z"/><polygon class="cls-19" points="101.81 71.01 101.83 70.93 101.65 71.04 101.81 71.01"/><path class="cls-19" d="M101,74.86c.05-.15.06-.34.11-.5C101,74.71,100.8,74.86,101,74.86Z"/></g><path class="cls-20" d="M30.76,52.19s.91,1.06,8.2.46c0,0-10.63,60,9.41,106.44,0,0-1.77.1-8.14-1.43C40.23,157.66,25.29,105,30.76,52.19Z"/><g id="corto" class="cls-21"><path class="cls-19" d="M116.34,72.1c0,.05.1,0,.12,0S116.31,72.11,116.34,72.1Z"/><polygon class="cls-19" points="115.95 71.32 116 71.33 115.87 71.22 115.95 71.32"/><path class="cls-19" d="M115.82,70.55c-.16.11.08.27,0,.42l0,0,.16,0C115.92,70.88,115.79,70.68,115.82,70.55Z"/><path class="cls-19" d="M116.12,70.07c-.06,0-.07-.07,0,.1v0A.32.32,0,0,0,116.12,70.07Z"/><path class="cls-19" d="M116.13,70.15c0,.08.05-.06,0,0Z"/><path class="cls-19" d="M116,69.79l.08.09s0-.12.06-.09S116.08,69.71,116,69.79Z"/><path class="cls-19" d="M115.88,69.71l0,.05S115.94,69.73,115.88,69.71Z"/><path class="cls-19" d="M116,69.87l-.07-.11s-.08,0,0,0C115.89,69.81,116,69.82,116,69.87Z"/><path class="cls-19" d="M116,69.94c0,.06,0,.14-.12,0C115.92,70.19,116,70.14,116,69.94Z"/><path class="cls-19" d="M115.63,70.54l0,.09.07.06S115.68,70.53,115.63,70.54Z"/><path class="cls-19" d="M116,69.11s-.09,0-.14.07l.06.07S116,69.12,116,69.11Z"/><path class="cls-19" d="M115.86,69.18l-.08-.11C115.79,69.18,115.82,69.19,115.86,69.18Z"/><polygon class="cls-19" points="115.68 69.72 115.85 69.89 115.67 69.69 115.68 69.72"/><polygon class="cls-19" points="115.92 68.66 116.02 68.71 115.87 68.61 115.92 68.66"/><path class="cls-19" d="M115.86,68.36c.08,0,.1-.09.16,0a.48.48,0,0,0-.17-.18A.23.23,0,0,1,115.86,68.36Z"/><path class="cls-19" d="M115.75,68a1,1,0,0,0,.1.09A.18.18,0,0,0,115.75,68Z"/><path class="cls-19" d="M115.76,68.87s.08-.05.09-.12l-.1.07Z"/><path class="cls-19" d="M115.75,68.82h0v0Z"/><path class="cls-19" d="M115.76,68.88h0S115.75,68.88,115.76,68.88Z"/><path class="cls-19" d="M115.72,69.4c-.07-.06-.16-.19-.22,0S115.62,69.31,115.72,69.4Z"/><path class="cls-19" d="M115.64,69v.13s.06,0,.1,0Z"/><polygon class="cls-19" points="115.59 68.9 115.64 68.96 115.64 68.91 115.59 68.9"/><path class="cls-19" d="M115.69,68.27a.4.4,0,0,1-.09-.17.81.81,0,0,0,0,.22S115.71,68.34,115.69,68.27Z"/><path class="cls-19" d="M115.71,68.54h0S115.69,68.54,115.71,68.54Z"/><polygon class="cls-19" points="115.48 67.44 115.47 67.45 115.49 67.45 115.48 67.44"/><path class="cls-19" d="M115.59,68.33a.09.09,0,0,0,.06.11.42.42,0,0,1,0-.12S115.58,68.32,115.59,68.33Z"/><path class="cls-19" d="M115.67,67.86a.42.42,0,0,0,0,.1S115.7,67.87,115.67,67.86Z"/><path class="cls-19" d="M115.73,68.5h0S115.74,68.49,115.73,68.5Z"/><path class="cls-19" d="M115.73,68.5l-.08-.06a.26.26,0,0,0,0,.09Z"/><path class="cls-19" d="M114.77,67.36a.17.17,0,0,1,.14.26c.09.11.4,0,.56-.17,0,0-.08,0-.16-.1,0,.05-.08.3-.19.21s0-.14,0-.23c-.11.09-.21-.18-.39-.11l.09.13S114.79,67.32,114.77,67.36Z"/><path class="cls-19" d="M115.5,67.69l0,0a.52.52,0,0,1,.1-.2c-.06-.08-.1-.09-.13-.09l0,.26Z"/><path class="cls-19" d="M115.56,68c-.11,0-.18-.14-.28,0s.11.09.17.17c-.07-.24.07.06.1-.13a.43.43,0,0,1,0,.13l0-.14h-.07c0-.08,0,0,0,0h0l-.1-.23A.91.91,0,0,0,115.56,68Z"/><path class="cls-19" d="M115.25,69.27h0S115.25,69.24,115.25,69.27Z"/><path class="cls-19" d="M115.29,69.16s.07,0,.07.08,0,0-.09,0,.1.11.13,0h0c0-.11.13-.25.15-.24A1.11,1.11,0,0,0,115.29,69.16Z"/><path class="cls-19" d="M115.4,68.56l-.09-.19-.07.12h.05C115.29,68.59,115.36,68.56,115.4,68.56Z"/><polygon class="cls-19" points="115.53 67.41 115.65 67.42 115.47 67.33 115.53 67.41"/><polygon class="cls-19" points="115.47 67.15 115.57 67.14 115.5 67.08 115.47 67.15"/><path class="cls-19" d="M111.62,52.64l0-.06Z"/><path class="cls-19" d="M111.69,53.06h0S111.69,53.05,111.69,53.06Z"/><path class="cls-19" d="M114.31,60.74c.08-.1.2-.22.09-.19l-.1,0A.16.16,0,0,1,114.31,60.74Z"/><path class="cls-19" d="M112.89,56.46l0,0,.11,0Z"/><path class="cls-19" d="M112.43,56.48l0-.12A.73.73,0,0,0,112.43,56.48Z"/><path class="cls-19" d="M111.09,50.32l-.12,0C111,50.38,111,50.32,111.09,50.32Z"/><path class="cls-19" d="M115,64.48a.54.54,0,0,0,0-.19C114.94,64.39,114.86,64.48,115,64.48Z"/><path class="cls-19" d="M112.79,52.6a.1.1,0,0,0-.08,0S112.76,52.61,112.79,52.6Z"/><path class="cls-19" d="M115,64.07l0,.05a.43.43,0,0,1,.06.17A.17.17,0,0,0,115,64.07Z"/><path class="cls-19" d="M107.59,45.09h0S107.58,45.09,107.59,45.09Z"/><path class="cls-19" d="M105,45.41l.07-.08A.31.31,0,0,0,105,45.41Z"/><path class="cls-19" d="M115.33,66.09s0,0,0,0Z"/><path class="cls-19" d="M115,66.44a.11.11,0,0,0-.06,0A.08.08,0,0,1,115,66.44Z"/><path class="cls-19" d="M114.18,63.64h0S114.17,63.65,114.18,63.64Z"/><path class="cls-19" d="M115.3,66.18s0-.05,0-.07A.1.1,0,0,0,115.3,66.18Z"/><path class="cls-19" d="M115.35,66.16v0S115.37,66.21,115.35,66.16Z"/><path class="cls-19" d="M115.31,66a.38.38,0,0,1,0,.1s0,0,0,0Z"/><path class="cls-19" d="M110.76,46.33v0C110.71,46.26,110.73,46.29,110.76,46.33Z"/><polygon class="cls-19" points="112.94 59.5 112.95 59.5 112.95 59.49 112.94 59.5"/><path class="cls-19" d="M112.83,59.31c.15.06.14.12.12.18l.3-.12Z"/><path class="cls-19" d="M111.41,51.62l-.07.15c-.19-.14-.16-.27-.27-.11.34,0,.13.53.47.49l-.05.11s0,0,0-.06c-.13.21.27.09.26.33,0,.09,0,.15-.1.11l.12.16c0,.05-.06.05-.06,0l.07.27h0a1,1,0,0,1,.2.14c0,.07,0,0-.08,0l.11.14c-.08.08-.18,0-.19-.14-.31.2.11.11,0,.45l-.07-.14c-.17.13-.09.23-.17.41,0-.05.24-.37.35-.22s0,.11.06.19c-.12,0-.07.1,0,.21l-.16,0c.06.11.14.08.22.14s-.1.18-.2.23c0,.21.17-.18.24.06s.06.3.19.49c0,.13-.1,0-.14.05l.15.08s0,0-.06,0,.16,0,.23.11-.2.34,0,.48c0,.05-.1,0-.15,0a1.3,1.3,0,0,0,.34.36l-.08.19c.1-.15.27,0,.41.1l.11-.13.12.21s-.08,0-.15,0l0,0c0,.09-.15.06-.24,0l.08-.1a.58.58,0,0,0-.31,0,.13.13,0,0,1,0,.07s0,0-.06,0,0,0,.07.06l-.17.08h.07l-.06.31c.22.18.51.31.64.63-.14-.06-.21,0-.36,0,.14-.12-.12-.24-.12-.42,0,.09-.07.09-.1.07l.2.28c-.13,0-.08.08-.12.17.24-.1.21.2.3.31-.08,0-.17,0-.18-.15-.15.2.33.17.2.36,0,0,0-.06,0-.07s.07.3,0,.26v0c0,.26.13.75.35.75a1.55,1.55,0,0,1-.31,0l.79.31c-.19,0-.59.22-.73,0a.28.28,0,0,0,.06.26s.24-.15.26-.1c-.17.19-.08.13-.22.34,0-.07.32,0,.33,0s-.28.05-.32,0l.32.19c-.06,0-.23,0-.3.1s0,.2.07.26l0-.11c0,.27.44.19.47.46-.06,0-.36,0-.37.12.15,0,.73.15.88.37l-.07.06.12.16a4.77,4.77,0,0,1-.94-.45c0,.11-.09.05-.06.2s-.13-.06-.14-.11v.36c.16,0,.21.23.35.2l-.24-.35a.48.48,0,0,1,.52.38c0,.08-.3,0-.35,0s.15.21.11.24l-.11-.09c0,.15.26.18.14.38s-.19.2-.09.2a2,2,0,0,1,.91-.22,2,2,0,0,1-.21.42c-.13.12-.38-.08-.49,0a.26.26,0,0,1,.13.06c0,.06-.14,0-.1.12s0,.27.15,0c.07.12,0,.14,0,.29.1-.07.39.06.46.18a.27.27,0,0,0-.12.06c0,.26,0,.42,0,.66,0,0-.07.15-.15.12s.1,0,.12.12-.06-.16-.21,0c.1,0,.17.17.25.26.14-.06,0-.25-.1-.34a.64.64,0,0,1,.6.34c.09.19-.12.11-.08.14,0,.39.42.26.33.6-.11.15-.27,0-.36.1-.08-.16,0-.27,0-.38l0,.15s-.11-.15-.08-.21c-.1.12.09.64,0,.95.06,0,.12.12.17.07l0-.09c.09-.1.18.15.21,0,.1.12.24.23.21.42l-.15.06s.07-.13,0-.17-.16.3.05.34l.09-.14c.1.11.28.24.26.4.14-.09,0,0,.13-.17-.2.13-.06-.4-.26-.2.18-.15,0-.21.2-.39-.05,0-.09.07-.09-.07l0,0h0a.13.13,0,0,1-.06.08c-.13,0-.16-.25-.23-.31s.06,0,.11,0l-.11-.08c.11,0,.15-.24.24-.07l0-.17a.33.33,0,0,0,0-.31c0-.08-.15-.17-.06-.12l-.11-.25h0c0-.26-.28-.49-.13-.81a.63.63,0,0,1-.09-.31l.09-.05c-.05-.1,0-.34-.07-.37.24-.17,0-.54,0-.74h-.12a1.28,1.28,0,0,0-.16-.4l-.11,0c-.11-.13,0-.38,0-.6,0,0,0,.06,0,.11.2-.31-.28-.53-.14-.81a.11.11,0,0,1,0-.14h0v0l0-.09a.2.2,0,0,0,0,.08.83.83,0,0,0-.08-.18l.11,0h0c0-.08-.07,0-.15,0l-.09-.07c.18-.09-.1-.17.09-.29-.1,0-.13-.33-.35-.33,0,0,0,0,0,0s0-.17,0-.22l.15-.06-.23-.14c.07-.11.11-.17.25-.09-.22-.21-.1-.18-.32-.36h.1c0-.07-.17-.17-.1-.23s-.12-.83,0-1.28c-.27.13.09-.23-.14-.2.07,0,.1-.11.17-.05-.11-.21,0-.35-.17-.46.06,0,.11,0,.15,0s-.08-.06,0-.09.06,0,.1,0c0-.22-.27-.21-.47-.19.08-.13,0-.18-.09-.24.06,0,.11-.13.16,0,0-.08,0-.49-.15-.47,0,0,0-.11,0-.13a2.23,2.23,0,0,0,0-.36l0,.05c-.2,0-.07-.13-.12-.27h0c.08-.34-.09-.12,0-.47l-.11,0c-.26,0,.1-.3,0-.47l-.06.08c-.1-.08.3-.34.31-.44s0,0,.06,0c.11-.29-.16,0-.23-.19s.22,0,.22-.13-.34-.33-.22-.54c0,.05-.11.1-.17,0s.17-.42,0-.5c0,0,0,0,0,0s-.15-.33-.27-.37c.39-.17-.31-.62.06-.69l-.08-.32h0a.34.34,0,0,0-.22-.33c0-.05.06,0,.08,0,0-.32,0-.35-.23-.57l.12,0c-.09-.05.11-.47-.09-.74a.07.07,0,0,1,.06,0c-.2-.31.2-.87-.27-.91l-.15-.2c0,.29-.2,0-.25.12-.05-.11.08-.31.13-.18l0,0c.24,0,0-.37.18-.4-.11-.56-.09-1.13-.17-1.66l-.17.09,0-.18c0-.06.13-.09.14,0,.09-.09-.12-.21-.16-.2,0-.27.23.06.22,0l0-.11v0c-.09-.08-.17,0-.2-.27s.09-.11.09-.18,0,0,0-.09-.14-.19-.21-.29a1,1,0,0,1,0,.18c-.17,0-.22-.2-.24,0,0-.16-.17-.35-.33-.5s-.4-.23-.42-.3a1.09,1.09,0,0,1-.5-.16.1.1,0,0,1-.15.13c.18-.28-.22-.27-.3-.52.09.18-.5-.06-.35.2-.13-.06,0-.13-.08-.23-.36.08-.78-.13-1.21,0,0,0,.08.1,0,.18a1.53,1.53,0,0,0-.27-.17c-.07.05,0,.27-.19.16,0,0,.08.08,0,.11-.89,0-1.38.83-2.22,1,.14,0,.09.05,0,.1s.08.09.12.12l-.35.11c.07.16-.25.27-.15.4l0-.09c0,.22.43.14.58.33,0-.26.48,0,.46-.41.07,0,0,.09.07.11s0-.17.15-.22v0a2,2,0,0,1,.84-.38l-.09-.09c.09,0,.12,0,.17,0,0-.2-.22.11-.23-.11.2.15.56-.26.72,0,.12,0-.08-.11,0-.15l0,.06v-.1a.19.19,0,0,1,.17.13s0,0-.07.05.28-.11.32-.08l-.12,0a7.21,7.21,0,0,1,1-.13v-.06c.27,0,.19.07.46.14h0a.24.24,0,0,1,.22,0c-.09,0,.07.17,0,.2.3,0,.16,0,.43-.11v.1c.09,0,.12-.07.26,0-.14,0,0,.17-.17.19.14.3.48.12.4.43.27-.11-.1-.28,0-.27s.22-.07.27,0-.1.3-.09.41,0,0,0,0,.1,0,0,.19c.16,0,0,.16.22.15l-.09-.24c.07.13.32.22.25.47a.45.45,0,0,1-.14-.11c-.05.07.06.12,0,.2s-.09-.29-.27-.41c-.07.08.2.25,0,.21.29.06,0,.27.25.41h-.12s.09.08.1.13l-.17-.07c.15.13-.06.3,0,.43,0-.29.13-.09.19-.23.23.33-.26.26-.14.66,0-.06,0-.22.11-.15a.5.5,0,0,1-.09.25c.07.27.11-.06.2,0-.12.12.08.12.15.23l-.12,0c0,.32.26,0,.22.33l-.18-.09.06.14h-.14c.13.14.11.19.1.35a.17.17,0,0,1,.25.12c0,.1-.12,0-.07.15-.08,0-.18-.06-.09-.16s-.08,0-.12,0,0,.25,0,.32a.19.19,0,0,1,0-.08l.22.25s-.08,0-.12,0,.08.09.11.17-.2,0-.27-.09l.15.24s-.09.16-.13.13c0,.16.25.33.21.53a.15.15,0,0,1,.07.07c0,.18-.08.37.09.56l-.15.15c.07.16.19-.2.3.07s-.13.1-.17.18c.11.08.32.22.21.43C111.41,51.72,111.43,51.67,111.41,51.62Zm.45,2.07s-.12-.1-.06-.14S111.89,53.61,111.86,53.69Zm.85,3.12s0-.07,0-.13A.15.15,0,0,1,112.71,56.81Zm2.42,8.69h0C115.15,65.4,115.14,65.43,115.13,65.5Zm0,.2h0s0,0,0-.1S115.07,65.65,115.11,65.7Zm-3.68-20.22,0,.07C111.36,45.44,111.39,45.46,111.43,45.48Z"/><path class="cls-19" d="M112.49,56.48l.06,0A0,0,0,0,0,112.49,56.48Z"/><polygon class="cls-19" points="111.11 50.33 111.11 50.32 111.09 50.32 111.11 50.33"/><path class="cls-19" d="M113.58,63a.19.19,0,0,1,0-.09S113.58,62.92,113.58,63Z"/><path class="cls-19" d="M115.49,66.65l0-.11a.17.17,0,0,1,0,.11S115.48,66.62,115.49,66.65Z"/><path class="cls-19" d="M114.94,67.83s0,0,0,0l0,0C115,67.79,115,67.75,114.94,67.83Z"/><path class="cls-19" d="M115.11,66.84c-.09,0,0,.09,0,.17h0C115.24,67,115.18,66.92,115.11,66.84Z"/><path class="cls-19" d="M115.1,67a.24.24,0,0,1,0,.08C115.18,67.11,115.13,67.08,115.1,67Z"/><path class="cls-19" d="M115.22,65.92s.13,0,.09,0C115.45,66,115.11,65.72,115.22,65.92Z"/><polygon class="cls-19" points="114.8 66.96 114.91 66.91 114.81 66.88 114.8 66.96"/><path class="cls-19" d="M114.77,66.28v.14s0,0,0,0S114.8,66.27,114.77,66.28Z"/><path class="cls-19" d="M114.81,66.45a.12.12,0,0,0,0,.11A.49.49,0,0,0,114.81,66.45Z"/><polygon class="cls-19" points="114.73 66.79 114.75 66.74 114.74 66.64 114.73 66.79"/><path class="cls-19" d="M114.53,64.84l-.06-.14s-.06,0,0,.08S114.5,64.87,114.53,64.84Z"/><path class="cls-19" d="M114.27,65.34s0,0,.09-.08l-.16,0Z"/><path class="cls-19" d="M114.16,64.92s-.16-.19-.11,0C114.09,64.92,114.15,65.06,114.16,64.92Z"/><polygon class="cls-19" points="113.96 62.67 113.97 62.71 114.22 62.66 113.96 62.67"/><path class="cls-19" d="M113,60.84c0,.18.16,0,.12.18s0-.14.09-.11S113.17,60.76,113,60.84Z"/><path class="cls-19" d="M113.22,60.91l0,.05A.12.12,0,0,0,113.22,60.91Z"/><polygon class="cls-19" points="104.55 45.63 104.43 45.69 104.55 45.69 104.55 45.63"/><path class="cls-19" d="M104.53,45.94l-.14-.09.06.16S104.49,45.93,104.53,45.94Z"/><path class="cls-19" d="M111.59,54.06h0s0-.05,0-.1Z"/><polygon class="cls-19" points="111.44 52.52 111.44 52.55 111.58 52.48 111.44 52.52"/><path class="cls-19" d="M111,51.28c0,.06,0,.11,0,.17C111,51.34,111.21,51.24,111,51.28Z"/></g><path class="cls-22" d="M53,215.49s1.41-1.9,1.41-2.61c0,0,10.62,10.53,24.92.67,0,0,.84,1.58.94,1.94,0,.14.15.32.1.45-.61,1.82-2.63,3.82-14.56,3.33C52.64,218.72,53.1,217.14,53,215.49Z"/><path class="cls-22" d="M54.8,212.46a10.76,10.76,0,0,0,.75-2.1s7.38,7.8,22.38.6l.37,1S68.68,220.86,54.8,212.46Z"/><path class="cls-22" d="M85.24,234.14c0,1.13-7.29,2.64-15.77,2.64s-18.15-1.51-18.15-2.64,9-.18,17.49-.18S85.24,233,85.24,234.14Z"/><path class="cls-22" d="M50,218.88s1.49-.52,1.49-1.12c0,0,13.34,8.17,30.57-.19a5.38,5.38,0,0,1,1,1.05c0,.12.82.54.71.6-1.87,1.05-3.92,3.46-18,3.19C50,222.12,50.36,219,50,218.88Z"/><path class="cls-10" d="M77.45,57.36s-7.6-9-1.06-17.51,5.2-6.05,6.54-8.48c2.61-4.74-4.19-14.27-9.54-18-4.18-2.94,8.76.05,14.9,14a4.71,4.71,0,0,1-1.11,5.27C82.17,37,76.39,39.32,77.45,57.36Z"/><path class="cls-10" d="M64,56.29c-1.78,6.18-2.32-14.17,5.81-25.09,0,0,4.64-6-2.56-12.31,0,0-7-4.18-5.11-8.13,0,0,3.09-6.71.47-10.22-1-1.33,3.71-.46,4,5.35,0,0-1.33,5.48.23,7.2,3.36,3.7,11.45,10.49,7.43,18.58C71.29,37.64,68.91,39.33,64,56.29Z"/><path class="cls-23" d="M103.34,95.47l12.17,11.23a.86.86,0,0,0,1.34-.23l11.7-22a.87.87,0,0,0-.22-1.08l-11.33-9a.86.86,0,0,0-1.26.21L103.2,94.37A.88.88,0,0,0,103.34,95.47Z"/><path class="cls-24" d="M121.33,105.49l-18.08-9.56a1.18,1.18,0,0,1-.56-1.56l12.78-24.16a1.14,1.14,0,0,1,1.6-.42C130,78,135.15,79.34,135.15,79.34a1.18,1.18,0,0,1,.55,1.56s-7.71,8.54-12.77,24.17A1.12,1.12,0,0,1,121.33,105.49Z"/><ellipse class="cls-25" cx="119.47" cy="87.57" rx="1.4" ry="1.31"/><path class="cls-25" d="M120.41,86.27s-3.27-.93-1.42-2.22,9-1.81,9-1.81-3.89,4.71-5,6C121.13,90.26,118.33,88.58,120.41,86.27Z"/><path class="cls-26" d="M120.41,86.27c2.37-2.06,7.55-4,7.55-4"/><path class="cls-25" d="M121.41,88.73s.53-2.89,2-1.54,2.8,6.76,2.8,6.76-5.08-2-6.48-2.79C117.52,90,118.86,87.34,121.41,88.73Z"/><path class="cls-26" d="M121.41,88.73A27,27,0,0,1,126.25,94"/><path class="cls-25" d="M117.7,87.42s.43-2.72-1.51-2c-2.94,1.1-5.2,6.75-5.2,6.75s6-1.59,7.58-2C121.1,89.53,120.57,86.66,117.7,87.42Z"/><path class="cls-26" d="M117.7,87.42C115,88.49,111,92.17,111,92.17"/><path class="cls-25" d="M118.46,85.55s3-.28,1.58-1.92-6.94-3.4-6.94-3.4S115.19,85.51,116,87C117.19,89.35,119.88,88.23,118.46,85.55Z"/><path class="cls-26" d="M118.46,85.55a31.35,31.35,0,0,0-5.36-5.32"/><path class="cls-25" d="M119.6,86s-1.38,1.09-1.37-.39,2-5.67,2-5.67.8,4.67,1,5.81C121.52,87.55,120,88.06,119.6,86Z"/><path class="cls-26" d="M119.6,86a32.13,32.13,0,0,1,.59-6.06"/><path class="cls-25" d="M120.11,87.29s-.66-1.08.2-1.1,2.81,1.33,2.81,1.33-2.17.86-2.83,1C119.24,88.85,118.92,87.61,120.11,87.29Z"/><path class="cls-26" d="M120.11,87.29a11.06,11.06,0,0,1,3,.23"/><path class="cls-25" d="M118.94,87.17s.66-1.09-.2-1.1-2.81,1.33-2.81,1.33,2.17.86,2.83,1C119.81,88.72,120.13,87.48,118.94,87.17Z"/><path class="cls-26" d="M118.94,87.17a11.06,11.06,0,0,0-3,.23"/><g class="cls-12"><path class="cls-27" d="M83.4,156c-6.12,1.39-17.77-.6-21.74-3-.1-.06-.25,0-.37,0-7.21-.33-8.89-4.46-8.68-5.84L58,125.78c3.34-3.48,0-7.68,13-6l25.08,3.81c2,.3,2.19,7.37,2,8.75l-3.15,21.12C95.1,155.94,87.37,155.06,83.4,156Z"/><path class="cls-14" d="M83.69,156.52c-.2,0-.11.12-.13.14C83.87,156.57,83.67,156.49,83.69,156.52Z"/><polygon class="cls-14" points="86.99 155.9 86.93 155.95 87.43 155.81 86.99 155.9"/><path class="cls-14" d="M90.19,155.72c-.31-.16-1.16.1-1.74.07l-.09,0-.25.16C88.8,155.85,89.7,155.7,90.19,155.72Z"/><path class="cls-14" d="M92,155.94c-.11-.06.38-.1-.41,0h.08Z"/><path class="cls-14" d="M91.63,156c-.35,0,.23,0,0,0Z"/><path class="cls-14" d="M93.25,155.68l-.46.15c.1,0,.53-.06.38,0C93.65,155.69,93.54,155.67,93.25,155.68Z"/><path class="cls-14" d="M93.66,155.43l-.24.09S93.54,155.52,93.66,155.43Z"/><path class="cls-14" d="M92.92,155.7l.5-.18c-.07,0-.09-.06-.23.08C93.22,155.54,93.13,155.61,92.92,155.7Z"/><path class="cls-14" d="M92.63,155.72c-.27,0-.6,0-.15-.1C91.61,155.77,91.75,155.88,92.63,155.72Z"/><path class="cls-14" d="M90.34,155.52l-.33,0-.29.08C89.86,155.53,90.37,155.58,90.34,155.52Z"/><path class="cls-14" d="M95.71,153.4s-.12.14-.17.16,0,0,0,.09a1.31,1.31,0,0,1,0,.28.92.92,0,0,0,0-.25c0-.1,0-.05,0-.09S95.68,153.41,95.71,153.4Z"/><path class="cls-14" d="M95.54,153.56v-.49C95.48,153.5,95.49,153.58,95.54,153.56Z"/><path class="cls-14" d="M93.68,155.22a8,8,0,0,1-.8.34,8.09,8.09,0,0,0,1-.4Z"/><polygon class="cls-14" points="96 151.55 96.04 151.84 95.98 151.33 96 151.55"/><path class="cls-14" d="M96.16,150.31c0,.22.17-.26.18,0a4.4,4.4,0,0,0,0-.89A3.22,3.22,0,0,1,96.16,150.31Z"/><path class="cls-14" d="M96.32,148.93c0,.14,0,.29,0,.45A2.26,2.26,0,0,0,96.32,148.93Z"/><path class="cls-14" d="M95.69,152.24a.66.66,0,0,0,.16-.36l-.13.17Z"/><path class="cls-14" d="M95.72,152.06h0l.07-.41Z"/><path class="cls-14" d="M95.68,152.29v0S95.67,152.27,95.68,152.29Z"/><path class="cls-14" d="M95,154.51a1.25,1.25,0,0,0,.21-.66c0-.16,0-.15-.18.19S95.31,153.94,95,154.51Z"/><path class="cls-14" d="M95.51,152.51l-.1.51s.09-.09.1,0Z"/><polygon class="cls-14" points="95.52 152.25 95.51 152.51 95.55 152.32 95.52 152.25"/><path class="cls-14" d="M96.09,149.8a4.11,4.11,0,0,1,.06-.75c-.07.29-.12.6-.17.89C96,150,96.05,150.12,96.09,149.8Z"/><path class="cls-14" d="M95.9,150.9v-.05S95.88,150.9,95.9,150.9Z"/><polygon class="cls-14" points="96.55 146.34 96.53 146.38 96.54 146.39 96.55 146.34"/><path class="cls-14" d="M96,150a1.22,1.22,0,0,0,0,.48c0-.17,0-.34.06-.53C96,149.92,96,149.91,96,150Z"/><path class="cls-14" d="M96.39,148.17l-.12.38A1.14,1.14,0,0,0,96.39,148.17Z"/><path class="cls-14" d="M95.94,150.78v0C96,150.74,96,150.75,95.94,150.78Z"/><path class="cls-14" d="M95.94,150.78a2.85,2.85,0,0,0,0-.31c0,.14,0,.27,0,.38A.21.21,0,0,1,95.94,150.78Z"/><path class="cls-14" d="M96,145.41a1.74,1.74,0,0,1-.09,1.14c0,.51.37.24.62-.17,0,0-.08,0-.07-.55-.08.17-.29,1.12-.31.67a1.87,1.87,0,0,1,.21-.87c-.16.26,0-.88-.25-.76l0,.6S96.05,145.25,96,145.41Z"/><path class="cls-14" d="M96.37,147.35l0,.21a4.17,4.17,0,0,1,.24-.7c0-.36,0-.44,0-.47l-.16,1Z"/><path class="cls-14" d="M96.21,148.51c-.08-.18,0-.7-.21-.4-.09.61,0,.44,0,.82.13-1,0,.29.19-.42,0,.2,0,.38,0,.54l.12-.5v0h0s0,.05,0,0v0a.1.1,0,0,1,0-.05c.07-.29,0,0,0,.05h0l.09-1C96.31,147.77,96.27,148,96.21,148.51Z"/><path class="cls-14" d="M94.93,153.43l0,0C95,153.33,95,153.3,94.93,153.43Z"/><path class="cls-14" d="M95.06,153a1,1,0,0,1,0,.38c-.06.2,0,0-.09,0s.06.46.12.07v-.07a2.27,2.27,0,0,1,.31-.82A1.33,1.33,0,0,0,95.06,153Z"/><path class="cls-14" d="M95.61,150.73l.07-.84-.15.41h.06C95.49,150.76,95.58,150.67,95.61,150.73Z"/><polygon class="cls-14" points="96.62 146.25 96.72 146.38 96.63 145.88 96.62 146.25"/><polygon class="cls-14" points="96.77 145.17 96.86 145.23 96.84 144.93 96.77 145.17"/><path class="cls-14" d="M59.76,124.17l-.1.25C59.71,124.3,59.74,124.23,59.76,124.17Z"/><path class="cls-14" d="M60.49,122.53l0,0C60.46,122.56,60.46,122.6,60.49,122.53Z"/><path class="cls-14" d="M91.62,122.34c-.34-.15-.72-.35-.69-.23l.09.12A2.69,2.69,0,0,1,91.62,122.34Z"/><path class="cls-14" d="M73.39,120.23l.1,0,.26-.06Z"/><path class="cls-14" d="M73.08,120.63l-.46-.14A3.34,3.34,0,0,0,73.08,120.63Z"/><path class="cls-14" d="M56.83,133.21l0,.3C57,133.07,56.87,133.25,56.83,133.21Z"/><path class="cls-14" d="M98.37,134.12a7.12,7.12,0,0,0,.18-.75C98.43,133.73,98.3,134,98.37,134.12Z"/><path class="cls-14" d="M59,123.05c0,.14,0,.21,0,.21S59,123,59,123.05Z"/><path class="cls-14" d="M98.68,132.48l-.05.16a5.07,5.07,0,0,1-.08.73A2.16,2.16,0,0,0,98.68,132.48Z"/><path class="cls-14" d="M70.3,155l.07,0S70.35,155,70.3,155Z"/><path class="cls-14" d="M80.46,156.82l-.42,0A2.85,2.85,0,0,0,80.46,156.82Z"/><path class="cls-14" d="M97.46,140.84c0,.23,0,0,0,0Z"/><path class="cls-14" d="M96.87,141.89s0-.09,0-.1A.15.15,0,0,1,96.87,141.89Z"/><path class="cls-14" d="M98.06,130.09v0C98,130.14,98,130.12,98.06,130.09Z"/><path class="cls-14" d="M97.36,141.18c0-.09,0-.18.08-.29A2.79,2.79,0,0,0,97.36,141.18Z"/><path class="cls-14" d="M97.42,141.14l0,.2S97.41,141.34,97.42,141.14Z"/><path class="cls-14" d="M97.5,140.52l-.06.37s0-.06,0,0Z"/><path class="cls-14" d="M53.34,148.78v.05C53.5,149,53.43,148.92,53.34,148.78Z"/><polygon class="cls-14" points="85.5 122.55 85.53 122.55 85.5 122.54 85.5 122.55"/><path class="cls-14" d="M84.67,122.5a1.5,1.5,0,0,1,.83,0l-.23-.35Z"/><path class="cls-14" d="M58.07,127.88l.24-.55c0,.73-.19,1.21.07.71-.3-.12.51-2.37.18-2.07l.33-.27c-.08.09-.08.11-.16.2a.85.85,0,0,0,.41-.62,2.36,2.36,0,0,1,.35-.84c.18-.3.34-.5.27-.27.09-.25.16-.49.24-.74s.13-.13,0,.08c.15-.36.28-.72.43-1h0a2.52,2.52,0,0,1,.16-.67c.17-.21,0,.13,0,.09a3.11,3.11,0,0,1,.25-.52c.22-.11,0,.27-.21.62a.75.75,0,0,0,.39-.41,2.32,2.32,0,0,1,.18-.31,2.76,2.76,0,0,1,.5-.35l-.34.34a1.58,1.58,0,0,0,.49-.2,2.23,2.23,0,0,1,.65-.23,3.71,3.71,0,0,0-.55.06c-.2,0-.35,0-.11-.16s.33-.18.64-.33c.05.13.31-.06.73-.13v.16a2.24,2.24,0,0,0,.63-.32.89.89,0,0,1,.77.17c.82,0-.59-.15.39-.26a13.46,13.46,0,0,0,2-.08c.5.09-.09.09.09.15l.45-.1c.1,0,.07,0,0,.07.37,0,0-.16.63-.16.18-.19,1.18.38,1.93.26.17.06-.1.08-.06.15,1,0,.87,0,1.72,0l.68.21c-.49-.19.18-.24.77-.26L73,120l.93,0c.11,0,0,.09-.15.13h.17c.32.1.14.17-.11.22l-.32-.15c-.24.07-.46.14-.43.24a1.56,1.56,0,0,1,.31,0c-.07,0-.11,0-.08.06a.76.76,0,0,0,.28,0l.19.21.06-.06L75,121a16.16,16.16,0,0,1,3-.06c-.36.08-.1.2-.14.35-.35-.22-1.07-.09-1.77-.23.36.07.27.13.17.14l1.29,0c0,.12.25.13.57.23-.21-.28,1,0,1.49,0,0,.09-.12.16-.74,0,.67.29.94-.15,1.59.11-.15,0-.23,0-.3,0,.37,0,1.23.17,1,.21l-.16,0a11.72,11.72,0,0,0,3.28.28,1,1,0,0,1-.24.27l1.91-.44c-.18.16.37.68-.49.66a4.07,4.07,0,0,0,1,.15c-.16,0-.37-.32-.14-.31a6.85,6.85,0,0,0,1.15.46c-.24-.07.07-.31.46-.25-.07,0,0,.29-.15.3l1-.13c-.25,0-.08.23.13.34-.1-.07.84.13,1.1.14l-.4-.13c1.09.21,1.14-.22,2.23,0-.14,0-.38.3.17.42a5.83,5.83,0,0,1,2.2-.48l.18.11.75,0a18.67,18.67,0,0,1-2.59.47,1.85,1.85,0,0,0,.72.2c.21.11-.35.06-.53,0l1.42.27c0-.18,1.12,0,1.09-.15l-1.58-.06c0-.18,1-.34,2-.15.24.1-.24.26-.23.32a1.86,1.86,0,0,1,.42,0,.4.4,0,0,1,.33.18.48.48,0,0,0-.25-.07,1.25,1.25,0,0,1,.73.92c.08.21,0,.68.11.69.09-.39.61-.67.84-.46a7.48,7.48,0,0,1,.08,1.57c-.08.4-.46-.51-.53-.16,0,0,.15.2.18.29,0,.24-.15-.08,0,.44.18.06.12,1.07.18.23a9.3,9.3,0,0,1,.1,1.16c.09-.21.42.52.49,1.05-.05,0-.1.1-.12.16a13.34,13.34,0,0,1-.19,2.65c-.06.09-.18.56-.22.34a1.93,1.93,0,0,1,0,.6c-.23.58.08-.69-.16-.26a4.94,4.94,0,0,1,0,1.27c.17-.12.18-1,.19-1.46.21,0,.31.82.25,1.88-.07.84-.19.34-.18.49-.27,1.56.17,1.39-.18,2.66-.21.49-.27,0-.38.08a14.06,14.06,0,0,1,.3-1.48l-.14.55a3.68,3.68,0,0,1,.09-.92c-.18.42-.41,2.64-.7,3.82,0,.22,0,.6.08.43l0-.38c.16-.33,0,.74.16.26a7.14,7.14,0,0,1-.13,1.83l-.17.11a1.52,1.52,0,0,0,.14-.67c0,.31-.37,1.08-.22,1.44l.18-.49a7.56,7.56,0,0,1-.08,1.81c.2-.27,0-.15.25-.58-.28.36.25-1.63-.07-1a12,12,0,0,0,.47-1.37c-.05,0-.13.2,0-.33,0,0,0-.09,0-.13v0s0,0,0,0a1.7,1.7,0,0,1-.12.26,9.76,9.76,0,0,1,0-1.43c.07-.32,0,.14.11,0l0-.44c.12,0,.31-.82.26-.06l.11-.67a5.1,5.1,0,0,0,.23-1.27c.07-.32,0-.82,0-.53l.09-1.07h0a21.26,21.26,0,0,1,.51-3.33c0-.38,0-.8.07-1.4l.09-.12a7.75,7.75,0,0,0-.05-1.6c.25-.52-.13-2.27-.27-3.1h-.13a6.54,6.54,0,0,0-.61-1.79l-.09.09c-.12-.22-.25-.49-.44-.79a1.71,1.71,0,0,0-1.07-.8c-.23-.05-.44-.09-.67-.12a1,1,0,0,1,.46.06c-1.06-.42-2.35-.17-3.32-.5a1.67,1.67,0,0,1-.6-.1h.06l-.1,0-.34-.11.28.1-.78-.07-.1-.14H91c-.27-.09-.23,0-.09.13h-.39c-.2-.22-.76,0-1-.3-.21.07-1.45-.14-1.63.05,0,0-.09-.06.06,0a3.28,3.28,0,0,0-.92-.12l-.11-.18-.73.1c-.41-.15-.57-.23-.14-.29-1,0-.83,0-1.72,0l.06-.09a3.92,3.92,0,0,1-1-.1c-.66-.29-3.41-.54-5.15-1,.3.34-.8-.25-.9,0-.1-.09-.34-.16,0-.18a10.24,10.24,0,0,0-2-.22c-.1-.08.2-.07.12-.12a1.06,1.06,0,0,1-.39,0c-.08-.06.14,0,.29,0-.92-.13-1,.07-1.14.26a1.56,1.56,0,0,0-1-.11c-.16-.09-.42-.2.16-.13-.32-.06-2-.4-2-.24a1.49,1.49,0,0,0-.54-.07c-.73-.09-.8-.11-1.52-.18l.2,0c-.3.16-.6,0-1.19,0l0,0c-1.33-.21-.57,0-1.89-.19l.07.12c-.12.27-1.17-.19-2,0l.29,0a1.75,1.75,0,0,1-.82-.08,4.81,4.81,0,0,0-.86-.08c-.1,0,.14-.06.27-.1-1.19.09-.12.14-.94.44-.19,0,.13-.28-.46-.09A3,3,0,0,0,61,120c-.4.37-.75.84-1,1.15.15-.12.31-.23.13.14a5.44,5.44,0,0,0-1,1.92c0,.06-.07.08-.09.07-.1.44-.54,1.26-.61,1.53a1.11,1.11,0,0,0-.46.36l-.13.15-.22.27-.06.33,0,.24c-.1.63-.19,1.21-.37,1.16l-.31,1.33,0,0a4,4,0,0,0-.21,1.48c-.07.19-.07,0-.09,0A7.28,7.28,0,0,0,56,132.5l-.15.07c0,.3-.63,1.74-.8,3,0,0,0,0,0-.14-.2,1.39-1.15,3.17-.83,3.78l-.12.92c.33-1.15.15.23.34-.23-.09.46-.43,1.14-.31.58l0-.09c-.17-.26-.44,1.43-.59,1.36-.28,1.14-.59,2.26-.9,3.37l-.46,1.64,0,.21a1.06,1.06,0,0,0,0,.29,2.9,2.9,0,0,0,0,.52,3.89,3.89,0,0,0,.24.92l.08-.32a4.27,4.27,0,0,0,.31.77c.07.2,0,.34-.25-.22a1.41,1.41,0,0,0,.61.82c.64,1-.45-.23-.24.05l.31.38-.05-.1a9.17,9.17,0,0,1,.87.74c.31.32.09.24.22.36s0,.06.21.18a9.8,9.8,0,0,0,.85.58c-.09-.11-.19-.21-.27-.33.41.18.82.48.49.11a4.74,4.74,0,0,0,1.93,1c.87.28,1.72.41,1.92.47.64,0,1.2,0,2,.11-.14,0-.18-.07-.16-.11s0,0,.15,0,.17-.06.29,0c-.07.07,0,.14,0,.21a4.73,4.73,0,0,0,.63.42,2.84,2.84,0,0,1,.69.45c-.37-.3,1.75.62,1.14.15.49.21,0,.13.34.34,1.26.28,2.69.88,4.24,1.17,0,0-.21-.16.13-.16l.78.38c.31,0,.32-.19.85,0-.07,0-.18-.12,0-.1,3,.73,6.23.65,9.39.93-.44-.06-.15-.09.18-.11-.22,0,0-.11-.05-.16.44,0,.88.07,1.33.07.22-.18,1.41-.18,1.52-.39l-.41.11c.26-.14,0-.21-.21-.28s-.58-.16-.56-.28c-.58.29-1.6-.16-2.58.16-.22-.05.19-.08.07-.14A2.35,2.35,0,0,1,78,156l.06,0a25.71,25.71,0,0,1-4-.39l.12.13a3.66,3.66,0,0,1-.63-.14c-.46.13,1.07.12.65.27-.48-.27-2.69-.32-3-.67-.58-.09.15.17-.43.07l-.14-.1-.16.07c-.38-.08-.56-.21-.56-.28a2.2,2.2,0,0,0,.37,0,14.21,14.21,0,0,0-1.55-.3l.54.15c-1.59-.24-3.46-.82-5-1.19l.09.09a10.35,10.35,0,0,1-2-.86h0a2.87,2.87,0,0,1-.52-.19.81.81,0,0,0-.57-.1c.35-.06-.57-.15-.15-.21a5.43,5.43,0,0,0-1.48.15l-.18-.12a2,2,0,0,1-1,0c.53,0-.36-.23.23-.2-1.24-.47-2-.38-2.39-.89-.67,0,1,.6.65.5.24.19-.54,0-.92-.22s-.51-.6-1.3-1.24a1.67,1.67,0,0,0,.16.12c-.25-.29-.63-.43-.86-.85-.28-.11-.36-.48-.56-.44a4.78,4.78,0,0,0,.63.72A2.71,2.71,0,0,1,53,148.35l.32.43c-.07-.26-.25-.44-.27-.71.11,0,.19.27.35.57a2.43,2.43,0,0,0,.61.81c-.11-.24-.69-.8-.37-.67-.43-.23-.41-.88-.62-1.44l.12,0a.65.65,0,0,1,0-.45c0,.15,0,.29.09.33s0-.21,0-.35a3.45,3.45,0,0,1,.14-.42,3.32,3.32,0,0,0,.25-.83c-.29,1.19-.2.23-.41.71.21-1.49.51-.76.86-2.41,0,.23-.27.82-.24.46a4.8,4.8,0,0,1,.36-.88c.24-1.09-.16.13-.12-.34.23-.34.08-.55.15-1l.12,0c.38-1.21-.16-.39.2-1.47l0,.51.1-.59.11.15a5,5,0,0,1,.32-1.45c-.12.12-.19-.14-.06-.68.16-.36.06.23.24-.54a.89.89,0,0,1-.12.71s0,.19.06.24a7.31,7.31,0,0,0,.34-1.29,1.27,1.27,0,0,1-.11.3l.12-1.16c.09-.17.09,0,.09.13,0-.23,0-.4.1-.74.08.11.18.12.11.6l.16-1.1c.06-.06.25-.52.25-.37.21-.58.18-1.5.45-2.27a1.27,1.27,0,0,1,0-.3,11.46,11.46,0,0,0,.58-2.26l.29-.46c.14-.69-.38.62-.16-.54.15-.82.22-.26.34-.53a4.92,4.92,0,0,1,.34-1.88A6.78,6.78,0,0,1,58.07,127.88Zm3.83-7.14c-.13.08-.3.32-.42.34C61.52,120.87,61.65,120.81,61.9,120.74Zm12.73-.09a1.19,1.19,0,0,1-.53-.11A3,3,0,0,1,74.63,120.65Zm23.11,17.67v0C97.84,137.94,97.8,138.06,97.74,138.32Zm-.17.77c0,.08,0,.07,0,0a1.25,1.25,0,0,1,0-.43A.71.71,0,0,0,97.57,139.09Zm-43.26,12.1-.1-.13C54.51,151.27,54.41,151.23,54.31,151.19Z"/><path class="cls-14" d="M73.12,120.59a.18.18,0,0,1-.06-.08C73,120.52,73,120.54,73.12,120.59Z"/><path class="cls-14" d="M56.82,133.15v0a.05.05,0,0,0,0,0Z"/><path class="cls-14" d="M97.28,127.07a1.51,1.51,0,0,1,0-.31S97.25,126.83,97.28,127.07Z"/><path class="cls-14" d="M97.16,143.22l0-.5a1.81,1.81,0,0,1-.1.44S97.18,143.06,97.16,143.22Z"/><path class="cls-14" d="M95.78,147.41a1.64,1.64,0,0,1,0,.22h.06C95.87,147.31,95.85,147.09,95.78,147.41Z"/><path class="cls-14" d="M96.7,143.61c-.11,0-.12.34-.16.69v-.06C96.68,144.37,96.69,144,96.7,143.61Z"/><path class="cls-14" d="M96.54,144.39c0,.1,0,.21-.05.32S96.52,144.58,96.54,144.39Z"/><path class="cls-14" d="M97.49,140.08c0,.16.11.12.06.21C97.65,140.49,97.56,139.17,97.49,140.08Z"/><polygon class="cls-14" points="96.32 143.85 96.47 143.74 96.39 143.53 96.32 143.85"/><path class="cls-14" d="M96.82,141.12l-.11.55s0,.07,0,.15A3.19,3.19,0,0,0,96.82,141.12Z"/><path class="cls-14" d="M96.73,141.82a2.17,2.17,0,0,0,0,.45C96.69,142.18,96.72,142,96.73,141.82Z"/><polygon class="cls-14" points="96.4 143.08 96.45 142.92 96.52 142.53 96.4 143.08"/><path class="cls-14" d="M97.74,135.16l.05-.61c0-.07-.08.09-.1.32S97.68,135.25,97.74,135.16Z"/><path class="cls-14" d="M97.12,136.94a.57.57,0,0,1,.14-.25l-.15,0Z"/><path class="cls-14" d="M97.35,135.17c0-.07,0-.9-.1-.13C97.29,135.11,97.23,135.72,97.35,135.17Z"/><polygon class="cls-14" points="97.51 126.07 97.55 126.22 97.79 126.14 97.51 126.07"/><path class="cls-14" d="M90.88,123.54c.7.17.19-.13.83,0,.17,0-.52-.14-.34-.16C90.92,123.41,90.7,123.34,90.88,123.54Z"/><path class="cls-14" d="M91.37,123.42h0Z"/><path class="cls-14" d="M82.22,156.79l.49,0-.33,0Z"/><path class="cls-14" d="M83.1,156.44l.14.14.26-.2A1.18,1.18,0,0,1,83.1,156.44Z"/><path class="cls-14" d="M63,120.61l0,0a.63.63,0,0,0-.34.06Z"/><path class="cls-14" d="M59.61,124.81l0-.11-.23.12Z"/><path class="cls-14" d="M58,129.53c.06-.21.09-.47.15-.68C58,129.32,57.79,129.54,58,129.53Z"/></g><path class="cls-28" d="M127,176.55s-41.74-16-38.7,26.95c0,0,1.92,38.48,29.92,34.18,1.79-.27,3.29-3.06,7.27,0,0,0,28.36,9.95,34.48-33.27C160,204.41,165.15,164.45,127,176.55Z"/><path class="cls-1" d="M131.91,179.41c0,1-2.65,1.73-4.86,1.73s-5.13-.77-5.13-1.73,2.92-1.74,5.13-1.74S131.91,178.45,131.91,179.41Z"/><path class="cls-2" d="M128.72,176.16s-4-2.54-2.3-6.08c3.79-7.86,24.64-3.79,24.64-3.79S141.28,182,136.16,182C131.55,182,128,181.17,128.72,176.16Z"/><path class="cls-3" d="M128.72,176.16c7.05-8.4,22.34-9.87,22.34-9.87"/><path class="cls-29" d="M126.92,180.34s-.71-9.23,2.82-13.83"/><path class="cls-7" d="M143.91,184.46l4.86-1.6s7,7.11,4.27,15.44C153,198.3,151.88,187.67,143.91,184.46Z"/></g></g></svg>