<svg xmlns="http://www.w3.org/2000/svg" xmlns:xlink="http://www.w3.org/1999/xlink" viewBox="0 0 132.19 246.49"><defs><style>.cls-1{fill:#9d9d9c;opacity:0.2;}.cls-2,.cls-8{fill:#f2deba;stroke:#f0d9b1;stroke-width:4px;}.cls-2,.cls-5,.cls-8{stroke-miterlimit:10;}.cls-3{fill:#d3d3d3;opacity:0.39;}.cls-4{fill:url(#Unbenannter_Verlauf_30);}.cls-5{fill:none;stroke-width:3px;opacity:0.6;stroke:url(#Unbenannter_Verlauf_74);}.cls-6{opacity:0.33;fill:url(#Unbenannter_Verlauf_78);}.cls-7{fill:url(#Unbenannter_Verlauf_28);}.cls-8{opacity:0.22;}.cls-9{fill:#ece0cc;}</style><linearGradient id="Unbenannter_Verlauf_30" x1="23.61" y1="112.24" x2="106.36" y2="112.24" gradientUnits="userSpaceOnUse"><stop offset="0" stop-color="#c19a1b"/><stop offset="0.11" stop-color="#c2a122"/><stop offset="0.27" stop-color="#c4b435"/><stop offset="0.3" stop-color="#c5b839"/><stop offset="1" stop-color="#c19a1b"/></linearGradient><linearGradient id="Unbenannter_Verlauf_74" x1="33.05" y1="160.29" x2="98.02" y2="160.29" gradientUnits="userSpaceOnUse"><stop offset="0" stop-color="#eed5a8"/><stop offset="0.11" stop-color="#eed7af"/><stop offset="0.26" stop-color="#eedec1"/><stop offset="0.44" stop-color="#ede8e0"/><stop offset="0.51" stop-color="#ededed"/><stop offset="0.62" stop-color="#edebe6"/><stop offset="0.77" stop-color="#ede4d3"/><stop offset="0.94" stop-color="#eed9b4"/><stop offset="1" stop-color="#eed5a8"/></linearGradient><linearGradient id="Unbenannter_Verlauf_78" x1="66.38" y1="180.55" x2="66.82" y2="198.69" gradientUnits="userSpaceOnUse"><stop offset="0" stop-color="#ededed"/><stop offset="0.58" stop-color="#eee0c7"/><stop offset="1" stop-color="#eed5a8"/></linearGradient><radialGradient id="Unbenannter_Verlauf_28" cx="60.42" cy="65.22" r="56.05" gradientUnits="userSpaceOnUse"><stop offset="0" stop-color="#c19a1b"/><stop offset="0.19" stop-color="#c2a122"/><stop offset="0.46" stop-color="#c4b435"/><stop offset="0.51" stop-color="#c5b839"/><stop offset="1" stop-color="#c19a1b"/></radialGradient></defs><g id="Ebene_2" data-name="Ebene 2"><g id="Ebene_1-2" data-name="Ebene 1"><path class="cls-1" d="M0,236.87c0,6.36,16.13,9.62,57.43,9.62s74.76-5.16,74.76-11.52-26.28-6.47-67.57-6.47S0,230.51,0,236.87Z"/><path class="cls-2" d="M108.64,45.58s.79,77.93-12.12,110.92c0,0-2.39,5.76-5.37,6,0,0-26.82,18.87-9.33,53.44,0,0,5.36,5.37,12.51,6.56,0,0,15.9,2.19,15.5,7,0,0,5.56,6.75-37.95,10.13,0,0-39.94,1.39-48.68-7.15,0,0-4.57-5.37,8.55-8.15,0,0,14.3-3.38,19.67-8.15,0,0,18.67-27.61-10.93-53,0,0-3.58-.79-5.37-6.36,0,0-15.13-41.59-13.16-110.16"/><path class="cls-2" d="M21.47,47.64c.05,2.31,71.14,5,85.27.09C117.32,44,79.27,43.56,65.3,43.51,49.46,43.46,21.4,44.55,21.47,47.64Z"/><path class="cls-3" d="M54.37,58.35s-7.61-9-1.06-17.5,5.2-6.05,6.54-8.49c2.6-4.74-4.2-14.27-9.55-18-4.18-2.94,8.76,0,14.9,14a4.72,4.72,0,0,1-1.1,5.27C59.08,38,53.31,40.32,54.37,58.35Z"/><path class="cls-4" d="M23.61,65.16s51.12,10.58,82.75-1.48c0,0-.8,71.14-11.54,93.58,0,0-22.87,7.84-57.68.21C37.14,157.47,26.6,128.68,23.61,65.16Z"/><path class="cls-5" d="M35.12,156.69s18.27,9.48,61.4-.19c0,0,0,2.84-4,5.48,0,0-27,7.23-54.52-.14C38,161.84,36,161.29,35.12,156.69Z"/><path class="cls-6" d="M69.39,211.87l-4.58.3a7.2,7.2,0,0,1-7-7.49L58.09,186c0-4.07-.21-7.76,5-7.28l6.27-.15c6.12-.79,6.5,3.48,6.3,7.57l-1.35,18.43C74.42,209,73.46,211.87,69.39,211.87Z"/><path class="cls-7" d="M106.38,63.64c0,1-17.25,6.18-40.14,6.18s-42.55-4-42.55-4.95S42.06,62.39,65,62.39,106.38,62.7,106.38,63.64Z"/><path class="cls-8" d="M30.76,52.19s.91,1.06,8.2.46c0,0-10.63,60,9.41,106.44,0,0-1.77.1-8.14-1.43C40.23,157.66,25.29,105,30.76,52.19Z"/><path class="cls-9" d="M53,215.49s1.41-1.9,1.41-2.61c0,0,10.62,10.53,24.92.67,0,0,.84,1.58.94,1.94,0,.14.15.32.1.45-.61,1.82-2.63,3.82-14.56,3.33C52.64,218.72,53.1,217.14,53,215.49Z"/><path class="cls-9" d="M54.8,212.46a10.76,10.76,0,0,0,.75-2.1s7.38,7.8,22.38.6l.37,1S68.68,220.86,54.8,212.46Z"/><path class="cls-9" d="M85.24,234.14c0,1.13-7.29,2.64-15.77,2.64s-18.15-1.51-18.15-2.64,9-.18,17.49-.18S85.24,233,85.24,234.14Z"/><path class="cls-9" d="M50,218.88s1.49-.52,1.49-1.12c0,0,13.34,8.17,30.57-.19a5.38,5.38,0,0,1,1,1.05c0,.12.82.54.71.6-1.87,1.05-3.92,3.46-18,3.19C50,222.12,50.36,219,50,218.88Z"/><path class="cls-3" d="M77.45,57.36s-7.6-9-1.06-17.51,5.2-6.05,6.54-8.48c2.61-4.74-4.19-14.27-9.54-18-4.18-2.94,8.76.05,14.9,14a4.71,4.71,0,0,1-1.11,5.27C82.17,37,76.39,39.32,77.45,57.36Z"/><path class="cls-3" d="M64,56.29c-1.78,6.18-2.32-14.17,5.81-25.09,0,0,4.64-6-2.56-12.31,0,0-7-4.18-5.11-8.13,0,0,3.09-6.71.47-10.22-1-1.33,3.71-.46,4,5.35,0,0-1.33,5.48.23,7.2,3.36,3.7,11.45,10.49,7.43,18.58C71.29,37.64,68.91,39.33,64,56.29Z"/></g></g></svg>