<svg width="624" height="910" viewBox="0 0 624 910" fill="none" xmlns="http://www.w3.org/2000/svg">
<path opacity="0.2" d="M0.115967 878.417C0.115967 899.188 52.737 909.835 187.47 909.835C322.204 909.835 431.36 892.983 431.36 872.212C431.36 851.442 345.627 851.083 210.926 851.083C76.2256 851.083 0.115967 857.647 0.115967 878.417Z" fill="#9D9D9C"/>
<path d="M354.533 253.701C354.533 253.701 357.11 508.205 314.994 615.944C314.994 615.944 307.197 634.755 297.475 635.539C297.475 635.539 209.98 697.165 267.038 810.064C267.038 810.064 284.524 827.602 307.849 831.488C307.849 831.488 359.72 838.64 358.415 854.348C358.415 854.348 376.554 876.393 234.611 887.431C234.611 887.431 104.314 891.971 75.8016 864.081C75.8016 864.081 60.8928 846.543 103.694 837.464C103.694 837.464 150.345 826.426 167.864 810.848C167.864 810.848 228.771 720.679 132.207 637.76C132.207 637.76 120.528 635.18 114.688 616.989C114.688 616.989 65.3296 481.164 71.7563 257.228" fill="#F2DEBA"/>
<path d="M354.533 253.701C354.533 253.701 357.11 508.205 314.994 615.944C314.994 615.944 307.197 634.755 297.475 635.539C297.475 635.539 209.98 697.165 267.038 810.064C267.038 810.064 284.524 827.601 307.849 831.488C307.849 831.488 359.72 838.64 358.415 854.348C358.415 854.348 376.554 876.393 234.611 887.431C234.611 887.431 104.314 891.971 75.8016 864.081C75.8016 864.081 60.8928 846.543 103.694 837.464C103.694 837.464 150.345 826.426 167.864 810.848C167.864 810.848 228.771 720.679 132.207 637.76C132.207 637.76 120.528 635.18 114.688 616.989C114.688 616.989 65.3296 481.164 71.7563 257.228" stroke="#F0D9B1" stroke-width="4" stroke-miterlimit="10"/>
<path d="M70.1577 260.428C70.3208 267.972 302.238 276.757 348.335 260.722C382.85 248.54 258.719 247.103 213.145 246.94C161.47 246.777 69.9293 250.336 70.1577 260.428Z" fill="#F2DEBA" stroke="#F0D9B1" stroke-width="4" stroke-miterlimit="10"/>
<path opacity="0.39" d="M177.488 295.405C177.488 295.405 152.661 266.013 174.03 238.254C195.398 210.494 190.994 218.495 195.365 210.527C203.847 195.047 181.663 163.924 164.21 151.742C150.574 142.141 192.788 151.742 212.818 197.464C214.044 200.357 214.357 203.555 213.716 206.631C213.074 209.708 211.509 212.514 209.23 214.674C192.853 228.946 174.03 236.523 177.488 295.405Z" fill="#D3D3D3"/>
<path d="M77.139 317.645C77.139 317.645 243.908 352.198 347.095 312.812C347.095 312.812 344.485 545.142 309.448 618.426C309.448 618.426 234.839 644.03 121.278 619.112C121.278 619.112 86.8933 525.09 77.139 317.645Z" fill="url(#paint0_linear)"/>
<path opacity="0.6" d="M114.688 616.564C114.688 616.564 174.291 647.524 314.994 615.944C314.994 615.944 314.994 625.219 301.945 633.84C301.945 633.84 213.862 657.452 124.084 633.383C124.084 633.383 117.559 631.587 114.688 616.564Z" stroke="url(#paint1_linear)" stroke-width="3" stroke-miterlimit="10"/>
<path opacity="0.33" d="M226.487 796.772L211.546 797.752C208.436 797.668 205.373 796.966 202.535 795.687C199.698 794.408 197.143 792.578 195.018 790.302C192.894 788.026 191.242 785.35 190.159 782.43C189.076 779.51 188.583 776.403 188.71 773.291L189.623 712.286C189.623 698.994 188.938 686.943 205.935 688.511L226.39 688.021C246.355 685.441 247.595 699.386 246.942 712.743L242.538 772.932C242.897 787.399 239.765 796.772 226.487 796.772Z" fill="url(#paint2_linear)"/>
<path d="M347.16 312.681C347.16 315.947 290.885 332.864 216.211 332.864C141.537 332.864 77.4 319.8 77.4 316.698C77.4 313.595 137.329 308.599 212.166 308.599C287.003 308.599 347.16 309.611 347.16 312.681Z" fill="url(#paint3_radial)"/>
<path opacity="0.22" d="M100.465 275.287C100.465 275.287 103.433 278.749 127.215 276.789C127.215 276.789 92.537 472.738 157.914 624.402C157.914 624.402 152.139 624.729 131.359 619.732C131.359 619.732 82.6196 447.755 100.465 275.287Z" fill="#F2DEBA" stroke="#F0D9B1" stroke-width="4" stroke-miterlimit="10"/>
<path d="M173.018 808.595C173.018 808.595 177.618 802.39 177.618 800.071C177.618 800.071 212.264 834.46 258.915 802.259C258.915 802.259 261.655 807.419 261.981 808.595C261.981 809.052 262.471 809.64 262.308 810.065C260.318 816.008 253.728 822.54 214.808 820.94C171.844 819.144 173.345 813.984 173.018 808.595Z" fill="#ECE0CC"/>
<path d="M178.89 798.7C179.941 796.504 180.761 794.206 181.337 791.841C181.337 791.841 205.413 817.315 254.348 793.801L255.555 797.067C255.555 797.067 224.171 826.132 178.89 798.7Z" fill="#ECE0CC"/>
<path d="M278.195 869.501C278.195 873.192 254.413 878.123 226.748 878.123C199.084 878.123 167.538 873.192 167.538 869.501C167.538 865.811 196.898 868.914 224.595 868.914C252.292 868.914 278.195 865.778 278.195 869.501Z" fill="#ECE0CC"/>
<path d="M163.231 819.666C163.231 819.666 168.092 817.968 168.092 816.008C168.092 816.008 211.611 842.69 267.821 815.388C269.058 816.378 270.155 817.532 271.083 818.817C271.083 819.209 273.758 820.58 273.399 820.776C267.299 824.205 260.611 832.076 214.678 831.194C163.231 830.247 164.406 820.058 163.231 819.666Z" fill="#ECE0CC"/>
<path opacity="0.39" d="M252.782 292.172C252.782 292.172 227.988 262.78 249.324 234.988C270.659 207.196 266.288 215.23 270.659 207.294C279.174 191.814 256.99 160.691 239.537 148.509C225.9 138.908 268.114 148.673 288.145 194.231C289.371 197.126 289.682 200.328 289.034 203.405C288.387 206.483 286.813 209.287 284.524 211.442C268.18 225.681 249.324 233.257 252.782 292.172Z" fill="#D3D3D3"/>
<path opacity="0.39" d="M208.904 288.677C203.097 308.86 201.335 242.401 227.858 206.738C227.858 206.738 242.995 187.143 219.506 166.536C219.506 166.536 196.67 152.885 202.836 139.985C202.836 139.985 212.916 118.072 204.369 106.609C201.107 102.265 216.472 105.106 217.418 124.081C217.418 124.081 213.079 141.977 218.169 147.594C229.13 159.678 255.522 181.853 242.408 208.273C232.686 227.77 224.922 233.289 208.904 288.677Z" fill="#D3D3D3"/>
<path d="M257.821 0.984262H268.517V15.9238C268.816 15.1107 269.208 14.2978 269.693 13.4847C270.178 12.6716 270.645 11.9196 271.093 11.2285L276.637 0.984262H288.229L278.373 17.3263L287.837 37.0221H275.909L270.757 24.4607L268.517 25.6193V37.0221H257.821V0.984262ZM287.82 37.0221L298.684 0.862305H312.404L323.268 37.0221H312.012L310.5 31.0463H300.588L299.132 37.0221H287.82ZM307.084 15.7409C306.711 14.3588 306.394 13.1595 306.132 12.1432C305.908 11.1269 305.703 10.0293 305.516 8.8504C305.367 9.98865 305.18 11.0862 304.956 12.1432C304.732 13.1595 304.434 14.379 304.06 15.8019L302.548 21.7777H308.708L307.084 15.7409ZM326.618 0.984262H346.722V9.82604H337.09V15.314H345.882V24.1558H337.09V37.0221H326.618V0.984262ZM350.306 37.0221V30.5585L354.618 28.5462V9.3992L350.306 7.44791V0.984262H369.626V7.44791L365.314 9.3992V28.5462L369.626 30.5585V37.0221H350.306ZM120.543 60.8732V96.911H109.847V82.9471H101.447V96.911H90.7506V60.8732H101.447V73.6175H109.847V60.8732H120.543ZM156.626 82.1544C156.626 86.8293 155.394 90.549 152.93 93.3133C150.503 96.037 146.77 97.3988 141.73 97.3988C136.988 97.3988 133.367 96.1183 130.866 93.5572C128.364 90.9556 127.114 87.2765 127.114 82.5203V60.8732H137.81V81.4836C137.81 83.8414 138.127 85.5082 138.762 86.4838C139.434 87.4189 140.46 87.8863 141.842 87.8863C143.372 87.8863 144.436 87.3985 145.034 86.4228C145.668 85.4472 145.986 83.7804 145.986 81.4227V60.8732H156.626V82.1544ZM163.157 60.8732H183.429V69.7149H173.797V74.2883H182.645V83.0081H173.797V88.0692H183.429V96.911H163.157V60.8732ZM201.348 60.8732C206.015 60.8732 209.561 61.8082 211.988 63.6781C214.415 65.5075 215.628 68.2921 215.628 72.0321C215.628 74.2679 215.087 76.2802 214.004 78.0689C212.921 79.8169 211.316 81.0974 209.188 81.9105L218.54 96.911H206.948L200.676 84.9594H199.5V96.911H188.86V60.8732H201.348ZM200.9 76.4225C201.983 76.4225 202.916 76.1989 203.7 75.7517C204.521 75.2639 204.932 74.3696 204.932 73.0687C204.932 71.9305 204.652 71.0361 204.092 70.3857C203.532 69.7353 202.599 69.41 201.292 69.41H199.5V76.4225H200.9ZM221.563 60.8732H241.835V69.7149H232.203V74.2883H241.051V83.0081H232.203V88.0692H241.835V96.911H221.563V60.8732ZM280.922 60.8732V96.911H266.81L256.394 73.1297H256.17C256.208 73.3736 256.264 74.0037 256.338 75.02C256.413 76.0363 256.488 77.2152 256.562 78.5567C256.637 79.8982 256.674 81.1584 256.674 82.3373V96.911H247.266V60.8732H261.322L271.738 84.2276H271.85C271.813 84.0243 271.757 83.4349 271.682 82.4593C271.645 81.443 271.608 80.3047 271.57 79.0445C271.533 77.7436 271.514 76.5648 271.514 75.5078V60.8732H280.922ZM284.266 96.911L295.13 60.7512H308.85L319.714 96.911H308.458L306.946 90.9352H297.034L295.578 96.911H284.266ZM303.53 75.6298C303.156 74.2477 302.839 73.0484 302.578 72.0321C302.354 71.0158 302.148 69.9182 301.962 68.7393C301.812 69.8775 301.626 70.9751 301.402 72.0321C301.178 73.0484 300.879 74.2679 300.506 75.6908L298.994 81.6666H305.154L303.53 75.6298ZM323.063 60.8732H343.167V69.7149H333.535V75.2029H342.327V84.0447H333.535V96.911H323.063V60.8732ZM348.712 60.8732H368.816V69.7149H359.184V75.2029H367.976V84.0447H359.184V96.911H348.712V60.8732Z" fill="#C19A1B"/>
<path d="M452.112 186.632C452.112 189.395 451.085 191.635 449.032 193.352C446.979 195.069 444.123 195.928 440.464 195.928C438.411 195.928 436.637 195.797 435.144 195.536C433.651 195.275 432.269 194.883 431 194.36V189.88C433.875 191.224 437.029 191.896 440.464 191.896C442.443 191.896 444.048 191.485 445.28 190.664C446.512 189.805 447.128 188.592 447.128 187.024C447.128 185.419 446.493 184.224 445.224 183.44C443.992 182.619 442.163 181.779 439.736 180.92C437.048 179.949 434.976 178.811 433.52 177.504C432.064 176.197 431.336 174.256 431.336 171.68C431.336 169.813 431.821 168.245 432.792 166.976C433.763 165.669 435.069 164.68 436.712 164.008C438.392 163.336 440.277 163 442.368 163C444.123 163 445.765 163.187 447.296 163.56C448.864 163.933 450.301 164.4 451.608 164.96L450.04 168.824C448.696 168.227 447.352 167.779 446.008 167.48C444.701 167.144 443.451 166.976 442.256 166.976C440.427 166.976 438.952 167.368 437.832 168.152C436.749 168.936 436.208 170.056 436.208 171.512C436.208 172.595 436.488 173.472 437.048 174.144C437.608 174.816 438.429 175.395 439.512 175.88C440.632 176.365 441.957 176.907 443.488 177.504C445.168 178.139 446.661 178.829 447.968 179.576C449.275 180.323 450.283 181.256 450.992 182.376C451.739 183.459 452.112 184.877 452.112 186.632ZM478.607 163.448V167.648H469.087V195.48H464.215V167.648H454.695V163.448H478.607ZM477.759 195.48L489.855 163.336H495.399L507.327 195.48H501.951L498.759 186.352H486.495L483.135 195.48H477.759ZM494.223 173.304C493.961 172.52 493.663 171.68 493.327 170.784C493.028 169.888 492.785 168.992 492.599 168.096C492.375 168.992 492.113 169.869 491.815 170.728C491.553 171.587 491.273 172.464 490.975 173.36L487.839 182.264H497.303L494.223 173.304ZM520.393 163.448C528.643 163.448 532.769 166.491 532.769 172.576C532.769 174.629 532.265 176.403 531.257 177.896C530.249 179.389 528.643 180.509 526.441 181.256L535.345 195.48H529.801L522.129 182.488H516.361V195.48H511.489V163.448H520.393ZM520.785 178.568C522.987 178.568 524.705 178.12 525.937 177.224C527.169 176.328 527.785 174.909 527.785 172.968C527.785 170.915 527.15 169.477 525.881 168.656C524.611 167.797 522.763 167.368 520.337 167.368H516.361V178.568H520.785ZM540.035 163.448H544.963V179.016C545.449 178.381 545.971 177.747 546.531 177.112C547.091 176.477 547.633 175.861 548.155 175.264L558.515 163.448H564.115L552.075 177.336L564.227 195.48H558.571L548.547 180.472L544.963 183.328V195.48H540.035V163.448ZM568.364 163.448H586.732V167.424H573.236V176.888H585.892V180.808H573.236V191.504H586.732V195.48H568.364V163.448ZM619.954 163.448V195.48H613.962L597.722 169.496H597.498C597.573 170.504 597.648 171.773 597.722 173.304C597.797 174.797 597.834 176.141 597.834 177.336V195.48H593.41V163.448H599.402L615.586 189.32H615.754C615.68 188.536 615.624 187.416 615.586 185.96C615.549 184.504 615.53 183.123 615.53 181.816V163.448H619.954ZM473.262 218.448H478.19V234.016C478.675 233.381 479.198 232.747 479.758 232.112C480.318 231.477 480.859 230.861 481.382 230.264L491.742 218.448H497.342L485.302 232.336L497.454 250.48H491.798L481.774 235.472L478.19 238.328V250.48H473.262V218.448ZM497.446 250.48L509.542 218.336H515.086L527.014 250.48H521.638L518.446 241.352H506.182L502.822 250.48H497.446ZM513.91 228.304C513.649 227.52 513.35 226.68 513.014 225.784C512.716 224.888 512.473 223.992 512.286 223.096C512.062 223.992 511.801 224.869 511.502 225.728C511.241 226.587 510.961 227.464 510.662 228.36L507.526 237.264H516.99L513.91 228.304ZM531.176 218.448H549.488V222.424H536.048V233.176H548.648V237.152H536.048V250.48H531.176V218.448ZM554.692 218.448H573.004V222.424H559.564V233.176H572.164V237.152H559.564V250.48H554.692V218.448ZM578.207 218.448H596.575V222.424H583.079V231.888H595.735V235.808H583.079V246.504H596.575V250.48H578.207V218.448ZM603.254 218.448H621.622V222.424H608.126V231.888H620.782V235.808H608.126V246.504H621.622V250.48H603.254V218.448ZM578.54 273.448V305.48H573.948V285.376C573.948 284.629 573.948 283.808 573.948 282.912C573.986 281.979 574.023 281.12 574.06 280.336C574.098 279.552 574.135 278.973 574.172 278.6H574.004L564.148 305.48H559.892L550.036 278.544H549.868C549.868 278.917 549.887 279.515 549.924 280.336C549.962 281.12 549.999 281.979 550.036 282.912C550.074 283.845 550.092 284.741 550.092 285.6V305.48H545.668V273.448H552.444L562.076 299.432H562.188L571.764 273.448H578.54ZM584.831 305.48V302.68L588.471 301.784V277.2L584.831 276.36V273.448H597.039V276.36L593.399 277.2V301.784L597.039 302.68V305.48H584.831ZM623.583 273.448V277.648H614.063V305.48H609.191V277.648H599.671V273.448H623.583ZM475.845 360.48L487.941 328.336H493.485L505.413 360.48H500.037L496.845 351.352H484.581L481.221 360.48H475.845ZM492.309 338.304C492.047 337.52 491.749 336.68 491.413 335.784C491.114 334.888 490.871 333.992 490.685 333.096C490.461 333.992 490.199 334.869 489.901 335.728C489.639 336.587 489.359 337.464 489.061 338.36L485.925 347.264H495.389L492.309 338.304ZM518.815 328.448C522.809 328.448 525.796 329.269 527.775 330.912C529.753 332.555 530.742 334.944 530.742 338.08C530.742 341.253 529.697 343.755 527.607 345.584C525.516 347.413 522.455 348.328 518.423 348.328H514.447V360.48H509.575V328.448H518.815ZM517.919 344.352C520.345 344.352 522.249 343.923 523.631 343.064C525.049 342.205 525.759 340.637 525.759 338.36C525.759 336.381 525.18 334.907 524.023 333.936C522.865 332.928 521.073 332.424 518.647 332.424H514.447V344.352H517.919ZM537.082 328.448H555.394V332.424H541.954V343.176H554.554V347.152H541.954V360.48H537.082V328.448ZM560.598 328.448H578.966V332.424H565.47V341.888H578.126V345.808H565.47V356.504H578.966V360.48H560.598V328.448ZM590.517 328.448V356.392H604.797V360.48H585.645V328.448H590.517ZM608.35 347.656V343.288H621.902V347.656H608.35ZM535.291 399.408C535.291 402.693 534.749 405.587 533.667 408.088C532.584 410.552 530.941 412.475 528.739 413.856C526.536 415.237 523.736 415.928 520.339 415.928C516.979 415.928 514.179 415.237 511.939 413.856C509.699 412.475 508.019 410.533 506.899 408.032C505.816 405.531 505.275 402.637 505.275 399.352C505.275 396.104 505.816 393.248 506.899 390.784C508.019 388.32 509.699 386.397 511.939 385.016C514.179 383.635 516.979 382.944 520.339 382.944C523.736 382.944 526.536 383.635 528.739 385.016C530.941 386.397 532.584 388.339 533.667 390.84C534.749 393.304 535.291 396.16 535.291 399.408ZM510.427 399.408C510.427 403.141 511.211 406.128 512.779 408.368C514.384 410.608 516.886 411.728 520.283 411.728C523.718 411.728 526.219 410.608 527.787 408.368C529.355 406.128 530.139 403.141 530.139 399.408C530.139 395.525 529.318 392.52 527.675 390.392C526.032 388.227 523.568 387.144 520.283 387.144C516.886 387.144 514.384 388.264 512.779 390.504C511.211 392.707 510.427 395.675 510.427 399.408ZM567.93 399.072C567.93 404.485 566.455 408.573 563.506 411.336C560.556 414.099 556.394 415.48 551.018 415.48H542.114V383.448H551.858C557.084 383.448 561.06 384.792 563.786 387.48C566.548 390.131 567.93 393.995 567.93 399.072ZM562.834 399.24C562.834 395.357 561.882 392.445 559.978 390.504C558.074 388.525 555.292 387.536 551.634 387.536H546.986V411.392H551.018C558.895 411.392 562.834 407.341 562.834 399.24ZM574.707 383.448H593.075V387.424H579.579V396.888H592.235V400.808H579.579V411.504H593.075V415.48H574.707V383.448ZM608.658 383.448C616.909 383.448 621.034 386.491 621.034 392.576C621.034 394.629 620.53 396.403 619.522 397.896C618.514 399.389 616.909 400.509 614.706 401.256L623.61 415.48H618.066L610.394 402.488H604.626V415.48H599.754V383.448H608.658ZM609.05 398.568C611.253 398.568 612.97 398.12 614.202 397.224C615.434 396.328 616.05 394.909 616.05 392.968C616.05 390.915 615.415 389.477 614.146 388.656C612.877 387.797 611.029 387.368 608.602 387.368H604.626V398.568H609.05ZM443.962 438.448C448.255 438.448 451.373 439.139 453.314 440.52C455.255 441.901 456.226 443.917 456.226 446.568C456.226 448.509 455.666 450.077 454.546 451.272C453.426 452.467 451.951 453.232 450.122 453.568V453.736C452.213 454.109 453.855 454.875 455.05 456.032C456.282 457.152 456.898 458.888 456.898 461.24C456.898 464.301 455.815 466.616 453.65 468.184C451.522 469.715 448.685 470.48 445.138 470.48H434.106V438.448H443.962ZM444.41 452.112C446.837 452.112 448.573 451.701 449.618 450.88C450.663 450.021 451.186 448.771 451.186 447.128C451.186 443.917 448.778 442.312 443.962 442.312H438.978V452.112H444.41ZM444.914 466.616C449.581 466.616 451.914 464.731 451.914 460.96C451.914 459.317 451.317 458.029 450.122 457.096C448.927 456.163 447.061 455.696 444.522 455.696H438.978V466.616H444.914ZM461.456 470.48V467.68L465.096 466.784V442.2L461.456 441.36V438.448H473.664V441.36L470.024 442.2V466.784L473.664 467.68V470.48H461.456ZM488.729 438.448C496.979 438.448 501.105 441.491 501.105 447.576C501.105 449.629 500.601 451.403 499.593 452.896C498.585 454.389 496.979 455.509 494.777 456.256L503.681 470.48H498.137L490.465 457.488H484.697V470.48H479.825V438.448H488.729ZM489.121 453.568C491.323 453.568 493.041 453.12 494.273 452.224C495.505 451.328 496.121 449.909 496.121 447.968C496.121 445.915 495.486 444.477 494.217 443.656C492.947 442.797 491.099 442.368 488.673 442.368H484.697V453.568H489.121ZM534.915 438.448V470.48H528.923L512.683 444.496H512.459C512.534 445.504 512.609 446.773 512.683 448.304C512.758 449.797 512.795 451.141 512.795 452.336V470.48H508.371V438.448H514.363L530.547 464.32H530.715C530.641 463.536 530.585 462.416 530.547 460.96C530.51 459.504 530.491 458.123 530.491 456.816V438.448H534.915ZM543.262 438.448H561.63V442.424H548.134V451.888H560.79V455.808H548.134V466.504H561.63V470.48H543.262V438.448ZM594.853 438.448V470.48H588.861L572.621 444.496H572.397C572.471 445.504 572.546 446.773 572.621 448.304C572.695 449.797 572.733 451.141 572.733 452.336V470.48H568.309V438.448H574.301L590.485 464.32H590.653C590.578 463.536 590.522 462.416 590.485 460.96C590.447 459.504 590.429 458.123 590.429 456.816V438.448H594.853ZM623.583 438.448V442.648H614.063V470.48H609.191V442.648H599.671V438.448H623.583ZM491.408 493.448C499.659 493.448 503.784 496.491 503.784 502.576C503.784 504.629 503.28 506.403 502.272 507.896C501.264 509.389 499.659 510.509 497.456 511.256L506.36 525.48H500.816L493.144 512.488H487.376V525.48H482.504V493.448H491.408ZM491.8 508.568C494.003 508.568 495.72 508.12 496.952 507.224C498.184 506.328 498.8 504.909 498.8 502.968C498.8 500.915 498.166 499.477 496.896 498.656C495.627 497.797 493.779 497.368 491.352 497.368H487.376V508.568H491.8ZM506.907 525.48L519.003 493.336H524.547L536.475 525.48H531.099L527.907 516.352H515.643L512.283 525.48H506.907ZM523.371 503.304C523.11 502.52 522.811 501.68 522.475 500.784C522.176 499.888 521.934 498.992 521.747 498.096C521.523 498.992 521.262 499.869 520.963 500.728C520.702 501.587 520.422 502.464 520.123 503.36L516.987 512.264H526.451L523.371 503.304ZM513.795 486.392C513.795 485.384 514.038 484.656 514.523 484.208C515.008 483.76 515.624 483.536 516.371 483.536C517.118 483.536 517.734 483.779 518.219 484.264C518.704 484.712 518.947 485.421 518.947 486.392C518.947 487.325 518.704 488.035 518.219 488.52C517.734 489.005 517.118 489.248 516.371 489.248C515.624 489.248 515.008 489.005 514.523 488.52C514.038 488.035 513.795 487.325 513.795 486.392ZM524.547 486.392C524.547 485.384 524.79 484.656 525.275 484.208C525.76 483.76 526.395 483.536 527.179 483.536C527.926 483.536 528.542 483.779 529.027 484.264C529.512 484.712 529.755 485.421 529.755 486.392C529.755 487.325 529.512 488.035 529.027 488.52C528.542 489.005 527.926 489.248 527.179 489.248C526.395 489.248 525.76 489.005 525.275 488.52C524.79 488.035 524.547 487.325 524.547 486.392ZM559.901 516.632C559.901 519.395 558.874 521.635 556.821 523.352C554.768 525.069 551.912 525.928 548.253 525.928C546.2 525.928 544.426 525.797 542.933 525.536C541.44 525.275 540.058 524.883 538.789 524.36V519.88C541.664 521.224 544.818 521.896 548.253 521.896C550.232 521.896 551.837 521.485 553.069 520.664C554.301 519.805 554.917 518.592 554.917 517.024C554.917 515.419 554.282 514.224 553.013 513.44C551.781 512.619 549.952 511.779 547.525 510.92C544.837 509.949 542.765 508.811 541.309 507.504C539.853 506.197 539.125 504.256 539.125 501.68C539.125 499.813 539.61 498.245 540.581 496.976C541.552 495.669 542.858 494.68 544.501 494.008C546.181 493.336 548.066 493 550.157 493C551.912 493 553.554 493.187 555.085 493.56C556.653 493.933 558.09 494.4 559.397 494.96L557.829 498.824C556.485 498.227 555.141 497.779 553.797 497.48C552.49 497.144 551.24 496.976 550.045 496.976C548.216 496.976 546.741 497.368 545.621 498.152C544.538 498.936 543.997 500.056 543.997 501.512C543.997 502.595 544.277 503.472 544.837 504.144C545.397 504.816 546.218 505.395 547.301 505.88C548.421 506.365 549.746 506.907 551.277 507.504C552.957 508.139 554.45 508.829 555.757 509.576C557.064 510.323 558.072 511.256 558.781 512.376C559.528 513.459 559.901 514.877 559.901 516.632ZM580.124 497.144C576.764 497.144 574.169 498.264 572.34 500.504C570.511 502.707 569.596 505.693 569.596 509.464C569.596 513.309 570.455 516.333 572.172 518.536C573.927 520.701 576.559 521.784 580.068 521.784C581.449 521.784 582.775 521.653 584.044 521.392C585.351 521.093 586.62 520.701 587.852 520.216V524.528C585.5 525.461 582.663 525.928 579.34 525.928C576.017 525.928 573.255 525.237 571.052 523.856C568.849 522.475 567.188 520.552 566.068 518.088C564.985 515.587 564.444 512.693 564.444 509.408C564.444 506.197 565.06 503.36 566.292 500.896C567.561 498.432 569.353 496.509 571.668 495.128C574.02 493.709 576.801 493 580.012 493C583.297 493 586.34 493.672 589.14 495.016L587.516 498.992C586.359 498.432 585.164 497.984 583.932 497.648C582.7 497.312 581.431 497.144 580.124 497.144ZM619.978 493.448V525.48H615.106V510.864H599.65V525.48H594.778V493.448H599.65V506.776H615.106V493.448H619.978Z" fill="black"/>
<defs>
<linearGradient id="paint0_linear" x1="77.139" y1="471.4" x2="347.095" y2="471.4" gradientUnits="userSpaceOnUse">
<stop stop-color="#C19A1B"/>
<stop offset="0.11" stop-color="#C2A122"/>
<stop offset="0.27" stop-color="#C4B435"/>
<stop offset="0.3" stop-color="#C5B839"/>
<stop offset="1" stop-color="#C19A1B"/>
</linearGradient>
<linearGradient id="paint1_linear" x1="107.935" y1="628.321" x2="319.887" y2="628.321" gradientUnits="userSpaceOnUse">
<stop stop-color="#EED5A8"/>
<stop offset="0.11" stop-color="#EED7AF"/>
<stop offset="0.26" stop-color="#EEDEC1"/>
<stop offset="0.44" stop-color="#EDE8E0"/>
<stop offset="0.51" stop-color="#EDEDED"/>
<stop offset="0.62" stop-color="#EDEBE6"/>
<stop offset="0.77" stop-color="#EDE4D3"/>
<stop offset="0.94" stop-color="#EED9B4"/>
<stop offset="1" stop-color="#EED5A8"/>
</linearGradient>
<linearGradient id="paint2_linear" x1="216.668" y1="694.487" x2="218.106" y2="753.729" gradientUnits="userSpaceOnUse">
<stop stop-color="#EDEDED"/>
<stop offset="0.58" stop-color="#EEE0C7"/>
<stop offset="1" stop-color="#EED5A8"/>
</linearGradient>
<radialGradient id="paint3_radial" cx="0" cy="0" r="1" gradientUnits="userSpaceOnUse" gradientTransform="translate(197.225 317.841) scale(182.852 183.049)">
<stop stop-color="#C19A1B"/>
<stop offset="0.19" stop-color="#C2A122"/>
<stop offset="0.46" stop-color="#C4B435"/>
<stop offset="0.51" stop-color="#C5B839"/>
<stop offset="1" stop-color="#C19A1B"/>
</radialGradient>
</defs>
</svg>
